G04 EAGLE Gerber RS-274X export*
G75*
%MOMM*%
%FSLAX34Y34*%
%LPD*%
%INTop Copper*%
%IPPOS*%
%AMOC8*
5,1,8,0,0,1.08239X$1,22.5*%
G01*
%ADD10C,1.879600*%
%ADD11R,2.540000X2.540000*%
%ADD12P,2.749271X8X22.500000*%
%ADD13R,2.200000X0.600000*%
%ADD14R,2.600000X1.800000*%
%ADD15C,1.524000*%
%ADD16C,1.016000*%
%ADD17C,0.406400*%
%ADD18C,0.609600*%
%ADD19C,0.304800*%
%ADD20C,0.756400*%
%ADD21C,2.540000*%
%ADD22C,0.812800*%

G36*
X398856Y53597D02*
X398856Y53597D01*
X398932Y53595D01*
X399101Y53617D01*
X399272Y53631D01*
X399346Y53649D01*
X399421Y53659D01*
X399585Y53708D01*
X399751Y53749D01*
X399820Y53779D01*
X399894Y53801D01*
X400047Y53877D01*
X400204Y53944D01*
X400268Y53985D01*
X400337Y54018D01*
X400476Y54117D01*
X400620Y54209D01*
X400677Y54260D01*
X400739Y54304D01*
X400860Y54424D01*
X400988Y54538D01*
X401036Y54597D01*
X401090Y54651D01*
X401191Y54789D01*
X401298Y54922D01*
X401335Y54988D01*
X401380Y55049D01*
X401457Y55202D01*
X401542Y55350D01*
X401568Y55422D01*
X401603Y55490D01*
X401654Y55653D01*
X401713Y55813D01*
X401728Y55888D01*
X401751Y55960D01*
X401763Y56065D01*
X401808Y56297D01*
X401815Y56533D01*
X401827Y56638D01*
X401827Y66070D01*
X401818Y66184D01*
X401819Y66298D01*
X401798Y66429D01*
X401787Y66562D01*
X401760Y66672D01*
X401742Y66785D01*
X401701Y66912D01*
X401669Y67040D01*
X401624Y67145D01*
X401588Y67254D01*
X401526Y67372D01*
X401474Y67494D01*
X401413Y67590D01*
X401360Y67691D01*
X401301Y67765D01*
X401209Y67910D01*
X400993Y68152D01*
X400935Y68225D01*
X394075Y75084D01*
X392683Y78445D01*
X392683Y93822D01*
X392680Y93860D01*
X392682Y93898D01*
X392660Y94106D01*
X392643Y94314D01*
X392634Y94351D01*
X392630Y94389D01*
X392575Y94590D01*
X392525Y94792D01*
X392510Y94827D01*
X392499Y94864D01*
X392412Y95054D01*
X392330Y95246D01*
X392310Y95278D01*
X392294Y95313D01*
X392177Y95486D01*
X392065Y95662D01*
X392040Y95690D01*
X392018Y95722D01*
X391875Y95874D01*
X391736Y96030D01*
X391707Y96054D01*
X391681Y96082D01*
X391514Y96209D01*
X391352Y96340D01*
X391320Y96359D01*
X391289Y96382D01*
X391105Y96481D01*
X390924Y96584D01*
X390888Y96597D01*
X390854Y96615D01*
X390657Y96683D01*
X390461Y96755D01*
X390424Y96763D01*
X390388Y96775D01*
X390181Y96810D01*
X389977Y96850D01*
X389939Y96851D01*
X389901Y96858D01*
X389692Y96859D01*
X389484Y96865D01*
X389446Y96860D01*
X389408Y96861D01*
X389201Y96828D01*
X388995Y96801D01*
X388958Y96790D01*
X388921Y96784D01*
X388722Y96719D01*
X388523Y96658D01*
X388488Y96642D01*
X388452Y96630D01*
X388267Y96533D01*
X388079Y96442D01*
X388048Y96420D01*
X388014Y96402D01*
X387942Y96344D01*
X387677Y96156D01*
X387555Y96035D01*
X387481Y95977D01*
X384281Y92777D01*
X377373Y89915D01*
X369895Y89915D01*
X362986Y92777D01*
X344505Y111258D01*
X338789Y116974D01*
X335927Y123883D01*
X335927Y290350D01*
X335949Y290463D01*
X335995Y290667D01*
X335997Y290706D01*
X336004Y290743D01*
X336011Y290951D01*
X336022Y291160D01*
X336018Y291198D01*
X336019Y291236D01*
X335992Y291443D01*
X335970Y291650D01*
X335960Y291687D01*
X335955Y291725D01*
X335895Y291925D01*
X335840Y292126D01*
X335824Y292161D01*
X335813Y292198D01*
X335721Y292385D01*
X335634Y292574D01*
X335613Y292606D01*
X335596Y292641D01*
X335475Y292811D01*
X335359Y292984D01*
X335332Y293012D01*
X335310Y293043D01*
X335164Y293191D01*
X335021Y293343D01*
X334990Y293367D01*
X334963Y293394D01*
X334795Y293517D01*
X334629Y293644D01*
X334596Y293662D01*
X334565Y293684D01*
X334378Y293778D01*
X334195Y293877D01*
X334159Y293889D01*
X334124Y293907D01*
X333925Y293969D01*
X333728Y294037D01*
X333690Y294043D01*
X333654Y294055D01*
X333561Y294065D01*
X333242Y294120D01*
X333070Y294121D01*
X332976Y294131D01*
X326472Y294131D01*
X326434Y294128D01*
X326395Y294130D01*
X326188Y294108D01*
X325980Y294091D01*
X325943Y294082D01*
X325905Y294078D01*
X325704Y294023D01*
X325501Y293973D01*
X325466Y293957D01*
X325429Y293947D01*
X325240Y293860D01*
X325048Y293778D01*
X325016Y293758D01*
X324981Y293741D01*
X324807Y293625D01*
X324632Y293513D01*
X324604Y293488D01*
X324572Y293466D01*
X324419Y293323D01*
X324264Y293184D01*
X324240Y293154D01*
X324212Y293128D01*
X324085Y292963D01*
X323954Y292800D01*
X323935Y292767D01*
X323912Y292737D01*
X323813Y292553D01*
X323710Y292372D01*
X323697Y292336D01*
X323679Y292302D01*
X323611Y292105D01*
X323539Y291909D01*
X323531Y291872D01*
X323519Y291835D01*
X323484Y291629D01*
X323444Y291425D01*
X323443Y291387D01*
X323436Y291349D01*
X323435Y291140D01*
X323429Y290932D01*
X323434Y290894D01*
X323433Y290856D01*
X323466Y290650D01*
X323493Y290443D01*
X323504Y290406D01*
X323510Y290368D01*
X323521Y290336D01*
X323521Y225257D01*
X323530Y225143D01*
X323529Y225029D01*
X323550Y224898D01*
X323561Y224765D01*
X323588Y224654D01*
X323606Y224542D01*
X323647Y224415D01*
X323679Y224286D01*
X323724Y224182D01*
X323760Y224073D01*
X323822Y223955D01*
X323874Y223833D01*
X323935Y223737D01*
X323988Y223635D01*
X324047Y223562D01*
X324139Y223417D01*
X324355Y223175D01*
X324413Y223102D01*
X325860Y221656D01*
X327407Y217921D01*
X327407Y213879D01*
X325860Y210144D01*
X323002Y207286D01*
X319267Y205739D01*
X319234Y205739D01*
X319016Y205722D01*
X318799Y205708D01*
X318771Y205702D01*
X318743Y205699D01*
X318530Y205647D01*
X318318Y205598D01*
X318292Y205587D01*
X318264Y205581D01*
X318063Y205494D01*
X317861Y205412D01*
X317837Y205397D01*
X317811Y205386D01*
X317626Y205269D01*
X317440Y205155D01*
X317418Y205136D01*
X317394Y205121D01*
X317232Y204976D01*
X317066Y204833D01*
X317048Y204811D01*
X317027Y204792D01*
X316890Y204623D01*
X316749Y204455D01*
X316738Y204434D01*
X316717Y204408D01*
X316473Y203980D01*
X316445Y203904D01*
X316419Y203858D01*
X315446Y201508D01*
X312588Y198650D01*
X308853Y197103D01*
X302525Y197103D01*
X298790Y198650D01*
X295504Y201937D01*
X294363Y203077D01*
X294355Y203084D01*
X294348Y203092D01*
X294218Y203201D01*
X288611Y208808D01*
X285749Y215717D01*
X285749Y223230D01*
X285774Y223308D01*
X285847Y223534D01*
X285848Y223544D01*
X285851Y223553D01*
X285855Y223593D01*
X285920Y224022D01*
X285918Y224153D01*
X285927Y224231D01*
X285927Y227350D01*
X285913Y227530D01*
X285906Y227710D01*
X285893Y227775D01*
X285887Y227841D01*
X285844Y228017D01*
X285808Y228194D01*
X285785Y228256D01*
X285769Y228320D01*
X285697Y228486D01*
X285634Y228655D01*
X285600Y228713D01*
X285574Y228774D01*
X285477Y228926D01*
X285387Y229082D01*
X285345Y229134D01*
X285309Y229190D01*
X285189Y229324D01*
X285074Y229464D01*
X285025Y229508D01*
X284980Y229558D01*
X284840Y229671D01*
X284705Y229790D01*
X284648Y229826D01*
X284596Y229868D01*
X284440Y229957D01*
X284287Y230053D01*
X284225Y230079D01*
X284168Y230112D01*
X283998Y230174D01*
X283832Y230244D01*
X283768Y230260D01*
X283705Y230283D01*
X283528Y230318D01*
X283353Y230360D01*
X283286Y230365D01*
X283221Y230378D01*
X283041Y230383D01*
X282861Y230397D01*
X282794Y230391D01*
X282728Y230393D01*
X282549Y230370D01*
X282369Y230354D01*
X282319Y230339D01*
X282239Y230329D01*
X281767Y230186D01*
X281736Y230172D01*
X281714Y230165D01*
X279841Y229389D01*
X275911Y229389D01*
X272280Y230893D01*
X269501Y233672D01*
X268999Y234884D01*
X268995Y234893D01*
X268992Y234902D01*
X268883Y235111D01*
X268774Y235323D01*
X268768Y235331D01*
X268764Y235340D01*
X268739Y235371D01*
X268481Y235720D01*
X268387Y235812D01*
X268339Y235873D01*
X246971Y257240D01*
X245579Y260601D01*
X245579Y263240D01*
X245570Y263354D01*
X245571Y263468D01*
X245550Y263599D01*
X245539Y263732D01*
X245512Y263842D01*
X245494Y263955D01*
X245453Y264082D01*
X245421Y264210D01*
X245376Y264315D01*
X245340Y264424D01*
X245278Y264542D01*
X245226Y264664D01*
X245165Y264760D01*
X245112Y264861D01*
X245053Y264935D01*
X244961Y265080D01*
X244745Y265322D01*
X244687Y265395D01*
X235927Y274154D01*
X235927Y290350D01*
X235949Y290463D01*
X235995Y290667D01*
X235997Y290706D01*
X236004Y290743D01*
X236011Y290951D01*
X236022Y291160D01*
X236018Y291198D01*
X236019Y291236D01*
X235992Y291443D01*
X235970Y291650D01*
X235960Y291687D01*
X235955Y291725D01*
X235895Y291925D01*
X235840Y292126D01*
X235824Y292161D01*
X235813Y292198D01*
X235721Y292385D01*
X235634Y292574D01*
X235613Y292606D01*
X235596Y292641D01*
X235475Y292811D01*
X235359Y292984D01*
X235332Y293012D01*
X235310Y293043D01*
X235164Y293191D01*
X235021Y293343D01*
X234990Y293367D01*
X234963Y293394D01*
X234795Y293517D01*
X234629Y293644D01*
X234596Y293662D01*
X234565Y293684D01*
X234378Y293778D01*
X234195Y293877D01*
X234159Y293889D01*
X234124Y293907D01*
X233925Y293969D01*
X233728Y294037D01*
X233690Y294043D01*
X233654Y294055D01*
X233561Y294065D01*
X233242Y294120D01*
X233070Y294121D01*
X232976Y294131D01*
X223012Y294131D01*
X222936Y294125D01*
X222860Y294127D01*
X222691Y294105D01*
X222520Y294091D01*
X222446Y294073D01*
X222371Y294063D01*
X222207Y294014D01*
X222041Y293973D01*
X221972Y293943D01*
X221898Y293921D01*
X221745Y293845D01*
X221588Y293778D01*
X221524Y293737D01*
X221455Y293704D01*
X221316Y293605D01*
X221172Y293513D01*
X221115Y293462D01*
X221053Y293418D01*
X220932Y293298D01*
X220804Y293184D01*
X220756Y293125D01*
X220702Y293071D01*
X220601Y292933D01*
X220494Y292800D01*
X220457Y292734D01*
X220412Y292673D01*
X220335Y292520D01*
X220250Y292372D01*
X220224Y292300D01*
X220189Y292232D01*
X220138Y292069D01*
X220079Y291909D01*
X220064Y291834D01*
X220041Y291762D01*
X220029Y291657D01*
X219984Y291425D01*
X219977Y291189D01*
X219965Y291084D01*
X219965Y285439D01*
X205176Y285439D01*
X205100Y285433D01*
X205024Y285435D01*
X204855Y285413D01*
X204709Y285401D01*
X204613Y285420D01*
X204377Y285427D01*
X204272Y285439D01*
X189483Y285439D01*
X189483Y291084D01*
X189477Y291160D01*
X189479Y291236D01*
X189457Y291405D01*
X189443Y291576D01*
X189425Y291650D01*
X189415Y291725D01*
X189366Y291889D01*
X189325Y292055D01*
X189295Y292124D01*
X189273Y292198D01*
X189197Y292351D01*
X189130Y292508D01*
X189089Y292572D01*
X189056Y292641D01*
X188957Y292780D01*
X188865Y292924D01*
X188814Y292981D01*
X188770Y293043D01*
X188650Y293164D01*
X188536Y293292D01*
X188477Y293340D01*
X188423Y293394D01*
X188285Y293495D01*
X188152Y293602D01*
X188086Y293639D01*
X188025Y293684D01*
X187872Y293761D01*
X187724Y293846D01*
X187652Y293872D01*
X187584Y293907D01*
X187421Y293958D01*
X187261Y294017D01*
X187186Y294032D01*
X187114Y294055D01*
X187009Y294067D01*
X186777Y294112D01*
X186541Y294119D01*
X186436Y294131D01*
X172127Y294131D01*
X172065Y294157D01*
X172055Y294160D01*
X172047Y294165D01*
X171820Y294236D01*
X171595Y294309D01*
X171585Y294310D01*
X171576Y294313D01*
X171536Y294317D01*
X171107Y294382D01*
X171099Y294382D01*
X163119Y296975D01*
X156351Y301893D01*
X151433Y308661D01*
X149451Y314760D01*
X149376Y314940D01*
X149307Y315123D01*
X149281Y315168D01*
X149261Y315215D01*
X149158Y315381D01*
X149060Y315551D01*
X149028Y315590D01*
X149000Y315634D01*
X148872Y315781D01*
X148748Y315932D01*
X148709Y315966D01*
X148675Y316005D01*
X148524Y316129D01*
X148378Y316259D01*
X148334Y316286D01*
X148295Y316319D01*
X148126Y316417D01*
X147960Y316521D01*
X147913Y316541D01*
X147868Y316567D01*
X147686Y316637D01*
X147505Y316713D01*
X147455Y316725D01*
X147408Y316743D01*
X147216Y316783D01*
X147026Y316829D01*
X146975Y316832D01*
X146924Y316843D01*
X146729Y316851D01*
X146534Y316865D01*
X146483Y316861D01*
X146431Y316863D01*
X146237Y316839D01*
X146042Y316822D01*
X146003Y316811D01*
X145942Y316803D01*
X145468Y316666D01*
X145421Y316643D01*
X145387Y316633D01*
X143798Y315975D01*
X137634Y315975D01*
X131939Y318334D01*
X127580Y322693D01*
X125221Y328388D01*
X125221Y334552D01*
X127580Y340247D01*
X129348Y342015D01*
X129398Y342073D01*
X129453Y342125D01*
X129557Y342261D01*
X129668Y342391D01*
X129707Y342457D01*
X129754Y342517D01*
X129834Y342667D01*
X129922Y342814D01*
X129951Y342884D01*
X129987Y342952D01*
X130042Y343113D01*
X130106Y343272D01*
X130122Y343346D01*
X130147Y343418D01*
X130175Y343587D01*
X130212Y343753D01*
X130217Y343830D01*
X130229Y343905D01*
X130230Y344075D01*
X130240Y344246D01*
X130232Y344322D01*
X130232Y344398D01*
X130206Y344567D01*
X130188Y344737D01*
X130168Y344810D01*
X130156Y344885D01*
X130102Y345048D01*
X130057Y345212D01*
X130025Y345282D01*
X130002Y345354D01*
X129923Y345506D01*
X129851Y345661D01*
X129809Y345724D01*
X129774Y345792D01*
X129708Y345874D01*
X129576Y346070D01*
X129414Y346243D01*
X129348Y346325D01*
X128586Y347087D01*
X128499Y347161D01*
X128419Y347242D01*
X128312Y347320D01*
X128210Y347406D01*
X128113Y347465D01*
X128020Y347532D01*
X127902Y347592D01*
X127788Y347661D01*
X127682Y347703D01*
X127580Y347755D01*
X127453Y347795D01*
X127330Y347844D01*
X127218Y347869D01*
X127109Y347903D01*
X127016Y347913D01*
X126848Y347951D01*
X126524Y347969D01*
X126432Y347979D01*
X95515Y347979D01*
X95420Y347972D01*
X95325Y347973D01*
X95174Y347952D01*
X95023Y347939D01*
X94931Y347916D01*
X94837Y347903D01*
X94692Y347857D01*
X94544Y347821D01*
X94457Y347783D01*
X94366Y347754D01*
X94230Y347686D01*
X94091Y347626D01*
X94011Y347575D01*
X93926Y347532D01*
X93803Y347443D01*
X93675Y347361D01*
X93604Y347298D01*
X93527Y347242D01*
X93420Y347133D01*
X93307Y347032D01*
X93247Y346958D01*
X93180Y346891D01*
X93092Y346767D01*
X92997Y346648D01*
X92950Y346566D01*
X92895Y346488D01*
X92828Y346352D01*
X92753Y346220D01*
X92720Y346131D01*
X92678Y346045D01*
X92634Y345899D01*
X92581Y345757D01*
X92563Y345664D01*
X92536Y345573D01*
X92516Y345422D01*
X92487Y345273D01*
X92484Y345178D01*
X92471Y345084D01*
X92476Y344932D01*
X92471Y344780D01*
X92484Y344686D01*
X92487Y344591D01*
X92516Y344441D01*
X92536Y344291D01*
X92563Y344200D01*
X92581Y344106D01*
X92634Y343964D01*
X92678Y343819D01*
X92720Y343733D01*
X92753Y343644D01*
X92828Y343512D01*
X92895Y343375D01*
X92950Y343298D01*
X92997Y343215D01*
X93093Y343097D01*
X93181Y342973D01*
X93247Y342905D01*
X93307Y342831D01*
X93421Y342730D01*
X93527Y342622D01*
X93604Y342566D01*
X93675Y342503D01*
X93803Y342421D01*
X93926Y342332D01*
X94011Y342289D01*
X94091Y342238D01*
X94186Y342201D01*
X94367Y342109D01*
X94630Y342026D01*
X94726Y341989D01*
X101183Y340259D01*
X106938Y336936D01*
X111638Y332236D01*
X114961Y326481D01*
X116681Y320061D01*
X116681Y313415D01*
X114961Y306995D01*
X111638Y301240D01*
X106938Y296540D01*
X101183Y293217D01*
X94763Y291497D01*
X88117Y291497D01*
X81697Y293217D01*
X75942Y296540D01*
X71242Y301240D01*
X67919Y306995D01*
X66199Y313415D01*
X66199Y319086D01*
X66185Y319266D01*
X66178Y319446D01*
X66165Y319512D01*
X66159Y319578D01*
X66116Y319753D01*
X66080Y319930D01*
X66057Y319992D01*
X66041Y320057D01*
X65969Y320223D01*
X65906Y320391D01*
X65872Y320449D01*
X65846Y320510D01*
X65749Y320662D01*
X65659Y320819D01*
X65617Y320870D01*
X65581Y320926D01*
X65461Y321061D01*
X65346Y321201D01*
X65297Y321245D01*
X65252Y321294D01*
X65112Y321407D01*
X64977Y321527D01*
X64920Y321562D01*
X64868Y321604D01*
X64712Y321693D01*
X64559Y321789D01*
X64498Y321815D01*
X64440Y321848D01*
X64270Y321911D01*
X64104Y321981D01*
X64040Y321997D01*
X63977Y322020D01*
X63800Y322054D01*
X63625Y322097D01*
X63558Y322102D01*
X63493Y322114D01*
X63313Y322120D01*
X63133Y322133D01*
X63066Y322128D01*
X63000Y322130D01*
X62821Y322106D01*
X62641Y322090D01*
X62591Y322076D01*
X62511Y322065D01*
X62039Y321923D01*
X62008Y321908D01*
X61986Y321902D01*
X58103Y320293D01*
X53657Y320293D01*
X49549Y321995D01*
X46405Y325139D01*
X45737Y326751D01*
X45672Y326877D01*
X45616Y327008D01*
X45560Y327096D01*
X45512Y327190D01*
X45428Y327304D01*
X45351Y327424D01*
X45281Y327502D01*
X45219Y327586D01*
X45117Y327686D01*
X45022Y327792D01*
X44941Y327858D01*
X44866Y327931D01*
X44749Y328013D01*
X44638Y328102D01*
X44548Y328154D01*
X44462Y328214D01*
X44334Y328276D01*
X44210Y328346D01*
X44112Y328383D01*
X44018Y328428D01*
X43881Y328468D01*
X43747Y328518D01*
X43645Y328538D01*
X43544Y328567D01*
X43403Y328585D01*
X43263Y328613D01*
X43159Y328616D01*
X43055Y328629D01*
X42912Y328623D01*
X42770Y328628D01*
X42666Y328614D01*
X42562Y328610D01*
X42422Y328582D01*
X42281Y328563D01*
X42181Y328533D01*
X42078Y328513D01*
X41945Y328462D01*
X41808Y328421D01*
X41715Y328375D01*
X41617Y328338D01*
X41493Y328267D01*
X41365Y328204D01*
X41280Y328144D01*
X41190Y328091D01*
X41079Y328001D01*
X40963Y327919D01*
X40889Y327845D01*
X40808Y327779D01*
X40713Y327672D01*
X40612Y327572D01*
X40551Y327488D01*
X40481Y327409D01*
X40405Y327288D01*
X40322Y327173D01*
X40275Y327080D01*
X40219Y326991D01*
X40163Y326860D01*
X40099Y326733D01*
X40068Y326633D01*
X40027Y326537D01*
X39994Y326398D01*
X39951Y326262D01*
X39942Y326184D01*
X39912Y326057D01*
X39879Y325624D01*
X39875Y325584D01*
X39875Y59944D01*
X39885Y59820D01*
X39881Y59745D01*
X39910Y59313D01*
X39982Y58825D01*
X40001Y58765D01*
X40007Y58724D01*
X40230Y57890D01*
X40249Y57836D01*
X40262Y57780D01*
X40303Y57685D01*
X40396Y57426D01*
X40494Y57248D01*
X40535Y57155D01*
X40966Y56408D01*
X40999Y56361D01*
X41025Y56310D01*
X41090Y56229D01*
X41247Y56002D01*
X41387Y55856D01*
X41450Y55777D01*
X42061Y55166D01*
X42104Y55129D01*
X42143Y55087D01*
X42227Y55025D01*
X42437Y54847D01*
X42610Y54742D01*
X42692Y54682D01*
X43439Y54251D01*
X43491Y54226D01*
X43539Y54195D01*
X43595Y54174D01*
X43675Y54128D01*
X43782Y54088D01*
X43885Y54039D01*
X44013Y54003D01*
X44138Y53956D01*
X44160Y53952D01*
X44174Y53946D01*
X45008Y53723D01*
X45493Y53634D01*
X45556Y53633D01*
X45597Y53626D01*
X46029Y53597D01*
X46153Y53599D01*
X46228Y53591D01*
X398780Y53591D01*
X398856Y53597D01*
G37*
G36*
X645236Y-84325D02*
X645236Y-84325D01*
X645312Y-84327D01*
X645481Y-84305D01*
X645652Y-84291D01*
X645726Y-84273D01*
X645801Y-84263D01*
X645965Y-84214D01*
X646131Y-84173D01*
X646200Y-84143D01*
X646274Y-84121D01*
X646427Y-84045D01*
X646584Y-83978D01*
X646648Y-83937D01*
X646717Y-83904D01*
X646856Y-83805D01*
X647000Y-83713D01*
X647057Y-83662D01*
X647119Y-83618D01*
X647240Y-83498D01*
X647368Y-83384D01*
X647416Y-83325D01*
X647470Y-83271D01*
X647571Y-83133D01*
X647678Y-83000D01*
X647715Y-82934D01*
X647760Y-82873D01*
X647837Y-82720D01*
X647922Y-82572D01*
X647948Y-82500D01*
X647983Y-82432D01*
X648034Y-82269D01*
X648093Y-82109D01*
X648108Y-82034D01*
X648131Y-81962D01*
X648143Y-81857D01*
X648188Y-81625D01*
X648195Y-81389D01*
X648207Y-81284D01*
X648207Y-76517D01*
X649909Y-72409D01*
X650137Y-72181D01*
X650211Y-72094D01*
X650292Y-72014D01*
X650370Y-71906D01*
X650456Y-71805D01*
X650515Y-71707D01*
X650582Y-71615D01*
X650642Y-71497D01*
X650711Y-71382D01*
X650753Y-71276D01*
X650805Y-71174D01*
X650845Y-71048D01*
X650894Y-70924D01*
X650919Y-70813D01*
X650953Y-70704D01*
X650963Y-70610D01*
X651001Y-70443D01*
X651019Y-70118D01*
X651029Y-70026D01*
X651029Y-65853D01*
X652533Y-62222D01*
X655312Y-59443D01*
X658943Y-57939D01*
X662873Y-57939D01*
X666504Y-59443D01*
X669283Y-62222D01*
X670787Y-65853D01*
X670787Y-69783D01*
X669762Y-72257D01*
X669727Y-72365D01*
X669683Y-72471D01*
X669652Y-72600D01*
X669611Y-72726D01*
X669594Y-72839D01*
X669567Y-72950D01*
X669557Y-73083D01*
X669537Y-73214D01*
X669539Y-73328D01*
X669530Y-73442D01*
X669542Y-73574D01*
X669543Y-73707D01*
X669563Y-73820D01*
X669573Y-73933D01*
X669599Y-74024D01*
X669629Y-74193D01*
X669736Y-74500D01*
X669762Y-74589D01*
X670561Y-76517D01*
X670561Y-81284D01*
X670567Y-81360D01*
X670565Y-81436D01*
X670587Y-81605D01*
X670601Y-81776D01*
X670619Y-81850D01*
X670629Y-81925D01*
X670678Y-82089D01*
X670719Y-82255D01*
X670749Y-82324D01*
X670771Y-82398D01*
X670847Y-82551D01*
X670914Y-82708D01*
X670955Y-82772D01*
X670988Y-82841D01*
X671087Y-82980D01*
X671179Y-83124D01*
X671230Y-83181D01*
X671274Y-83243D01*
X671394Y-83364D01*
X671508Y-83492D01*
X671567Y-83540D01*
X671621Y-83594D01*
X671759Y-83695D01*
X671892Y-83802D01*
X671958Y-83839D01*
X672019Y-83884D01*
X672172Y-83961D01*
X672320Y-84046D01*
X672392Y-84072D01*
X672460Y-84107D01*
X672623Y-84158D01*
X672783Y-84217D01*
X672858Y-84232D01*
X672930Y-84255D01*
X673035Y-84267D01*
X673267Y-84312D01*
X673503Y-84319D01*
X673608Y-84331D01*
X677181Y-84331D01*
X677242Y-84326D01*
X677303Y-84329D01*
X677487Y-84306D01*
X677673Y-84291D01*
X677732Y-84277D01*
X677793Y-84269D01*
X677971Y-84217D01*
X678152Y-84173D01*
X678208Y-84149D01*
X678266Y-84132D01*
X678434Y-84051D01*
X678605Y-83978D01*
X678657Y-83945D01*
X678712Y-83919D01*
X678865Y-83813D01*
X679021Y-83713D01*
X679066Y-83673D01*
X679117Y-83638D01*
X679251Y-83508D01*
X679389Y-83384D01*
X679427Y-83337D01*
X679471Y-83294D01*
X679582Y-83145D01*
X679699Y-83000D01*
X679729Y-82948D01*
X679766Y-82899D01*
X679851Y-82733D01*
X679943Y-82572D01*
X679964Y-82515D01*
X679992Y-82460D01*
X680050Y-82284D01*
X680115Y-82109D01*
X680126Y-82049D01*
X680145Y-81991D01*
X680174Y-81807D01*
X680209Y-81625D01*
X680211Y-81564D01*
X680221Y-81504D01*
X680219Y-81318D01*
X680225Y-81132D01*
X680217Y-81071D01*
X680216Y-81025D01*
X687324Y-81025D01*
X694436Y-81025D01*
X694433Y-81128D01*
X694420Y-81314D01*
X694425Y-81375D01*
X694423Y-81436D01*
X694448Y-81620D01*
X694465Y-81806D01*
X694480Y-81865D01*
X694488Y-81925D01*
X694542Y-82103D01*
X694588Y-82283D01*
X694613Y-82339D01*
X694630Y-82398D01*
X694712Y-82565D01*
X694787Y-82735D01*
X694820Y-82786D01*
X694847Y-82841D01*
X694955Y-82992D01*
X695056Y-83148D01*
X695097Y-83193D01*
X695133Y-83243D01*
X695263Y-83375D01*
X695389Y-83513D01*
X695436Y-83551D01*
X695479Y-83594D01*
X695630Y-83703D01*
X695776Y-83819D01*
X695829Y-83849D01*
X695878Y-83884D01*
X696044Y-83968D01*
X696207Y-84059D01*
X696264Y-84079D01*
X696319Y-84107D01*
X696496Y-84163D01*
X696671Y-84226D01*
X696731Y-84237D01*
X696789Y-84255D01*
X696893Y-84267D01*
X697156Y-84315D01*
X697365Y-84320D01*
X697467Y-84331D01*
X830326Y-84331D01*
X830450Y-84321D01*
X830526Y-84325D01*
X830692Y-84314D01*
X831180Y-84242D01*
X831239Y-84223D01*
X831281Y-84217D01*
X831602Y-84131D01*
X831656Y-84111D01*
X831712Y-84099D01*
X831807Y-84057D01*
X832067Y-83965D01*
X832244Y-83867D01*
X832337Y-83826D01*
X832625Y-83660D01*
X832672Y-83627D01*
X832723Y-83601D01*
X832804Y-83536D01*
X833031Y-83379D01*
X833177Y-83239D01*
X833256Y-83175D01*
X833491Y-82940D01*
X833528Y-82897D01*
X833571Y-82858D01*
X833632Y-82775D01*
X833811Y-82564D01*
X833915Y-82391D01*
X833976Y-82309D01*
X834142Y-82021D01*
X834167Y-81969D01*
X834197Y-81921D01*
X834235Y-81824D01*
X834353Y-81576D01*
X834409Y-81381D01*
X834447Y-81286D01*
X834533Y-80965D01*
X834621Y-80479D01*
X834622Y-80417D01*
X834630Y-80376D01*
X834641Y-80210D01*
X834639Y-80085D01*
X834647Y-80010D01*
X834647Y-33528D01*
X834641Y-33452D01*
X834643Y-33376D01*
X834621Y-33207D01*
X834607Y-33036D01*
X834589Y-32962D01*
X834579Y-32887D01*
X834530Y-32723D01*
X834489Y-32557D01*
X834459Y-32488D01*
X834437Y-32414D01*
X834361Y-32261D01*
X834294Y-32104D01*
X834253Y-32040D01*
X834220Y-31971D01*
X834121Y-31832D01*
X834029Y-31688D01*
X833978Y-31631D01*
X833934Y-31569D01*
X833814Y-31448D01*
X833700Y-31320D01*
X833641Y-31272D01*
X833587Y-31218D01*
X833449Y-31117D01*
X833316Y-31010D01*
X833250Y-30973D01*
X833189Y-30928D01*
X833036Y-30851D01*
X832888Y-30766D01*
X832816Y-30740D01*
X832748Y-30705D01*
X832585Y-30654D01*
X832425Y-30595D01*
X832350Y-30580D01*
X832278Y-30557D01*
X832173Y-30545D01*
X831941Y-30500D01*
X831705Y-30493D01*
X831600Y-30481D01*
X830474Y-30481D01*
X830398Y-30487D01*
X830322Y-30485D01*
X830153Y-30507D01*
X829982Y-30521D01*
X829908Y-30539D01*
X829833Y-30549D01*
X829669Y-30598D01*
X829503Y-30639D01*
X829434Y-30669D01*
X829360Y-30691D01*
X829207Y-30767D01*
X829050Y-30834D01*
X828986Y-30875D01*
X828917Y-30908D01*
X828778Y-31007D01*
X828634Y-31099D01*
X828577Y-31150D01*
X828515Y-31194D01*
X828394Y-31314D01*
X828266Y-31428D01*
X828218Y-31487D01*
X828164Y-31541D01*
X828063Y-31679D01*
X827956Y-31812D01*
X827919Y-31878D01*
X827874Y-31939D01*
X827797Y-32092D01*
X827712Y-32240D01*
X827686Y-32312D01*
X827651Y-32380D01*
X827600Y-32543D01*
X827541Y-32703D01*
X827526Y-32778D01*
X827503Y-32850D01*
X827491Y-32955D01*
X827446Y-33187D01*
X827439Y-33423D01*
X827427Y-33528D01*
X827427Y-42561D01*
X824855Y-52159D01*
X819886Y-60765D01*
X812859Y-67792D01*
X804253Y-72761D01*
X794655Y-75333D01*
X784717Y-75333D01*
X775119Y-72761D01*
X766513Y-67792D01*
X759486Y-60765D01*
X754517Y-52159D01*
X751945Y-42561D01*
X751945Y-32623D01*
X754517Y-23025D01*
X759486Y-14419D01*
X766513Y-7392D01*
X775119Y-2423D01*
X784717Y149D01*
X794655Y149D01*
X799768Y-1221D01*
X799972Y-1259D01*
X800177Y-1301D01*
X800215Y-1303D01*
X800253Y-1310D01*
X800462Y-1314D01*
X800669Y-1323D01*
X800708Y-1319D01*
X800747Y-1319D01*
X800953Y-1290D01*
X801159Y-1265D01*
X801197Y-1254D01*
X801235Y-1249D01*
X801433Y-1186D01*
X801633Y-1129D01*
X801669Y-1112D01*
X801705Y-1101D01*
X801891Y-1007D01*
X802079Y-918D01*
X802111Y-896D01*
X802146Y-878D01*
X802314Y-755D01*
X802485Y-637D01*
X802513Y-611D01*
X802545Y-588D01*
X802691Y-440D01*
X802841Y-295D01*
X802864Y-264D01*
X802891Y-237D01*
X803012Y-67D01*
X803136Y100D01*
X803154Y134D01*
X803177Y166D01*
X803268Y353D01*
X803364Y537D01*
X803376Y574D01*
X803394Y609D01*
X803454Y808D01*
X803519Y1006D01*
X803523Y1037D01*
X803536Y1081D01*
X803600Y1570D01*
X803598Y1638D01*
X803604Y1682D01*
X803677Y7310D01*
X804770Y9856D01*
X804817Y9994D01*
X804872Y10129D01*
X804895Y10228D01*
X804928Y10324D01*
X804951Y10468D01*
X804984Y10609D01*
X804991Y10710D01*
X805008Y10811D01*
X805008Y10957D01*
X805017Y11102D01*
X805008Y11203D01*
X805008Y11304D01*
X804984Y11448D01*
X804971Y11593D01*
X804949Y11666D01*
X804929Y11791D01*
X804785Y12219D01*
X804777Y12247D01*
X803401Y15497D01*
X803401Y39971D01*
X803691Y40669D01*
X803726Y40778D01*
X803770Y40884D01*
X803801Y41012D01*
X803842Y41139D01*
X803859Y41252D01*
X803886Y41363D01*
X803896Y41496D01*
X803915Y41627D01*
X803914Y41741D01*
X803923Y41855D01*
X803911Y41987D01*
X803909Y42120D01*
X803889Y42233D01*
X803879Y42347D01*
X803853Y42437D01*
X803824Y42606D01*
X803716Y42913D01*
X803691Y43002D01*
X803655Y43087D01*
X803655Y68191D01*
X806033Y74063D01*
X806995Y75057D01*
X807003Y75065D01*
X807011Y75073D01*
X807079Y75157D01*
X807158Y75239D01*
X807230Y75341D01*
X807309Y75438D01*
X807317Y75452D01*
X807321Y75457D01*
X807366Y75536D01*
X807370Y75543D01*
X807440Y75644D01*
X807494Y75756D01*
X807557Y75864D01*
X807600Y75978D01*
X807653Y76089D01*
X807688Y76209D01*
X807732Y76325D01*
X807757Y76445D01*
X807791Y76562D01*
X807807Y76686D01*
X807832Y76808D01*
X807837Y76930D01*
X807851Y77052D01*
X807846Y77177D01*
X807851Y77301D01*
X807837Y77423D01*
X807832Y77545D01*
X807807Y77667D01*
X807791Y77791D01*
X807757Y77908D01*
X807733Y78028D01*
X807688Y78145D01*
X807653Y78264D01*
X807601Y78375D01*
X807557Y78489D01*
X807494Y78597D01*
X807440Y78710D01*
X807371Y78810D01*
X807309Y78916D01*
X807250Y78983D01*
X807159Y79114D01*
X806915Y79366D01*
X806860Y79429D01*
X806134Y80091D01*
X803401Y86280D01*
X803401Y113631D01*
X803739Y114447D01*
X803775Y114556D01*
X803819Y114661D01*
X803850Y114790D01*
X803891Y114917D01*
X803908Y115030D01*
X803935Y115141D01*
X803944Y115273D01*
X803964Y115405D01*
X803963Y115519D01*
X803971Y115633D01*
X803960Y115765D01*
X803958Y115898D01*
X803938Y116011D01*
X803928Y116124D01*
X803902Y116215D01*
X803872Y116384D01*
X803765Y116691D01*
X803739Y116780D01*
X802385Y120049D01*
X802385Y123283D01*
X803623Y126271D01*
X805909Y128557D01*
X808897Y129795D01*
X809070Y129795D01*
X809082Y129796D01*
X809094Y129795D01*
X809329Y129816D01*
X809561Y129835D01*
X809573Y129838D01*
X809586Y129839D01*
X809813Y129897D01*
X810040Y129953D01*
X810052Y129958D01*
X810064Y129961D01*
X810278Y130056D01*
X810494Y130148D01*
X810504Y130155D01*
X810516Y130160D01*
X810714Y130288D01*
X810910Y130413D01*
X810919Y130421D01*
X810929Y130428D01*
X811103Y130585D01*
X811278Y130742D01*
X811285Y130751D01*
X811295Y130760D01*
X811440Y130943D01*
X811588Y131126D01*
X811594Y131136D01*
X811601Y131146D01*
X811715Y131350D01*
X811832Y131554D01*
X811836Y131566D01*
X811842Y131577D01*
X811921Y131796D01*
X812003Y132017D01*
X812006Y132029D01*
X812010Y132041D01*
X812053Y132271D01*
X812098Y132501D01*
X812098Y132513D01*
X812100Y132526D01*
X812106Y132761D01*
X812113Y132994D01*
X812112Y133006D01*
X812112Y133019D01*
X812079Y133253D01*
X812049Y133483D01*
X812045Y133495D01*
X812043Y133507D01*
X812028Y133553D01*
X811906Y133955D01*
X811847Y134076D01*
X811821Y134152D01*
X803496Y151635D01*
X803329Y154865D01*
X804124Y157106D01*
X804133Y157140D01*
X804147Y157173D01*
X804196Y157378D01*
X804251Y157583D01*
X804254Y157618D01*
X804263Y157652D01*
X804278Y157863D01*
X804299Y158074D01*
X804297Y158109D01*
X804299Y158144D01*
X804281Y158355D01*
X804267Y158566D01*
X804259Y158601D01*
X804256Y158636D01*
X804231Y158723D01*
X804157Y159047D01*
X804093Y159202D01*
X804067Y159291D01*
X803909Y159673D01*
X803909Y176488D01*
X803908Y176497D01*
X803909Y176507D01*
X803889Y176743D01*
X803869Y176979D01*
X803867Y176989D01*
X803866Y176999D01*
X803855Y177037D01*
X803751Y177458D01*
X803699Y177578D01*
X803677Y177654D01*
X803655Y177707D01*
X803655Y180941D01*
X803677Y180994D01*
X803680Y181003D01*
X803685Y181012D01*
X803756Y181239D01*
X803829Y181464D01*
X803830Y181473D01*
X803833Y181482D01*
X803837Y181523D01*
X803902Y181951D01*
X803900Y182082D01*
X803909Y182160D01*
X803909Y198467D01*
X803945Y198552D01*
X803980Y198661D01*
X804024Y198766D01*
X804055Y198895D01*
X804096Y199022D01*
X804113Y199135D01*
X804140Y199246D01*
X804150Y199378D01*
X804169Y199510D01*
X804168Y199624D01*
X804177Y199738D01*
X804165Y199870D01*
X804163Y200003D01*
X804143Y200116D01*
X804133Y200229D01*
X804107Y200319D01*
X804078Y200489D01*
X803970Y200795D01*
X803945Y200885D01*
X803655Y201583D01*
X803655Y223404D01*
X803637Y223631D01*
X803621Y223858D01*
X803617Y223877D01*
X803615Y223896D01*
X803560Y224117D01*
X803508Y224338D01*
X803501Y224356D01*
X803497Y224374D01*
X803407Y224584D01*
X803320Y224794D01*
X803310Y224810D01*
X803302Y224828D01*
X803180Y225020D01*
X803060Y225214D01*
X803047Y225228D01*
X803037Y225244D01*
X802885Y225413D01*
X802736Y225585D01*
X802721Y225598D01*
X802708Y225612D01*
X802531Y225755D01*
X802356Y225900D01*
X802339Y225910D01*
X802324Y225922D01*
X802127Y226034D01*
X801930Y226149D01*
X801912Y226156D01*
X801896Y226166D01*
X801682Y226245D01*
X801470Y226327D01*
X801451Y226331D01*
X801433Y226337D01*
X801211Y226381D01*
X800987Y226427D01*
X800967Y226428D01*
X800949Y226432D01*
X800722Y226439D01*
X800494Y226449D01*
X800478Y226447D01*
X800456Y226447D01*
X799967Y226383D01*
X799878Y226356D01*
X799819Y226347D01*
X794401Y224895D01*
X784463Y224895D01*
X774865Y227467D01*
X766259Y232436D01*
X759232Y239463D01*
X754514Y247635D01*
X754443Y247737D01*
X754382Y247844D01*
X754303Y247939D01*
X754233Y248041D01*
X754147Y248130D01*
X754069Y248226D01*
X753977Y248307D01*
X753891Y248396D01*
X753792Y248470D01*
X753699Y248552D01*
X753595Y248618D01*
X753496Y248692D01*
X753386Y248749D01*
X753281Y248814D01*
X753168Y248862D01*
X753058Y248919D01*
X752941Y248958D01*
X752827Y249006D01*
X752707Y249035D01*
X752590Y249074D01*
X752468Y249093D01*
X752347Y249122D01*
X752224Y249131D01*
X752102Y249150D01*
X751978Y249149D01*
X751855Y249159D01*
X751732Y249148D01*
X751609Y249147D01*
X751487Y249126D01*
X751364Y249116D01*
X751278Y249091D01*
X751123Y249064D01*
X750788Y248949D01*
X750709Y248927D01*
X750380Y248790D01*
X750231Y248714D01*
X750078Y248646D01*
X750028Y248610D01*
X749941Y248565D01*
X749544Y248272D01*
X749531Y248260D01*
X749521Y248253D01*
X747729Y246660D01*
X747653Y246580D01*
X747599Y246537D01*
X745768Y244706D01*
X745659Y244650D01*
X745506Y244582D01*
X745455Y244546D01*
X745369Y244501D01*
X744977Y244213D01*
X742537Y243366D01*
X742436Y243322D01*
X742370Y243303D01*
X739978Y242312D01*
X739855Y242302D01*
X739688Y242297D01*
X739628Y242283D01*
X739530Y242275D01*
X739059Y242158D01*
X736480Y242310D01*
X736370Y242308D01*
X736301Y242315D01*
X677764Y242315D01*
X677688Y242309D01*
X677612Y242311D01*
X677443Y242289D01*
X677272Y242275D01*
X677198Y242257D01*
X677123Y242247D01*
X676959Y242198D01*
X676793Y242157D01*
X676724Y242127D01*
X676650Y242105D01*
X676497Y242029D01*
X676340Y241962D01*
X676276Y241921D01*
X676207Y241888D01*
X676068Y241789D01*
X675924Y241697D01*
X675867Y241646D01*
X675805Y241602D01*
X675684Y241482D01*
X675556Y241368D01*
X675508Y241309D01*
X675454Y241255D01*
X675353Y241117D01*
X675246Y240984D01*
X675209Y240918D01*
X675164Y240857D01*
X675087Y240704D01*
X675002Y240556D01*
X674976Y240484D01*
X674941Y240416D01*
X674890Y240253D01*
X674831Y240093D01*
X674816Y240018D01*
X674793Y239946D01*
X674781Y239841D01*
X674736Y239609D01*
X674729Y239373D01*
X674717Y239268D01*
X674717Y222331D01*
X674168Y221007D01*
X674124Y220871D01*
X674071Y220739D01*
X674049Y220637D01*
X674017Y220537D01*
X673996Y220396D01*
X673965Y220257D01*
X673959Y220153D01*
X673943Y220049D01*
X673945Y219907D01*
X673937Y219765D01*
X673948Y219661D01*
X673949Y219556D01*
X673974Y219416D01*
X673989Y219274D01*
X674017Y219173D01*
X674035Y219070D01*
X674082Y218936D01*
X674120Y218798D01*
X674164Y218703D01*
X674198Y218605D01*
X674266Y218480D01*
X674326Y218350D01*
X674384Y218263D01*
X674434Y218171D01*
X674521Y218059D01*
X674601Y217941D01*
X674673Y217864D01*
X674737Y217782D01*
X674841Y217685D01*
X674939Y217581D01*
X675022Y217517D01*
X675098Y217446D01*
X675217Y217367D01*
X675330Y217281D01*
X675422Y217231D01*
X675509Y217174D01*
X675640Y217115D01*
X675765Y217048D01*
X675864Y217014D01*
X675959Y216971D01*
X676097Y216934D01*
X676232Y216888D01*
X676335Y216870D01*
X676436Y216843D01*
X676577Y216829D01*
X676718Y216805D01*
X676823Y216804D01*
X676927Y216794D01*
X677069Y216803D01*
X677211Y216802D01*
X677315Y216818D01*
X677419Y216825D01*
X677558Y216856D01*
X677699Y216879D01*
X677798Y216911D01*
X677900Y216934D01*
X678032Y216988D01*
X678167Y217033D01*
X678260Y217081D01*
X678357Y217120D01*
X678478Y217195D01*
X678605Y217261D01*
X678666Y217310D01*
X678778Y217378D01*
X679107Y217661D01*
X679138Y217686D01*
X695673Y234221D01*
X698661Y235459D01*
X746345Y235459D01*
X749333Y234221D01*
X754413Y229141D01*
X755651Y226153D01*
X755651Y82034D01*
X755660Y81920D01*
X755659Y81806D01*
X755680Y81675D01*
X755691Y81542D01*
X755718Y81432D01*
X755736Y81319D01*
X755777Y81192D01*
X755809Y81064D01*
X755854Y80959D01*
X755890Y80850D01*
X755952Y80732D01*
X756004Y80610D01*
X756065Y80514D01*
X756118Y80413D01*
X756177Y80339D01*
X756269Y80194D01*
X756386Y80063D01*
X757909Y76387D01*
X757909Y72457D01*
X756405Y68826D01*
X753626Y66047D01*
X749995Y64543D01*
X746065Y64543D01*
X742117Y66179D01*
X742021Y66236D01*
X741985Y66251D01*
X741952Y66270D01*
X741756Y66342D01*
X741563Y66420D01*
X741525Y66428D01*
X741489Y66441D01*
X741285Y66481D01*
X741082Y66526D01*
X741043Y66529D01*
X741005Y66536D01*
X740797Y66543D01*
X740589Y66554D01*
X740551Y66550D01*
X740512Y66551D01*
X740306Y66524D01*
X740098Y66502D01*
X740061Y66492D01*
X740023Y66487D01*
X739824Y66427D01*
X739623Y66372D01*
X739587Y66356D01*
X739550Y66344D01*
X739364Y66253D01*
X739174Y66166D01*
X739142Y66145D01*
X739107Y66128D01*
X738938Y66007D01*
X738765Y65891D01*
X738737Y65864D01*
X738705Y65842D01*
X738557Y65696D01*
X738405Y65553D01*
X738381Y65522D01*
X738354Y65495D01*
X738232Y65328D01*
X738105Y65162D01*
X738086Y65128D01*
X738064Y65097D01*
X737970Y64911D01*
X737871Y64727D01*
X737859Y64691D01*
X737841Y64656D01*
X737779Y64457D01*
X737711Y64261D01*
X737705Y64223D01*
X737693Y64186D01*
X737683Y64093D01*
X737628Y63774D01*
X737627Y63602D01*
X737617Y63508D01*
X737617Y60015D01*
X734755Y53106D01*
X721848Y40199D01*
X714939Y37337D01*
X658338Y37337D01*
X658224Y37328D01*
X658110Y37329D01*
X657979Y37308D01*
X657846Y37297D01*
X657736Y37270D01*
X657623Y37252D01*
X657496Y37211D01*
X657368Y37179D01*
X657263Y37134D01*
X657154Y37098D01*
X657036Y37036D01*
X656914Y36984D01*
X656818Y36923D01*
X656717Y36870D01*
X656643Y36811D01*
X656498Y36719D01*
X656256Y36503D01*
X656183Y36445D01*
X649609Y29871D01*
X649535Y29784D01*
X649454Y29703D01*
X649376Y29596D01*
X649290Y29495D01*
X649231Y29397D01*
X649164Y29305D01*
X649104Y29186D01*
X649035Y29072D01*
X648993Y28966D01*
X648941Y28864D01*
X648901Y28737D01*
X648852Y28614D01*
X648827Y28503D01*
X648793Y28394D01*
X648783Y28300D01*
X648745Y28132D01*
X648727Y27808D01*
X648717Y27716D01*
X648717Y22203D01*
X648705Y22128D01*
X648678Y22016D01*
X648669Y21884D01*
X648649Y21753D01*
X648650Y21639D01*
X648642Y21524D01*
X648653Y21393D01*
X648655Y21260D01*
X648675Y21147D01*
X648685Y21033D01*
X648711Y20943D01*
X648717Y20909D01*
X648717Y12331D01*
X647691Y9854D01*
X647635Y9682D01*
X647573Y9513D01*
X647560Y9448D01*
X647539Y9385D01*
X647512Y9206D01*
X647478Y9029D01*
X647476Y8963D01*
X647466Y8897D01*
X647468Y8716D01*
X647462Y8536D01*
X647471Y8470D01*
X647472Y8403D01*
X647503Y8226D01*
X647527Y8047D01*
X647546Y7983D01*
X647558Y7918D01*
X647617Y7748D01*
X647669Y7574D01*
X647699Y7515D01*
X647721Y7452D01*
X647807Y7293D01*
X647886Y7131D01*
X647925Y7077D01*
X647957Y7019D01*
X648068Y6876D01*
X648172Y6729D01*
X648218Y6682D01*
X648259Y6629D01*
X648392Y6506D01*
X648518Y6378D01*
X648572Y6339D01*
X648621Y6294D01*
X648771Y6194D01*
X648917Y6088D01*
X648977Y6058D01*
X649032Y6021D01*
X649197Y5947D01*
X649358Y5865D01*
X649421Y5845D01*
X649482Y5818D01*
X649656Y5771D01*
X649828Y5717D01*
X649881Y5711D01*
X649958Y5690D01*
X650449Y5641D01*
X650483Y5643D01*
X650506Y5641D01*
X669833Y5641D01*
X672074Y4713D01*
X673789Y2998D01*
X674717Y757D01*
X674717Y-19669D01*
X673789Y-21910D01*
X672074Y-23625D01*
X669833Y-24553D01*
X641407Y-24553D01*
X639166Y-23625D01*
X637451Y-21910D01*
X636523Y-19669D01*
X636523Y757D01*
X637549Y3234D01*
X637605Y3406D01*
X637667Y3575D01*
X637680Y3640D01*
X637701Y3703D01*
X637728Y3882D01*
X637762Y4059D01*
X637764Y4125D01*
X637774Y4191D01*
X637772Y4372D01*
X637778Y4552D01*
X637769Y4618D01*
X637768Y4685D01*
X637737Y4862D01*
X637713Y5041D01*
X637694Y5105D01*
X637682Y5170D01*
X637623Y5340D01*
X637571Y5514D01*
X637541Y5573D01*
X637519Y5636D01*
X637433Y5795D01*
X637354Y5957D01*
X637315Y6011D01*
X637283Y6069D01*
X637172Y6212D01*
X637068Y6359D01*
X637022Y6406D01*
X636981Y6459D01*
X636848Y6582D01*
X636722Y6710D01*
X636668Y6749D01*
X636619Y6794D01*
X636469Y6894D01*
X636323Y7000D01*
X636263Y7030D01*
X636208Y7067D01*
X636043Y7141D01*
X635882Y7223D01*
X635819Y7243D01*
X635758Y7270D01*
X635584Y7317D01*
X635412Y7371D01*
X635359Y7377D01*
X635282Y7398D01*
X634791Y7447D01*
X634757Y7445D01*
X634734Y7447D01*
X634161Y7447D01*
X634151Y7446D01*
X634142Y7447D01*
X633905Y7426D01*
X633669Y7407D01*
X633660Y7405D01*
X633650Y7404D01*
X633633Y7399D01*
X621815Y7399D01*
X621777Y7396D01*
X621739Y7398D01*
X621531Y7376D01*
X621323Y7359D01*
X621286Y7350D01*
X621249Y7346D01*
X621047Y7291D01*
X620845Y7241D01*
X620810Y7226D01*
X620773Y7215D01*
X620583Y7128D01*
X620391Y7046D01*
X620359Y7026D01*
X620324Y7010D01*
X620151Y6893D01*
X619975Y6781D01*
X619947Y6756D01*
X619915Y6734D01*
X619763Y6591D01*
X619607Y6452D01*
X619583Y6423D01*
X619556Y6397D01*
X619428Y6230D01*
X619297Y6068D01*
X619279Y6036D01*
X619255Y6005D01*
X619156Y5821D01*
X619053Y5640D01*
X619040Y5604D01*
X619022Y5570D01*
X618954Y5373D01*
X618882Y5177D01*
X618874Y5140D01*
X618862Y5104D01*
X618827Y4897D01*
X618787Y4693D01*
X618786Y4655D01*
X618780Y4617D01*
X618778Y4408D01*
X618772Y4200D01*
X618777Y4162D01*
X618776Y4124D01*
X618809Y3917D01*
X618836Y3711D01*
X618847Y3674D01*
X618853Y3637D01*
X618918Y3438D01*
X618979Y3239D01*
X618995Y3204D01*
X619007Y3168D01*
X619104Y2983D01*
X619196Y2795D01*
X619218Y2764D01*
X619235Y2730D01*
X619293Y2658D01*
X619481Y2393D01*
X619602Y2271D01*
X619660Y2197D01*
X624873Y-3015D01*
X626111Y-6003D01*
X626111Y-41824D01*
X626120Y-41938D01*
X626119Y-42052D01*
X626140Y-42184D01*
X626151Y-42316D01*
X626178Y-42427D01*
X626196Y-42540D01*
X626237Y-42666D01*
X626269Y-42795D01*
X626314Y-42900D01*
X626350Y-43008D01*
X626412Y-43126D01*
X626464Y-43248D01*
X626525Y-43344D01*
X626578Y-43446D01*
X626637Y-43519D01*
X626729Y-43664D01*
X626945Y-43906D01*
X627003Y-43979D01*
X629611Y-46586D01*
X631699Y-51628D01*
X631699Y-72324D01*
X629611Y-77366D01*
X627847Y-79129D01*
X627822Y-79158D01*
X627794Y-79184D01*
X627663Y-79346D01*
X627528Y-79505D01*
X627508Y-79538D01*
X627484Y-79568D01*
X627381Y-79749D01*
X627273Y-79928D01*
X627259Y-79963D01*
X627240Y-79996D01*
X627167Y-80192D01*
X627090Y-80386D01*
X627082Y-80423D01*
X627068Y-80459D01*
X627028Y-80664D01*
X626983Y-80868D01*
X626981Y-80906D01*
X626974Y-80943D01*
X626967Y-81151D01*
X626956Y-81360D01*
X626960Y-81398D01*
X626958Y-81436D01*
X626986Y-81643D01*
X627008Y-81851D01*
X627018Y-81887D01*
X627023Y-81925D01*
X627083Y-82125D01*
X627138Y-82326D01*
X627154Y-82361D01*
X627165Y-82398D01*
X627257Y-82585D01*
X627344Y-82775D01*
X627365Y-82806D01*
X627382Y-82841D01*
X627503Y-83011D01*
X627619Y-83184D01*
X627646Y-83212D01*
X627668Y-83243D01*
X627814Y-83391D01*
X627957Y-83544D01*
X627988Y-83567D01*
X628014Y-83594D01*
X628183Y-83717D01*
X628349Y-83844D01*
X628382Y-83862D01*
X628413Y-83884D01*
X628599Y-83978D01*
X628783Y-84077D01*
X628820Y-84090D01*
X628854Y-84107D01*
X629053Y-84169D01*
X629250Y-84237D01*
X629288Y-84243D01*
X629324Y-84255D01*
X629417Y-84265D01*
X629736Y-84320D01*
X629909Y-84321D01*
X630002Y-84331D01*
X645160Y-84331D01*
X645236Y-84325D01*
G37*
%LPC*%
G36*
X65344Y115061D02*
X65344Y115061D01*
X60302Y117150D01*
X56444Y121008D01*
X54355Y126050D01*
X54355Y146746D01*
X56443Y151788D01*
X60067Y155411D01*
X60141Y155498D01*
X60222Y155578D01*
X60300Y155686D01*
X60386Y155787D01*
X60445Y155885D01*
X60512Y155977D01*
X60572Y156096D01*
X60641Y156210D01*
X60683Y156316D01*
X60735Y156418D01*
X60775Y156544D01*
X60824Y156668D01*
X60849Y156779D01*
X60883Y156888D01*
X60893Y156982D01*
X60931Y157149D01*
X60949Y157474D01*
X60959Y157566D01*
X60959Y182068D01*
X60950Y182182D01*
X60951Y182296D01*
X60930Y182428D01*
X60919Y182560D01*
X60892Y182671D01*
X60874Y182784D01*
X60833Y182910D01*
X60801Y183039D01*
X60756Y183144D01*
X60720Y183252D01*
X60658Y183370D01*
X60606Y183492D01*
X60545Y183588D01*
X60492Y183690D01*
X60433Y183763D01*
X60341Y183908D01*
X60125Y184150D01*
X60067Y184223D01*
X59359Y184931D01*
X57657Y189039D01*
X57657Y193485D01*
X59359Y197593D01*
X62503Y200737D01*
X66611Y202439D01*
X68054Y202439D01*
X68186Y202449D01*
X68320Y202450D01*
X68432Y202469D01*
X68546Y202479D01*
X68675Y202511D01*
X68806Y202533D01*
X68914Y202570D01*
X69024Y202597D01*
X69147Y202650D01*
X69273Y202693D01*
X69373Y202747D01*
X69478Y202792D01*
X69590Y202863D01*
X69707Y202926D01*
X69798Y202996D01*
X69894Y203057D01*
X69993Y203146D01*
X70099Y203227D01*
X70177Y203310D01*
X70262Y203386D01*
X70345Y203489D01*
X70437Y203586D01*
X70500Y203681D01*
X70572Y203770D01*
X70638Y203885D01*
X70712Y203996D01*
X70759Y204099D01*
X70816Y204198D01*
X70862Y204323D01*
X70918Y204444D01*
X70948Y204554D01*
X70987Y204661D01*
X71013Y204791D01*
X71048Y204920D01*
X71060Y205033D01*
X71082Y205145D01*
X71086Y205278D01*
X71100Y205410D01*
X71094Y205524D01*
X71097Y205638D01*
X71080Y205770D01*
X71073Y205903D01*
X71048Y206014D01*
X71033Y206127D01*
X70994Y206255D01*
X70966Y206385D01*
X70932Y206461D01*
X70890Y206599D01*
X70719Y206949D01*
X70693Y207010D01*
X67665Y212254D01*
X65945Y218673D01*
X65945Y225319D01*
X67665Y231739D01*
X70988Y237494D01*
X75688Y242194D01*
X81443Y245517D01*
X87863Y247237D01*
X94509Y247237D01*
X100929Y245517D01*
X106684Y242194D01*
X111384Y237494D01*
X114707Y231739D01*
X116427Y225319D01*
X116427Y218673D01*
X114707Y212253D01*
X111384Y206498D01*
X106684Y201798D01*
X106422Y201647D01*
X106320Y201577D01*
X106213Y201515D01*
X106118Y201437D01*
X106016Y201367D01*
X105927Y201281D01*
X105831Y201202D01*
X105750Y201110D01*
X105661Y201024D01*
X105587Y200925D01*
X105505Y200833D01*
X105439Y200728D01*
X105365Y200629D01*
X105308Y200519D01*
X105242Y200415D01*
X105195Y200301D01*
X105137Y200192D01*
X105099Y200074D01*
X105051Y199960D01*
X105022Y199840D01*
X104983Y199723D01*
X104964Y199601D01*
X104935Y199481D01*
X104926Y199357D01*
X104907Y199236D01*
X104908Y199112D01*
X104898Y198989D01*
X104909Y198866D01*
X104910Y198742D01*
X104931Y198620D01*
X104941Y198497D01*
X104966Y198411D01*
X104992Y198256D01*
X105108Y197920D01*
X105130Y197842D01*
X106935Y193485D01*
X106935Y189039D01*
X105233Y184931D01*
X102493Y182191D01*
X102419Y182104D01*
X102338Y182024D01*
X102260Y181916D01*
X102174Y181815D01*
X102115Y181717D01*
X102048Y181625D01*
X101988Y181507D01*
X101919Y181392D01*
X101877Y181286D01*
X101825Y181184D01*
X101785Y181058D01*
X101736Y180934D01*
X101711Y180823D01*
X101677Y180714D01*
X101667Y180620D01*
X101629Y180453D01*
X101611Y180128D01*
X101601Y180036D01*
X101601Y156550D01*
X101610Y156436D01*
X101609Y156322D01*
X101630Y156190D01*
X101641Y156058D01*
X101668Y155947D01*
X101686Y155834D01*
X101727Y155708D01*
X101759Y155579D01*
X101804Y155474D01*
X101840Y155366D01*
X101902Y155248D01*
X101954Y155126D01*
X102015Y155030D01*
X102068Y154928D01*
X102127Y154855D01*
X102219Y154710D01*
X102435Y154468D01*
X102493Y154395D01*
X105101Y151788D01*
X107189Y146746D01*
X107189Y126050D01*
X105100Y121008D01*
X101242Y117150D01*
X96200Y115061D01*
X90744Y115061D01*
X85702Y117149D01*
X82927Y119925D01*
X82869Y119974D01*
X82817Y120030D01*
X82681Y120134D01*
X82551Y120244D01*
X82485Y120284D01*
X82425Y120330D01*
X82275Y120411D01*
X82128Y120499D01*
X82058Y120527D01*
X81990Y120563D01*
X81829Y120619D01*
X81670Y120682D01*
X81596Y120698D01*
X81524Y120723D01*
X81355Y120752D01*
X81189Y120789D01*
X81112Y120793D01*
X81037Y120806D01*
X80866Y120807D01*
X80696Y120816D01*
X80620Y120808D01*
X80544Y120809D01*
X80375Y120782D01*
X80205Y120764D01*
X80132Y120744D01*
X80057Y120732D01*
X79894Y120679D01*
X79730Y120634D01*
X79660Y120602D01*
X79588Y120578D01*
X79436Y120499D01*
X79281Y120428D01*
X79218Y120385D01*
X79150Y120350D01*
X79068Y120284D01*
X78872Y120152D01*
X78700Y119990D01*
X78617Y119925D01*
X75842Y117150D01*
X70800Y115061D01*
X65344Y115061D01*
G37*
%LPD*%
G36*
X696986Y90670D02*
X696986Y90670D01*
X697128Y90666D01*
X697232Y90680D01*
X697336Y90683D01*
X697476Y90712D01*
X697617Y90730D01*
X697717Y90760D01*
X697820Y90781D01*
X697953Y90832D01*
X698090Y90873D01*
X698183Y90919D01*
X698281Y90956D01*
X698405Y91027D01*
X698533Y91090D01*
X698618Y91150D01*
X698708Y91202D01*
X698819Y91293D01*
X698935Y91375D01*
X699009Y91449D01*
X699090Y91515D01*
X699185Y91622D01*
X699286Y91722D01*
X699347Y91806D01*
X699417Y91885D01*
X699493Y92006D01*
X699576Y92121D01*
X699623Y92214D01*
X699679Y92302D01*
X699734Y92434D01*
X699799Y92561D01*
X699830Y92661D01*
X699871Y92757D01*
X699904Y92896D01*
X699947Y93032D01*
X699956Y93110D01*
X699986Y93237D01*
X700019Y93669D01*
X700023Y93709D01*
X700023Y204145D01*
X702246Y209512D01*
X702290Y209647D01*
X702343Y209780D01*
X702365Y209882D01*
X702397Y209981D01*
X702419Y210122D01*
X702450Y210261D01*
X702455Y210366D01*
X702471Y210469D01*
X702469Y210611D01*
X702477Y210754D01*
X702466Y210858D01*
X702465Y210962D01*
X702440Y211103D01*
X702425Y211244D01*
X702397Y211345D01*
X702379Y211448D01*
X702332Y211583D01*
X702294Y211720D01*
X702251Y211815D01*
X702216Y211914D01*
X702148Y212039D01*
X702089Y212168D01*
X702030Y212255D01*
X701980Y212347D01*
X701893Y212460D01*
X701813Y212578D01*
X701742Y212654D01*
X701677Y212736D01*
X701573Y212833D01*
X701475Y212937D01*
X701392Y213001D01*
X701316Y213072D01*
X701197Y213151D01*
X701084Y213238D01*
X700992Y213287D01*
X700905Y213345D01*
X700775Y213403D01*
X700649Y213471D01*
X700550Y213505D01*
X700455Y213548D01*
X700317Y213585D01*
X700183Y213631D01*
X700079Y213648D01*
X699979Y213675D01*
X699837Y213689D01*
X699696Y213713D01*
X699592Y213714D01*
X699488Y213724D01*
X699346Y213716D01*
X699203Y213716D01*
X699099Y213700D01*
X698995Y213694D01*
X698857Y213662D01*
X698716Y213640D01*
X698616Y213607D01*
X698514Y213584D01*
X698382Y213530D01*
X698247Y213486D01*
X698154Y213437D01*
X698057Y213398D01*
X697936Y213324D01*
X697809Y213258D01*
X697748Y213209D01*
X697636Y213141D01*
X697307Y212857D01*
X697276Y212832D01*
X684097Y199653D01*
X681109Y198415D01*
X649728Y198415D01*
X649690Y198412D01*
X649651Y198414D01*
X649443Y198392D01*
X649236Y198375D01*
X649199Y198366D01*
X649161Y198362D01*
X648959Y198307D01*
X648757Y198257D01*
X648722Y198242D01*
X648685Y198231D01*
X648495Y198144D01*
X648304Y198062D01*
X648271Y198042D01*
X648237Y198026D01*
X648063Y197909D01*
X647888Y197797D01*
X647859Y197772D01*
X647827Y197750D01*
X647675Y197607D01*
X647520Y197468D01*
X647496Y197439D01*
X647468Y197412D01*
X647341Y197247D01*
X647210Y197084D01*
X647191Y197051D01*
X647168Y197021D01*
X647069Y196837D01*
X646966Y196656D01*
X646952Y196620D01*
X646934Y196586D01*
X646867Y196389D01*
X646794Y196193D01*
X646787Y196156D01*
X646774Y196120D01*
X646739Y195914D01*
X646699Y195709D01*
X646698Y195671D01*
X646692Y195633D01*
X646691Y195423D01*
X646684Y195216D01*
X646689Y195178D01*
X646689Y195140D01*
X646721Y194934D01*
X646748Y194727D01*
X646760Y194690D01*
X646765Y194653D01*
X646831Y194455D01*
X646891Y194255D01*
X646908Y194220D01*
X646920Y194184D01*
X647016Y193999D01*
X647108Y193811D01*
X647130Y193780D01*
X647148Y193746D01*
X647206Y193673D01*
X647393Y193409D01*
X647514Y193287D01*
X647573Y193213D01*
X647789Y192997D01*
X648717Y190757D01*
X648717Y182203D01*
X648705Y182127D01*
X648679Y182017D01*
X648669Y181884D01*
X648649Y181753D01*
X648650Y181638D01*
X648642Y181525D01*
X648653Y181392D01*
X648655Y181259D01*
X648675Y181147D01*
X648685Y181033D01*
X648711Y180943D01*
X648717Y180909D01*
X648717Y172203D01*
X648705Y172127D01*
X648679Y172017D01*
X648669Y171884D01*
X648649Y171753D01*
X648650Y171638D01*
X648642Y171525D01*
X648653Y171392D01*
X648655Y171259D01*
X648675Y171147D01*
X648685Y171033D01*
X648711Y170943D01*
X648717Y170909D01*
X648717Y162203D01*
X648705Y162127D01*
X648679Y162017D01*
X648669Y161884D01*
X648649Y161753D01*
X648650Y161638D01*
X648642Y161525D01*
X648653Y161392D01*
X648655Y161259D01*
X648675Y161147D01*
X648685Y161033D01*
X648711Y160943D01*
X648717Y160909D01*
X648717Y152203D01*
X648705Y152127D01*
X648679Y152017D01*
X648669Y151884D01*
X648649Y151753D01*
X648650Y151638D01*
X648642Y151525D01*
X648653Y151392D01*
X648655Y151259D01*
X648675Y151147D01*
X648685Y151033D01*
X648711Y150943D01*
X648717Y150909D01*
X648717Y142203D01*
X648705Y142127D01*
X648679Y142017D01*
X648669Y141884D01*
X648649Y141753D01*
X648650Y141638D01*
X648642Y141525D01*
X648653Y141392D01*
X648655Y141259D01*
X648675Y141147D01*
X648685Y141033D01*
X648711Y140943D01*
X648717Y140909D01*
X648717Y132203D01*
X648705Y132127D01*
X648679Y132017D01*
X648669Y131884D01*
X648649Y131753D01*
X648650Y131638D01*
X648642Y131525D01*
X648653Y131392D01*
X648655Y131259D01*
X648675Y131147D01*
X648685Y131033D01*
X648711Y130943D01*
X648717Y130909D01*
X648717Y122203D01*
X648705Y122127D01*
X648679Y122017D01*
X648669Y121884D01*
X648649Y121753D01*
X648650Y121638D01*
X648642Y121525D01*
X648653Y121392D01*
X648655Y121259D01*
X648675Y121147D01*
X648685Y121033D01*
X648711Y120943D01*
X648717Y120909D01*
X648717Y118736D01*
X648723Y118660D01*
X648721Y118584D01*
X648743Y118415D01*
X648757Y118244D01*
X648775Y118170D01*
X648785Y118095D01*
X648834Y117931D01*
X648875Y117765D01*
X648905Y117696D01*
X648927Y117622D01*
X649003Y117469D01*
X649070Y117312D01*
X649111Y117248D01*
X649144Y117179D01*
X649243Y117040D01*
X649335Y116896D01*
X649386Y116839D01*
X649430Y116777D01*
X649550Y116656D01*
X649664Y116528D01*
X649723Y116480D01*
X649777Y116426D01*
X649915Y116325D01*
X650048Y116218D01*
X650114Y116181D01*
X650175Y116136D01*
X650328Y116059D01*
X650476Y115974D01*
X650548Y115948D01*
X650616Y115913D01*
X650779Y115862D01*
X650939Y115803D01*
X651014Y115788D01*
X651086Y115765D01*
X651191Y115753D01*
X651423Y115708D01*
X651659Y115701D01*
X651764Y115689D01*
X671753Y115689D01*
X675114Y114297D01*
X677470Y111940D01*
X677471Y111940D01*
X680900Y108511D01*
X680900Y108510D01*
X684237Y105173D01*
X684244Y105167D01*
X684251Y105160D01*
X684432Y105008D01*
X684613Y104854D01*
X684621Y104849D01*
X684629Y104843D01*
X684664Y104824D01*
X685036Y104599D01*
X685157Y104551D01*
X685226Y104513D01*
X686288Y104073D01*
X691575Y98786D01*
X694161Y92543D01*
X694226Y92416D01*
X694282Y92285D01*
X694338Y92197D01*
X694386Y92104D01*
X694471Y91989D01*
X694547Y91869D01*
X694617Y91792D01*
X694679Y91707D01*
X694781Y91608D01*
X694876Y91501D01*
X694957Y91436D01*
X695032Y91363D01*
X695149Y91281D01*
X695260Y91192D01*
X695350Y91140D01*
X695436Y91080D01*
X695564Y91018D01*
X695688Y90948D01*
X695786Y90911D01*
X695881Y90866D01*
X696017Y90825D01*
X696151Y90776D01*
X696253Y90756D01*
X696354Y90726D01*
X696495Y90709D01*
X696635Y90681D01*
X696739Y90678D01*
X696843Y90665D01*
X696986Y90670D01*
G37*
G36*
X393382Y185276D02*
X393382Y185276D01*
X393420Y185276D01*
X393627Y185309D01*
X393833Y185336D01*
X393870Y185347D01*
X393907Y185353D01*
X394106Y185418D01*
X394305Y185478D01*
X394340Y185495D01*
X394376Y185507D01*
X394561Y185603D01*
X394749Y185695D01*
X394780Y185717D01*
X394814Y185735D01*
X394886Y185793D01*
X395151Y185981D01*
X395273Y186102D01*
X395347Y186160D01*
X426721Y217535D01*
X428822Y218405D01*
X428949Y218470D01*
X429080Y218526D01*
X429168Y218582D01*
X429261Y218630D01*
X429376Y218715D01*
X429496Y218791D01*
X429574Y218861D01*
X429658Y218923D01*
X429758Y219025D01*
X429814Y219076D01*
X429819Y219073D01*
X429950Y218996D01*
X430039Y218962D01*
X430124Y218919D01*
X430269Y218874D01*
X430411Y218819D01*
X430504Y218800D01*
X430595Y218771D01*
X430695Y218760D01*
X430894Y218718D01*
X431169Y218706D01*
X431272Y218695D01*
X455575Y218695D01*
X455689Y218704D01*
X455803Y218703D01*
X455935Y218724D01*
X456067Y218735D01*
X456178Y218762D01*
X456291Y218780D01*
X456417Y218821D01*
X456546Y218853D01*
X456651Y218898D01*
X456759Y218934D01*
X456877Y218996D01*
X456999Y219048D01*
X457095Y219109D01*
X457197Y219162D01*
X457270Y219221D01*
X457415Y219313D01*
X457657Y219529D01*
X457730Y219587D01*
X461819Y223677D01*
X461869Y223735D01*
X461924Y223787D01*
X462028Y223923D01*
X462139Y224053D01*
X462178Y224118D01*
X462225Y224178D01*
X462305Y224329D01*
X462394Y224475D01*
X462422Y224546D01*
X462458Y224613D01*
X462513Y224775D01*
X462577Y224933D01*
X462593Y225008D01*
X462618Y225080D01*
X462646Y225248D01*
X462683Y225415D01*
X462688Y225491D01*
X462700Y225566D01*
X462701Y225737D01*
X462711Y225908D01*
X462703Y225983D01*
X462703Y226060D01*
X462677Y226228D01*
X462659Y226398D01*
X462639Y226471D01*
X462627Y226547D01*
X462573Y226709D01*
X462528Y226874D01*
X462496Y226943D01*
X462473Y227015D01*
X462394Y227167D01*
X462322Y227322D01*
X462280Y227385D01*
X462245Y227453D01*
X462179Y227535D01*
X462047Y227732D01*
X461885Y227904D01*
X461819Y227986D01*
X460679Y229127D01*
X458977Y233235D01*
X458977Y237681D01*
X460679Y241789D01*
X463823Y244933D01*
X467931Y246635D01*
X472377Y246635D01*
X473876Y246014D01*
X474084Y245947D01*
X474291Y245876D01*
X474319Y245871D01*
X474346Y245863D01*
X474561Y245830D01*
X474777Y245793D01*
X474806Y245793D01*
X474834Y245789D01*
X475052Y245792D01*
X475270Y245790D01*
X475299Y245795D01*
X475327Y245795D01*
X475541Y245833D01*
X475758Y245867D01*
X475785Y245876D01*
X475813Y245881D01*
X476018Y245953D01*
X476226Y246021D01*
X476252Y246034D01*
X476278Y246044D01*
X476470Y246148D01*
X476664Y246249D01*
X476682Y246264D01*
X476712Y246280D01*
X477101Y246583D01*
X477156Y246641D01*
X477197Y246674D01*
X483331Y252808D01*
X485903Y255381D01*
X488704Y256541D01*
X532376Y256541D01*
X535220Y255363D01*
X535258Y255332D01*
X535417Y255197D01*
X535450Y255177D01*
X535480Y255153D01*
X535661Y255050D01*
X535840Y254942D01*
X535875Y254928D01*
X535908Y254909D01*
X536104Y254836D01*
X536298Y254759D01*
X536335Y254751D01*
X536371Y254737D01*
X536576Y254697D01*
X536779Y254652D01*
X536818Y254650D01*
X536855Y254643D01*
X537063Y254636D01*
X537272Y254624D01*
X537310Y254629D01*
X537348Y254627D01*
X537555Y254655D01*
X537762Y254677D01*
X537799Y254687D01*
X537837Y254692D01*
X538037Y254752D01*
X538238Y254807D01*
X538273Y254823D01*
X538310Y254834D01*
X538497Y254926D01*
X538687Y255013D01*
X538718Y255034D01*
X538753Y255051D01*
X538923Y255172D01*
X539096Y255288D01*
X539124Y255315D01*
X539155Y255337D01*
X539303Y255483D01*
X539455Y255626D01*
X539479Y255656D01*
X539506Y255683D01*
X539629Y255852D01*
X539756Y256018D01*
X539774Y256051D01*
X539796Y256082D01*
X539890Y256268D01*
X539989Y256452D01*
X540001Y256488D01*
X540019Y256523D01*
X540081Y256722D01*
X540149Y256919D01*
X540155Y256956D01*
X540167Y256993D01*
X540177Y257086D01*
X540232Y257405D01*
X540233Y257577D01*
X540243Y257671D01*
X540243Y258489D01*
X542304Y266180D01*
X546285Y273076D01*
X546898Y273689D01*
X546923Y273718D01*
X546952Y273744D01*
X547083Y273906D01*
X547218Y274065D01*
X547238Y274098D01*
X547262Y274128D01*
X547365Y274309D01*
X547473Y274488D01*
X547487Y274523D01*
X547506Y274556D01*
X547578Y274752D01*
X547656Y274946D01*
X547664Y274983D01*
X547677Y275019D01*
X547717Y275223D01*
X547762Y275427D01*
X547765Y275466D01*
X547772Y275503D01*
X547778Y275711D01*
X547790Y275920D01*
X547786Y275958D01*
X547787Y275996D01*
X547760Y276202D01*
X547738Y276411D01*
X547728Y276447D01*
X547723Y276485D01*
X547662Y276685D01*
X547607Y276886D01*
X547591Y276921D01*
X547580Y276958D01*
X547489Y277145D01*
X547401Y277335D01*
X547380Y277366D01*
X547363Y277401D01*
X547243Y277570D01*
X547126Y277744D01*
X547100Y277772D01*
X547078Y277803D01*
X546931Y277951D01*
X546788Y278104D01*
X546758Y278127D01*
X546731Y278154D01*
X546562Y278277D01*
X546397Y278404D01*
X546363Y278422D01*
X546332Y278444D01*
X546146Y278538D01*
X545962Y278637D01*
X545926Y278649D01*
X545892Y278667D01*
X545693Y278729D01*
X545495Y278797D01*
X545458Y278803D01*
X545421Y278815D01*
X545329Y278825D01*
X545009Y278880D01*
X544837Y278881D01*
X544744Y278891D01*
X450682Y278891D01*
X450644Y278888D01*
X450606Y278890D01*
X450398Y278868D01*
X450191Y278851D01*
X450154Y278842D01*
X450116Y278838D01*
X449914Y278783D01*
X449712Y278733D01*
X449677Y278718D01*
X449640Y278707D01*
X449450Y278620D01*
X449258Y278538D01*
X449226Y278518D01*
X449191Y278502D01*
X449018Y278385D01*
X448842Y278273D01*
X448814Y278248D01*
X448782Y278226D01*
X448630Y278084D01*
X448474Y277944D01*
X448450Y277915D01*
X448423Y277888D01*
X448295Y277723D01*
X448164Y277560D01*
X448146Y277527D01*
X448122Y277497D01*
X448024Y277313D01*
X447920Y277132D01*
X447907Y277096D01*
X447889Y277062D01*
X447822Y276865D01*
X447749Y276669D01*
X447742Y276632D01*
X447729Y276596D01*
X447694Y276390D01*
X447654Y276185D01*
X447653Y276147D01*
X447647Y276109D01*
X447645Y275900D01*
X447639Y275692D01*
X447644Y275654D01*
X447644Y275616D01*
X447676Y275409D01*
X447703Y275203D01*
X447714Y275166D01*
X447720Y275129D01*
X447785Y274931D01*
X447846Y274731D01*
X447863Y274696D01*
X447874Y274660D01*
X447971Y274475D01*
X448063Y274287D01*
X448085Y274256D01*
X448102Y274222D01*
X448160Y274150D01*
X448348Y273885D01*
X448469Y273763D01*
X448528Y273689D01*
X449141Y273076D01*
X453122Y266180D01*
X455183Y258489D01*
X455183Y250527D01*
X453122Y242836D01*
X449141Y235940D01*
X443510Y230309D01*
X436614Y226328D01*
X430484Y224685D01*
X430394Y224653D01*
X430302Y224631D01*
X430162Y224571D01*
X430019Y224520D01*
X429936Y224474D01*
X429848Y224436D01*
X429720Y224355D01*
X429587Y224281D01*
X429512Y224222D01*
X429432Y224171D01*
X429319Y224070D01*
X429200Y223976D01*
X429135Y223906D01*
X429117Y223889D01*
X429063Y223923D01*
X428931Y223978D01*
X428804Y224043D01*
X428705Y224074D01*
X428608Y224115D01*
X428470Y224148D01*
X428334Y224191D01*
X428256Y224200D01*
X428129Y224230D01*
X427696Y224263D01*
X427656Y224267D01*
X420961Y224267D01*
X413270Y226328D01*
X406374Y230309D01*
X400743Y235940D01*
X396762Y242836D01*
X395460Y247694D01*
X395380Y247918D01*
X395302Y248142D01*
X395298Y248150D01*
X395294Y248159D01*
X395178Y248369D01*
X395066Y248575D01*
X395060Y248582D01*
X395056Y248591D01*
X394909Y248777D01*
X394763Y248965D01*
X394756Y248971D01*
X394751Y248978D01*
X394577Y249137D01*
X394402Y249300D01*
X394394Y249305D01*
X394387Y249312D01*
X394188Y249442D01*
X393991Y249573D01*
X393982Y249577D01*
X393974Y249582D01*
X393756Y249679D01*
X393541Y249776D01*
X393532Y249778D01*
X393523Y249782D01*
X393295Y249842D01*
X393064Y249903D01*
X393055Y249904D01*
X393046Y249907D01*
X392811Y249929D01*
X392573Y249952D01*
X392564Y249952D01*
X392555Y249953D01*
X392319Y249937D01*
X392081Y249922D01*
X392072Y249920D01*
X392062Y249919D01*
X391832Y249865D01*
X391600Y249812D01*
X391591Y249808D01*
X391582Y249806D01*
X391364Y249716D01*
X391143Y249626D01*
X391135Y249621D01*
X391126Y249617D01*
X390924Y249492D01*
X390722Y249368D01*
X390715Y249362D01*
X390707Y249357D01*
X390527Y249200D01*
X390348Y249047D01*
X390342Y249039D01*
X390335Y249033D01*
X390182Y248848D01*
X390031Y248669D01*
X390027Y248662D01*
X390020Y248653D01*
X389771Y248228D01*
X389733Y248130D01*
X389701Y248072D01*
X389629Y247896D01*
X387600Y245868D01*
X387551Y245810D01*
X387495Y245758D01*
X387392Y245622D01*
X387281Y245492D01*
X387242Y245426D01*
X387195Y245366D01*
X387114Y245216D01*
X387026Y245069D01*
X386998Y244999D01*
X386962Y244931D01*
X386907Y244770D01*
X386843Y244611D01*
X386827Y244537D01*
X386802Y244465D01*
X386773Y244296D01*
X386736Y244130D01*
X386732Y244053D01*
X386719Y243978D01*
X386718Y243807D01*
X386709Y243637D01*
X386717Y243561D01*
X386716Y243485D01*
X386743Y243316D01*
X386761Y243146D01*
X386781Y243073D01*
X386793Y242998D01*
X386846Y242835D01*
X386892Y242671D01*
X386923Y242601D01*
X386947Y242529D01*
X387026Y242377D01*
X387097Y242222D01*
X387140Y242159D01*
X387175Y242091D01*
X387241Y242009D01*
X387373Y241813D01*
X387535Y241640D01*
X387600Y241558D01*
X390391Y238768D01*
X391895Y235137D01*
X391895Y231207D01*
X390377Y227542D01*
X390374Y227533D01*
X390369Y227524D01*
X390297Y227296D01*
X390225Y227073D01*
X390224Y227063D01*
X390221Y227054D01*
X390217Y227013D01*
X390152Y226585D01*
X390154Y226454D01*
X390145Y226376D01*
X390145Y188315D01*
X390148Y188277D01*
X390146Y188239D01*
X390168Y188031D01*
X390185Y187823D01*
X390194Y187786D01*
X390198Y187748D01*
X390253Y187547D01*
X390303Y187344D01*
X390318Y187309D01*
X390329Y187272D01*
X390416Y187082D01*
X390498Y186891D01*
X390518Y186859D01*
X390534Y186824D01*
X390651Y186651D01*
X390763Y186475D01*
X390788Y186446D01*
X390810Y186415D01*
X390953Y186263D01*
X391092Y186107D01*
X391121Y186083D01*
X391147Y186055D01*
X391313Y185928D01*
X391476Y185797D01*
X391509Y185778D01*
X391539Y185755D01*
X391723Y185656D01*
X391904Y185553D01*
X391940Y185540D01*
X391974Y185522D01*
X392171Y185454D01*
X392367Y185381D01*
X392404Y185374D01*
X392440Y185362D01*
X392647Y185327D01*
X392851Y185287D01*
X392889Y185285D01*
X392927Y185279D01*
X393136Y185278D01*
X393344Y185271D01*
X393382Y185276D01*
G37*
G36*
X42970Y334315D02*
X42970Y334315D01*
X43074Y334312D01*
X43215Y334331D01*
X43358Y334340D01*
X43459Y334363D01*
X43563Y334377D01*
X43700Y334418D01*
X43839Y334449D01*
X43935Y334489D01*
X44035Y334519D01*
X44164Y334582D01*
X44296Y334635D01*
X44385Y334690D01*
X44479Y334736D01*
X44595Y334818D01*
X44716Y334893D01*
X44796Y334961D01*
X44881Y335021D01*
X44982Y335122D01*
X45090Y335215D01*
X45158Y335295D01*
X45232Y335368D01*
X45316Y335483D01*
X45407Y335593D01*
X45445Y335661D01*
X45522Y335767D01*
X45718Y336154D01*
X45737Y336189D01*
X46405Y337801D01*
X49549Y340945D01*
X53657Y342647D01*
X58103Y342647D01*
X61219Y341356D01*
X61426Y341289D01*
X61633Y341218D01*
X61661Y341214D01*
X61688Y341205D01*
X61904Y341173D01*
X62119Y341136D01*
X62148Y341136D01*
X62176Y341131D01*
X62394Y341134D01*
X62613Y341133D01*
X62641Y341137D01*
X62669Y341138D01*
X62884Y341175D01*
X63100Y341209D01*
X63127Y341218D01*
X63155Y341223D01*
X63361Y341295D01*
X63569Y341364D01*
X63594Y341377D01*
X63621Y341386D01*
X63812Y341490D01*
X64006Y341592D01*
X64025Y341606D01*
X64054Y341622D01*
X64444Y341925D01*
X64498Y341984D01*
X64539Y342017D01*
X82011Y359488D01*
X84583Y362061D01*
X87384Y363221D01*
X124539Y363221D01*
X124757Y363238D01*
X124975Y363252D01*
X125002Y363258D01*
X125031Y363261D01*
X125243Y363313D01*
X125456Y363362D01*
X125482Y363373D01*
X125510Y363379D01*
X125710Y363465D01*
X125913Y363548D01*
X125937Y363563D01*
X125963Y363574D01*
X126147Y363691D01*
X126334Y363805D01*
X126355Y363824D01*
X126379Y363839D01*
X126542Y363984D01*
X126707Y364127D01*
X126726Y364149D01*
X126747Y364168D01*
X126884Y364338D01*
X127025Y364505D01*
X127036Y364525D01*
X127057Y364552D01*
X127301Y364980D01*
X127329Y365056D01*
X127354Y365102D01*
X127580Y365647D01*
X131939Y370006D01*
X137634Y372365D01*
X143798Y372365D01*
X144618Y372025D01*
X144780Y371973D01*
X144940Y371913D01*
X145015Y371897D01*
X145087Y371874D01*
X145256Y371848D01*
X145423Y371815D01*
X145500Y371812D01*
X145575Y371800D01*
X145746Y371802D01*
X145916Y371796D01*
X145992Y371806D01*
X146069Y371806D01*
X146236Y371836D01*
X146406Y371857D01*
X146479Y371879D01*
X146554Y371892D01*
X146715Y371948D01*
X146879Y371997D01*
X146948Y372030D01*
X147020Y372055D01*
X147170Y372137D01*
X147323Y372211D01*
X147386Y372254D01*
X147453Y372291D01*
X147588Y372396D01*
X147728Y372493D01*
X147782Y372547D01*
X147843Y372594D01*
X147959Y372719D01*
X148081Y372838D01*
X148126Y372899D01*
X148178Y372955D01*
X148273Y373098D01*
X148374Y373235D01*
X148409Y373303D01*
X148451Y373367D01*
X148521Y373522D01*
X148599Y373674D01*
X148623Y373746D01*
X148654Y373816D01*
X148698Y373981D01*
X148750Y374143D01*
X148758Y374203D01*
X148782Y374293D01*
X148831Y374784D01*
X148829Y374805D01*
X148831Y374820D01*
X148847Y377231D01*
X148846Y377242D01*
X148847Y377251D01*
X148847Y377320D01*
X148838Y377430D01*
X148842Y377499D01*
X148838Y377575D01*
X148812Y377760D01*
X148807Y377811D01*
X148800Y377840D01*
X148769Y378064D01*
X148750Y378124D01*
X148744Y378166D01*
X148702Y378327D01*
X148683Y378381D01*
X148671Y378437D01*
X148630Y378532D01*
X148539Y378793D01*
X148442Y378970D01*
X148402Y379064D01*
X148320Y379209D01*
X148288Y379256D01*
X148262Y379307D01*
X148198Y379389D01*
X148042Y379617D01*
X147903Y379764D01*
X147840Y379843D01*
X147723Y379962D01*
X147679Y379999D01*
X147641Y380042D01*
X147558Y380104D01*
X147349Y380284D01*
X147176Y380390D01*
X147095Y380450D01*
X146951Y380535D01*
X146899Y380560D01*
X146851Y380591D01*
X146754Y380630D01*
X146507Y380749D01*
X146312Y380807D01*
X146217Y380844D01*
X146057Y380889D01*
X145572Y380980D01*
X145510Y380982D01*
X145468Y380990D01*
X145391Y380995D01*
X145252Y380994D01*
X145171Y381003D01*
X44056Y381003D01*
X43919Y380992D01*
X43837Y380995D01*
X43693Y380985D01*
X43205Y380910D01*
X43146Y380890D01*
X43104Y380884D01*
X42816Y380805D01*
X42762Y380785D01*
X42706Y380772D01*
X42611Y380730D01*
X42352Y380636D01*
X42175Y380537D01*
X42082Y380495D01*
X41824Y380344D01*
X41777Y380311D01*
X41726Y380284D01*
X41646Y380219D01*
X41420Y380061D01*
X41275Y379919D01*
X41196Y379855D01*
X40986Y379642D01*
X40949Y379599D01*
X40907Y379560D01*
X40846Y379476D01*
X40669Y379264D01*
X40565Y379090D01*
X40505Y379008D01*
X40357Y378748D01*
X40333Y378696D01*
X40303Y378647D01*
X40265Y378551D01*
X40149Y378301D01*
X40094Y378106D01*
X40058Y378011D01*
X39982Y377721D01*
X39896Y377235D01*
X39896Y377173D01*
X39888Y377131D01*
X39880Y376987D01*
X39882Y376877D01*
X39875Y376808D01*
X39875Y376744D01*
X39876Y376732D01*
X39875Y376724D01*
X39897Y373356D01*
X39881Y373246D01*
X39883Y373129D01*
X39875Y373057D01*
X39875Y337356D01*
X39886Y337214D01*
X39888Y337071D01*
X39906Y336968D01*
X39915Y336864D01*
X39949Y336726D01*
X39974Y336585D01*
X40008Y336486D01*
X40033Y336385D01*
X40090Y336254D01*
X40137Y336120D01*
X40187Y336028D01*
X40228Y335932D01*
X40304Y335811D01*
X40373Y335686D01*
X40437Y335604D01*
X40493Y335516D01*
X40588Y335409D01*
X40675Y335297D01*
X40752Y335226D01*
X40822Y335148D01*
X40933Y335058D01*
X41037Y334961D01*
X41124Y334903D01*
X41206Y334838D01*
X41329Y334767D01*
X41448Y334688D01*
X41543Y334645D01*
X41634Y334594D01*
X41768Y334544D01*
X41898Y334486D01*
X41999Y334459D01*
X42097Y334422D01*
X42237Y334395D01*
X42374Y334358D01*
X42479Y334348D01*
X42581Y334327D01*
X42723Y334323D01*
X42865Y334309D01*
X42970Y334315D01*
G37*
G36*
X580600Y-84328D02*
X580600Y-84328D01*
X580638Y-84330D01*
X580846Y-84308D01*
X581054Y-84291D01*
X581091Y-84282D01*
X581129Y-84278D01*
X581330Y-84223D01*
X581533Y-84173D01*
X581568Y-84158D01*
X581605Y-84147D01*
X581794Y-84060D01*
X581986Y-83978D01*
X582018Y-83958D01*
X582053Y-83942D01*
X582226Y-83825D01*
X582402Y-83713D01*
X582431Y-83688D01*
X582462Y-83666D01*
X582615Y-83523D01*
X582770Y-83384D01*
X582794Y-83355D01*
X582822Y-83329D01*
X582949Y-83163D01*
X583080Y-83000D01*
X583099Y-82967D01*
X583122Y-82937D01*
X583221Y-82753D01*
X583324Y-82572D01*
X583337Y-82536D01*
X583355Y-82502D01*
X583423Y-82305D01*
X583496Y-82109D01*
X583503Y-82072D01*
X583515Y-82036D01*
X583550Y-81829D01*
X583590Y-81625D01*
X583591Y-81587D01*
X583598Y-81549D01*
X583599Y-81340D01*
X583606Y-81132D01*
X583601Y-81094D01*
X583601Y-81056D01*
X583568Y-80849D01*
X583541Y-80643D01*
X583530Y-80606D01*
X583524Y-80569D01*
X583459Y-80370D01*
X583399Y-80171D01*
X583382Y-80136D01*
X583370Y-80100D01*
X583274Y-79915D01*
X583182Y-79727D01*
X583160Y-79696D01*
X583142Y-79662D01*
X583084Y-79590D01*
X582896Y-79325D01*
X582776Y-79203D01*
X582717Y-79129D01*
X580953Y-77366D01*
X578865Y-72324D01*
X578865Y-51628D01*
X580954Y-46586D01*
X584812Y-42728D01*
X589854Y-40639D01*
X595310Y-40639D01*
X600352Y-42728D01*
X603127Y-45503D01*
X603185Y-45552D01*
X603238Y-45608D01*
X603373Y-45712D01*
X603503Y-45822D01*
X603569Y-45862D01*
X603629Y-45908D01*
X603779Y-45989D01*
X603926Y-46077D01*
X603997Y-46105D01*
X604064Y-46141D01*
X604225Y-46197D01*
X604384Y-46260D01*
X604458Y-46276D01*
X604530Y-46301D01*
X604699Y-46330D01*
X604866Y-46367D01*
X604942Y-46371D01*
X605017Y-46384D01*
X605188Y-46385D01*
X605358Y-46394D01*
X605434Y-46386D01*
X605510Y-46387D01*
X605679Y-46360D01*
X605849Y-46342D01*
X605922Y-46322D01*
X605997Y-46310D01*
X606160Y-46257D01*
X606324Y-46212D01*
X606394Y-46180D01*
X606466Y-46156D01*
X606617Y-46077D01*
X606773Y-46006D01*
X606836Y-45963D01*
X606904Y-45928D01*
X606986Y-45862D01*
X607182Y-45730D01*
X607354Y-45568D01*
X607437Y-45503D01*
X608961Y-43979D01*
X609035Y-43892D01*
X609116Y-43812D01*
X609194Y-43704D01*
X609280Y-43603D01*
X609339Y-43505D01*
X609406Y-43413D01*
X609466Y-43294D01*
X609535Y-43180D01*
X609577Y-43074D01*
X609629Y-42972D01*
X609669Y-42846D01*
X609718Y-42722D01*
X609743Y-42611D01*
X609777Y-42502D01*
X609787Y-42408D01*
X609825Y-42241D01*
X609843Y-41916D01*
X609853Y-41824D01*
X609853Y-28166D01*
X609847Y-28090D01*
X609849Y-28014D01*
X609827Y-27845D01*
X609813Y-27674D01*
X609795Y-27600D01*
X609785Y-27525D01*
X609736Y-27361D01*
X609695Y-27195D01*
X609665Y-27126D01*
X609643Y-27052D01*
X609567Y-26899D01*
X609500Y-26742D01*
X609459Y-26678D01*
X609426Y-26609D01*
X609327Y-26470D01*
X609235Y-26326D01*
X609184Y-26269D01*
X609140Y-26207D01*
X609020Y-26086D01*
X608906Y-25958D01*
X608847Y-25910D01*
X608793Y-25856D01*
X608655Y-25755D01*
X608522Y-25648D01*
X608456Y-25611D01*
X608395Y-25566D01*
X608242Y-25489D01*
X608094Y-25404D01*
X608022Y-25378D01*
X607954Y-25343D01*
X607791Y-25292D01*
X607631Y-25233D01*
X607556Y-25218D01*
X607484Y-25195D01*
X607379Y-25183D01*
X607147Y-25138D01*
X606911Y-25131D01*
X606898Y-25129D01*
X603242Y-23615D01*
X600463Y-20836D01*
X598959Y-17205D01*
X598959Y-13275D01*
X598991Y-13199D01*
X599058Y-12991D01*
X599129Y-12784D01*
X599133Y-12756D01*
X599142Y-12729D01*
X599175Y-12514D01*
X599211Y-12298D01*
X599211Y-12270D01*
X599216Y-12242D01*
X599213Y-12024D01*
X599214Y-11805D01*
X599210Y-11777D01*
X599209Y-11748D01*
X599172Y-11534D01*
X599138Y-11317D01*
X599129Y-11290D01*
X599124Y-11262D01*
X599052Y-11057D01*
X598983Y-10849D01*
X598970Y-10823D01*
X598961Y-10797D01*
X598857Y-10605D01*
X598756Y-10411D01*
X598741Y-10393D01*
X598725Y-10363D01*
X598422Y-9974D01*
X598363Y-9919D01*
X598330Y-9878D01*
X570095Y18358D01*
X570066Y18382D01*
X570040Y18411D01*
X569878Y18542D01*
X569719Y18677D01*
X569686Y18697D01*
X569656Y18721D01*
X569475Y18824D01*
X569296Y18932D01*
X569261Y18946D01*
X569228Y18965D01*
X569032Y19037D01*
X568838Y19115D01*
X568801Y19123D01*
X568765Y19136D01*
X568560Y19176D01*
X568356Y19221D01*
X568318Y19224D01*
X568281Y19231D01*
X568073Y19237D01*
X567864Y19249D01*
X567826Y19245D01*
X567788Y19246D01*
X567581Y19219D01*
X567373Y19197D01*
X567337Y19187D01*
X567299Y19182D01*
X567099Y19121D01*
X566898Y19066D01*
X566863Y19050D01*
X566826Y19039D01*
X566639Y18948D01*
X566449Y18861D01*
X566417Y18839D01*
X566383Y18822D01*
X566213Y18702D01*
X566040Y18585D01*
X566012Y18559D01*
X565981Y18537D01*
X565832Y18390D01*
X565680Y18247D01*
X565657Y18217D01*
X565630Y18190D01*
X565507Y18022D01*
X565380Y17856D01*
X565362Y17822D01*
X565340Y17791D01*
X565246Y17605D01*
X565147Y17421D01*
X565135Y17385D01*
X565117Y17351D01*
X565055Y17152D01*
X564987Y16954D01*
X564981Y16917D01*
X564969Y16881D01*
X564959Y16788D01*
X564904Y16468D01*
X564903Y16296D01*
X564893Y16203D01*
X564893Y-78486D01*
X564903Y-78610D01*
X564899Y-78685D01*
X564923Y-79051D01*
X564995Y-79539D01*
X565014Y-79598D01*
X565021Y-79640D01*
X565210Y-80345D01*
X565229Y-80399D01*
X565241Y-80455D01*
X565283Y-80550D01*
X565375Y-80810D01*
X565473Y-80988D01*
X565514Y-81080D01*
X565879Y-81713D01*
X565912Y-81760D01*
X565938Y-81811D01*
X566003Y-81892D01*
X566160Y-82119D01*
X566300Y-82265D01*
X566363Y-82344D01*
X566880Y-82861D01*
X566923Y-82898D01*
X566962Y-82940D01*
X567046Y-83002D01*
X567256Y-83180D01*
X567430Y-83285D01*
X567511Y-83345D01*
X568144Y-83710D01*
X568195Y-83735D01*
X568244Y-83765D01*
X568340Y-83803D01*
X568589Y-83921D01*
X568784Y-83977D01*
X568879Y-84014D01*
X569584Y-84203D01*
X570069Y-84292D01*
X570132Y-84293D01*
X570173Y-84301D01*
X570539Y-84325D01*
X570663Y-84323D01*
X570738Y-84331D01*
X580562Y-84331D01*
X580600Y-84328D01*
G37*
G36*
X539617Y52333D02*
X539617Y52333D01*
X539778Y52330D01*
X539863Y52342D01*
X539949Y52345D01*
X540107Y52377D01*
X540266Y52400D01*
X540348Y52426D01*
X540432Y52443D01*
X540583Y52500D01*
X540737Y52548D01*
X540813Y52587D01*
X540894Y52617D01*
X541033Y52698D01*
X541177Y52771D01*
X541246Y52821D01*
X541321Y52864D01*
X541446Y52966D01*
X541576Y53061D01*
X541636Y53122D01*
X541703Y53177D01*
X541809Y53297D01*
X541923Y53412D01*
X541972Y53482D01*
X542029Y53546D01*
X542115Y53683D01*
X542208Y53815D01*
X542246Y53892D01*
X542291Y53964D01*
X542354Y54113D01*
X542425Y54258D01*
X542450Y54340D01*
X542483Y54419D01*
X542521Y54576D01*
X542567Y54730D01*
X542578Y54815D01*
X542599Y54898D01*
X542611Y55060D01*
X542632Y55219D01*
X542629Y55305D01*
X542635Y55390D01*
X542621Y55551D01*
X542616Y55712D01*
X542600Y55796D01*
X542592Y55882D01*
X542563Y55982D01*
X542543Y56085D01*
X542543Y76896D01*
X544632Y81938D01*
X548490Y85796D01*
X553532Y87885D01*
X558988Y87885D01*
X564030Y85796D01*
X567888Y81938D01*
X568296Y80954D01*
X568375Y80800D01*
X568446Y80642D01*
X568487Y80581D01*
X568521Y80515D01*
X568624Y80376D01*
X568720Y80232D01*
X568770Y80177D01*
X568814Y80118D01*
X568938Y79997D01*
X569056Y79870D01*
X569114Y79825D01*
X569167Y79773D01*
X569309Y79674D01*
X569446Y79568D01*
X569511Y79533D01*
X569571Y79490D01*
X569727Y79415D01*
X569879Y79333D01*
X569949Y79308D01*
X570016Y79276D01*
X570182Y79227D01*
X570345Y79171D01*
X570418Y79158D01*
X570489Y79137D01*
X570661Y79115D01*
X570831Y79086D01*
X570905Y79085D01*
X570979Y79076D01*
X571151Y79082D01*
X571324Y79080D01*
X571398Y79091D01*
X571472Y79094D01*
X571641Y79128D01*
X571812Y79154D01*
X571883Y79177D01*
X571955Y79192D01*
X572117Y79253D01*
X572281Y79306D01*
X572347Y79340D01*
X572417Y79366D01*
X572566Y79453D01*
X572720Y79532D01*
X572780Y79576D01*
X572844Y79613D01*
X572977Y79722D01*
X573117Y79825D01*
X573156Y79868D01*
X573226Y79925D01*
X573552Y80295D01*
X573565Y80316D01*
X573577Y80329D01*
X573910Y80787D01*
X575041Y81918D01*
X576335Y82858D01*
X577760Y83584D01*
X578660Y83877D01*
X578710Y83898D01*
X578761Y83912D01*
X578937Y83992D01*
X579116Y84067D01*
X579161Y84095D01*
X579210Y84117D01*
X579370Y84225D01*
X579534Y84328D01*
X579575Y84363D01*
X579619Y84393D01*
X579760Y84525D01*
X579906Y84653D01*
X579939Y84694D01*
X579978Y84731D01*
X580096Y84884D01*
X580219Y85034D01*
X580246Y85080D01*
X580279Y85122D01*
X580370Y85292D01*
X580468Y85460D01*
X580487Y85510D01*
X580512Y85557D01*
X580575Y85740D01*
X580644Y85921D01*
X580655Y85973D01*
X580672Y86023D01*
X580704Y86214D01*
X580743Y86404D01*
X580746Y86457D01*
X580755Y86510D01*
X580756Y86704D01*
X580764Y86897D01*
X580757Y86950D01*
X580758Y87003D01*
X580727Y87195D01*
X580704Y87387D01*
X580689Y87438D01*
X580681Y87491D01*
X580620Y87675D01*
X580566Y87860D01*
X580543Y87908D01*
X580527Y87959D01*
X580437Y88131D01*
X580354Y88306D01*
X580323Y88349D01*
X580299Y88397D01*
X580235Y88477D01*
X580072Y88711D01*
X579936Y88852D01*
X579874Y88930D01*
X554542Y114262D01*
X554404Y114379D01*
X554272Y114501D01*
X554216Y114538D01*
X554166Y114581D01*
X554011Y114675D01*
X553861Y114774D01*
X553800Y114802D01*
X553743Y114836D01*
X553575Y114903D01*
X553411Y114977D01*
X553347Y114994D01*
X553285Y115019D01*
X553109Y115058D01*
X552934Y115105D01*
X552868Y115111D01*
X552803Y115126D01*
X552623Y115136D01*
X552444Y115154D01*
X552377Y115150D01*
X552311Y115153D01*
X552131Y115134D01*
X551951Y115123D01*
X551886Y115108D01*
X551820Y115101D01*
X551646Y115053D01*
X551470Y115013D01*
X551409Y114988D01*
X551344Y114971D01*
X551180Y114895D01*
X551013Y114827D01*
X550957Y114793D01*
X550896Y114765D01*
X550746Y114664D01*
X550592Y114570D01*
X550542Y114527D01*
X550487Y114489D01*
X550355Y114366D01*
X550218Y114248D01*
X550176Y114197D01*
X550127Y114152D01*
X550017Y114008D01*
X549901Y113870D01*
X549876Y113824D01*
X549827Y113760D01*
X549594Y113325D01*
X549583Y113294D01*
X549572Y113273D01*
X549535Y113184D01*
X506353Y70003D01*
X506279Y69916D01*
X506198Y69835D01*
X506120Y69728D01*
X506034Y69627D01*
X505975Y69529D01*
X505908Y69437D01*
X505848Y69318D01*
X505779Y69204D01*
X505737Y69098D01*
X505685Y68996D01*
X505645Y68869D01*
X505596Y68746D01*
X505571Y68635D01*
X505537Y68526D01*
X505527Y68432D01*
X505489Y68264D01*
X505471Y67940D01*
X505461Y67848D01*
X505461Y56638D01*
X505467Y56562D01*
X505465Y56486D01*
X505487Y56317D01*
X505501Y56146D01*
X505519Y56072D01*
X505529Y55997D01*
X505578Y55833D01*
X505619Y55667D01*
X505649Y55598D01*
X505671Y55524D01*
X505747Y55371D01*
X505814Y55214D01*
X505855Y55150D01*
X505888Y55081D01*
X505987Y54942D01*
X506079Y54798D01*
X506130Y54741D01*
X506174Y54679D01*
X506294Y54558D01*
X506408Y54430D01*
X506467Y54382D01*
X506521Y54328D01*
X506659Y54227D01*
X506792Y54120D01*
X506858Y54083D01*
X506919Y54038D01*
X507072Y53961D01*
X507220Y53876D01*
X507292Y53850D01*
X507360Y53815D01*
X507523Y53764D01*
X507683Y53705D01*
X507758Y53690D01*
X507830Y53667D01*
X507935Y53655D01*
X508167Y53610D01*
X508403Y53603D01*
X508508Y53591D01*
X534458Y53591D01*
X538799Y52427D01*
X538884Y52412D01*
X538966Y52388D01*
X539126Y52368D01*
X539285Y52339D01*
X539370Y52337D01*
X539456Y52327D01*
X539617Y52333D01*
G37*
G36*
X592950Y19770D02*
X592950Y19770D01*
X593016Y19767D01*
X593196Y19786D01*
X593376Y19797D01*
X593441Y19812D01*
X593507Y19819D01*
X593681Y19867D01*
X593857Y19907D01*
X593918Y19932D01*
X593983Y19949D01*
X594147Y20025D01*
X594314Y20093D01*
X594371Y20127D01*
X594431Y20155D01*
X594581Y20256D01*
X594735Y20350D01*
X594785Y20394D01*
X594840Y20431D01*
X594972Y20554D01*
X595109Y20672D01*
X595151Y20723D01*
X595200Y20768D01*
X595310Y20912D01*
X595426Y21050D01*
X595451Y21096D01*
X595500Y21160D01*
X595733Y21595D01*
X595744Y21626D01*
X595756Y21647D01*
X595851Y21877D01*
X599555Y25580D01*
X599561Y25588D01*
X599568Y25594D01*
X599721Y25776D01*
X599874Y25956D01*
X599879Y25965D01*
X599885Y25972D01*
X599905Y26007D01*
X600129Y26379D01*
X600177Y26500D01*
X600215Y26569D01*
X601733Y30234D01*
X604512Y33013D01*
X605724Y33515D01*
X605733Y33519D01*
X605742Y33522D01*
X605949Y33630D01*
X606163Y33740D01*
X606171Y33746D01*
X606180Y33750D01*
X606211Y33775D01*
X606560Y34033D01*
X606652Y34127D01*
X606713Y34175D01*
X606834Y34297D01*
X610195Y35689D01*
X610970Y35689D01*
X611150Y35703D01*
X611330Y35710D01*
X611395Y35723D01*
X611462Y35729D01*
X611637Y35772D01*
X611814Y35808D01*
X611876Y35831D01*
X611940Y35847D01*
X612106Y35918D01*
X612275Y35982D01*
X612333Y36016D01*
X612394Y36042D01*
X612546Y36139D01*
X612702Y36229D01*
X612754Y36271D01*
X612810Y36307D01*
X612944Y36427D01*
X613084Y36542D01*
X613128Y36591D01*
X613178Y36636D01*
X613291Y36776D01*
X613410Y36911D01*
X613446Y36968D01*
X613488Y37020D01*
X613577Y37176D01*
X613673Y37329D01*
X613699Y37390D01*
X613732Y37448D01*
X613794Y37618D01*
X613864Y37784D01*
X613880Y37848D01*
X613903Y37911D01*
X613938Y38088D01*
X613980Y38263D01*
X613985Y38330D01*
X613998Y38395D01*
X614003Y38575D01*
X614017Y38755D01*
X614011Y38822D01*
X614013Y38888D01*
X613990Y39067D01*
X613974Y39247D01*
X613959Y39297D01*
X613949Y39377D01*
X613917Y39482D01*
X613917Y49558D01*
X613916Y49567D01*
X613917Y49577D01*
X613897Y49812D01*
X613877Y50050D01*
X613875Y50059D01*
X613874Y50069D01*
X613863Y50107D01*
X613759Y50528D01*
X613707Y50649D01*
X613685Y50724D01*
X612823Y52805D01*
X612823Y60283D01*
X614291Y63827D01*
X614294Y63836D01*
X614299Y63845D01*
X614352Y64015D01*
X614406Y64159D01*
X614417Y64218D01*
X614443Y64297D01*
X614444Y64306D01*
X614447Y64315D01*
X614451Y64356D01*
X614476Y64520D01*
X614500Y64643D01*
X614502Y64689D01*
X614516Y64785D01*
X614514Y64915D01*
X614523Y64993D01*
X614523Y70885D01*
X614535Y70960D01*
X614562Y71072D01*
X614571Y71204D01*
X614591Y71335D01*
X614590Y71449D01*
X614598Y71564D01*
X614587Y71695D01*
X614585Y71828D01*
X614565Y71941D01*
X614555Y72055D01*
X614529Y72145D01*
X614523Y72179D01*
X614523Y78095D01*
X614522Y78104D01*
X614523Y78114D01*
X614503Y78349D01*
X614483Y78587D01*
X614481Y78596D01*
X614480Y78606D01*
X614469Y78644D01*
X614365Y79065D01*
X614313Y79186D01*
X614291Y79261D01*
X612782Y82904D01*
X612765Y82938D01*
X612752Y82974D01*
X612652Y83158D01*
X612557Y83343D01*
X612535Y83374D01*
X612516Y83407D01*
X612388Y83572D01*
X612264Y83740D01*
X612237Y83767D01*
X612214Y83797D01*
X612061Y83939D01*
X611911Y84085D01*
X611880Y84106D01*
X611852Y84132D01*
X611677Y84248D01*
X611507Y84367D01*
X611473Y84384D01*
X611441Y84405D01*
X611250Y84491D01*
X611062Y84582D01*
X611026Y84592D01*
X610991Y84608D01*
X610790Y84662D01*
X610589Y84721D01*
X610551Y84726D01*
X610515Y84736D01*
X610307Y84756D01*
X610100Y84782D01*
X610062Y84781D01*
X610024Y84785D01*
X609815Y84772D01*
X609607Y84764D01*
X609569Y84756D01*
X609531Y84754D01*
X609328Y84707D01*
X609123Y84666D01*
X609088Y84653D01*
X609050Y84644D01*
X608857Y84565D01*
X608662Y84492D01*
X608629Y84473D01*
X608593Y84458D01*
X608415Y84349D01*
X608235Y84245D01*
X608205Y84221D01*
X608172Y84201D01*
X608014Y84065D01*
X607853Y83933D01*
X607827Y83904D01*
X607799Y83879D01*
X607664Y83719D01*
X607526Y83563D01*
X607506Y83530D01*
X607482Y83501D01*
X607436Y83419D01*
X607264Y83145D01*
X607197Y82986D01*
X607152Y82904D01*
X605529Y78986D01*
X602750Y76207D01*
X599119Y74703D01*
X594868Y74703D01*
X594792Y74697D01*
X594716Y74699D01*
X594547Y74677D01*
X594376Y74663D01*
X594302Y74645D01*
X594227Y74635D01*
X594063Y74586D01*
X593897Y74545D01*
X593828Y74515D01*
X593754Y74493D01*
X593601Y74417D01*
X593444Y74350D01*
X593380Y74309D01*
X593311Y74276D01*
X593172Y74177D01*
X593028Y74085D01*
X592971Y74034D01*
X592909Y73990D01*
X592788Y73870D01*
X592660Y73756D01*
X592612Y73697D01*
X592558Y73643D01*
X592457Y73505D01*
X592350Y73372D01*
X592313Y73306D01*
X592268Y73245D01*
X592191Y73092D01*
X592106Y72944D01*
X592080Y72872D01*
X592045Y72804D01*
X591994Y72641D01*
X591935Y72481D01*
X591920Y72406D01*
X591897Y72334D01*
X591885Y72229D01*
X591840Y71997D01*
X591833Y71761D01*
X591821Y71656D01*
X591821Y69595D01*
X581660Y69595D01*
X581584Y69589D01*
X581508Y69592D01*
X581339Y69569D01*
X581169Y69555D01*
X581095Y69537D01*
X581019Y69527D01*
X580855Y69478D01*
X580690Y69437D01*
X580620Y69407D01*
X580547Y69385D01*
X580393Y69310D01*
X580236Y69242D01*
X580172Y69201D01*
X580104Y69168D01*
X579964Y69069D01*
X579820Y68977D01*
X579764Y68926D01*
X579701Y68882D01*
X579580Y68762D01*
X579452Y68648D01*
X579404Y68589D01*
X579350Y68535D01*
X579249Y68397D01*
X579142Y68264D01*
X579104Y68198D01*
X579059Y68136D01*
X578983Y67984D01*
X578898Y67835D01*
X578871Y67764D01*
X578837Y67696D01*
X578786Y67533D01*
X578726Y67373D01*
X578712Y67298D01*
X578689Y67225D01*
X578677Y67121D01*
X578632Y66889D01*
X578624Y66653D01*
X578613Y66548D01*
X578613Y49235D01*
X577760Y49512D01*
X576335Y50238D01*
X575041Y51178D01*
X573910Y52309D01*
X573577Y52767D01*
X573464Y52898D01*
X573358Y53035D01*
X573304Y53085D01*
X573255Y53142D01*
X573123Y53253D01*
X572996Y53371D01*
X572934Y53412D01*
X572878Y53459D01*
X572729Y53548D01*
X572585Y53643D01*
X572518Y53674D01*
X572454Y53712D01*
X572293Y53775D01*
X572136Y53846D01*
X572064Y53865D01*
X571995Y53892D01*
X571826Y53929D01*
X571659Y53974D01*
X571585Y53981D01*
X571513Y53997D01*
X571340Y54006D01*
X571168Y54023D01*
X571094Y54018D01*
X571020Y54022D01*
X570848Y54003D01*
X570676Y53992D01*
X570604Y53976D01*
X570530Y53967D01*
X570363Y53921D01*
X570195Y53882D01*
X570126Y53854D01*
X570055Y53834D01*
X569898Y53762D01*
X569738Y53696D01*
X569675Y53658D01*
X569607Y53626D01*
X569465Y53529D01*
X569317Y53439D01*
X569261Y53391D01*
X569200Y53349D01*
X569074Y53230D01*
X568943Y53117D01*
X568895Y53060D01*
X568842Y53009D01*
X568737Y52871D01*
X568626Y52739D01*
X568598Y52688D01*
X568543Y52616D01*
X568312Y52181D01*
X568304Y52157D01*
X568296Y52142D01*
X567888Y51158D01*
X566771Y50041D01*
X566722Y49983D01*
X566666Y49931D01*
X566562Y49795D01*
X566452Y49665D01*
X566413Y49600D01*
X566366Y49539D01*
X566285Y49389D01*
X566197Y49242D01*
X566169Y49172D01*
X566133Y49104D01*
X566077Y48943D01*
X566014Y48784D01*
X565998Y48710D01*
X565973Y48638D01*
X565944Y48469D01*
X565907Y48303D01*
X565903Y48227D01*
X565890Y48151D01*
X565889Y47981D01*
X565880Y47810D01*
X565888Y47734D01*
X565887Y47658D01*
X565914Y47489D01*
X565932Y47320D01*
X565952Y47246D01*
X565964Y47171D01*
X566017Y47008D01*
X566063Y46844D01*
X566094Y46775D01*
X566118Y46702D01*
X566197Y46551D01*
X566268Y46395D01*
X566311Y46332D01*
X566346Y46265D01*
X566412Y46182D01*
X566544Y45986D01*
X566705Y45814D01*
X566771Y45731D01*
X568739Y43763D01*
X569256Y42516D01*
X569260Y42507D01*
X569263Y42498D01*
X569373Y42287D01*
X569481Y42077D01*
X569487Y42069D01*
X569491Y42060D01*
X569516Y42029D01*
X569774Y41680D01*
X569868Y41589D01*
X569917Y41527D01*
X590786Y20658D01*
X590923Y20541D01*
X591055Y20419D01*
X591111Y20382D01*
X591162Y20339D01*
X591316Y20245D01*
X591467Y20146D01*
X591527Y20118D01*
X591584Y20084D01*
X591752Y20017D01*
X591916Y19943D01*
X591980Y19926D01*
X592042Y19901D01*
X592218Y19862D01*
X592393Y19815D01*
X592459Y19809D01*
X592524Y19794D01*
X592704Y19784D01*
X592884Y19766D01*
X592950Y19770D01*
G37*
%LPC*%
G36*
X137126Y239775D02*
X137126Y239775D01*
X131431Y242134D01*
X127072Y246493D01*
X124713Y252188D01*
X124713Y258352D01*
X127072Y264047D01*
X128840Y265815D01*
X128890Y265873D01*
X128945Y265926D01*
X129049Y266061D01*
X129160Y266191D01*
X129199Y266257D01*
X129246Y266317D01*
X129326Y266467D01*
X129414Y266614D01*
X129443Y266685D01*
X129479Y266752D01*
X129534Y266913D01*
X129598Y267072D01*
X129614Y267146D01*
X129639Y267218D01*
X129667Y267387D01*
X129704Y267554D01*
X129709Y267630D01*
X129721Y267705D01*
X129722Y267876D01*
X129732Y268046D01*
X129724Y268122D01*
X129724Y268198D01*
X129698Y268367D01*
X129680Y268537D01*
X129660Y268610D01*
X129648Y268685D01*
X129594Y268848D01*
X129549Y269012D01*
X129517Y269082D01*
X129494Y269154D01*
X129415Y269305D01*
X129343Y269461D01*
X129301Y269524D01*
X129266Y269592D01*
X129200Y269674D01*
X129068Y269870D01*
X128906Y270042D01*
X128840Y270125D01*
X127072Y271893D01*
X124713Y277588D01*
X124713Y283752D01*
X127072Y289447D01*
X131431Y293806D01*
X137126Y296165D01*
X143290Y296165D01*
X148985Y293806D01*
X153344Y289447D01*
X155703Y283752D01*
X155703Y277588D01*
X153344Y271893D01*
X151576Y270125D01*
X151526Y270067D01*
X151471Y270015D01*
X151367Y269879D01*
X151256Y269749D01*
X151217Y269683D01*
X151170Y269623D01*
X151090Y269473D01*
X151002Y269326D01*
X150973Y269256D01*
X150937Y269188D01*
X150882Y269027D01*
X150818Y268868D01*
X150802Y268794D01*
X150777Y268722D01*
X150749Y268553D01*
X150712Y268387D01*
X150707Y268310D01*
X150695Y268235D01*
X150694Y268065D01*
X150684Y267894D01*
X150692Y267818D01*
X150692Y267742D01*
X150718Y267573D01*
X150736Y267403D01*
X150756Y267330D01*
X150768Y267255D01*
X150822Y267092D01*
X150867Y266928D01*
X150899Y266858D01*
X150922Y266786D01*
X151001Y266634D01*
X151073Y266479D01*
X151115Y266416D01*
X151150Y266348D01*
X151216Y266266D01*
X151348Y266070D01*
X151510Y265897D01*
X151576Y265815D01*
X153344Y264047D01*
X155703Y258352D01*
X155703Y252188D01*
X153344Y246493D01*
X148985Y242134D01*
X143290Y239775D01*
X137126Y239775D01*
G37*
%LPD*%
G36*
X500597Y91231D02*
X500597Y91231D01*
X500673Y91231D01*
X500842Y91257D01*
X501012Y91275D01*
X501085Y91295D01*
X501161Y91307D01*
X501323Y91361D01*
X501488Y91406D01*
X501557Y91438D01*
X501629Y91462D01*
X501781Y91540D01*
X501936Y91612D01*
X501999Y91654D01*
X502067Y91689D01*
X502149Y91755D01*
X502345Y91887D01*
X502518Y92049D01*
X502600Y92115D01*
X531745Y121259D01*
X531819Y121346D01*
X531900Y121427D01*
X531978Y121534D01*
X532064Y121635D01*
X532123Y121733D01*
X532190Y121825D01*
X532250Y121944D01*
X532319Y122058D01*
X532361Y122164D01*
X532413Y122266D01*
X532453Y122393D01*
X532502Y122516D01*
X532527Y122627D01*
X532561Y122736D01*
X532571Y122830D01*
X532609Y122998D01*
X532627Y123322D01*
X532637Y123414D01*
X532637Y124194D01*
X532622Y124383D01*
X532614Y124573D01*
X532602Y124629D01*
X532597Y124685D01*
X532552Y124869D01*
X532513Y125056D01*
X532492Y125109D01*
X532479Y125164D01*
X532404Y125339D01*
X532335Y125516D01*
X532307Y125565D01*
X532284Y125618D01*
X532182Y125778D01*
X532086Y125942D01*
X532050Y125986D01*
X532019Y126034D01*
X531893Y126175D01*
X531771Y126322D01*
X531728Y126359D01*
X531690Y126402D01*
X531543Y126521D01*
X531399Y126646D01*
X531351Y126676D01*
X531306Y126712D01*
X531142Y126805D01*
X530980Y126906D01*
X530927Y126927D01*
X530878Y126956D01*
X530700Y127022D01*
X530524Y127094D01*
X530469Y127107D01*
X530415Y127127D01*
X530229Y127164D01*
X530044Y127207D01*
X529987Y127211D01*
X529931Y127222D01*
X529741Y127228D01*
X529552Y127241D01*
X529495Y127235D01*
X529438Y127237D01*
X529250Y127212D01*
X529061Y127195D01*
X529005Y127180D01*
X528949Y127173D01*
X528767Y127118D01*
X528583Y127070D01*
X528531Y127047D01*
X528477Y127030D01*
X528306Y126947D01*
X528132Y126870D01*
X528084Y126838D01*
X528033Y126813D01*
X527879Y126704D01*
X527720Y126599D01*
X527678Y126561D01*
X527631Y126528D01*
X527496Y126394D01*
X527356Y126266D01*
X527329Y126229D01*
X527280Y126181D01*
X526990Y125782D01*
X526969Y125742D01*
X526951Y125717D01*
X526357Y124688D01*
X520726Y119057D01*
X513830Y115076D01*
X506139Y113015D01*
X498177Y113015D01*
X490486Y115076D01*
X483590Y119057D01*
X477959Y124688D01*
X473978Y131584D01*
X471917Y139275D01*
X471917Y142052D01*
X471914Y142090D01*
X471916Y142128D01*
X471894Y142336D01*
X471877Y142544D01*
X471868Y142581D01*
X471864Y142619D01*
X471809Y142820D01*
X471759Y143023D01*
X471744Y143058D01*
X471733Y143095D01*
X471646Y143284D01*
X471564Y143476D01*
X471544Y143508D01*
X471528Y143543D01*
X471411Y143716D01*
X471299Y143892D01*
X471274Y143921D01*
X471252Y143952D01*
X471109Y144105D01*
X470970Y144260D01*
X470941Y144284D01*
X470915Y144312D01*
X470749Y144439D01*
X470586Y144570D01*
X470553Y144589D01*
X470523Y144612D01*
X470339Y144711D01*
X470158Y144814D01*
X470122Y144827D01*
X470088Y144845D01*
X469891Y144913D01*
X469695Y144986D01*
X469658Y144993D01*
X469622Y145005D01*
X469415Y145040D01*
X469211Y145080D01*
X469173Y145082D01*
X469135Y145088D01*
X468926Y145089D01*
X468718Y145096D01*
X468680Y145091D01*
X468642Y145091D01*
X468435Y145058D01*
X468229Y145031D01*
X468192Y145020D01*
X468155Y145014D01*
X467956Y144949D01*
X467757Y144889D01*
X467722Y144872D01*
X467686Y144860D01*
X467501Y144764D01*
X467313Y144672D01*
X467282Y144650D01*
X467248Y144632D01*
X467176Y144574D01*
X466911Y144386D01*
X466789Y144266D01*
X466715Y144207D01*
X464315Y141807D01*
X464315Y141806D01*
X461257Y138748D01*
X461158Y138698D01*
X461097Y138653D01*
X461031Y138615D01*
X460899Y138506D01*
X460761Y138405D01*
X460708Y138350D01*
X460649Y138302D01*
X460536Y138174D01*
X460417Y138052D01*
X460373Y137989D01*
X460323Y137932D01*
X460232Y137788D01*
X460134Y137648D01*
X460101Y137579D01*
X460060Y137514D01*
X459994Y137357D01*
X459920Y137203D01*
X459898Y137130D01*
X459869Y137060D01*
X459829Y136894D01*
X459780Y136730D01*
X459771Y136654D01*
X459753Y136580D01*
X459740Y136410D01*
X459719Y136240D01*
X459722Y136164D01*
X459716Y136088D01*
X459731Y135918D01*
X459738Y135747D01*
X459753Y135673D01*
X459759Y135597D01*
X459789Y135496D01*
X459835Y135264D01*
X459919Y135043D01*
X459948Y134942D01*
X461265Y131763D01*
X461265Y130403D01*
X461274Y130289D01*
X461273Y130175D01*
X461294Y130043D01*
X461305Y129911D01*
X461332Y129800D01*
X461350Y129687D01*
X461391Y129561D01*
X461423Y129432D01*
X461468Y129327D01*
X461504Y129219D01*
X461566Y129101D01*
X461618Y128979D01*
X461679Y128883D01*
X461732Y128781D01*
X461791Y128708D01*
X461883Y128563D01*
X462099Y128321D01*
X462157Y128248D01*
X498291Y92115D01*
X498349Y92065D01*
X498401Y92010D01*
X498536Y91906D01*
X498667Y91795D01*
X498732Y91756D01*
X498792Y91710D01*
X498942Y91629D01*
X499089Y91541D01*
X499160Y91512D01*
X499227Y91476D01*
X499389Y91421D01*
X499547Y91358D01*
X499621Y91341D01*
X499694Y91316D01*
X499862Y91288D01*
X500029Y91251D01*
X500105Y91246D01*
X500180Y91234D01*
X500351Y91233D01*
X500521Y91223D01*
X500597Y91231D01*
G37*
G36*
X523090Y208541D02*
X523090Y208541D01*
X523166Y208539D01*
X523335Y208561D01*
X523506Y208575D01*
X523580Y208593D01*
X523655Y208603D01*
X523819Y208652D01*
X523985Y208693D01*
X524054Y208723D01*
X524128Y208745D01*
X524281Y208821D01*
X524438Y208888D01*
X524502Y208929D01*
X524571Y208962D01*
X524710Y209061D01*
X524854Y209153D01*
X524911Y209204D01*
X524973Y209248D01*
X525094Y209368D01*
X525222Y209482D01*
X525270Y209541D01*
X525324Y209595D01*
X525425Y209733D01*
X525532Y209866D01*
X525569Y209932D01*
X525614Y209993D01*
X525691Y210146D01*
X525776Y210294D01*
X525802Y210366D01*
X525837Y210434D01*
X525888Y210597D01*
X525947Y210757D01*
X525962Y210832D01*
X525985Y210904D01*
X525997Y211009D01*
X526042Y211241D01*
X526049Y211477D01*
X526061Y211582D01*
X526061Y212785D01*
X527574Y216437D01*
X527582Y216445D01*
X527660Y216552D01*
X527746Y216653D01*
X527805Y216751D01*
X527872Y216843D01*
X527932Y216962D01*
X528001Y217076D01*
X528043Y217182D01*
X528095Y217284D01*
X528135Y217411D01*
X528184Y217534D01*
X528209Y217645D01*
X528243Y217754D01*
X528253Y217848D01*
X528291Y218016D01*
X528309Y218340D01*
X528319Y218432D01*
X528319Y222202D01*
X528302Y222420D01*
X528288Y222638D01*
X528282Y222666D01*
X528279Y222694D01*
X528227Y222906D01*
X528178Y223119D01*
X528167Y223145D01*
X528161Y223173D01*
X528075Y223373D01*
X527992Y223576D01*
X527977Y223600D01*
X527966Y223626D01*
X527849Y223810D01*
X527735Y223997D01*
X527716Y224019D01*
X527701Y224042D01*
X527556Y224205D01*
X527413Y224371D01*
X527391Y224389D01*
X527372Y224410D01*
X527203Y224547D01*
X527035Y224688D01*
X527014Y224699D01*
X526988Y224720D01*
X526568Y224959D01*
X523417Y228111D01*
X521715Y232219D01*
X521715Y236665D01*
X521890Y237086D01*
X521945Y237257D01*
X522008Y237427D01*
X522020Y237492D01*
X522041Y237555D01*
X522068Y237734D01*
X522102Y237911D01*
X522104Y237977D01*
X522114Y238043D01*
X522112Y238224D01*
X522118Y238404D01*
X522109Y238470D01*
X522108Y238537D01*
X522077Y238714D01*
X522053Y238893D01*
X522034Y238957D01*
X522022Y239022D01*
X521963Y239192D01*
X521911Y239366D01*
X521881Y239425D01*
X521860Y239488D01*
X521773Y239646D01*
X521694Y239809D01*
X521655Y239863D01*
X521624Y239921D01*
X521513Y240064D01*
X521408Y240211D01*
X521362Y240258D01*
X521321Y240311D01*
X521188Y240434D01*
X521062Y240562D01*
X521008Y240601D01*
X520959Y240646D01*
X520809Y240746D01*
X520663Y240852D01*
X520604Y240882D01*
X520548Y240919D01*
X520384Y240993D01*
X520222Y241075D01*
X520159Y241095D01*
X520098Y241122D01*
X519924Y241169D01*
X519752Y241223D01*
X519699Y241229D01*
X519622Y241250D01*
X519131Y241299D01*
X519098Y241297D01*
X519074Y241299D01*
X514811Y241299D01*
X514631Y241285D01*
X514451Y241278D01*
X514385Y241265D01*
X514319Y241259D01*
X514144Y241216D01*
X513967Y241180D01*
X513905Y241157D01*
X513840Y241141D01*
X513675Y241069D01*
X513506Y241006D01*
X513448Y240972D01*
X513387Y240946D01*
X513235Y240849D01*
X513078Y240759D01*
X513027Y240717D01*
X512971Y240681D01*
X512837Y240561D01*
X512697Y240446D01*
X512653Y240397D01*
X512603Y240352D01*
X512490Y240212D01*
X512370Y240077D01*
X512335Y240020D01*
X512293Y239968D01*
X512204Y239812D01*
X512108Y239659D01*
X512082Y239597D01*
X512049Y239540D01*
X511986Y239371D01*
X511916Y239204D01*
X511901Y239140D01*
X511878Y239077D01*
X511843Y238900D01*
X511801Y238725D01*
X511796Y238658D01*
X511783Y238593D01*
X511777Y238413D01*
X511764Y238233D01*
X511770Y238166D01*
X511768Y238100D01*
X511791Y237921D01*
X511807Y237741D01*
X511821Y237690D01*
X511832Y237611D01*
X511974Y237139D01*
X511989Y237108D01*
X511996Y237086D01*
X512065Y236919D01*
X512065Y232473D01*
X510363Y228365D01*
X507219Y225221D01*
X503111Y223519D01*
X498665Y223519D01*
X494538Y225229D01*
X494524Y225241D01*
X494444Y225322D01*
X494336Y225400D01*
X494235Y225486D01*
X494137Y225545D01*
X494045Y225612D01*
X493927Y225672D01*
X493812Y225741D01*
X493706Y225783D01*
X493604Y225835D01*
X493478Y225875D01*
X493354Y225924D01*
X493243Y225949D01*
X493134Y225983D01*
X493040Y225993D01*
X492873Y226031D01*
X492548Y226049D01*
X492456Y226059D01*
X487019Y226059D01*
X486905Y226050D01*
X486791Y226051D01*
X486659Y226030D01*
X486527Y226019D01*
X486416Y225992D01*
X486303Y225974D01*
X486177Y225933D01*
X486048Y225901D01*
X485943Y225856D01*
X485835Y225820D01*
X485717Y225758D01*
X485595Y225706D01*
X485499Y225645D01*
X485397Y225592D01*
X485324Y225533D01*
X485179Y225441D01*
X484937Y225225D01*
X484864Y225167D01*
X473434Y213737D01*
X473409Y213708D01*
X473381Y213682D01*
X473250Y213520D01*
X473115Y213361D01*
X473095Y213328D01*
X473071Y213298D01*
X472968Y213118D01*
X472860Y212938D01*
X472846Y212903D01*
X472827Y212870D01*
X472754Y212674D01*
X472677Y212480D01*
X472669Y212443D01*
X472655Y212407D01*
X472615Y212202D01*
X472570Y211998D01*
X472568Y211960D01*
X472561Y211923D01*
X472554Y211715D01*
X472542Y211506D01*
X472547Y211468D01*
X472545Y211430D01*
X472573Y211223D01*
X472595Y211015D01*
X472605Y210979D01*
X472610Y210941D01*
X472670Y210741D01*
X472725Y210540D01*
X472741Y210505D01*
X472752Y210468D01*
X472844Y210281D01*
X472931Y210091D01*
X472952Y210059D01*
X472969Y210025D01*
X473090Y209855D01*
X473206Y209682D01*
X473233Y209654D01*
X473255Y209623D01*
X473401Y209474D01*
X473544Y209322D01*
X473575Y209299D01*
X473601Y209272D01*
X473770Y209149D01*
X473936Y209022D01*
X473969Y209004D01*
X474000Y208982D01*
X474186Y208888D01*
X474370Y208789D01*
X474407Y208777D01*
X474441Y208759D01*
X474639Y208697D01*
X474837Y208629D01*
X474875Y208623D01*
X474911Y208611D01*
X475003Y208601D01*
X475323Y208546D01*
X475495Y208545D01*
X475589Y208535D01*
X523014Y208535D01*
X523090Y208541D01*
G37*
G36*
X609786Y84848D02*
X609786Y84848D01*
X609928Y84843D01*
X610032Y84857D01*
X610136Y84861D01*
X610276Y84889D01*
X610417Y84908D01*
X610517Y84938D01*
X610620Y84959D01*
X610753Y85009D01*
X610890Y85050D01*
X610983Y85096D01*
X611081Y85133D01*
X611205Y85205D01*
X611333Y85267D01*
X611418Y85328D01*
X611508Y85380D01*
X611619Y85470D01*
X611735Y85553D01*
X611809Y85626D01*
X611890Y85692D01*
X611985Y85799D01*
X612086Y85899D01*
X612147Y85984D01*
X612217Y86062D01*
X612292Y86183D01*
X612376Y86298D01*
X612423Y86392D01*
X612479Y86480D01*
X612534Y86612D01*
X612599Y86739D01*
X612630Y86838D01*
X612671Y86935D01*
X612704Y87073D01*
X612747Y87209D01*
X612756Y87287D01*
X612786Y87414D01*
X612819Y87847D01*
X612823Y87887D01*
X612823Y90283D01*
X614291Y93827D01*
X614294Y93836D01*
X614299Y93845D01*
X614371Y94073D01*
X614443Y94297D01*
X614444Y94306D01*
X614447Y94315D01*
X614451Y94356D01*
X614516Y94784D01*
X614514Y94915D01*
X614523Y94993D01*
X614523Y98071D01*
X614522Y98081D01*
X614523Y98090D01*
X614503Y98326D01*
X614483Y98563D01*
X614481Y98572D01*
X614480Y98582D01*
X614469Y98620D01*
X614365Y99042D01*
X614313Y99162D01*
X614291Y99237D01*
X614171Y99527D01*
X614171Y103165D01*
X614291Y103455D01*
X614294Y103464D01*
X614299Y103473D01*
X614355Y103653D01*
X614400Y103773D01*
X614410Y103822D01*
X614443Y103924D01*
X614444Y103934D01*
X614447Y103943D01*
X614451Y103983D01*
X614486Y104213D01*
X614495Y104257D01*
X614495Y104274D01*
X614516Y104412D01*
X614514Y104543D01*
X614523Y104621D01*
X614523Y110885D01*
X614535Y110960D01*
X614561Y111071D01*
X614571Y111204D01*
X614591Y111335D01*
X614590Y111449D01*
X614598Y111563D01*
X614587Y111696D01*
X614585Y111828D01*
X614565Y111941D01*
X614555Y112055D01*
X614529Y112145D01*
X614523Y112179D01*
X614523Y114352D01*
X614517Y114428D01*
X614519Y114504D01*
X614497Y114673D01*
X614483Y114844D01*
X614465Y114918D01*
X614455Y114993D01*
X614406Y115157D01*
X614365Y115323D01*
X614335Y115392D01*
X614313Y115466D01*
X614237Y115619D01*
X614170Y115776D01*
X614129Y115840D01*
X614096Y115909D01*
X613997Y116048D01*
X613905Y116192D01*
X613854Y116249D01*
X613810Y116311D01*
X613690Y116432D01*
X613576Y116560D01*
X613517Y116608D01*
X613463Y116662D01*
X613325Y116763D01*
X613192Y116870D01*
X613126Y116907D01*
X613065Y116952D01*
X612912Y117029D01*
X612764Y117114D01*
X612692Y117140D01*
X612624Y117175D01*
X612461Y117226D01*
X612301Y117285D01*
X612226Y117300D01*
X612154Y117323D01*
X612049Y117335D01*
X611817Y117380D01*
X611581Y117387D01*
X611476Y117399D01*
X584626Y117399D01*
X584588Y117396D01*
X584550Y117398D01*
X584342Y117376D01*
X584134Y117359D01*
X584097Y117350D01*
X584059Y117346D01*
X583858Y117291D01*
X583655Y117241D01*
X583620Y117226D01*
X583584Y117215D01*
X583394Y117128D01*
X583202Y117046D01*
X583170Y117026D01*
X583135Y117010D01*
X582962Y116893D01*
X582786Y116781D01*
X582758Y116756D01*
X582726Y116734D01*
X582574Y116591D01*
X582418Y116452D01*
X582394Y116423D01*
X582366Y116397D01*
X582239Y116231D01*
X582108Y116068D01*
X582089Y116035D01*
X582066Y116005D01*
X581967Y115821D01*
X581864Y115640D01*
X581851Y115604D01*
X581833Y115570D01*
X581765Y115373D01*
X581693Y115177D01*
X581685Y115140D01*
X581673Y115104D01*
X581638Y114897D01*
X581598Y114693D01*
X581597Y114655D01*
X581590Y114617D01*
X581589Y114408D01*
X581583Y114200D01*
X581588Y114162D01*
X581587Y114124D01*
X581620Y113917D01*
X581647Y113711D01*
X581658Y113674D01*
X581664Y113637D01*
X581729Y113438D01*
X581789Y113239D01*
X581806Y113204D01*
X581818Y113168D01*
X581915Y112983D01*
X582006Y112795D01*
X582028Y112764D01*
X582046Y112730D01*
X582104Y112658D01*
X582292Y112393D01*
X582413Y112271D01*
X582471Y112197D01*
X593778Y100891D01*
X593778Y100890D01*
X600549Y94119D01*
X600557Y94113D01*
X600563Y94106D01*
X600744Y93953D01*
X600925Y93800D01*
X600933Y93795D01*
X600941Y93789D01*
X600976Y93769D01*
X601348Y93545D01*
X601469Y93497D01*
X601538Y93459D01*
X602750Y92957D01*
X605529Y90178D01*
X606961Y86721D01*
X607026Y86594D01*
X607082Y86463D01*
X607138Y86375D01*
X607186Y86282D01*
X607270Y86167D01*
X607347Y86047D01*
X607417Y85969D01*
X607479Y85885D01*
X607581Y85785D01*
X607676Y85679D01*
X607757Y85613D01*
X607832Y85540D01*
X607949Y85459D01*
X608060Y85369D01*
X608150Y85317D01*
X608236Y85257D01*
X608364Y85196D01*
X608488Y85125D01*
X608586Y85089D01*
X608681Y85043D01*
X608817Y85003D01*
X608951Y84954D01*
X609053Y84933D01*
X609154Y84904D01*
X609295Y84886D01*
X609435Y84859D01*
X609539Y84856D01*
X609643Y84843D01*
X609786Y84848D01*
G37*
G36*
X282994Y248464D02*
X282994Y248464D01*
X283032Y248463D01*
X283239Y248490D01*
X283447Y248512D01*
X283483Y248522D01*
X283521Y248527D01*
X283721Y248587D01*
X283922Y248643D01*
X283957Y248658D01*
X283994Y248669D01*
X284181Y248761D01*
X284371Y248848D01*
X284403Y248870D01*
X284437Y248886D01*
X284606Y249007D01*
X284780Y249124D01*
X284808Y249150D01*
X284839Y249172D01*
X284987Y249318D01*
X285140Y249462D01*
X285163Y249492D01*
X285190Y249519D01*
X285313Y249687D01*
X285440Y249853D01*
X285458Y249886D01*
X285480Y249917D01*
X285574Y250103D01*
X285673Y250288D01*
X285686Y250324D01*
X285703Y250358D01*
X285765Y250557D01*
X285833Y250754D01*
X285839Y250792D01*
X285851Y250828D01*
X285861Y250921D01*
X285916Y251241D01*
X285917Y251413D01*
X285927Y251506D01*
X285927Y290350D01*
X285949Y290463D01*
X285995Y290667D01*
X285997Y290706D01*
X286004Y290743D01*
X286011Y290951D01*
X286022Y291160D01*
X286018Y291198D01*
X286019Y291236D01*
X285992Y291443D01*
X285970Y291650D01*
X285960Y291687D01*
X285955Y291725D01*
X285895Y291925D01*
X285840Y292126D01*
X285824Y292161D01*
X285813Y292198D01*
X285721Y292385D01*
X285634Y292574D01*
X285613Y292606D01*
X285596Y292641D01*
X285475Y292811D01*
X285359Y292984D01*
X285332Y293012D01*
X285310Y293043D01*
X285164Y293191D01*
X285021Y293343D01*
X284990Y293367D01*
X284963Y293394D01*
X284795Y293517D01*
X284629Y293644D01*
X284596Y293662D01*
X284565Y293684D01*
X284378Y293778D01*
X284195Y293877D01*
X284159Y293889D01*
X284124Y293907D01*
X283925Y293969D01*
X283728Y294037D01*
X283690Y294043D01*
X283654Y294055D01*
X283561Y294065D01*
X283242Y294120D01*
X283070Y294121D01*
X282976Y294131D01*
X276472Y294131D01*
X276434Y294128D01*
X276395Y294130D01*
X276188Y294108D01*
X275980Y294091D01*
X275943Y294082D01*
X275905Y294078D01*
X275704Y294023D01*
X275501Y293973D01*
X275466Y293957D01*
X275429Y293947D01*
X275240Y293860D01*
X275048Y293778D01*
X275016Y293758D01*
X274981Y293741D01*
X274807Y293625D01*
X274632Y293513D01*
X274604Y293488D01*
X274572Y293466D01*
X274419Y293323D01*
X274264Y293184D01*
X274240Y293154D01*
X274212Y293128D01*
X274085Y292963D01*
X273954Y292800D01*
X273935Y292767D01*
X273912Y292737D01*
X273813Y292553D01*
X273710Y292372D01*
X273697Y292336D01*
X273679Y292302D01*
X273611Y292105D01*
X273539Y291909D01*
X273531Y291872D01*
X273519Y291835D01*
X273484Y291629D01*
X273444Y291425D01*
X273443Y291387D01*
X273436Y291349D01*
X273435Y291140D01*
X273429Y290932D01*
X273434Y290894D01*
X273433Y290856D01*
X273466Y290650D01*
X273493Y290443D01*
X273504Y290406D01*
X273510Y290368D01*
X273521Y290336D01*
X273521Y274154D01*
X266876Y267510D01*
X266827Y267452D01*
X266771Y267400D01*
X266668Y267264D01*
X266557Y267134D01*
X266517Y267068D01*
X266471Y267008D01*
X266390Y266858D01*
X266302Y266711D01*
X266274Y266641D01*
X266238Y266573D01*
X266182Y266411D01*
X266119Y266253D01*
X266103Y266179D01*
X266078Y266107D01*
X266049Y265938D01*
X266012Y265772D01*
X266008Y265695D01*
X265995Y265620D01*
X265994Y265449D01*
X265985Y265279D01*
X265993Y265203D01*
X265992Y265127D01*
X266019Y264958D01*
X266037Y264788D01*
X266057Y264715D01*
X266069Y264640D01*
X266122Y264477D01*
X266168Y264313D01*
X266199Y264243D01*
X266223Y264171D01*
X266302Y264020D01*
X266373Y263864D01*
X266416Y263801D01*
X266451Y263733D01*
X266517Y263651D01*
X266649Y263455D01*
X266811Y263282D01*
X266876Y263200D01*
X280725Y249351D01*
X280754Y249327D01*
X280780Y249298D01*
X280942Y249167D01*
X281101Y249032D01*
X281134Y249012D01*
X281164Y248988D01*
X281345Y248885D01*
X281524Y248777D01*
X281559Y248763D01*
X281592Y248744D01*
X281788Y248672D01*
X281982Y248594D01*
X282019Y248586D01*
X282055Y248573D01*
X282260Y248533D01*
X282464Y248487D01*
X282502Y248485D01*
X282539Y248478D01*
X282747Y248471D01*
X282956Y248460D01*
X282994Y248464D01*
G37*
G36*
X634914Y215655D02*
X634914Y215655D01*
X635094Y215662D01*
X635159Y215675D01*
X635226Y215681D01*
X635401Y215724D01*
X635578Y215760D01*
X635640Y215783D01*
X635705Y215799D01*
X635871Y215871D01*
X636039Y215934D01*
X636097Y215968D01*
X636158Y215994D01*
X636310Y216091D01*
X636467Y216181D01*
X636518Y216223D01*
X636574Y216259D01*
X636708Y216379D01*
X636848Y216494D01*
X636892Y216543D01*
X636942Y216588D01*
X637055Y216728D01*
X637175Y216863D01*
X637210Y216920D01*
X637252Y216972D01*
X637341Y217128D01*
X637437Y217281D01*
X637463Y217343D01*
X637496Y217400D01*
X637559Y217570D01*
X637629Y217736D01*
X637644Y217800D01*
X637667Y217863D01*
X637702Y218040D01*
X637744Y218215D01*
X637749Y218282D01*
X637762Y218347D01*
X637768Y218527D01*
X637781Y218707D01*
X637775Y218774D01*
X637778Y218840D01*
X637754Y219019D01*
X637738Y219199D01*
X637724Y219249D01*
X637713Y219329D01*
X637571Y219801D01*
X637556Y219832D01*
X637549Y219854D01*
X636523Y222331D01*
X636523Y240244D01*
X636506Y240463D01*
X636492Y240680D01*
X636486Y240708D01*
X636483Y240736D01*
X636431Y240948D01*
X636382Y241161D01*
X636371Y241187D01*
X636365Y241215D01*
X636279Y241415D01*
X636196Y241618D01*
X636181Y241642D01*
X636170Y241668D01*
X636053Y241852D01*
X635939Y242039D01*
X635920Y242060D01*
X635905Y242084D01*
X635759Y242247D01*
X635617Y242413D01*
X635595Y242431D01*
X635576Y242452D01*
X635406Y242590D01*
X635239Y242730D01*
X635219Y242741D01*
X635192Y242762D01*
X634764Y243006D01*
X634688Y243034D01*
X634642Y243060D01*
X630651Y244713D01*
X625725Y249639D01*
X625696Y249664D01*
X625670Y249692D01*
X625508Y249823D01*
X625349Y249959D01*
X625316Y249978D01*
X625286Y250002D01*
X625105Y250105D01*
X624926Y250213D01*
X624891Y250227D01*
X624858Y250246D01*
X624662Y250319D01*
X624468Y250396D01*
X624431Y250405D01*
X624395Y250418D01*
X624190Y250458D01*
X623986Y250503D01*
X623948Y250505D01*
X623911Y250513D01*
X623703Y250519D01*
X623494Y250531D01*
X623456Y250527D01*
X623418Y250528D01*
X623211Y250501D01*
X623003Y250479D01*
X622967Y250469D01*
X622929Y250464D01*
X622729Y250403D01*
X622528Y250348D01*
X622493Y250332D01*
X622456Y250321D01*
X622269Y250229D01*
X622079Y250142D01*
X622047Y250121D01*
X622013Y250104D01*
X621844Y249984D01*
X621670Y249867D01*
X621642Y249841D01*
X621611Y249819D01*
X621463Y249672D01*
X621310Y249529D01*
X621287Y249499D01*
X621260Y249472D01*
X621137Y249303D01*
X621010Y249138D01*
X620992Y249104D01*
X620970Y249073D01*
X620876Y248887D01*
X620777Y248703D01*
X620764Y248667D01*
X620747Y248633D01*
X620685Y248434D01*
X620617Y248236D01*
X620611Y248199D01*
X620599Y248162D01*
X620589Y248070D01*
X620534Y247750D01*
X620533Y247578D01*
X620523Y247485D01*
X620523Y241513D01*
X619131Y238152D01*
X617097Y236119D01*
X617023Y236032D01*
X616942Y235951D01*
X616864Y235844D01*
X616778Y235743D01*
X616719Y235645D01*
X616652Y235553D01*
X616592Y235434D01*
X616523Y235320D01*
X616481Y235214D01*
X616429Y235112D01*
X616389Y234985D01*
X616340Y234862D01*
X616315Y234751D01*
X616281Y234642D01*
X616271Y234548D01*
X616233Y234380D01*
X616215Y234056D01*
X616205Y233964D01*
X616205Y218688D01*
X616211Y218612D01*
X616209Y218536D01*
X616231Y218367D01*
X616245Y218196D01*
X616263Y218122D01*
X616273Y218047D01*
X616322Y217883D01*
X616363Y217717D01*
X616393Y217648D01*
X616415Y217574D01*
X616491Y217421D01*
X616558Y217264D01*
X616599Y217200D01*
X616632Y217131D01*
X616731Y216992D01*
X616823Y216848D01*
X616874Y216791D01*
X616918Y216729D01*
X617038Y216608D01*
X617152Y216480D01*
X617211Y216432D01*
X617265Y216378D01*
X617403Y216277D01*
X617536Y216170D01*
X617602Y216133D01*
X617663Y216088D01*
X617816Y216011D01*
X617964Y215926D01*
X618036Y215900D01*
X618104Y215865D01*
X618267Y215814D01*
X618427Y215755D01*
X618502Y215740D01*
X618574Y215717D01*
X618679Y215705D01*
X618911Y215660D01*
X619147Y215653D01*
X619252Y215641D01*
X634734Y215641D01*
X634914Y215655D01*
G37*
G36*
X479196Y82138D02*
X479196Y82138D01*
X479272Y82137D01*
X479441Y82164D01*
X479611Y82182D01*
X479684Y82202D01*
X479759Y82214D01*
X479922Y82267D01*
X480086Y82312D01*
X480156Y82344D01*
X480228Y82368D01*
X480379Y82447D01*
X480535Y82518D01*
X480598Y82561D01*
X480666Y82596D01*
X480748Y82662D01*
X480944Y82794D01*
X481116Y82956D01*
X481199Y83021D01*
X481359Y83182D01*
X481409Y83240D01*
X481464Y83292D01*
X481568Y83428D01*
X481679Y83558D01*
X481718Y83623D01*
X481765Y83683D01*
X481845Y83834D01*
X481933Y83980D01*
X481962Y84051D01*
X481998Y84118D01*
X482053Y84280D01*
X482117Y84438D01*
X482133Y84513D01*
X482158Y84585D01*
X482186Y84753D01*
X482223Y84920D01*
X482228Y84996D01*
X482240Y85071D01*
X482241Y85242D01*
X482251Y85413D01*
X482243Y85488D01*
X482243Y85565D01*
X482217Y85733D01*
X482199Y85903D01*
X482179Y85976D01*
X482167Y86052D01*
X482113Y86214D01*
X482068Y86379D01*
X482036Y86448D01*
X482013Y86520D01*
X481934Y86672D01*
X481862Y86827D01*
X481820Y86890D01*
X481785Y86958D01*
X481719Y87040D01*
X481587Y87237D01*
X481425Y87409D01*
X481359Y87491D01*
X452243Y116608D01*
X452214Y116633D01*
X452188Y116661D01*
X452026Y116792D01*
X451867Y116927D01*
X451834Y116947D01*
X451804Y116971D01*
X451624Y117074D01*
X451444Y117182D01*
X451409Y117196D01*
X451376Y117215D01*
X451180Y117288D01*
X450986Y117365D01*
X450949Y117373D01*
X450913Y117387D01*
X450708Y117427D01*
X450504Y117472D01*
X450466Y117474D01*
X450429Y117481D01*
X450221Y117488D01*
X450012Y117500D01*
X449974Y117495D01*
X449936Y117497D01*
X449729Y117469D01*
X449521Y117447D01*
X449485Y117437D01*
X449447Y117432D01*
X449247Y117372D01*
X449046Y117317D01*
X449011Y117301D01*
X448974Y117290D01*
X448787Y117198D01*
X448597Y117111D01*
X448565Y117090D01*
X448531Y117073D01*
X448361Y116952D01*
X448188Y116836D01*
X448160Y116809D01*
X448129Y116787D01*
X447980Y116641D01*
X447828Y116498D01*
X447805Y116467D01*
X447778Y116441D01*
X447655Y116272D01*
X447528Y116106D01*
X447510Y116073D01*
X447488Y116042D01*
X447394Y115856D01*
X447295Y115672D01*
X447283Y115635D01*
X447265Y115601D01*
X447203Y115403D01*
X447135Y115205D01*
X447129Y115167D01*
X447117Y115131D01*
X447107Y115039D01*
X447052Y114719D01*
X447051Y114547D01*
X447041Y114453D01*
X447041Y105380D01*
X447050Y105266D01*
X447049Y105152D01*
X447070Y105021D01*
X447081Y104888D01*
X447108Y104778D01*
X447126Y104665D01*
X447167Y104539D01*
X447199Y104410D01*
X447244Y104305D01*
X447280Y104196D01*
X447342Y104078D01*
X447394Y103956D01*
X447455Y103860D01*
X447508Y103759D01*
X447567Y103685D01*
X447659Y103540D01*
X447875Y103298D01*
X447933Y103225D01*
X462381Y88777D01*
X462468Y88703D01*
X462549Y88622D01*
X462656Y88544D01*
X462757Y88458D01*
X462855Y88399D01*
X462947Y88332D01*
X463066Y88272D01*
X463180Y88203D01*
X463286Y88161D01*
X463388Y88109D01*
X463515Y88069D01*
X463638Y88020D01*
X463749Y87995D01*
X463858Y87961D01*
X463952Y87951D01*
X464120Y87913D01*
X464444Y87895D01*
X464536Y87885D01*
X469072Y87885D01*
X474114Y85796D01*
X476889Y83021D01*
X476947Y82972D01*
X477000Y82916D01*
X477135Y82812D01*
X477265Y82702D01*
X477331Y82662D01*
X477391Y82616D01*
X477541Y82535D01*
X477688Y82447D01*
X477759Y82419D01*
X477826Y82383D01*
X477987Y82327D01*
X478146Y82264D01*
X478220Y82248D01*
X478292Y82223D01*
X478461Y82194D01*
X478628Y82157D01*
X478704Y82153D01*
X478779Y82140D01*
X478950Y82139D01*
X479120Y82130D01*
X479196Y82138D01*
G37*
G36*
X406089Y167877D02*
X406089Y167877D01*
X406194Y167876D01*
X406335Y167898D01*
X406477Y167911D01*
X406552Y167933D01*
X406681Y167953D01*
X407094Y168089D01*
X407132Y168100D01*
X411781Y170025D01*
X411789Y170030D01*
X411798Y170033D01*
X412011Y170143D01*
X412220Y170250D01*
X412227Y170256D01*
X412236Y170261D01*
X412268Y170286D01*
X412617Y170543D01*
X412708Y170637D01*
X412769Y170686D01*
X440335Y198251D01*
X440359Y198280D01*
X440388Y198306D01*
X440519Y198468D01*
X440654Y198627D01*
X440674Y198660D01*
X440698Y198690D01*
X440801Y198870D01*
X440909Y199050D01*
X440923Y199085D01*
X440942Y199118D01*
X441014Y199314D01*
X441092Y199508D01*
X441100Y199545D01*
X441113Y199581D01*
X441153Y199786D01*
X441199Y199990D01*
X441201Y200028D01*
X441208Y200065D01*
X441215Y200273D01*
X441226Y200482D01*
X441222Y200520D01*
X441223Y200558D01*
X441196Y200765D01*
X441174Y200973D01*
X441164Y201009D01*
X441159Y201047D01*
X441099Y201247D01*
X441043Y201448D01*
X441028Y201483D01*
X441017Y201520D01*
X440925Y201707D01*
X440838Y201897D01*
X440816Y201929D01*
X440800Y201963D01*
X440679Y202133D01*
X440562Y202306D01*
X440536Y202334D01*
X440514Y202365D01*
X440367Y202514D01*
X440224Y202666D01*
X440194Y202689D01*
X440167Y202716D01*
X439999Y202839D01*
X439833Y202966D01*
X439800Y202984D01*
X439769Y203006D01*
X439582Y203100D01*
X439398Y203199D01*
X439362Y203211D01*
X439328Y203229D01*
X439129Y203291D01*
X438932Y203359D01*
X438894Y203365D01*
X438858Y203377D01*
X438765Y203387D01*
X438445Y203442D01*
X438273Y203443D01*
X438180Y203453D01*
X435457Y203453D01*
X435343Y203444D01*
X435229Y203445D01*
X435097Y203424D01*
X434965Y203413D01*
X434854Y203386D01*
X434741Y203368D01*
X434615Y203327D01*
X434486Y203295D01*
X434381Y203250D01*
X434273Y203214D01*
X434155Y203152D01*
X434033Y203100D01*
X433937Y203039D01*
X433835Y202986D01*
X433762Y202927D01*
X433617Y202835D01*
X433375Y202619D01*
X433302Y202561D01*
X403811Y173070D01*
X403719Y172961D01*
X403619Y172859D01*
X403559Y172773D01*
X403492Y172694D01*
X403418Y172571D01*
X403336Y172455D01*
X403291Y172361D01*
X403237Y172271D01*
X403184Y172139D01*
X403122Y172010D01*
X403093Y171910D01*
X403054Y171813D01*
X403023Y171674D01*
X402983Y171537D01*
X402970Y171434D01*
X402947Y171331D01*
X402939Y171189D01*
X402921Y171048D01*
X402925Y170944D01*
X402919Y170839D01*
X402935Y170697D01*
X402940Y170555D01*
X402961Y170452D01*
X402972Y170348D01*
X403009Y170211D01*
X403038Y170071D01*
X403075Y169974D01*
X403102Y169873D01*
X403162Y169743D01*
X403212Y169610D01*
X403264Y169519D01*
X403308Y169424D01*
X403388Y169306D01*
X403459Y169183D01*
X403525Y169102D01*
X403583Y169015D01*
X403681Y168911D01*
X403771Y168801D01*
X403850Y168732D01*
X403921Y168655D01*
X404034Y168569D01*
X404141Y168474D01*
X404230Y168419D01*
X404313Y168355D01*
X404438Y168288D01*
X404559Y168212D01*
X404655Y168171D01*
X404747Y168122D01*
X404882Y168076D01*
X405014Y168020D01*
X405115Y167996D01*
X405214Y167962D01*
X405355Y167938D01*
X405493Y167905D01*
X405597Y167897D01*
X405700Y167879D01*
X405843Y167878D01*
X405985Y167868D01*
X406089Y167877D01*
G37*
G36*
X80924Y151988D02*
X80924Y151988D01*
X81000Y151987D01*
X81169Y152014D01*
X81339Y152032D01*
X81412Y152052D01*
X81487Y152064D01*
X81650Y152117D01*
X81814Y152162D01*
X81883Y152194D01*
X81956Y152218D01*
X82108Y152297D01*
X82263Y152368D01*
X82326Y152411D01*
X82394Y152446D01*
X82476Y152512D01*
X82672Y152644D01*
X82844Y152806D01*
X82927Y152871D01*
X85467Y155411D01*
X85541Y155498D01*
X85622Y155578D01*
X85700Y155686D01*
X85786Y155787D01*
X85845Y155885D01*
X85912Y155977D01*
X85972Y156096D01*
X86041Y156210D01*
X86083Y156316D01*
X86135Y156418D01*
X86175Y156544D01*
X86224Y156668D01*
X86249Y156779D01*
X86283Y156888D01*
X86293Y156982D01*
X86331Y157149D01*
X86349Y157474D01*
X86359Y157566D01*
X86359Y184140D01*
X86358Y184150D01*
X86359Y184160D01*
X86339Y184392D01*
X86319Y184632D01*
X86317Y184641D01*
X86316Y184651D01*
X86305Y184689D01*
X86201Y185111D01*
X86149Y185231D01*
X86127Y185306D01*
X85111Y187759D01*
X85094Y187793D01*
X85081Y187829D01*
X84981Y188013D01*
X84886Y188198D01*
X84864Y188229D01*
X84845Y188262D01*
X84717Y188427D01*
X84593Y188595D01*
X84566Y188622D01*
X84543Y188652D01*
X84389Y188794D01*
X84240Y188940D01*
X84209Y188961D01*
X84181Y188987D01*
X84007Y189103D01*
X83836Y189223D01*
X83802Y189239D01*
X83770Y189260D01*
X83580Y189346D01*
X83391Y189437D01*
X83355Y189447D01*
X83320Y189463D01*
X83118Y189517D01*
X82918Y189576D01*
X82881Y189581D01*
X82844Y189591D01*
X82635Y189612D01*
X82429Y189637D01*
X82391Y189636D01*
X82353Y189640D01*
X82144Y189627D01*
X81936Y189619D01*
X81898Y189611D01*
X81860Y189609D01*
X81657Y189563D01*
X81452Y189521D01*
X81417Y189508D01*
X81379Y189499D01*
X81186Y189421D01*
X80991Y189347D01*
X80958Y189328D01*
X80922Y189313D01*
X80744Y189204D01*
X80564Y189100D01*
X80534Y189076D01*
X80502Y189056D01*
X80343Y188920D01*
X80182Y188788D01*
X80156Y188759D01*
X80128Y188734D01*
X79993Y188574D01*
X79855Y188418D01*
X79835Y188385D01*
X79811Y188356D01*
X79765Y188274D01*
X79593Y188000D01*
X79526Y187842D01*
X79481Y187759D01*
X78309Y184931D01*
X77093Y183715D01*
X77019Y183628D01*
X76938Y183548D01*
X76860Y183440D01*
X76774Y183339D01*
X76715Y183241D01*
X76648Y183149D01*
X76588Y183031D01*
X76519Y182916D01*
X76477Y182810D01*
X76425Y182708D01*
X76385Y182582D01*
X76336Y182458D01*
X76311Y182347D01*
X76277Y182238D01*
X76267Y182144D01*
X76229Y181977D01*
X76211Y181652D01*
X76201Y181560D01*
X76201Y156550D01*
X76210Y156436D01*
X76209Y156322D01*
X76230Y156190D01*
X76241Y156058D01*
X76268Y155947D01*
X76286Y155834D01*
X76327Y155708D01*
X76359Y155579D01*
X76405Y155474D01*
X76440Y155366D01*
X76501Y155248D01*
X76554Y155126D01*
X76615Y155030D01*
X76668Y154928D01*
X76727Y154855D01*
X76819Y154710D01*
X77035Y154468D01*
X77093Y154395D01*
X78617Y152871D01*
X78675Y152822D01*
X78728Y152766D01*
X78863Y152662D01*
X78993Y152552D01*
X79059Y152512D01*
X79119Y152466D01*
X79269Y152385D01*
X79416Y152297D01*
X79487Y152269D01*
X79554Y152233D01*
X79715Y152177D01*
X79874Y152114D01*
X79948Y152097D01*
X80020Y152073D01*
X80189Y152044D01*
X80356Y152007D01*
X80432Y152003D01*
X80507Y151990D01*
X80678Y151989D01*
X80848Y151980D01*
X80924Y151988D01*
G37*
G36*
X828863Y270171D02*
X828863Y270171D01*
X828940Y270167D01*
X829109Y270188D01*
X829279Y270199D01*
X829354Y270217D01*
X829430Y270226D01*
X829593Y270273D01*
X829759Y270312D01*
X829830Y270341D01*
X829904Y270363D01*
X830058Y270436D01*
X830215Y270501D01*
X830280Y270541D01*
X830349Y270574D01*
X830490Y270671D01*
X830635Y270761D01*
X830692Y270811D01*
X830755Y270855D01*
X830878Y270973D01*
X831006Y271085D01*
X831055Y271144D01*
X831110Y271197D01*
X831212Y271333D01*
X831321Y271465D01*
X831360Y271531D01*
X831406Y271592D01*
X831484Y271744D01*
X831570Y271891D01*
X831598Y271962D01*
X831633Y272030D01*
X831687Y272192D01*
X831748Y272351D01*
X831763Y272426D01*
X831787Y272499D01*
X831800Y272603D01*
X831849Y272834D01*
X831854Y272951D01*
X833143Y275960D01*
X833728Y276531D01*
X833816Y276631D01*
X833910Y276724D01*
X833977Y276817D01*
X834052Y276903D01*
X834122Y277016D01*
X834200Y277123D01*
X834252Y277225D01*
X834312Y277322D01*
X834363Y277445D01*
X834423Y277564D01*
X834457Y277673D01*
X834501Y277778D01*
X834531Y277907D01*
X834571Y278034D01*
X834580Y278118D01*
X834613Y278259D01*
X834640Y278646D01*
X834647Y278712D01*
X834647Y289052D01*
X834637Y289176D01*
X834641Y289251D01*
X834621Y289550D01*
X834549Y290038D01*
X834530Y290098D01*
X834524Y290140D01*
X834369Y290717D01*
X834350Y290771D01*
X834337Y290827D01*
X834296Y290922D01*
X834203Y291182D01*
X834105Y291359D01*
X834065Y291452D01*
X833766Y291970D01*
X833733Y292017D01*
X833707Y292068D01*
X833642Y292149D01*
X833485Y292376D01*
X833434Y292429D01*
X833427Y292439D01*
X833342Y292525D01*
X833282Y292601D01*
X832859Y293024D01*
X832815Y293061D01*
X832776Y293103D01*
X832693Y293165D01*
X832483Y293343D01*
X832309Y293448D01*
X832228Y293508D01*
X831710Y293807D01*
X831658Y293831D01*
X831610Y293862D01*
X831513Y293900D01*
X831264Y294018D01*
X831070Y294074D01*
X830975Y294111D01*
X830398Y294266D01*
X829912Y294355D01*
X829850Y294356D01*
X829808Y294363D01*
X829509Y294383D01*
X829385Y294381D01*
X829310Y294389D01*
X818409Y294389D01*
X818371Y294386D01*
X818333Y294388D01*
X818125Y294366D01*
X817917Y294349D01*
X817880Y294340D01*
X817842Y294336D01*
X817641Y294281D01*
X817438Y294231D01*
X817403Y294216D01*
X817367Y294205D01*
X817177Y294118D01*
X816985Y294036D01*
X816953Y294016D01*
X816918Y294000D01*
X816745Y293883D01*
X816569Y293771D01*
X816540Y293746D01*
X816509Y293724D01*
X816357Y293581D01*
X816201Y293442D01*
X816177Y293413D01*
X816149Y293387D01*
X816022Y293220D01*
X815891Y293058D01*
X815872Y293026D01*
X815849Y292995D01*
X815750Y292811D01*
X815647Y292630D01*
X815634Y292594D01*
X815616Y292560D01*
X815548Y292363D01*
X815475Y292167D01*
X815468Y292130D01*
X815456Y292094D01*
X815421Y291887D01*
X815381Y291683D01*
X815380Y291645D01*
X815373Y291607D01*
X815372Y291398D01*
X815365Y291190D01*
X815370Y291152D01*
X815370Y291114D01*
X815403Y290906D01*
X815430Y290701D01*
X815441Y290664D01*
X815447Y290627D01*
X815512Y290428D01*
X815572Y290229D01*
X815589Y290194D01*
X815601Y290158D01*
X815698Y289973D01*
X815789Y289785D01*
X815811Y289754D01*
X815829Y289720D01*
X815887Y289648D01*
X816075Y289383D01*
X816196Y289261D01*
X816254Y289187D01*
X819632Y285809D01*
X824601Y277203D01*
X825881Y272424D01*
X825907Y272352D01*
X825925Y272277D01*
X825990Y272120D01*
X826047Y271959D01*
X826084Y271892D01*
X826114Y271821D01*
X826203Y271677D01*
X826286Y271527D01*
X826333Y271467D01*
X826374Y271402D01*
X826486Y271274D01*
X826591Y271140D01*
X826648Y271088D01*
X826698Y271030D01*
X826829Y270922D01*
X826955Y270807D01*
X827019Y270765D01*
X827078Y270716D01*
X827225Y270630D01*
X827368Y270536D01*
X827438Y270505D01*
X827504Y270467D01*
X827663Y270405D01*
X827819Y270336D01*
X827893Y270317D01*
X827964Y270289D01*
X828131Y270255D01*
X828296Y270212D01*
X828372Y270204D01*
X828447Y270189D01*
X828618Y270181D01*
X828787Y270165D01*
X828863Y270171D01*
G37*
G36*
X825923Y146670D02*
X825923Y146670D01*
X826026Y146670D01*
X826168Y146692D01*
X826311Y146705D01*
X826411Y146731D01*
X826514Y146747D01*
X826650Y146792D01*
X826789Y146828D01*
X826884Y146869D01*
X826982Y146902D01*
X827109Y146968D01*
X827241Y147026D01*
X827328Y147082D01*
X827419Y147130D01*
X827534Y147216D01*
X827655Y147294D01*
X827731Y147364D01*
X827814Y147426D01*
X827913Y147530D01*
X828020Y147626D01*
X828084Y147707D01*
X828156Y147782D01*
X828209Y147864D01*
X828327Y148012D01*
X828471Y148271D01*
X828525Y148355D01*
X833677Y158748D01*
X833756Y158830D01*
X833910Y158982D01*
X833928Y159006D01*
X833949Y159028D01*
X834073Y159206D01*
X834200Y159381D01*
X834214Y159407D01*
X834231Y159432D01*
X834325Y159628D01*
X834423Y159821D01*
X834432Y159850D01*
X834445Y159877D01*
X834506Y160085D01*
X834571Y160292D01*
X834574Y160316D01*
X834584Y160350D01*
X834645Y160840D01*
X834641Y160918D01*
X834647Y160969D01*
X834647Y168148D01*
X834641Y168224D01*
X834643Y168300D01*
X834621Y168469D01*
X834607Y168640D01*
X834589Y168714D01*
X834579Y168789D01*
X834530Y168953D01*
X834489Y169119D01*
X834459Y169188D01*
X834437Y169262D01*
X834361Y169415D01*
X834294Y169572D01*
X834253Y169636D01*
X834220Y169705D01*
X834121Y169844D01*
X834029Y169988D01*
X833978Y170045D01*
X833934Y170107D01*
X833814Y170228D01*
X833700Y170356D01*
X833641Y170404D01*
X833587Y170458D01*
X833449Y170559D01*
X833316Y170666D01*
X833250Y170703D01*
X833189Y170748D01*
X833036Y170825D01*
X832888Y170910D01*
X832816Y170936D01*
X832748Y170971D01*
X832585Y171022D01*
X832425Y171081D01*
X832350Y171096D01*
X832278Y171119D01*
X832173Y171131D01*
X831941Y171176D01*
X831705Y171183D01*
X831600Y171195D01*
X823214Y171195D01*
X823138Y171189D01*
X823062Y171191D01*
X822893Y171169D01*
X822722Y171155D01*
X822648Y171137D01*
X822573Y171127D01*
X822409Y171078D01*
X822243Y171037D01*
X822174Y171007D01*
X822100Y170985D01*
X821947Y170909D01*
X821790Y170842D01*
X821726Y170801D01*
X821657Y170768D01*
X821518Y170669D01*
X821374Y170577D01*
X821317Y170526D01*
X821255Y170482D01*
X821134Y170362D01*
X821006Y170248D01*
X820958Y170189D01*
X820904Y170135D01*
X820803Y169997D01*
X820696Y169864D01*
X820659Y169798D01*
X820614Y169737D01*
X820537Y169584D01*
X820452Y169436D01*
X820426Y169364D01*
X820391Y169296D01*
X820340Y169133D01*
X820281Y168973D01*
X820266Y168898D01*
X820243Y168826D01*
X820231Y168721D01*
X820186Y168489D01*
X820179Y168253D01*
X820167Y168148D01*
X820167Y159673D01*
X819526Y158127D01*
X819467Y157943D01*
X819401Y157762D01*
X819392Y157709D01*
X819375Y157657D01*
X819346Y157466D01*
X819311Y157277D01*
X819309Y157223D01*
X819301Y157169D01*
X819304Y156976D01*
X819299Y156784D01*
X819307Y156730D01*
X819308Y156676D01*
X819341Y156486D01*
X819368Y156295D01*
X819382Y156254D01*
X819393Y156190D01*
X819556Y155725D01*
X819579Y155682D01*
X819590Y155650D01*
X823044Y148398D01*
X823096Y148309D01*
X823139Y148215D01*
X823219Y148096D01*
X823291Y147971D01*
X823357Y147891D01*
X823415Y147806D01*
X823513Y147701D01*
X823604Y147590D01*
X823682Y147522D01*
X823753Y147447D01*
X823867Y147359D01*
X823975Y147264D01*
X824062Y147210D01*
X824145Y147147D01*
X824271Y147079D01*
X824393Y147003D01*
X824489Y146963D01*
X824580Y146914D01*
X824715Y146868D01*
X824848Y146812D01*
X824948Y146788D01*
X825046Y146754D01*
X825188Y146731D01*
X825328Y146697D01*
X825431Y146690D01*
X825533Y146672D01*
X825676Y146672D01*
X825820Y146661D01*
X825923Y146670D01*
G37*
G36*
X828662Y90108D02*
X828662Y90108D01*
X828687Y90110D01*
X828713Y90109D01*
X828932Y90136D01*
X829153Y90158D01*
X829177Y90165D01*
X829203Y90168D01*
X829416Y90230D01*
X829629Y90288D01*
X829652Y90298D01*
X829676Y90305D01*
X829877Y90401D01*
X830078Y90492D01*
X830099Y90506D01*
X830122Y90517D01*
X830305Y90644D01*
X830488Y90766D01*
X830506Y90784D01*
X830527Y90798D01*
X830686Y90952D01*
X830848Y91103D01*
X830864Y91124D01*
X830882Y91141D01*
X831014Y91318D01*
X831149Y91494D01*
X831162Y91516D01*
X831177Y91537D01*
X831279Y91733D01*
X831384Y91928D01*
X831392Y91952D01*
X831404Y91975D01*
X831473Y92186D01*
X831545Y92394D01*
X831549Y92419D01*
X831557Y92444D01*
X831567Y92521D01*
X831629Y92880D01*
X831630Y93034D01*
X831641Y93121D01*
X831832Y110457D01*
X831825Y110549D01*
X831828Y110642D01*
X831808Y110795D01*
X831797Y110949D01*
X831776Y111039D01*
X831764Y111131D01*
X831719Y111279D01*
X831684Y111429D01*
X831648Y111515D01*
X831621Y111604D01*
X831553Y111742D01*
X831494Y111884D01*
X831445Y111963D01*
X831404Y112047D01*
X831315Y112172D01*
X831234Y112303D01*
X831172Y112373D01*
X831119Y112449D01*
X831010Y112559D01*
X830909Y112675D01*
X830837Y112734D01*
X830772Y112800D01*
X830647Y112891D01*
X830529Y112989D01*
X830448Y113036D01*
X830373Y113090D01*
X830236Y113160D01*
X830103Y113238D01*
X830016Y113271D01*
X829933Y113313D01*
X829786Y113359D01*
X829642Y113414D01*
X829551Y113433D01*
X829462Y113461D01*
X829361Y113472D01*
X829159Y113514D01*
X828888Y113526D01*
X828785Y113537D01*
X827059Y113537D01*
X826963Y113529D01*
X826901Y113533D01*
X825518Y113462D01*
X825469Y113467D01*
X825388Y113489D01*
X824897Y113537D01*
X824867Y113535D01*
X824846Y113537D01*
X822706Y113537D01*
X822630Y113531D01*
X822554Y113533D01*
X822385Y113511D01*
X822214Y113497D01*
X822140Y113479D01*
X822065Y113469D01*
X821901Y113420D01*
X821735Y113379D01*
X821666Y113349D01*
X821592Y113327D01*
X821439Y113251D01*
X821282Y113184D01*
X821218Y113143D01*
X821149Y113110D01*
X821010Y113011D01*
X820866Y112919D01*
X820809Y112868D01*
X820747Y112824D01*
X820626Y112704D01*
X820498Y112590D01*
X820450Y112531D01*
X820396Y112477D01*
X820295Y112339D01*
X820188Y112206D01*
X820151Y112140D01*
X820106Y112079D01*
X820029Y111926D01*
X819944Y111778D01*
X819918Y111706D01*
X819883Y111638D01*
X819832Y111475D01*
X819773Y111315D01*
X819758Y111240D01*
X819735Y111168D01*
X819723Y111063D01*
X819678Y110831D01*
X819671Y110595D01*
X819659Y110490D01*
X819659Y93023D01*
X819668Y92913D01*
X819667Y92804D01*
X819688Y92668D01*
X819699Y92531D01*
X819725Y92425D01*
X819742Y92316D01*
X819784Y92186D01*
X819817Y92053D01*
X819861Y91952D01*
X819895Y91847D01*
X819958Y91725D01*
X820012Y91599D01*
X820071Y91506D01*
X820122Y91409D01*
X820203Y91299D01*
X820277Y91183D01*
X820350Y91101D01*
X820416Y91013D01*
X820514Y90917D01*
X820606Y90815D01*
X820691Y90746D01*
X820770Y90670D01*
X820883Y90591D01*
X820990Y90505D01*
X821085Y90451D01*
X821175Y90388D01*
X821299Y90329D01*
X821418Y90261D01*
X821522Y90223D01*
X821621Y90176D01*
X821752Y90137D01*
X821881Y90090D01*
X821989Y90069D01*
X822094Y90038D01*
X822190Y90029D01*
X822365Y89995D01*
X822677Y89985D01*
X822774Y89977D01*
X828662Y90108D01*
G37*
G36*
X831657Y18660D02*
X831657Y18660D01*
X831752Y18657D01*
X831903Y18677D01*
X832055Y18687D01*
X832147Y18709D01*
X832241Y18722D01*
X832387Y18765D01*
X832535Y18800D01*
X832622Y18837D01*
X832714Y18864D01*
X832850Y18931D01*
X832991Y18989D01*
X833071Y19039D01*
X833157Y19081D01*
X833281Y19169D01*
X833410Y19249D01*
X833481Y19311D01*
X833559Y19366D01*
X833667Y19473D01*
X833782Y19573D01*
X833842Y19646D01*
X833910Y19713D01*
X833999Y19836D01*
X834096Y19953D01*
X834144Y20035D01*
X834200Y20112D01*
X834269Y20248D01*
X834346Y20379D01*
X834380Y20467D01*
X834423Y20552D01*
X834468Y20697D01*
X834523Y20839D01*
X834542Y20932D01*
X834571Y21023D01*
X834582Y21124D01*
X834624Y21322D01*
X834636Y21597D01*
X834647Y21701D01*
X834647Y29685D01*
X834645Y29718D01*
X834647Y29751D01*
X834625Y29964D01*
X834607Y30177D01*
X834599Y30209D01*
X834596Y30242D01*
X834540Y30448D01*
X834489Y30655D01*
X834476Y30686D01*
X834467Y30718D01*
X834378Y30913D01*
X834294Y31109D01*
X834276Y31137D01*
X834263Y31167D01*
X834143Y31345D01*
X834029Y31525D01*
X834007Y31549D01*
X833988Y31577D01*
X833842Y31734D01*
X833700Y31893D01*
X833674Y31914D01*
X833652Y31938D01*
X833483Y32069D01*
X833316Y32203D01*
X833288Y32219D01*
X833261Y32239D01*
X833073Y32341D01*
X832888Y32447D01*
X832857Y32458D01*
X832827Y32474D01*
X832625Y32544D01*
X832425Y32618D01*
X832393Y32625D01*
X832361Y32635D01*
X832274Y32648D01*
X831941Y32713D01*
X831777Y32718D01*
X831686Y32731D01*
X830351Y32768D01*
X830087Y32776D01*
X828129Y32831D01*
X826689Y32872D01*
X823966Y34108D01*
X823749Y34187D01*
X823531Y34267D01*
X823516Y34270D01*
X823502Y34275D01*
X823273Y34318D01*
X823047Y34362D01*
X823032Y34363D01*
X823017Y34365D01*
X822784Y34370D01*
X822554Y34377D01*
X822539Y34376D01*
X822524Y34376D01*
X822295Y34343D01*
X822065Y34313D01*
X822050Y34309D01*
X822035Y34307D01*
X821815Y34238D01*
X821592Y34171D01*
X821579Y34164D01*
X821564Y34159D01*
X821358Y34056D01*
X821149Y33954D01*
X821137Y33945D01*
X821123Y33938D01*
X820936Y33802D01*
X820747Y33668D01*
X820736Y33658D01*
X820724Y33649D01*
X820560Y33484D01*
X820396Y33322D01*
X820387Y33309D01*
X820376Y33299D01*
X820241Y33109D01*
X820106Y32923D01*
X820099Y32909D01*
X820090Y32897D01*
X819987Y32688D01*
X819883Y32482D01*
X819879Y32468D01*
X819872Y32454D01*
X819805Y32232D01*
X819735Y32012D01*
X819734Y31999D01*
X819728Y31982D01*
X819663Y31493D01*
X819666Y31396D01*
X819659Y31334D01*
X819659Y21810D01*
X819663Y21753D01*
X819661Y21696D01*
X819683Y21508D01*
X819699Y21319D01*
X819712Y21263D01*
X819719Y21206D01*
X819772Y21024D01*
X819817Y20840D01*
X819840Y20787D01*
X819856Y20732D01*
X819937Y20560D01*
X820012Y20386D01*
X820043Y20338D01*
X820067Y20286D01*
X820175Y20130D01*
X820277Y19970D01*
X820315Y19928D01*
X820348Y19880D01*
X820480Y19744D01*
X820606Y19602D01*
X820650Y19566D01*
X820690Y19525D01*
X820842Y19411D01*
X820990Y19293D01*
X821039Y19264D01*
X821085Y19230D01*
X821254Y19142D01*
X821418Y19049D01*
X821472Y19029D01*
X821523Y19002D01*
X821703Y18943D01*
X821881Y18877D01*
X821937Y18866D01*
X821992Y18848D01*
X822095Y18835D01*
X822365Y18782D01*
X822567Y18776D01*
X822668Y18763D01*
X831562Y18654D01*
X831657Y18660D01*
G37*
G36*
X594982Y216638D02*
X594982Y216638D01*
X595020Y216637D01*
X595227Y216664D01*
X595435Y216686D01*
X595471Y216696D01*
X595509Y216701D01*
X595709Y216761D01*
X595910Y216817D01*
X595945Y216832D01*
X595982Y216843D01*
X596169Y216935D01*
X596359Y217022D01*
X596391Y217044D01*
X596425Y217060D01*
X596594Y217181D01*
X596768Y217298D01*
X596796Y217324D01*
X596827Y217346D01*
X596975Y217492D01*
X597128Y217636D01*
X597151Y217666D01*
X597178Y217693D01*
X597301Y217861D01*
X597428Y218027D01*
X597446Y218060D01*
X597468Y218091D01*
X597562Y218277D01*
X597661Y218462D01*
X597674Y218498D01*
X597691Y218532D01*
X597753Y218731D01*
X597821Y218928D01*
X597827Y218966D01*
X597839Y219002D01*
X597849Y219095D01*
X597904Y219415D01*
X597905Y219587D01*
X597915Y219680D01*
X597915Y231816D01*
X597912Y231854D01*
X597914Y231892D01*
X597892Y232100D01*
X597875Y232307D01*
X597866Y232344D01*
X597862Y232382D01*
X597807Y232584D01*
X597757Y232786D01*
X597742Y232821D01*
X597731Y232858D01*
X597644Y233048D01*
X597562Y233240D01*
X597542Y233272D01*
X597526Y233306D01*
X597409Y233479D01*
X597297Y233656D01*
X597272Y233684D01*
X597250Y233716D01*
X597107Y233868D01*
X596968Y234024D01*
X596939Y234048D01*
X596913Y234075D01*
X596746Y234203D01*
X596584Y234334D01*
X596552Y234352D01*
X596521Y234376D01*
X596337Y234475D01*
X596156Y234578D01*
X596120Y234591D01*
X596086Y234609D01*
X595889Y234677D01*
X595693Y234749D01*
X595656Y234756D01*
X595620Y234769D01*
X595413Y234804D01*
X595209Y234844D01*
X595171Y234845D01*
X595133Y234851D01*
X594924Y234853D01*
X594716Y234859D01*
X594678Y234854D01*
X594640Y234854D01*
X594433Y234822D01*
X594227Y234795D01*
X594190Y234784D01*
X594153Y234778D01*
X593954Y234713D01*
X593755Y234652D01*
X593720Y234635D01*
X593684Y234624D01*
X593499Y234527D01*
X593311Y234435D01*
X593280Y234413D01*
X593246Y234396D01*
X593174Y234338D01*
X592909Y234150D01*
X592787Y234029D01*
X592713Y233970D01*
X589052Y230309D01*
X587087Y229175D01*
X586986Y229105D01*
X586878Y229043D01*
X586783Y228964D01*
X586681Y228894D01*
X586592Y228809D01*
X586497Y228730D01*
X586415Y228638D01*
X586326Y228552D01*
X586252Y228453D01*
X586170Y228360D01*
X586105Y228256D01*
X586031Y228157D01*
X585973Y228047D01*
X585908Y227943D01*
X585860Y227829D01*
X585803Y227720D01*
X585764Y227602D01*
X585716Y227488D01*
X585687Y227368D01*
X585649Y227251D01*
X585629Y227129D01*
X585600Y227008D01*
X585591Y226886D01*
X585572Y226764D01*
X585573Y226640D01*
X585564Y226517D01*
X585574Y226394D01*
X585575Y226270D01*
X585596Y226148D01*
X585607Y226025D01*
X585631Y225939D01*
X585658Y225784D01*
X585764Y225474D01*
X585794Y225375D01*
X585796Y225370D01*
X586219Y224348D01*
X586223Y224339D01*
X586226Y224330D01*
X586336Y224119D01*
X586444Y223909D01*
X586450Y223901D01*
X586454Y223892D01*
X586479Y223861D01*
X586737Y223512D01*
X586830Y223421D01*
X586879Y223359D01*
X592713Y217525D01*
X592742Y217501D01*
X592768Y217472D01*
X592930Y217341D01*
X593089Y217206D01*
X593122Y217186D01*
X593152Y217162D01*
X593333Y217059D01*
X593512Y216951D01*
X593547Y216937D01*
X593580Y216918D01*
X593776Y216845D01*
X593970Y216768D01*
X594007Y216760D01*
X594043Y216747D01*
X594248Y216707D01*
X594452Y216661D01*
X594490Y216659D01*
X594527Y216652D01*
X594735Y216645D01*
X594944Y216634D01*
X594982Y216638D01*
G37*
%LPC*%
G36*
X208223Y266699D02*
X208223Y266699D01*
X208223Y278441D01*
X219965Y278441D01*
X219965Y268905D01*
X219792Y268259D01*
X219457Y267680D01*
X218984Y267207D01*
X218405Y266872D01*
X217759Y266699D01*
X208223Y266699D01*
G37*
%LPD*%
%LPC*%
G36*
X191689Y266699D02*
X191689Y266699D01*
X191043Y266872D01*
X190464Y267207D01*
X189991Y267680D01*
X189656Y268259D01*
X189483Y268905D01*
X189483Y278441D01*
X201225Y278441D01*
X201225Y266699D01*
X191689Y266699D01*
G37*
%LPD*%
%LPC*%
G36*
X143001Y171957D02*
X143001Y171957D01*
X143001Y191263D01*
X151517Y191263D01*
X151018Y189727D01*
X150165Y188053D01*
X149060Y186532D01*
X147732Y185204D01*
X146179Y184075D01*
X146132Y184036D01*
X146081Y184002D01*
X145945Y183875D01*
X145804Y183754D01*
X145765Y183707D01*
X145720Y183666D01*
X145606Y183518D01*
X145487Y183376D01*
X145456Y183324D01*
X145418Y183276D01*
X145329Y183112D01*
X145234Y182953D01*
X145212Y182896D01*
X145183Y182842D01*
X145121Y182666D01*
X145053Y182494D01*
X145040Y182434D01*
X145020Y182376D01*
X144988Y182193D01*
X144949Y182011D01*
X144946Y181951D01*
X144935Y181890D01*
X144933Y181704D01*
X144924Y181519D01*
X144931Y181458D01*
X144930Y181397D01*
X144958Y181213D01*
X144978Y181028D01*
X144995Y180970D01*
X145004Y180909D01*
X145061Y180732D01*
X145111Y180553D01*
X145137Y180498D01*
X145156Y180440D01*
X145241Y180274D01*
X145319Y180106D01*
X145354Y180056D01*
X145382Y180001D01*
X145492Y179852D01*
X145597Y179698D01*
X145639Y179654D01*
X145675Y179605D01*
X145752Y179534D01*
X145936Y179340D01*
X146103Y179214D01*
X146179Y179145D01*
X147732Y178016D01*
X149060Y176688D01*
X150165Y175167D01*
X151018Y173493D01*
X151517Y171957D01*
X143001Y171957D01*
G37*
%LPD*%
%LPC*%
G36*
X128391Y171957D02*
X128391Y171957D01*
X128890Y173493D01*
X129743Y175167D01*
X130848Y176688D01*
X132176Y178016D01*
X133729Y179145D01*
X133776Y179184D01*
X133827Y179218D01*
X133963Y179345D01*
X134104Y179466D01*
X134143Y179513D01*
X134188Y179554D01*
X134302Y179701D01*
X134421Y179844D01*
X134453Y179896D01*
X134490Y179944D01*
X134579Y180107D01*
X134674Y180267D01*
X134696Y180324D01*
X134725Y180378D01*
X134787Y180553D01*
X134855Y180726D01*
X134868Y180786D01*
X134888Y180844D01*
X134920Y181027D01*
X134959Y181209D01*
X134962Y181269D01*
X134973Y181330D01*
X134975Y181516D01*
X134984Y181701D01*
X134977Y181762D01*
X134978Y181823D01*
X134950Y182007D01*
X134930Y182192D01*
X134913Y182250D01*
X134904Y182311D01*
X134847Y182488D01*
X134797Y182667D01*
X134771Y182722D01*
X134752Y182780D01*
X134667Y182946D01*
X134589Y183114D01*
X134554Y183164D01*
X134526Y183219D01*
X134416Y183368D01*
X134311Y183522D01*
X134269Y183566D01*
X134233Y183615D01*
X134156Y183686D01*
X133972Y183880D01*
X133805Y184006D01*
X133729Y184075D01*
X132176Y185204D01*
X130848Y186532D01*
X129743Y188053D01*
X128890Y189727D01*
X128391Y191263D01*
X136907Y191263D01*
X136907Y171957D01*
X128391Y171957D01*
G37*
%LPD*%
G36*
X553395Y208546D02*
X553395Y208546D01*
X553538Y208548D01*
X553640Y208566D01*
X553745Y208575D01*
X553883Y208609D01*
X554024Y208634D01*
X554122Y208668D01*
X554223Y208693D01*
X554355Y208750D01*
X554489Y208797D01*
X554581Y208847D01*
X554677Y208888D01*
X554797Y208965D01*
X554922Y209033D01*
X555005Y209097D01*
X555093Y209153D01*
X555199Y209248D01*
X555312Y209336D01*
X555383Y209412D01*
X555461Y209482D01*
X555550Y209592D01*
X555647Y209697D01*
X555705Y209784D01*
X555771Y209866D01*
X555841Y209989D01*
X555920Y210108D01*
X555963Y210204D01*
X556015Y210294D01*
X556064Y210428D01*
X556123Y210558D01*
X556150Y210659D01*
X556186Y210757D01*
X556214Y210897D01*
X556251Y211035D01*
X556261Y211139D01*
X556281Y211241D01*
X556285Y211383D01*
X556300Y211525D01*
X556293Y211630D01*
X556296Y211734D01*
X556278Y211875D01*
X556269Y212018D01*
X556246Y212120D01*
X556232Y212223D01*
X556191Y212360D01*
X556159Y212499D01*
X556120Y212596D01*
X556089Y212695D01*
X556027Y212824D01*
X555973Y212956D01*
X555918Y213045D01*
X555873Y213139D01*
X555790Y213255D01*
X555716Y213377D01*
X555647Y213456D01*
X555587Y213541D01*
X555487Y213642D01*
X555394Y213751D01*
X555314Y213818D01*
X555240Y213892D01*
X555125Y213976D01*
X555016Y214068D01*
X554947Y214105D01*
X554842Y214182D01*
X554799Y214204D01*
X552165Y216838D01*
X549298Y219705D01*
X549189Y219797D01*
X549087Y219896D01*
X549002Y219956D01*
X548922Y220024D01*
X548800Y220098D01*
X548683Y220179D01*
X548589Y220225D01*
X548500Y220279D01*
X548367Y220331D01*
X548239Y220393D01*
X548139Y220423D01*
X548042Y220462D01*
X547902Y220493D01*
X547766Y220533D01*
X547662Y220546D01*
X547560Y220569D01*
X547417Y220577D01*
X547276Y220594D01*
X547172Y220590D01*
X547067Y220596D01*
X546925Y220581D01*
X546783Y220576D01*
X546681Y220555D01*
X546577Y220544D01*
X546439Y220506D01*
X546300Y220478D01*
X546202Y220441D01*
X546101Y220413D01*
X545971Y220354D01*
X545838Y220303D01*
X545748Y220251D01*
X545653Y220208D01*
X545534Y220128D01*
X545411Y220057D01*
X545330Y219991D01*
X545243Y219932D01*
X545139Y219835D01*
X545029Y219744D01*
X544960Y219666D01*
X544884Y219594D01*
X544797Y219481D01*
X544703Y219374D01*
X544647Y219286D01*
X544583Y219203D01*
X544516Y219077D01*
X544440Y218957D01*
X544400Y218861D01*
X544350Y218768D01*
X544304Y218633D01*
X544249Y218502D01*
X544224Y218401D01*
X544190Y218302D01*
X544166Y218161D01*
X544133Y218022D01*
X544125Y217918D01*
X544108Y217815D01*
X544107Y217672D01*
X544096Y217531D01*
X544105Y217427D01*
X544105Y217322D01*
X544127Y217181D01*
X544139Y217039D01*
X544161Y216964D01*
X544181Y216835D01*
X544317Y216422D01*
X544328Y216384D01*
X545819Y212785D01*
X545819Y211582D01*
X545825Y211506D01*
X545823Y211430D01*
X545845Y211261D01*
X545859Y211090D01*
X545877Y211016D01*
X545887Y210941D01*
X545936Y210777D01*
X545977Y210611D01*
X546007Y210542D01*
X546029Y210468D01*
X546105Y210315D01*
X546172Y210158D01*
X546213Y210094D01*
X546246Y210025D01*
X546345Y209886D01*
X546437Y209742D01*
X546488Y209685D01*
X546532Y209623D01*
X546652Y209502D01*
X546766Y209374D01*
X546825Y209326D01*
X546879Y209272D01*
X547017Y209171D01*
X547150Y209064D01*
X547216Y209027D01*
X547277Y208982D01*
X547430Y208905D01*
X547578Y208820D01*
X547650Y208794D01*
X547718Y208759D01*
X547881Y208708D01*
X548041Y208649D01*
X548116Y208634D01*
X548188Y208611D01*
X548293Y208599D01*
X548525Y208554D01*
X548761Y208547D01*
X548866Y208535D01*
X553253Y208535D01*
X553395Y208546D01*
G37*
G36*
X563674Y143438D02*
X563674Y143438D01*
X563778Y143434D01*
X563919Y143453D01*
X564062Y143462D01*
X564163Y143485D01*
X564267Y143499D01*
X564404Y143540D01*
X564543Y143572D01*
X564639Y143611D01*
X564739Y143641D01*
X564868Y143704D01*
X565000Y143758D01*
X565089Y143812D01*
X565183Y143858D01*
X565299Y143941D01*
X565420Y144015D01*
X565500Y144083D01*
X565585Y144144D01*
X565686Y144244D01*
X565794Y144337D01*
X565862Y144417D01*
X565936Y144490D01*
X566020Y144605D01*
X566111Y144715D01*
X566149Y144784D01*
X566226Y144889D01*
X566422Y145276D01*
X566441Y145312D01*
X567697Y148344D01*
X568340Y148986D01*
X568389Y149044D01*
X568445Y149097D01*
X568549Y149232D01*
X568659Y149362D01*
X568698Y149427D01*
X568745Y149488D01*
X568826Y149638D01*
X568914Y149785D01*
X568942Y149856D01*
X568978Y149923D01*
X569033Y150084D01*
X569097Y150243D01*
X569113Y150317D01*
X569138Y150389D01*
X569167Y150558D01*
X569204Y150724D01*
X569208Y150801D01*
X569221Y150876D01*
X569222Y151047D01*
X569231Y151217D01*
X569223Y151293D01*
X569224Y151369D01*
X569197Y151538D01*
X569179Y151708D01*
X569159Y151781D01*
X569147Y151856D01*
X569094Y152019D01*
X569048Y152183D01*
X569017Y152253D01*
X568993Y152325D01*
X568914Y152476D01*
X568843Y152632D01*
X568800Y152695D01*
X568765Y152763D01*
X568699Y152845D01*
X568567Y153041D01*
X568405Y153213D01*
X568340Y153296D01*
X567303Y154332D01*
X566441Y156413D01*
X566376Y156540D01*
X566320Y156671D01*
X566264Y156759D01*
X566216Y156852D01*
X566132Y156967D01*
X566055Y157087D01*
X565985Y157165D01*
X565923Y157249D01*
X565821Y157349D01*
X565726Y157455D01*
X565645Y157521D01*
X565570Y157594D01*
X565453Y157676D01*
X565342Y157765D01*
X565252Y157817D01*
X565166Y157877D01*
X565038Y157939D01*
X564914Y158009D01*
X564816Y158046D01*
X564721Y158091D01*
X564585Y158131D01*
X564451Y158181D01*
X564349Y158201D01*
X564248Y158230D01*
X564107Y158248D01*
X563967Y158275D01*
X563863Y158279D01*
X563759Y158292D01*
X563616Y158286D01*
X563474Y158291D01*
X563370Y158277D01*
X563266Y158273D01*
X563126Y158245D01*
X562985Y158226D01*
X562885Y158196D01*
X562782Y158175D01*
X562649Y158125D01*
X562512Y158084D01*
X562419Y158038D01*
X562321Y158001D01*
X562197Y157930D01*
X562069Y157867D01*
X561984Y157807D01*
X561894Y157754D01*
X561783Y157664D01*
X561667Y157582D01*
X561593Y157508D01*
X561512Y157442D01*
X561417Y157335D01*
X561316Y157235D01*
X561255Y157150D01*
X561185Y157072D01*
X561110Y156951D01*
X561026Y156836D01*
X560979Y156743D01*
X560923Y156654D01*
X560868Y156523D01*
X560803Y156396D01*
X560772Y156296D01*
X560731Y156200D01*
X560698Y156061D01*
X560655Y155925D01*
X560646Y155847D01*
X560616Y155720D01*
X560583Y155287D01*
X560579Y155247D01*
X560579Y146478D01*
X560590Y146336D01*
X560592Y146193D01*
X560610Y146090D01*
X560619Y145986D01*
X560653Y145848D01*
X560678Y145707D01*
X560712Y145609D01*
X560737Y145507D01*
X560794Y145376D01*
X560841Y145242D01*
X560891Y145150D01*
X560932Y145054D01*
X561008Y144934D01*
X561077Y144808D01*
X561141Y144726D01*
X561197Y144638D01*
X561292Y144532D01*
X561379Y144419D01*
X561456Y144348D01*
X561526Y144270D01*
X561637Y144180D01*
X561741Y144083D01*
X561828Y144026D01*
X561910Y143960D01*
X562033Y143890D01*
X562152Y143811D01*
X562248Y143768D01*
X562338Y143716D01*
X562472Y143666D01*
X562602Y143608D01*
X562703Y143581D01*
X562801Y143544D01*
X562940Y143517D01*
X563078Y143480D01*
X563183Y143470D01*
X563285Y143450D01*
X563427Y143445D01*
X563569Y143431D01*
X563674Y143438D01*
G37*
%LPC*%
G36*
X584707Y63501D02*
X584707Y63501D01*
X591821Y63501D01*
X591821Y58128D01*
X591571Y56549D01*
X591076Y55028D01*
X590350Y53603D01*
X589410Y52309D01*
X588279Y51178D01*
X586985Y50238D01*
X585560Y49512D01*
X584707Y49235D01*
X584707Y63501D01*
G37*
%LPD*%
G36*
X697052Y74937D02*
X697052Y74937D01*
X697128Y74935D01*
X697297Y74957D01*
X697468Y74971D01*
X697542Y74989D01*
X697617Y74999D01*
X697781Y75048D01*
X697947Y75089D01*
X698016Y75119D01*
X698090Y75141D01*
X698243Y75217D01*
X698400Y75284D01*
X698464Y75325D01*
X698533Y75358D01*
X698672Y75457D01*
X698816Y75549D01*
X698873Y75600D01*
X698935Y75644D01*
X699056Y75764D01*
X699184Y75878D01*
X699232Y75937D01*
X699286Y75991D01*
X699387Y76129D01*
X699494Y76262D01*
X699531Y76328D01*
X699576Y76389D01*
X699653Y76542D01*
X699738Y76690D01*
X699764Y76762D01*
X699799Y76830D01*
X699850Y76993D01*
X699909Y77153D01*
X699924Y77228D01*
X699947Y77300D01*
X699959Y77405D01*
X700004Y77637D01*
X700011Y77873D01*
X700023Y77978D01*
X700023Y82567D01*
X700012Y82709D01*
X700010Y82851D01*
X699992Y82954D01*
X699983Y83058D01*
X699949Y83197D01*
X699924Y83337D01*
X699890Y83436D01*
X699865Y83537D01*
X699808Y83668D01*
X699761Y83803D01*
X699711Y83895D01*
X699670Y83991D01*
X699594Y84111D01*
X699525Y84236D01*
X699461Y84319D01*
X699405Y84407D01*
X699310Y84513D01*
X699223Y84625D01*
X699146Y84696D01*
X699076Y84775D01*
X698965Y84864D01*
X698861Y84961D01*
X698774Y85019D01*
X698692Y85084D01*
X698569Y85155D01*
X698450Y85234D01*
X698354Y85277D01*
X698264Y85328D01*
X698130Y85378D01*
X698000Y85437D01*
X697899Y85464D01*
X697801Y85500D01*
X697661Y85527D01*
X697524Y85564D01*
X697420Y85575D01*
X697317Y85595D01*
X697175Y85599D01*
X697033Y85613D01*
X696928Y85607D01*
X696824Y85610D01*
X696683Y85591D01*
X696540Y85583D01*
X696439Y85559D01*
X696335Y85546D01*
X696198Y85504D01*
X696059Y85473D01*
X695963Y85433D01*
X695863Y85403D01*
X695735Y85341D01*
X695602Y85287D01*
X695513Y85232D01*
X695419Y85186D01*
X695303Y85104D01*
X695182Y85030D01*
X695102Y84961D01*
X695017Y84901D01*
X694916Y84801D01*
X694808Y84708D01*
X694740Y84628D01*
X694666Y84554D01*
X694582Y84439D01*
X694491Y84330D01*
X694453Y84261D01*
X694376Y84155D01*
X694180Y83768D01*
X694161Y83733D01*
X692260Y79144D01*
X692205Y78973D01*
X692142Y78803D01*
X692129Y78738D01*
X692109Y78675D01*
X692082Y78496D01*
X692047Y78319D01*
X692045Y78253D01*
X692035Y78187D01*
X692037Y78006D01*
X692032Y77826D01*
X692041Y77760D01*
X692041Y77693D01*
X692073Y77516D01*
X692096Y77337D01*
X692116Y77273D01*
X692127Y77208D01*
X692187Y77037D01*
X692239Y76864D01*
X692268Y76805D01*
X692290Y76742D01*
X692376Y76583D01*
X692456Y76421D01*
X692494Y76367D01*
X692526Y76309D01*
X692637Y76166D01*
X692741Y76019D01*
X692788Y75972D01*
X692829Y75919D01*
X692961Y75797D01*
X693088Y75668D01*
X693142Y75629D01*
X693190Y75584D01*
X693341Y75484D01*
X693487Y75378D01*
X693546Y75348D01*
X693601Y75311D01*
X693766Y75237D01*
X693927Y75155D01*
X693990Y75135D01*
X694051Y75108D01*
X694225Y75061D01*
X694398Y75007D01*
X694450Y75001D01*
X694528Y74980D01*
X695019Y74931D01*
X695052Y74933D01*
X695075Y74931D01*
X696976Y74931D01*
X697052Y74937D01*
G37*
G36*
X599394Y268335D02*
X599394Y268335D01*
X599452Y268335D01*
X599639Y268367D01*
X599827Y268392D01*
X599882Y268408D01*
X599938Y268418D01*
X600118Y268479D01*
X600300Y268534D01*
X600351Y268559D01*
X600405Y268578D01*
X600572Y268667D01*
X600743Y268751D01*
X600789Y268784D01*
X600839Y268811D01*
X600990Y268927D01*
X601145Y269036D01*
X601186Y269077D01*
X601231Y269111D01*
X601361Y269250D01*
X601496Y269383D01*
X601530Y269429D01*
X601569Y269471D01*
X601675Y269628D01*
X601786Y269782D01*
X601812Y269833D01*
X601844Y269880D01*
X601923Y270053D01*
X602009Y270222D01*
X602026Y270277D01*
X602050Y270329D01*
X602100Y270512D01*
X602157Y270693D01*
X602162Y270738D01*
X602180Y270804D01*
X602232Y271295D01*
X602230Y271340D01*
X602233Y271371D01*
X602233Y273080D01*
X602224Y273194D01*
X602225Y273308D01*
X602204Y273439D01*
X602193Y273572D01*
X602166Y273682D01*
X602148Y273795D01*
X602107Y273922D01*
X602075Y274050D01*
X602030Y274155D01*
X601994Y274264D01*
X601932Y274382D01*
X601880Y274504D01*
X601819Y274600D01*
X601766Y274701D01*
X601707Y274775D01*
X601615Y274920D01*
X601399Y275162D01*
X601341Y275235D01*
X598577Y277999D01*
X598490Y278073D01*
X598409Y278154D01*
X598302Y278232D01*
X598201Y278318D01*
X598103Y278377D01*
X598011Y278444D01*
X597892Y278504D01*
X597778Y278573D01*
X597672Y278615D01*
X597570Y278667D01*
X597443Y278707D01*
X597320Y278756D01*
X597209Y278781D01*
X597100Y278815D01*
X597006Y278825D01*
X596838Y278863D01*
X596514Y278881D01*
X596422Y278891D01*
X596224Y278891D01*
X596186Y278888D01*
X596148Y278890D01*
X595940Y278868D01*
X595733Y278851D01*
X595696Y278842D01*
X595658Y278838D01*
X595456Y278783D01*
X595254Y278733D01*
X595219Y278718D01*
X595182Y278707D01*
X594992Y278620D01*
X594800Y278538D01*
X594768Y278518D01*
X594733Y278502D01*
X594560Y278385D01*
X594384Y278273D01*
X594356Y278248D01*
X594324Y278226D01*
X594172Y278084D01*
X594016Y277944D01*
X593992Y277915D01*
X593965Y277888D01*
X593837Y277723D01*
X593706Y277560D01*
X593688Y277527D01*
X593664Y277497D01*
X593566Y277313D01*
X593462Y277132D01*
X593449Y277096D01*
X593431Y277062D01*
X593364Y276865D01*
X593291Y276669D01*
X593284Y276632D01*
X593271Y276596D01*
X593236Y276390D01*
X593196Y276185D01*
X593195Y276147D01*
X593189Y276109D01*
X593187Y275900D01*
X593181Y275692D01*
X593186Y275654D01*
X593186Y275616D01*
X593218Y275409D01*
X593245Y275203D01*
X593256Y275166D01*
X593262Y275129D01*
X593327Y274931D01*
X593388Y274731D01*
X593405Y274696D01*
X593416Y274660D01*
X593513Y274475D01*
X593605Y274287D01*
X593627Y274256D01*
X593644Y274222D01*
X593702Y274150D01*
X593890Y273885D01*
X594011Y273763D01*
X594070Y273689D01*
X594683Y273076D01*
X596547Y269847D01*
X596655Y269690D01*
X596757Y269531D01*
X596795Y269488D01*
X596827Y269441D01*
X596959Y269304D01*
X597086Y269163D01*
X597130Y269127D01*
X597170Y269086D01*
X597322Y268972D01*
X597470Y268853D01*
X597519Y268825D01*
X597565Y268790D01*
X597734Y268703D01*
X597898Y268609D01*
X597952Y268589D01*
X598002Y268563D01*
X598183Y268503D01*
X598361Y268437D01*
X598417Y268426D01*
X598471Y268408D01*
X598659Y268379D01*
X598845Y268342D01*
X598902Y268341D01*
X598958Y268332D01*
X599149Y268333D01*
X599338Y268327D01*
X599394Y268335D01*
G37*
G36*
X736460Y210730D02*
X736460Y210730D01*
X736498Y210729D01*
X736705Y210756D01*
X736913Y210778D01*
X736949Y210788D01*
X736987Y210793D01*
X737187Y210853D01*
X737388Y210909D01*
X737423Y210924D01*
X737460Y210936D01*
X737647Y211027D01*
X737837Y211114D01*
X737869Y211136D01*
X737903Y211152D01*
X738073Y211273D01*
X738246Y211390D01*
X738274Y211416D01*
X738305Y211438D01*
X738454Y211585D01*
X738606Y211728D01*
X738629Y211758D01*
X738656Y211785D01*
X738779Y211953D01*
X738906Y212119D01*
X738924Y212153D01*
X738946Y212183D01*
X739040Y212370D01*
X739139Y212554D01*
X739151Y212590D01*
X739169Y212624D01*
X739231Y212823D01*
X739299Y213020D01*
X739305Y213058D01*
X739317Y213094D01*
X739327Y213187D01*
X739382Y213507D01*
X739383Y213679D01*
X739393Y213772D01*
X739393Y216154D01*
X739387Y216230D01*
X739389Y216306D01*
X739367Y216475D01*
X739353Y216646D01*
X739335Y216720D01*
X739325Y216795D01*
X739276Y216959D01*
X739235Y217125D01*
X739205Y217194D01*
X739183Y217268D01*
X739107Y217421D01*
X739040Y217578D01*
X738999Y217642D01*
X738966Y217711D01*
X738867Y217850D01*
X738775Y217994D01*
X738724Y218051D01*
X738680Y218113D01*
X738560Y218234D01*
X738446Y218362D01*
X738387Y218410D01*
X738333Y218464D01*
X738195Y218565D01*
X738062Y218672D01*
X737996Y218709D01*
X737935Y218754D01*
X737782Y218831D01*
X737634Y218916D01*
X737562Y218942D01*
X737494Y218977D01*
X737331Y219028D01*
X737171Y219087D01*
X737096Y219102D01*
X737024Y219125D01*
X736919Y219137D01*
X736687Y219182D01*
X736451Y219189D01*
X736346Y219201D01*
X733964Y219201D01*
X733926Y219198D01*
X733888Y219200D01*
X733680Y219178D01*
X733472Y219161D01*
X733435Y219152D01*
X733397Y219148D01*
X733196Y219093D01*
X732994Y219043D01*
X732958Y219028D01*
X732922Y219017D01*
X732732Y218930D01*
X732540Y218848D01*
X732508Y218828D01*
X732473Y218812D01*
X732300Y218695D01*
X732124Y218583D01*
X732096Y218558D01*
X732064Y218536D01*
X731912Y218393D01*
X731756Y218254D01*
X731732Y218225D01*
X731704Y218199D01*
X731577Y218033D01*
X731446Y217870D01*
X731427Y217837D01*
X731404Y217807D01*
X731305Y217623D01*
X731202Y217442D01*
X731189Y217406D01*
X731171Y217372D01*
X731103Y217175D01*
X731031Y216979D01*
X731023Y216942D01*
X731011Y216906D01*
X730976Y216699D01*
X730936Y216495D01*
X730935Y216457D01*
X730928Y216419D01*
X730927Y216210D01*
X730921Y216002D01*
X730926Y215964D01*
X730925Y215926D01*
X730958Y215719D01*
X730985Y215513D01*
X730996Y215476D01*
X731002Y215439D01*
X731067Y215240D01*
X731128Y215041D01*
X731144Y215006D01*
X731156Y214970D01*
X731253Y214785D01*
X731344Y214597D01*
X731366Y214566D01*
X731384Y214532D01*
X731442Y214460D01*
X731630Y214195D01*
X731751Y214073D01*
X731809Y213999D01*
X734191Y211617D01*
X734220Y211593D01*
X734246Y211564D01*
X734408Y211433D01*
X734567Y211298D01*
X734600Y211278D01*
X734630Y211254D01*
X734810Y211151D01*
X734990Y211043D01*
X735025Y211029D01*
X735058Y211010D01*
X735254Y210938D01*
X735448Y210860D01*
X735485Y210852D01*
X735521Y210839D01*
X735726Y210799D01*
X735930Y210753D01*
X735968Y210751D01*
X736005Y210744D01*
X736213Y210737D01*
X736422Y210726D01*
X736460Y210730D01*
G37*
%LPC*%
G36*
X143001Y197357D02*
X143001Y197357D01*
X143001Y205873D01*
X144537Y205374D01*
X146211Y204521D01*
X147732Y203416D01*
X149060Y202088D01*
X150165Y200567D01*
X151018Y198893D01*
X151517Y197357D01*
X143001Y197357D01*
G37*
%LPD*%
%LPC*%
G36*
X128391Y197357D02*
X128391Y197357D01*
X128890Y198893D01*
X129743Y200567D01*
X130848Y202088D01*
X132176Y203416D01*
X133697Y204521D01*
X135371Y205374D01*
X136907Y205873D01*
X136907Y197357D01*
X128391Y197357D01*
G37*
%LPD*%
%LPC*%
G36*
X143001Y165863D02*
X143001Y165863D01*
X151517Y165863D01*
X151018Y164327D01*
X150165Y162653D01*
X149060Y161132D01*
X147732Y159804D01*
X146211Y158699D01*
X144537Y157846D01*
X143001Y157347D01*
X143001Y165863D01*
G37*
%LPD*%
%LPC*%
G36*
X135371Y157846D02*
X135371Y157846D01*
X133697Y158699D01*
X132176Y159804D01*
X130848Y161132D01*
X129743Y162653D01*
X128890Y164327D01*
X128391Y165863D01*
X136907Y165863D01*
X136907Y157347D01*
X135371Y157846D01*
G37*
%LPD*%
G36*
X616934Y286784D02*
X616934Y286784D01*
X617000Y286780D01*
X617179Y286799D01*
X617360Y286810D01*
X617425Y286825D01*
X617491Y286832D01*
X617664Y286880D01*
X617841Y286920D01*
X617902Y286945D01*
X617966Y286963D01*
X618131Y287038D01*
X618297Y287106D01*
X618354Y287141D01*
X618415Y287168D01*
X618564Y287269D01*
X618718Y287363D01*
X618769Y287407D01*
X618824Y287444D01*
X618955Y287567D01*
X619092Y287685D01*
X619135Y287736D01*
X619184Y287782D01*
X619293Y287925D01*
X619409Y288063D01*
X619435Y288109D01*
X619484Y288173D01*
X619717Y288608D01*
X619728Y288639D01*
X619739Y288660D01*
X620260Y289918D01*
X620316Y290090D01*
X620378Y290259D01*
X620391Y290324D01*
X620412Y290387D01*
X620439Y290566D01*
X620473Y290743D01*
X620475Y290809D01*
X620485Y290875D01*
X620483Y291056D01*
X620488Y291236D01*
X620480Y291302D01*
X620479Y291369D01*
X620448Y291546D01*
X620424Y291725D01*
X620405Y291789D01*
X620393Y291854D01*
X620334Y292024D01*
X620282Y292198D01*
X620252Y292257D01*
X620230Y292320D01*
X620144Y292478D01*
X620065Y292641D01*
X620026Y292695D01*
X619994Y292753D01*
X619884Y292896D01*
X619779Y293043D01*
X619732Y293090D01*
X619692Y293143D01*
X619559Y293266D01*
X619432Y293394D01*
X619379Y293433D01*
X619330Y293478D01*
X619180Y293578D01*
X619034Y293684D01*
X618974Y293714D01*
X618919Y293751D01*
X618754Y293825D01*
X618593Y293907D01*
X618530Y293927D01*
X618469Y293954D01*
X618295Y294001D01*
X618123Y294055D01*
X618070Y294061D01*
X617993Y294082D01*
X617502Y294131D01*
X617468Y294129D01*
X617445Y294131D01*
X615666Y294131D01*
X615628Y294128D01*
X615590Y294130D01*
X615382Y294108D01*
X615174Y294091D01*
X615137Y294082D01*
X615099Y294078D01*
X614898Y294023D01*
X614695Y293973D01*
X614660Y293958D01*
X614624Y293947D01*
X614434Y293860D01*
X614242Y293778D01*
X614210Y293758D01*
X614175Y293742D01*
X614002Y293625D01*
X613826Y293513D01*
X613798Y293488D01*
X613766Y293466D01*
X613614Y293323D01*
X613458Y293184D01*
X613434Y293155D01*
X613406Y293129D01*
X613279Y292963D01*
X613148Y292800D01*
X613129Y292767D01*
X613106Y292737D01*
X613007Y292553D01*
X612904Y292372D01*
X612891Y292336D01*
X612873Y292302D01*
X612805Y292105D01*
X612733Y291909D01*
X612725Y291872D01*
X612713Y291836D01*
X612678Y291629D01*
X612638Y291425D01*
X612637Y291387D01*
X612630Y291349D01*
X612629Y291140D01*
X612623Y290932D01*
X612628Y290894D01*
X612627Y290856D01*
X612660Y290649D01*
X612687Y290443D01*
X612698Y290406D01*
X612704Y290369D01*
X612769Y290170D01*
X612829Y289971D01*
X612846Y289936D01*
X612858Y289900D01*
X612955Y289715D01*
X613046Y289527D01*
X613068Y289496D01*
X613086Y289462D01*
X613144Y289390D01*
X613332Y289125D01*
X613453Y289003D01*
X613511Y288929D01*
X614769Y287671D01*
X614907Y287555D01*
X615039Y287432D01*
X615094Y287395D01*
X615145Y287352D01*
X615300Y287259D01*
X615450Y287159D01*
X615511Y287132D01*
X615568Y287097D01*
X615736Y287030D01*
X615900Y286956D01*
X615964Y286939D01*
X616026Y286914D01*
X616202Y286875D01*
X616376Y286828D01*
X616442Y286822D01*
X616507Y286807D01*
X616688Y286797D01*
X616867Y286779D01*
X616934Y286784D01*
G37*
G36*
X606000Y-84328D02*
X606000Y-84328D01*
X606038Y-84330D01*
X606246Y-84308D01*
X606454Y-84291D01*
X606491Y-84282D01*
X606529Y-84278D01*
X606730Y-84223D01*
X606933Y-84173D01*
X606968Y-84158D01*
X607005Y-84147D01*
X607195Y-84060D01*
X607386Y-83978D01*
X607418Y-83958D01*
X607453Y-83942D01*
X607626Y-83825D01*
X607802Y-83713D01*
X607831Y-83688D01*
X607862Y-83666D01*
X608014Y-83523D01*
X608170Y-83384D01*
X608194Y-83355D01*
X608222Y-83329D01*
X608349Y-83163D01*
X608480Y-83000D01*
X608499Y-82967D01*
X608522Y-82937D01*
X608621Y-82753D01*
X608724Y-82572D01*
X608737Y-82536D01*
X608755Y-82502D01*
X608823Y-82305D01*
X608896Y-82109D01*
X608903Y-82072D01*
X608915Y-82036D01*
X608950Y-81829D01*
X608990Y-81625D01*
X608991Y-81587D01*
X608998Y-81549D01*
X608999Y-81340D01*
X609006Y-81132D01*
X609001Y-81094D01*
X609001Y-81056D01*
X608968Y-80849D01*
X608941Y-80643D01*
X608930Y-80606D01*
X608924Y-80569D01*
X608859Y-80370D01*
X608799Y-80171D01*
X608782Y-80136D01*
X608770Y-80100D01*
X608673Y-79915D01*
X608582Y-79727D01*
X608560Y-79696D01*
X608542Y-79662D01*
X608484Y-79590D01*
X608296Y-79325D01*
X608175Y-79203D01*
X608117Y-79129D01*
X607437Y-78449D01*
X607379Y-78400D01*
X607327Y-78344D01*
X607191Y-78240D01*
X607061Y-78130D01*
X606996Y-78090D01*
X606935Y-78044D01*
X606785Y-77963D01*
X606638Y-77875D01*
X606567Y-77847D01*
X606500Y-77811D01*
X606339Y-77755D01*
X606180Y-77692D01*
X606106Y-77676D01*
X606034Y-77651D01*
X605865Y-77622D01*
X605699Y-77585D01*
X605623Y-77581D01*
X605547Y-77568D01*
X605376Y-77567D01*
X605206Y-77558D01*
X605130Y-77566D01*
X605054Y-77565D01*
X604885Y-77592D01*
X604715Y-77610D01*
X604642Y-77630D01*
X604567Y-77642D01*
X604405Y-77695D01*
X604240Y-77740D01*
X604170Y-77772D01*
X604098Y-77796D01*
X603947Y-77875D01*
X603791Y-77946D01*
X603728Y-77989D01*
X603661Y-78024D01*
X603578Y-78090D01*
X603382Y-78222D01*
X603210Y-78383D01*
X603127Y-78449D01*
X602447Y-79129D01*
X602422Y-79158D01*
X602394Y-79184D01*
X602263Y-79346D01*
X602128Y-79505D01*
X602108Y-79538D01*
X602084Y-79568D01*
X601981Y-79748D01*
X601873Y-79928D01*
X601859Y-79963D01*
X601840Y-79996D01*
X601768Y-80192D01*
X601690Y-80386D01*
X601682Y-80423D01*
X601668Y-80459D01*
X601628Y-80663D01*
X601583Y-80867D01*
X601581Y-80906D01*
X601574Y-80943D01*
X601567Y-81151D01*
X601556Y-81360D01*
X601560Y-81398D01*
X601558Y-81436D01*
X601586Y-81642D01*
X601608Y-81851D01*
X601618Y-81887D01*
X601623Y-81925D01*
X601683Y-82125D01*
X601738Y-82326D01*
X601754Y-82361D01*
X601765Y-82398D01*
X601857Y-82585D01*
X601944Y-82775D01*
X601965Y-82806D01*
X601982Y-82841D01*
X602103Y-83011D01*
X602219Y-83184D01*
X602246Y-83212D01*
X602268Y-83243D01*
X602414Y-83392D01*
X602557Y-83544D01*
X602588Y-83567D01*
X602614Y-83594D01*
X602783Y-83717D01*
X602949Y-83844D01*
X602982Y-83862D01*
X603013Y-83884D01*
X603199Y-83978D01*
X603383Y-84077D01*
X603420Y-84089D01*
X603454Y-84107D01*
X603653Y-84169D01*
X603850Y-84237D01*
X603888Y-84243D01*
X603924Y-84255D01*
X604017Y-84265D01*
X604336Y-84320D01*
X604509Y-84321D01*
X604602Y-84331D01*
X605962Y-84331D01*
X606000Y-84328D01*
G37*
G36*
X563674Y134609D02*
X563674Y134609D01*
X563778Y134606D01*
X563919Y134625D01*
X564062Y134634D01*
X564163Y134657D01*
X564267Y134670D01*
X564404Y134712D01*
X564543Y134743D01*
X564639Y134783D01*
X564739Y134813D01*
X564868Y134876D01*
X565000Y134929D01*
X565089Y134984D01*
X565183Y135030D01*
X565299Y135112D01*
X565420Y135187D01*
X565500Y135255D01*
X565585Y135315D01*
X565686Y135415D01*
X565794Y135508D01*
X565862Y135589D01*
X565936Y135662D01*
X566020Y135777D01*
X566111Y135886D01*
X566149Y135955D01*
X566226Y136061D01*
X566422Y136448D01*
X566441Y136483D01*
X566725Y137168D01*
X566760Y137276D01*
X566804Y137382D01*
X566835Y137511D01*
X566876Y137637D01*
X566893Y137750D01*
X566920Y137861D01*
X566930Y137994D01*
X566950Y138125D01*
X566948Y138239D01*
X566957Y138353D01*
X566945Y138485D01*
X566943Y138618D01*
X566924Y138731D01*
X566914Y138845D01*
X566888Y138935D01*
X566858Y139104D01*
X566751Y139410D01*
X566725Y139500D01*
X566441Y140184D01*
X566376Y140311D01*
X566320Y140442D01*
X566264Y140530D01*
X566216Y140623D01*
X566132Y140738D01*
X566055Y140858D01*
X565985Y140936D01*
X565923Y141020D01*
X565821Y141120D01*
X565726Y141226D01*
X565645Y141292D01*
X565570Y141365D01*
X565453Y141446D01*
X565342Y141536D01*
X565252Y141588D01*
X565166Y141648D01*
X565038Y141709D01*
X564914Y141780D01*
X564816Y141816D01*
X564722Y141862D01*
X564585Y141902D01*
X564451Y141952D01*
X564349Y141972D01*
X564248Y142001D01*
X564107Y142019D01*
X563967Y142046D01*
X563863Y142050D01*
X563759Y142063D01*
X563616Y142057D01*
X563474Y142062D01*
X563370Y142048D01*
X563266Y142044D01*
X563126Y142016D01*
X562985Y141997D01*
X562885Y141967D01*
X562782Y141946D01*
X562649Y141896D01*
X562512Y141855D01*
X562419Y141809D01*
X562321Y141772D01*
X562197Y141701D01*
X562069Y141638D01*
X561984Y141577D01*
X561894Y141525D01*
X561783Y141435D01*
X561667Y141352D01*
X561593Y141279D01*
X561512Y141213D01*
X561417Y141106D01*
X561316Y141006D01*
X561255Y140921D01*
X561185Y140843D01*
X561109Y140722D01*
X561026Y140607D01*
X560979Y140514D01*
X560923Y140425D01*
X560867Y140294D01*
X560803Y140166D01*
X560772Y140067D01*
X560731Y139970D01*
X560698Y139832D01*
X560655Y139696D01*
X560646Y139618D01*
X560616Y139491D01*
X560583Y139058D01*
X560579Y139018D01*
X560579Y137649D01*
X560590Y137507D01*
X560592Y137365D01*
X560610Y137262D01*
X560619Y137158D01*
X560653Y137019D01*
X560678Y136879D01*
X560712Y136780D01*
X560737Y136679D01*
X560794Y136548D01*
X560841Y136413D01*
X560891Y136322D01*
X560932Y136226D01*
X561008Y136105D01*
X561077Y135980D01*
X561141Y135897D01*
X561197Y135809D01*
X561292Y135703D01*
X561379Y135591D01*
X561456Y135520D01*
X561526Y135442D01*
X561637Y135352D01*
X561741Y135255D01*
X561828Y135197D01*
X561910Y135132D01*
X562033Y135061D01*
X562152Y134982D01*
X562247Y134939D01*
X562338Y134888D01*
X562472Y134838D01*
X562602Y134779D01*
X562703Y134752D01*
X562801Y134716D01*
X562941Y134689D01*
X563078Y134652D01*
X563183Y134641D01*
X563285Y134621D01*
X563427Y134617D01*
X563569Y134603D01*
X563674Y134609D01*
G37*
G36*
X539356Y173000D02*
X539356Y173000D01*
X539394Y172999D01*
X539601Y173026D01*
X539809Y173048D01*
X539845Y173058D01*
X539883Y173063D01*
X540083Y173124D01*
X540284Y173179D01*
X540319Y173195D01*
X540356Y173206D01*
X540543Y173297D01*
X540733Y173385D01*
X540765Y173406D01*
X540799Y173423D01*
X540969Y173543D01*
X541142Y173660D01*
X541170Y173686D01*
X541201Y173708D01*
X541350Y173855D01*
X541502Y173998D01*
X541525Y174028D01*
X541552Y174055D01*
X541675Y174224D01*
X541802Y174389D01*
X541820Y174423D01*
X541842Y174454D01*
X541936Y174640D01*
X542035Y174824D01*
X542047Y174860D01*
X542065Y174894D01*
X542127Y175093D01*
X542195Y175291D01*
X542201Y175328D01*
X542213Y175365D01*
X542223Y175457D01*
X542278Y175777D01*
X542279Y175949D01*
X542289Y176042D01*
X542289Y176784D01*
X542283Y176860D01*
X542285Y176936D01*
X542263Y177105D01*
X542249Y177276D01*
X542231Y177350D01*
X542221Y177425D01*
X542172Y177589D01*
X542131Y177755D01*
X542101Y177824D01*
X542079Y177898D01*
X542003Y178051D01*
X541936Y178208D01*
X541895Y178272D01*
X541862Y178341D01*
X541763Y178480D01*
X541671Y178624D01*
X541620Y178681D01*
X541576Y178743D01*
X541456Y178864D01*
X541342Y178992D01*
X541283Y179040D01*
X541229Y179094D01*
X541091Y179195D01*
X540958Y179302D01*
X540892Y179339D01*
X540831Y179384D01*
X540678Y179461D01*
X540530Y179546D01*
X540458Y179572D01*
X540390Y179607D01*
X540227Y179658D01*
X540067Y179717D01*
X539992Y179732D01*
X539920Y179755D01*
X539815Y179767D01*
X539583Y179812D01*
X539347Y179819D01*
X539242Y179831D01*
X538500Y179831D01*
X538462Y179828D01*
X538424Y179830D01*
X538216Y179808D01*
X538009Y179791D01*
X537971Y179782D01*
X537934Y179778D01*
X537732Y179723D01*
X537530Y179673D01*
X537495Y179658D01*
X537458Y179647D01*
X537268Y179560D01*
X537076Y179478D01*
X537044Y179458D01*
X537010Y179442D01*
X536836Y179325D01*
X536660Y179213D01*
X536632Y179188D01*
X536600Y179166D01*
X536448Y179023D01*
X536292Y178884D01*
X536268Y178855D01*
X536241Y178829D01*
X536113Y178663D01*
X535982Y178500D01*
X535964Y178467D01*
X535940Y178437D01*
X535842Y178253D01*
X535738Y178072D01*
X535725Y178036D01*
X535707Y178002D01*
X535639Y177805D01*
X535567Y177609D01*
X535560Y177572D01*
X535547Y177536D01*
X535512Y177329D01*
X535472Y177125D01*
X535471Y177087D01*
X535465Y177049D01*
X535463Y176840D01*
X535457Y176632D01*
X535462Y176594D01*
X535462Y176556D01*
X535494Y176349D01*
X535521Y176143D01*
X535532Y176106D01*
X535538Y176069D01*
X535603Y175870D01*
X535664Y175671D01*
X535681Y175636D01*
X535692Y175600D01*
X535789Y175415D01*
X535881Y175227D01*
X535903Y175196D01*
X535920Y175162D01*
X535978Y175090D01*
X536166Y174825D01*
X536287Y174703D01*
X536346Y174629D01*
X537087Y173888D01*
X537116Y173863D01*
X537142Y173834D01*
X537304Y173703D01*
X537463Y173568D01*
X537496Y173548D01*
X537526Y173524D01*
X537706Y173422D01*
X537886Y173313D01*
X537921Y173299D01*
X537954Y173280D01*
X538150Y173208D01*
X538344Y173130D01*
X538381Y173122D01*
X538417Y173109D01*
X538622Y173069D01*
X538826Y173024D01*
X538864Y173021D01*
X538901Y173014D01*
X539109Y173008D01*
X539318Y172996D01*
X539356Y173000D01*
G37*
G36*
X760412Y288070D02*
X760412Y288070D01*
X760450Y288070D01*
X760657Y288103D01*
X760863Y288130D01*
X760900Y288141D01*
X760937Y288147D01*
X761136Y288212D01*
X761335Y288272D01*
X761370Y288289D01*
X761406Y288301D01*
X761591Y288398D01*
X761779Y288489D01*
X761810Y288511D01*
X761844Y288529D01*
X761916Y288587D01*
X762181Y288775D01*
X762303Y288896D01*
X762377Y288954D01*
X762610Y289187D01*
X762634Y289216D01*
X762663Y289242D01*
X762794Y289404D01*
X762929Y289563D01*
X762949Y289596D01*
X762973Y289626D01*
X763076Y289806D01*
X763184Y289986D01*
X763198Y290021D01*
X763217Y290054D01*
X763290Y290250D01*
X763367Y290444D01*
X763375Y290481D01*
X763389Y290517D01*
X763429Y290722D01*
X763474Y290926D01*
X763476Y290964D01*
X763483Y291001D01*
X763490Y291209D01*
X763501Y291418D01*
X763497Y291456D01*
X763499Y291494D01*
X763471Y291701D01*
X763449Y291909D01*
X763439Y291945D01*
X763434Y291983D01*
X763374Y292183D01*
X763319Y292384D01*
X763303Y292419D01*
X763292Y292456D01*
X763200Y292643D01*
X763113Y292833D01*
X763091Y292865D01*
X763075Y292899D01*
X762954Y293069D01*
X762837Y293242D01*
X762811Y293270D01*
X762789Y293301D01*
X762643Y293450D01*
X762500Y293602D01*
X762469Y293625D01*
X762443Y293652D01*
X762274Y293775D01*
X762108Y293902D01*
X762075Y293920D01*
X762044Y293942D01*
X761857Y294036D01*
X761673Y294135D01*
X761637Y294147D01*
X761603Y294165D01*
X761404Y294227D01*
X761207Y294295D01*
X761169Y294301D01*
X761133Y294313D01*
X761040Y294323D01*
X760720Y294378D01*
X760548Y294379D01*
X760455Y294389D01*
X760222Y294389D01*
X760146Y294383D01*
X760070Y294385D01*
X759901Y294363D01*
X759730Y294349D01*
X759656Y294331D01*
X759581Y294321D01*
X759417Y294272D01*
X759251Y294231D01*
X759182Y294201D01*
X759108Y294179D01*
X758955Y294103D01*
X758798Y294036D01*
X758734Y293995D01*
X758665Y293962D01*
X758526Y293863D01*
X758382Y293771D01*
X758325Y293720D01*
X758263Y293676D01*
X758142Y293556D01*
X758014Y293442D01*
X757966Y293383D01*
X757912Y293329D01*
X757811Y293191D01*
X757704Y293058D01*
X757667Y292992D01*
X757622Y292931D01*
X757545Y292778D01*
X757460Y292630D01*
X757434Y292558D01*
X757399Y292490D01*
X757348Y292327D01*
X757289Y292167D01*
X757274Y292092D01*
X757251Y292020D01*
X757239Y291915D01*
X757194Y291683D01*
X757187Y291447D01*
X757175Y291342D01*
X757175Y291109D01*
X757178Y291071D01*
X757176Y291033D01*
X757198Y290825D01*
X757215Y290617D01*
X757224Y290580D01*
X757228Y290542D01*
X757283Y290341D01*
X757333Y290138D01*
X757348Y290103D01*
X757359Y290067D01*
X757446Y289877D01*
X757528Y289685D01*
X757548Y289653D01*
X757564Y289618D01*
X757681Y289445D01*
X757793Y289269D01*
X757818Y289240D01*
X757840Y289209D01*
X757983Y289057D01*
X758122Y288901D01*
X758151Y288877D01*
X758177Y288849D01*
X758343Y288722D01*
X758506Y288591D01*
X758539Y288572D01*
X758569Y288549D01*
X758753Y288450D01*
X758934Y288347D01*
X758970Y288334D01*
X759004Y288316D01*
X759201Y288248D01*
X759397Y288175D01*
X759434Y288168D01*
X759470Y288156D01*
X759677Y288121D01*
X759881Y288081D01*
X759919Y288080D01*
X759957Y288073D01*
X760166Y288072D01*
X760374Y288065D01*
X760412Y288070D01*
G37*
%LPC*%
G36*
X690371Y-74931D02*
X690371Y-74931D01*
X690371Y-70978D01*
X691318Y-71460D01*
X692289Y-72165D01*
X693137Y-73013D01*
X693842Y-73984D01*
X694324Y-74931D01*
X690371Y-74931D01*
G37*
%LPD*%
%LPC*%
G36*
X680324Y-74931D02*
X680324Y-74931D01*
X680806Y-73984D01*
X681511Y-73013D01*
X682359Y-72165D01*
X683330Y-71460D01*
X684277Y-70978D01*
X684277Y-74931D01*
X680324Y-74931D01*
G37*
%LPD*%
D10*
X140716Y331470D03*
X140716Y356870D03*
X139954Y168910D03*
X139954Y194310D03*
X140208Y255270D03*
X140208Y280670D03*
D11*
X204724Y281940D03*
D12*
X254724Y281940D03*
X304724Y281940D03*
X354724Y281940D03*
D13*
X631620Y56544D03*
X631620Y46544D03*
X631620Y66544D03*
X631620Y36544D03*
D14*
X655620Y232544D03*
X655620Y-9456D03*
D13*
X631620Y26544D03*
X631620Y16544D03*
X631620Y76544D03*
X631620Y86544D03*
X631620Y96544D03*
X631620Y106544D03*
X631620Y116544D03*
X631620Y126544D03*
X631620Y136544D03*
X631620Y146544D03*
X631620Y156544D03*
X631620Y166544D03*
X631620Y176544D03*
X631620Y186544D03*
X631620Y196544D03*
X631620Y206544D03*
D15*
X466344Y74168D02*
X466344Y58928D01*
X440944Y58928D02*
X440944Y74168D01*
X415544Y74168D02*
X415544Y58928D01*
X491744Y58928D02*
X491744Y74168D01*
X581660Y74168D02*
X581660Y58928D01*
X556260Y58928D02*
X556260Y74168D01*
X93472Y128778D02*
X93472Y144018D01*
X68072Y144018D02*
X68072Y128778D01*
X617982Y-54356D02*
X617982Y-69596D01*
X592582Y-69596D02*
X592582Y-54356D01*
D16*
X659384Y-78740D03*
X687324Y-77978D03*
X55880Y331470D03*
X470154Y235458D03*
X500888Y234696D03*
X532892Y234442D03*
X413766Y158750D03*
X449072Y159512D03*
X413512Y130302D03*
X450088Y129540D03*
X68834Y191262D03*
X95758Y191262D03*
D17*
X811784Y5588D02*
X811530Y-13970D01*
X811530Y-14732D01*
X811532Y-14916D01*
X811539Y-15100D01*
X811550Y-15284D01*
X811566Y-15467D01*
X811586Y-15650D01*
X811610Y-15833D01*
X811639Y-16015D01*
X811672Y-16196D01*
X811710Y-16376D01*
X811751Y-16556D01*
X811798Y-16734D01*
X811848Y-16911D01*
X811903Y-17087D01*
X811962Y-17261D01*
X812025Y-17434D01*
X812093Y-17605D01*
X812164Y-17775D01*
X812240Y-17943D01*
X812319Y-18109D01*
X812403Y-18273D01*
X812490Y-18435D01*
X812582Y-18595D01*
X812677Y-18753D01*
X812776Y-18908D01*
X812879Y-19061D01*
X812985Y-19211D01*
X813095Y-19359D01*
X813209Y-19504D01*
X813326Y-19646D01*
X813446Y-19785D01*
X813570Y-19921D01*
X813697Y-20055D01*
X813827Y-20185D01*
X813961Y-20312D01*
X814097Y-20436D01*
X814236Y-20556D01*
X814378Y-20673D01*
X814523Y-20787D01*
X814671Y-20897D01*
X814821Y-21003D01*
X814974Y-21106D01*
X815129Y-21205D01*
X815287Y-21300D01*
X815447Y-21392D01*
X815609Y-21479D01*
X815773Y-21563D01*
X815939Y-21642D01*
X816107Y-21718D01*
X816277Y-21789D01*
X816448Y-21857D01*
X816621Y-21920D01*
X816795Y-21979D01*
X816971Y-22034D01*
X817148Y-22084D01*
X817326Y-22131D01*
X817506Y-22172D01*
X817686Y-22210D01*
X817867Y-22243D01*
X818049Y-22272D01*
X818232Y-22296D01*
X818415Y-22316D01*
X818598Y-22332D01*
X818782Y-22343D01*
X818966Y-22350D01*
X819150Y-22352D01*
X840486Y-22352D01*
X830072Y-20066D02*
X830072Y5588D01*
X811530Y18796D02*
X811530Y38354D01*
X811530Y18796D02*
X811532Y18599D01*
X811540Y18401D01*
X811552Y18205D01*
X811568Y18008D01*
X811590Y17812D01*
X811616Y17616D01*
X811647Y17421D01*
X811683Y17227D01*
X811723Y17034D01*
X811768Y16842D01*
X811818Y16651D01*
X811872Y16461D01*
X811931Y16273D01*
X811995Y16086D01*
X812063Y15901D01*
X812135Y15717D01*
X812212Y15536D01*
X812293Y15356D01*
X812379Y15178D01*
X812469Y15002D01*
X812563Y14829D01*
X812662Y14658D01*
X812764Y14489D01*
X812871Y14323D01*
X812981Y14160D01*
X813096Y13999D01*
X813214Y13841D01*
X813336Y13686D01*
X813462Y13534D01*
X813591Y13385D01*
X813724Y13240D01*
X813861Y13097D01*
X814001Y12958D01*
X814144Y12822D01*
X814291Y12690D01*
X814441Y12562D01*
X814593Y12437D01*
X814749Y12316D01*
X814908Y12198D01*
X815069Y12085D01*
X815233Y11976D01*
X815400Y11870D01*
X815570Y11769D01*
X815741Y11672D01*
X815915Y11579D01*
X816092Y11490D01*
X816270Y11405D01*
X816450Y11325D01*
X816632Y11249D01*
X816816Y11178D01*
X817002Y11111D01*
X817189Y11049D01*
X817378Y10991D01*
X817568Y10938D01*
X817759Y10890D01*
X817952Y10846D01*
X818145Y10807D01*
X818339Y10772D01*
X818535Y10743D01*
X818730Y10718D01*
X818927Y10697D01*
X819123Y10682D01*
X819320Y10671D01*
X819518Y10665D01*
X819715Y10664D01*
X819912Y10668D01*
X840486Y10414D01*
X811784Y44704D02*
X811784Y65024D01*
X811786Y65223D01*
X811794Y65421D01*
X811806Y65619D01*
X811823Y65817D01*
X811845Y66015D01*
X811871Y66212D01*
X811903Y66408D01*
X811939Y66603D01*
X811980Y66798D01*
X812025Y66991D01*
X812076Y67183D01*
X812131Y67374D01*
X812191Y67563D01*
X812255Y67751D01*
X812324Y67938D01*
X812397Y68122D01*
X812475Y68305D01*
X812558Y68486D01*
X812644Y68664D01*
X812735Y68841D01*
X812831Y69015D01*
X812930Y69187D01*
X813034Y69357D01*
X813142Y69523D01*
X813254Y69687D01*
X813370Y69849D01*
X813490Y70007D01*
X813613Y70163D01*
X813741Y70315D01*
X813872Y70464D01*
X814007Y70610D01*
X814145Y70753D01*
X814286Y70892D01*
X814432Y71028D01*
X814580Y71160D01*
X814731Y71289D01*
X814886Y71414D01*
X815043Y71535D01*
X815204Y71652D01*
X815367Y71765D01*
X815533Y71874D01*
X815702Y71979D01*
X815873Y72080D01*
X816047Y72176D01*
X816222Y72269D01*
X816401Y72357D01*
X816581Y72441D01*
X816763Y72520D01*
X816947Y72595D01*
X817133Y72665D01*
X817320Y72731D01*
X817509Y72792D01*
X817700Y72848D01*
X817891Y72900D01*
X818084Y72947D01*
X818279Y72989D01*
X818474Y73027D01*
X818669Y73060D01*
X818866Y73088D01*
X819063Y73111D01*
X819261Y73130D01*
X819459Y73143D01*
X819658Y73152D01*
X840740Y72898D01*
X839724Y64008D02*
X839724Y49784D01*
X839721Y49569D01*
X839714Y49353D01*
X839701Y49138D01*
X839682Y48923D01*
X839659Y48709D01*
X839630Y48496D01*
X839596Y48283D01*
X839557Y48071D01*
X839513Y47860D01*
X839464Y47650D01*
X839410Y47442D01*
X839351Y47235D01*
X839287Y47029D01*
X839217Y46825D01*
X839143Y46623D01*
X839064Y46422D01*
X838980Y46224D01*
X838892Y46027D01*
X838798Y45833D01*
X838700Y45641D01*
X838598Y45452D01*
X838490Y45265D01*
X838379Y45081D01*
X838262Y44899D01*
X838142Y44721D01*
X838017Y44545D01*
X837888Y44372D01*
X837755Y44203D01*
X837618Y44037D01*
X837477Y43874D01*
X837331Y43715D01*
X837182Y43559D01*
X837030Y43407D01*
X836874Y43259D01*
X836714Y43114D01*
X836550Y42974D01*
X836384Y42837D01*
X836214Y42705D01*
X836041Y42576D01*
X835865Y42452D01*
X835686Y42332D01*
X835504Y42217D01*
X835319Y42106D01*
X835132Y41999D01*
X834942Y41898D01*
X834749Y41800D01*
X834555Y41708D01*
X834358Y41620D01*
X834159Y41537D01*
X833959Y41458D01*
X833756Y41385D01*
X833552Y41317D01*
X833346Y41253D01*
X833138Y41195D01*
X832930Y41141D01*
X832720Y41093D01*
X832509Y41050D01*
X832297Y41012D01*
X832084Y40979D01*
X831870Y40951D01*
X831656Y40928D01*
X831441Y40911D01*
X831226Y40899D01*
X831010Y40892D01*
X830795Y40890D01*
X830580Y40894D01*
X830335Y40904D01*
X830091Y40920D01*
X829848Y40941D01*
X829605Y40969D01*
X829363Y41003D01*
X829122Y41042D01*
X828881Y41088D01*
X828642Y41139D01*
X828405Y41196D01*
X828168Y41259D01*
X827934Y41327D01*
X827701Y41401D01*
X827470Y41481D01*
X827241Y41567D01*
X827014Y41658D01*
X826789Y41754D01*
X826567Y41856D01*
X826348Y41964D01*
X826131Y42076D01*
X825917Y42194D01*
X825705Y42318D01*
X825497Y42446D01*
X825292Y42579D01*
X825091Y42717D01*
X824893Y42860D01*
X824698Y43008D01*
X824507Y43161D01*
X824320Y43318D01*
X824137Y43480D01*
X823957Y43646D01*
X823782Y43817D01*
X823611Y43991D01*
X823444Y44170D01*
X823282Y44353D01*
X823124Y44540D01*
X822971Y44730D01*
X822823Y44924D01*
X822679Y45122D01*
X822540Y45323D01*
X822406Y45528D01*
X822277Y45736D01*
X822154Y45946D01*
X822035Y46160D01*
X821922Y46377D01*
X821814Y46596D01*
X821711Y46818D01*
X821614Y47042D01*
X821522Y47269D01*
X821436Y47498D01*
X821436Y71120D01*
X811530Y89662D02*
X811530Y112014D01*
X811530Y89662D02*
X811532Y89469D01*
X811539Y89275D01*
X811551Y89082D01*
X811568Y88890D01*
X811589Y88697D01*
X811615Y88506D01*
X811646Y88315D01*
X811681Y88125D01*
X811721Y87935D01*
X811765Y87747D01*
X811814Y87560D01*
X811868Y87374D01*
X811926Y87190D01*
X811989Y87007D01*
X812056Y86826D01*
X812128Y86646D01*
X812204Y86468D01*
X812284Y86292D01*
X812368Y86118D01*
X812457Y85946D01*
X812550Y85777D01*
X812647Y85610D01*
X812748Y85445D01*
X812854Y85282D01*
X812963Y85123D01*
X813076Y84966D01*
X813192Y84811D01*
X813313Y84660D01*
X813437Y84512D01*
X813565Y84367D01*
X813696Y84225D01*
X813831Y84086D01*
X813969Y83950D01*
X814110Y83818D01*
X814254Y83690D01*
X814402Y83565D01*
X814553Y83443D01*
X814706Y83326D01*
X814863Y83212D01*
X815022Y83102D01*
X815183Y82996D01*
X815348Y82894D01*
X815514Y82796D01*
X815683Y82702D01*
X815855Y82612D01*
X816028Y82527D01*
X816204Y82446D01*
X816381Y82369D01*
X816560Y82296D01*
X816741Y82228D01*
X816924Y82164D01*
X817108Y82105D01*
X817294Y82050D01*
X817480Y82000D01*
X817668Y81955D01*
X817857Y81914D01*
X818047Y81877D01*
X818238Y81846D01*
X818430Y81819D01*
X818622Y81796D01*
X818814Y81779D01*
X819007Y81766D01*
X819200Y81758D01*
X819394Y81754D01*
X819587Y81755D01*
X819781Y81761D01*
X819974Y81772D01*
X820166Y81788D01*
X831596Y82042D01*
X831801Y82049D01*
X832006Y82061D01*
X832211Y82078D01*
X832415Y82100D01*
X832619Y82127D01*
X832821Y82159D01*
X833023Y82195D01*
X833224Y82237D01*
X833424Y82284D01*
X833623Y82335D01*
X833821Y82391D01*
X834017Y82452D01*
X834211Y82517D01*
X834404Y82588D01*
X834595Y82663D01*
X834785Y82742D01*
X834972Y82826D01*
X835157Y82915D01*
X835340Y83008D01*
X835521Y83105D01*
X835699Y83207D01*
X835875Y83313D01*
X836048Y83424D01*
X836218Y83538D01*
X836386Y83657D01*
X836551Y83780D01*
X836712Y83906D01*
X836871Y84037D01*
X837026Y84171D01*
X837178Y84309D01*
X837327Y84451D01*
X837472Y84596D01*
X837613Y84745D01*
X837751Y84897D01*
X837885Y85052D01*
X838016Y85211D01*
X838142Y85372D01*
X838265Y85537D01*
X838383Y85705D01*
X838498Y85875D01*
X838608Y86048D01*
X838714Y86224D01*
X838816Y86402D01*
X838913Y86583D01*
X839006Y86766D01*
X839095Y86951D01*
X839179Y87139D01*
X839258Y87328D01*
X839333Y87519D01*
X839403Y87712D01*
X839469Y87907D01*
X839530Y88103D01*
X839585Y88300D01*
X839637Y88499D01*
X839683Y88699D01*
X839724Y88900D01*
X839978Y112014D01*
X826770Y121666D02*
X810514Y121666D01*
X826770Y121666D02*
X840740Y121666D01*
X826770Y121666D02*
X811530Y153670D01*
X840232Y153670D02*
X825754Y124460D01*
X812038Y161290D02*
X812038Y196850D01*
X811784Y179324D02*
X840486Y179324D01*
X811784Y203200D02*
X811784Y223520D01*
X811786Y223719D01*
X811794Y223917D01*
X811806Y224115D01*
X811823Y224313D01*
X811845Y224511D01*
X811871Y224708D01*
X811903Y224904D01*
X811939Y225099D01*
X811980Y225294D01*
X812025Y225487D01*
X812076Y225679D01*
X812131Y225870D01*
X812191Y226059D01*
X812255Y226247D01*
X812324Y226434D01*
X812397Y226618D01*
X812475Y226801D01*
X812558Y226982D01*
X812644Y227160D01*
X812735Y227337D01*
X812831Y227511D01*
X812930Y227683D01*
X813034Y227853D01*
X813142Y228019D01*
X813254Y228183D01*
X813370Y228345D01*
X813490Y228503D01*
X813613Y228659D01*
X813741Y228811D01*
X813872Y228960D01*
X814007Y229106D01*
X814145Y229249D01*
X814286Y229388D01*
X814432Y229524D01*
X814580Y229656D01*
X814731Y229785D01*
X814886Y229910D01*
X815043Y230031D01*
X815204Y230148D01*
X815367Y230261D01*
X815533Y230370D01*
X815702Y230475D01*
X815873Y230576D01*
X816047Y230672D01*
X816222Y230765D01*
X816401Y230853D01*
X816581Y230937D01*
X816763Y231016D01*
X816947Y231091D01*
X817133Y231161D01*
X817320Y231227D01*
X817509Y231288D01*
X817700Y231344D01*
X817891Y231396D01*
X818084Y231443D01*
X818279Y231485D01*
X818474Y231523D01*
X818669Y231556D01*
X818866Y231584D01*
X819063Y231607D01*
X819261Y231626D01*
X819459Y231639D01*
X819658Y231648D01*
X840740Y231394D01*
X839724Y222504D02*
X839724Y208280D01*
X839721Y208065D01*
X839714Y207849D01*
X839701Y207634D01*
X839682Y207419D01*
X839659Y207205D01*
X839630Y206992D01*
X839596Y206779D01*
X839557Y206567D01*
X839513Y206356D01*
X839464Y206146D01*
X839410Y205938D01*
X839351Y205731D01*
X839287Y205525D01*
X839217Y205321D01*
X839143Y205119D01*
X839064Y204918D01*
X838980Y204720D01*
X838892Y204523D01*
X838798Y204329D01*
X838700Y204137D01*
X838598Y203948D01*
X838490Y203761D01*
X838379Y203577D01*
X838262Y203395D01*
X838142Y203217D01*
X838017Y203041D01*
X837888Y202868D01*
X837755Y202699D01*
X837618Y202533D01*
X837477Y202370D01*
X837331Y202211D01*
X837182Y202055D01*
X837030Y201903D01*
X836874Y201755D01*
X836714Y201610D01*
X836550Y201470D01*
X836384Y201333D01*
X836214Y201201D01*
X836041Y201072D01*
X835865Y200948D01*
X835686Y200828D01*
X835504Y200713D01*
X835319Y200602D01*
X835132Y200495D01*
X834942Y200394D01*
X834749Y200296D01*
X834555Y200204D01*
X834358Y200116D01*
X834159Y200033D01*
X833959Y199954D01*
X833756Y199881D01*
X833552Y199813D01*
X833346Y199749D01*
X833138Y199691D01*
X832930Y199637D01*
X832720Y199589D01*
X832509Y199546D01*
X832297Y199508D01*
X832084Y199475D01*
X831870Y199447D01*
X831656Y199424D01*
X831441Y199407D01*
X831226Y199395D01*
X831010Y199388D01*
X830795Y199386D01*
X830580Y199390D01*
X830335Y199400D01*
X830091Y199416D01*
X829848Y199437D01*
X829605Y199465D01*
X829363Y199499D01*
X829122Y199538D01*
X828881Y199584D01*
X828642Y199635D01*
X828405Y199692D01*
X828168Y199755D01*
X827934Y199823D01*
X827701Y199897D01*
X827470Y199977D01*
X827241Y200063D01*
X827014Y200154D01*
X826789Y200250D01*
X826567Y200352D01*
X826348Y200460D01*
X826131Y200572D01*
X825917Y200690D01*
X825705Y200814D01*
X825497Y200942D01*
X825292Y201075D01*
X825091Y201213D01*
X824893Y201356D01*
X824698Y201504D01*
X824507Y201657D01*
X824320Y201814D01*
X824137Y201976D01*
X823957Y202142D01*
X823782Y202313D01*
X823611Y202487D01*
X823444Y202666D01*
X823282Y202849D01*
X823124Y203036D01*
X822971Y203226D01*
X822823Y203420D01*
X822679Y203618D01*
X822540Y203819D01*
X822406Y204024D01*
X822277Y204232D01*
X822154Y204442D01*
X822035Y204656D01*
X821922Y204873D01*
X821814Y205092D01*
X821711Y205314D01*
X821614Y205538D01*
X821522Y205765D01*
X821436Y205994D01*
X821436Y229616D01*
X831596Y243078D02*
X810260Y243078D01*
X831596Y243078D02*
X831796Y243080D01*
X831997Y243088D01*
X832197Y243100D01*
X832396Y243117D01*
X832596Y243139D01*
X832794Y243166D01*
X832992Y243198D01*
X833189Y243235D01*
X833385Y243276D01*
X833580Y243323D01*
X833774Y243374D01*
X833967Y243430D01*
X834158Y243490D01*
X834347Y243555D01*
X834535Y243625D01*
X834721Y243700D01*
X834905Y243779D01*
X835088Y243862D01*
X835268Y243950D01*
X835446Y244042D01*
X835621Y244139D01*
X835794Y244240D01*
X835965Y244345D01*
X836133Y244454D01*
X836298Y244568D01*
X836461Y244685D01*
X836620Y244806D01*
X836777Y244932D01*
X836930Y245061D01*
X837080Y245193D01*
X837227Y245330D01*
X837371Y245470D01*
X837511Y245613D01*
X837647Y245760D01*
X837780Y245910D01*
X837909Y246064D01*
X838034Y246220D01*
X838155Y246379D01*
X838273Y246542D01*
X838386Y246707D01*
X838496Y246875D01*
X838601Y247046D01*
X838702Y247219D01*
X838798Y247395D01*
X838891Y247572D01*
X838979Y247753D01*
X839062Y247935D01*
X839141Y248119D01*
X839215Y248305D01*
X839285Y248493D01*
X839351Y248682D01*
X839411Y248874D01*
X839467Y249066D01*
X839518Y249260D01*
X839564Y249455D01*
X839606Y249651D01*
X839643Y249848D01*
X839674Y250046D01*
X839701Y250244D01*
X839724Y250444D01*
X839978Y271272D01*
D18*
X593090Y-61468D02*
X592582Y-61976D01*
D19*
X68580Y137160D02*
X68580Y190500D01*
X68834Y191262D01*
X68580Y137160D02*
X68072Y136398D01*
D18*
X614172Y16544D02*
X631620Y16544D01*
X614172Y16544D02*
X614172Y15240D01*
D20*
X614172Y15240D03*
X382016Y233172D03*
D17*
X382016Y142494D01*
D18*
X380746Y141224D01*
D20*
X380746Y141224D03*
D17*
X631620Y206544D02*
X679492Y206544D01*
X700278Y227330D01*
X744728Y227330D01*
X747522Y224536D01*
X747522Y74930D01*
X748030Y74422D01*
D20*
X608838Y-15240D03*
X748030Y74422D03*
D17*
X608838Y-8890D02*
X608838Y-15240D01*
X608838Y-8890D02*
X561848Y38100D01*
D20*
X660908Y-67818D03*
D17*
X660908Y-77216D01*
X659384Y-78740D01*
X556260Y44747D02*
X556260Y66548D01*
X561848Y39159D02*
X561848Y38100D01*
X561848Y39159D02*
X556260Y44747D01*
D19*
X139700Y170180D02*
X139700Y193040D01*
X139700Y170180D02*
X139954Y168910D01*
X139700Y193040D02*
X139954Y194310D01*
X142240Y195580D02*
X142240Y220980D01*
X203200Y281940D01*
X142240Y195580D02*
X139954Y194310D01*
X203200Y281940D02*
X204724Y281940D01*
D17*
X679196Y-69342D02*
X686816Y-76962D01*
D19*
X687324Y-77978D01*
X383540Y284480D02*
X393700Y294640D01*
X604520Y294640D01*
X618744Y280416D01*
X618744Y214884D01*
X614680Y210820D01*
X614680Y203200D01*
X619760Y198120D01*
X629920Y198120D01*
X631620Y196544D01*
D20*
X679196Y-69342D03*
X383540Y284480D03*
D17*
X581660Y66548D02*
X592328Y66548D01*
X611378Y85598D01*
D20*
X611378Y85598D03*
X674370Y177546D03*
D17*
X655372Y196544D01*
X631620Y196544D01*
X581660Y66548D02*
X581660Y29384D01*
D19*
X581874Y29170D01*
D20*
X581874Y29170D03*
X583184Y-40132D03*
D17*
X610870Y-40132D01*
D19*
X610616Y-39878D01*
X610136Y-39878D01*
D20*
X610136Y-39878D03*
X632246Y-40092D03*
D17*
X667980Y-40092D01*
X679196Y-51308D02*
X679196Y-69342D01*
X679196Y-51308D02*
X667980Y-40092D01*
D18*
X631620Y26544D02*
X612014Y26544D01*
X610108Y24638D01*
D20*
X610108Y24638D03*
X597154Y84582D03*
D18*
X585597Y96139D01*
X551434Y130302D01*
X551434Y182400D01*
D20*
X551434Y182400D03*
D18*
X618490Y-61468D02*
X617982Y-61976D01*
D19*
X93980Y137160D02*
X93980Y190500D01*
X95758Y191262D01*
X93980Y137160D02*
X93472Y136398D01*
D17*
X617982Y-7620D02*
X617982Y-61976D01*
X617982Y-7620D02*
X602742Y7620D01*
X602742Y17272D01*
X610108Y24638D01*
D18*
X611364Y176544D02*
X631620Y176544D01*
X611364Y176544D02*
X607060Y180848D01*
X607060Y239014D01*
X611378Y243332D01*
X611378Y278130D01*
X601472Y288036D02*
X401320Y288036D01*
X381254Y267970D01*
X381254Y253492D01*
D20*
X381254Y253492D03*
D18*
X601472Y288036D02*
X611378Y278130D01*
D19*
X66040Y332740D02*
X55880Y332740D01*
X66040Y332740D02*
X88900Y355600D01*
X139700Y355600D01*
X55880Y332740D02*
X55880Y331470D01*
X139700Y355600D02*
X140716Y356870D01*
X142240Y355600D02*
X142240Y332740D01*
X142240Y355600D02*
X140716Y356870D01*
X142240Y332740D02*
X140716Y331470D01*
D18*
X597582Y156544D02*
X631620Y156544D01*
X583184Y185231D02*
X569025Y199390D01*
X583184Y185231D02*
X583184Y170942D01*
X569025Y199390D02*
X454406Y199390D01*
X583184Y170942D02*
X597582Y156544D01*
X454406Y199390D02*
X413766Y158750D01*
X401828Y146812D01*
X401828Y80264D02*
X415544Y66548D01*
X401828Y80264D02*
X401828Y146812D01*
X589867Y146544D02*
X631620Y146544D01*
X589867Y146544D02*
X585789Y150622D01*
X583946Y150622D01*
X575056Y159512D02*
X575056Y181864D01*
X547763Y191262D02*
X545477Y188976D01*
X476758Y188976D01*
X565658Y191262D02*
X575056Y181864D01*
X565658Y191262D02*
X547763Y191262D01*
X476758Y188976D02*
X452120Y164338D01*
X575056Y159512D02*
X583946Y150622D01*
X451231Y163449D02*
X449072Y161290D01*
X449072Y159512D01*
X440436Y159512D02*
X428498Y147574D01*
X428498Y78994D02*
X440944Y66548D01*
X428498Y78994D02*
X428498Y147574D01*
D19*
X451231Y163449D02*
X452120Y162560D01*
X452120Y164338D01*
D18*
X449072Y159512D02*
X440436Y159512D01*
X588372Y136544D02*
X631620Y136544D01*
X588372Y136544D02*
X582422Y142494D01*
X576326Y142494D01*
X576072Y142748D01*
D20*
X576072Y142748D03*
X542036Y143256D03*
D18*
X518958Y179084D02*
X488660Y179084D01*
X518958Y179084D02*
X541528Y156514D01*
X541528Y143764D01*
X542036Y143256D01*
D19*
X414020Y129540D02*
X414020Y93980D01*
X419100Y88900D01*
X414020Y129540D02*
X413512Y130302D01*
D20*
X419100Y88900D03*
D18*
X456134Y146558D02*
X488660Y179084D01*
X456134Y146558D02*
X444500Y146558D01*
X437896Y139954D01*
X437896Y100330D01*
X466344Y71882D01*
X466344Y66548D01*
X580846Y126544D02*
X631620Y126544D01*
X580846Y126544D02*
X575310Y132080D01*
D20*
X575310Y132080D03*
X541782Y129286D03*
D18*
X541782Y118364D02*
X491744Y68326D01*
X491744Y66548D01*
X541782Y118364D02*
X541782Y129286D01*
D19*
X491744Y87884D02*
X450088Y129540D01*
X491744Y87884D02*
X491744Y66548D01*
D18*
X254724Y262420D02*
X254724Y281940D01*
X254724Y262420D02*
X277876Y239268D01*
D20*
X277876Y239268D03*
X577342Y219964D03*
D18*
X594614Y202692D01*
X594614Y175514D01*
X603584Y166544D01*
X631620Y166544D01*
D19*
X477520Y236220D02*
X472440Y236220D01*
X477520Y236220D02*
X490220Y248920D01*
X530860Y248920D01*
X559054Y220726D01*
X578104Y220726D01*
X472440Y236220D02*
X470154Y235458D01*
X577342Y219964D02*
X578104Y220726D01*
D21*
X304724Y219634D02*
X304724Y281940D01*
X304724Y219634D02*
X304546Y219456D01*
D20*
X304546Y219456D03*
X718820Y200406D03*
D21*
X718820Y63754D01*
X711200Y56134D01*
X662940Y56134D01*
X632030Y56134D01*
X631620Y56544D01*
D18*
X631620Y36544D02*
X643350Y36544D01*
X646938Y40132D01*
X662940Y56134D01*
X631620Y41656D02*
X631620Y36544D01*
X631620Y41656D02*
X631620Y46544D01*
X631620Y41656D02*
X645414Y41656D01*
X645668Y41402D01*
X646938Y40132D01*
X645668Y41402D02*
X623062Y41402D01*
X623062Y57986D01*
X631620Y66544D01*
D20*
X712978Y187452D03*
X725932Y186944D03*
X317246Y215900D03*
X306832Y207264D03*
D22*
X304546Y219456D02*
X313690Y219456D01*
X317246Y215900D01*
X306832Y207264D02*
X304546Y207264D01*
X301752Y210058D01*
X307594Y215900D01*
X317246Y215900D01*
D19*
X535940Y210820D02*
X535940Y232749D01*
X532892Y234442D01*
D20*
X535940Y210820D03*
D21*
X373634Y108712D02*
X354724Y127622D01*
D20*
X373634Y108712D03*
X675640Y88138D03*
D21*
X633214Y88138D01*
X631620Y86544D01*
D18*
X631620Y106544D02*
X669934Y106544D01*
X672719Y103759D01*
X683768Y92710D01*
X679196Y88138D01*
X675640Y88138D01*
X631620Y102108D02*
X631620Y106544D01*
X631620Y102108D02*
X631620Y96544D01*
X631620Y102108D02*
X671068Y102108D01*
X672719Y103759D01*
X631620Y102108D02*
X624078Y102108D01*
X623316Y101346D01*
X631620Y93042D01*
X631620Y76544D01*
D20*
X662178Y92710D03*
X671576Y100838D03*
X362204Y109982D03*
X371348Y119888D03*
D19*
X482600Y233680D02*
X500380Y233680D01*
X500888Y234696D01*
D21*
X354724Y281940D02*
X354724Y127622D01*
D19*
X431038Y211074D02*
X459994Y211074D01*
X431038Y211074D02*
X392176Y172212D01*
X392176Y132842D01*
X379222Y119888D01*
X371348Y119888D01*
X459994Y211074D02*
X482600Y233680D01*
M02*
