G04 EAGLE Gerber RS-274X export*
G75*
%MOMM*%
%FSLAX34Y34*%
%LPD*%
%INSilkscreen Top*%
%IPPOS*%
%AMOC8*
5,1,8,0,0,1.08239X$1,22.5*%
G01*
%ADD10C,0.076200*%
%ADD11C,0.152400*%
%ADD12C,0.203200*%
%ADD13C,0.127000*%
%ADD14C,0.050000*%
%ADD15C,0.101600*%
%ADD16C,0.254000*%
%ADD17C,0.200000*%


D10*
X463282Y241935D02*
X459105Y241935D01*
X459105Y251333D01*
X463282Y251333D01*
X462238Y247156D02*
X459105Y247156D01*
X468708Y251333D02*
X468708Y241935D01*
X466098Y251333D02*
X471319Y251333D01*
X475415Y250028D02*
X475336Y249861D01*
X475261Y249692D01*
X475190Y249521D01*
X475123Y249349D01*
X475061Y249175D01*
X475002Y248999D01*
X474948Y248823D01*
X474898Y248645D01*
X474852Y248465D01*
X474810Y248285D01*
X474773Y248104D01*
X474740Y247922D01*
X474711Y247740D01*
X474687Y247556D01*
X474667Y247372D01*
X474652Y247188D01*
X474641Y247004D01*
X474634Y246819D01*
X474632Y246634D01*
X475415Y250028D02*
X475445Y250108D01*
X475478Y250187D01*
X475515Y250264D01*
X475555Y250340D01*
X475598Y250414D01*
X475644Y250486D01*
X475694Y250555D01*
X475746Y250623D01*
X475802Y250688D01*
X475860Y250751D01*
X475922Y250810D01*
X475985Y250868D01*
X476052Y250922D01*
X476120Y250973D01*
X476191Y251021D01*
X476264Y251066D01*
X476338Y251108D01*
X476415Y251146D01*
X476493Y251181D01*
X476572Y251213D01*
X476653Y251241D01*
X476735Y251265D01*
X476819Y251286D01*
X476902Y251303D01*
X476987Y251316D01*
X477072Y251325D01*
X477157Y251331D01*
X477243Y251333D01*
X477329Y251331D01*
X477414Y251325D01*
X477499Y251316D01*
X477584Y251303D01*
X477667Y251286D01*
X477751Y251265D01*
X477833Y251241D01*
X477914Y251213D01*
X477993Y251181D01*
X478071Y251146D01*
X478148Y251108D01*
X478222Y251066D01*
X478295Y251021D01*
X478366Y250973D01*
X478434Y250922D01*
X478501Y250868D01*
X478564Y250810D01*
X478626Y250751D01*
X478684Y250688D01*
X478740Y250623D01*
X478792Y250555D01*
X478842Y250486D01*
X478888Y250414D01*
X478931Y250340D01*
X478971Y250264D01*
X479008Y250187D01*
X479041Y250108D01*
X479071Y250028D01*
X479150Y249861D01*
X479225Y249692D01*
X479296Y249521D01*
X479363Y249349D01*
X479425Y249175D01*
X479484Y248999D01*
X479538Y248823D01*
X479588Y248645D01*
X479634Y248465D01*
X479676Y248285D01*
X479713Y248104D01*
X479746Y247922D01*
X479775Y247740D01*
X479799Y247556D01*
X479819Y247372D01*
X479834Y247188D01*
X479845Y247004D01*
X479852Y246819D01*
X479854Y246634D01*
X474632Y246634D02*
X474634Y246449D01*
X474641Y246264D01*
X474652Y246080D01*
X474667Y245896D01*
X474687Y245712D01*
X474711Y245528D01*
X474740Y245346D01*
X474773Y245164D01*
X474810Y244983D01*
X474852Y244803D01*
X474898Y244623D01*
X474948Y244445D01*
X475002Y244269D01*
X475061Y244093D01*
X475123Y243919D01*
X475190Y243747D01*
X475261Y243576D01*
X475336Y243407D01*
X475415Y243240D01*
X475445Y243160D01*
X475478Y243081D01*
X475515Y243004D01*
X475555Y242928D01*
X475598Y242854D01*
X475644Y242782D01*
X475694Y242713D01*
X475747Y242645D01*
X475802Y242580D01*
X475861Y242517D01*
X475922Y242458D01*
X475985Y242400D01*
X476052Y242346D01*
X476120Y242295D01*
X476191Y242247D01*
X476264Y242202D01*
X476338Y242160D01*
X476415Y242122D01*
X476493Y242087D01*
X476572Y242055D01*
X476653Y242027D01*
X476735Y242003D01*
X476819Y241982D01*
X476902Y241965D01*
X476987Y241952D01*
X477072Y241943D01*
X477157Y241937D01*
X477243Y241935D01*
X479070Y243240D02*
X479149Y243407D01*
X479224Y243576D01*
X479295Y243747D01*
X479362Y243919D01*
X479424Y244093D01*
X479483Y244269D01*
X479537Y244445D01*
X479587Y244623D01*
X479633Y244803D01*
X479675Y244983D01*
X479712Y245164D01*
X479745Y245346D01*
X479774Y245528D01*
X479798Y245712D01*
X479818Y245896D01*
X479833Y246080D01*
X479844Y246264D01*
X479851Y246449D01*
X479853Y246634D01*
X479071Y243240D02*
X479041Y243160D01*
X479008Y243081D01*
X478971Y243004D01*
X478931Y242928D01*
X478888Y242854D01*
X478842Y242782D01*
X478792Y242713D01*
X478740Y242645D01*
X478684Y242580D01*
X478626Y242517D01*
X478564Y242458D01*
X478501Y242400D01*
X478434Y242346D01*
X478366Y242295D01*
X478295Y242247D01*
X478222Y242202D01*
X478148Y242160D01*
X478071Y242122D01*
X477993Y242087D01*
X477914Y242055D01*
X477833Y242027D01*
X477751Y242003D01*
X477667Y241982D01*
X477584Y241965D01*
X477499Y241952D01*
X477414Y241943D01*
X477329Y241937D01*
X477243Y241935D01*
X475154Y244023D02*
X479331Y249245D01*
X491109Y226949D02*
X491109Y217551D01*
X491109Y222772D02*
X496330Y222772D01*
X496330Y226949D02*
X496330Y217551D01*
X500557Y222250D02*
X500559Y222435D01*
X500566Y222620D01*
X500577Y222804D01*
X500592Y222988D01*
X500612Y223172D01*
X500636Y223356D01*
X500665Y223538D01*
X500698Y223720D01*
X500735Y223901D01*
X500777Y224081D01*
X500823Y224261D01*
X500873Y224439D01*
X500927Y224615D01*
X500986Y224791D01*
X501048Y224965D01*
X501115Y225137D01*
X501186Y225308D01*
X501261Y225477D01*
X501340Y225644D01*
X501370Y225724D01*
X501403Y225803D01*
X501440Y225880D01*
X501480Y225956D01*
X501523Y226030D01*
X501569Y226102D01*
X501619Y226171D01*
X501671Y226239D01*
X501727Y226304D01*
X501785Y226367D01*
X501847Y226426D01*
X501910Y226484D01*
X501977Y226538D01*
X502045Y226589D01*
X502116Y226637D01*
X502189Y226682D01*
X502263Y226724D01*
X502340Y226762D01*
X502418Y226797D01*
X502497Y226829D01*
X502578Y226857D01*
X502660Y226881D01*
X502744Y226902D01*
X502827Y226919D01*
X502912Y226932D01*
X502997Y226941D01*
X503082Y226947D01*
X503168Y226949D01*
X503254Y226947D01*
X503339Y226941D01*
X503424Y226932D01*
X503509Y226919D01*
X503592Y226902D01*
X503676Y226881D01*
X503758Y226857D01*
X503839Y226829D01*
X503918Y226797D01*
X503996Y226762D01*
X504073Y226724D01*
X504147Y226682D01*
X504220Y226637D01*
X504291Y226589D01*
X504359Y226538D01*
X504426Y226484D01*
X504489Y226426D01*
X504551Y226367D01*
X504609Y226304D01*
X504665Y226239D01*
X504717Y226171D01*
X504767Y226102D01*
X504813Y226030D01*
X504856Y225956D01*
X504896Y225880D01*
X504933Y225803D01*
X504966Y225724D01*
X504996Y225644D01*
X505075Y225477D01*
X505150Y225308D01*
X505221Y225137D01*
X505288Y224965D01*
X505350Y224791D01*
X505409Y224615D01*
X505463Y224439D01*
X505513Y224261D01*
X505559Y224081D01*
X505601Y223901D01*
X505638Y223720D01*
X505671Y223538D01*
X505700Y223356D01*
X505724Y223172D01*
X505744Y222988D01*
X505759Y222804D01*
X505770Y222620D01*
X505777Y222435D01*
X505779Y222250D01*
X500558Y222250D02*
X500560Y222065D01*
X500567Y221880D01*
X500578Y221696D01*
X500593Y221512D01*
X500613Y221328D01*
X500637Y221144D01*
X500666Y220962D01*
X500699Y220780D01*
X500736Y220599D01*
X500778Y220419D01*
X500824Y220239D01*
X500874Y220061D01*
X500928Y219885D01*
X500987Y219709D01*
X501049Y219535D01*
X501116Y219363D01*
X501187Y219192D01*
X501262Y219023D01*
X501341Y218856D01*
X501340Y218856D02*
X501370Y218776D01*
X501403Y218697D01*
X501440Y218620D01*
X501480Y218544D01*
X501523Y218470D01*
X501569Y218398D01*
X501619Y218329D01*
X501672Y218261D01*
X501727Y218196D01*
X501786Y218133D01*
X501847Y218074D01*
X501910Y218016D01*
X501977Y217962D01*
X502045Y217911D01*
X502116Y217863D01*
X502189Y217818D01*
X502263Y217776D01*
X502340Y217738D01*
X502418Y217703D01*
X502497Y217671D01*
X502578Y217643D01*
X502660Y217619D01*
X502744Y217598D01*
X502827Y217581D01*
X502912Y217568D01*
X502997Y217559D01*
X503082Y217553D01*
X503168Y217551D01*
X504996Y218856D02*
X505075Y219023D01*
X505150Y219192D01*
X505221Y219363D01*
X505288Y219535D01*
X505350Y219709D01*
X505409Y219885D01*
X505463Y220061D01*
X505513Y220239D01*
X505559Y220419D01*
X505601Y220599D01*
X505638Y220780D01*
X505671Y220962D01*
X505700Y221144D01*
X505724Y221328D01*
X505744Y221512D01*
X505759Y221696D01*
X505770Y221880D01*
X505777Y222065D01*
X505779Y222250D01*
X504996Y218856D02*
X504966Y218776D01*
X504933Y218697D01*
X504896Y218620D01*
X504856Y218544D01*
X504813Y218470D01*
X504767Y218398D01*
X504717Y218329D01*
X504665Y218261D01*
X504609Y218196D01*
X504551Y218133D01*
X504489Y218074D01*
X504426Y218016D01*
X504359Y217962D01*
X504291Y217911D01*
X504220Y217863D01*
X504147Y217818D01*
X504073Y217776D01*
X503996Y217738D01*
X503918Y217703D01*
X503839Y217671D01*
X503758Y217643D01*
X503676Y217619D01*
X503592Y217598D01*
X503509Y217581D01*
X503424Y217568D01*
X503339Y217559D01*
X503254Y217553D01*
X503168Y217551D01*
X501080Y219639D02*
X505257Y224861D01*
X509789Y221206D02*
X516055Y221206D01*
X512922Y218073D02*
X512922Y224338D01*
X522097Y244983D02*
X522097Y254381D01*
X522097Y250204D02*
X527318Y250204D01*
X527318Y254381D02*
X527318Y244983D01*
X531545Y249682D02*
X531547Y249867D01*
X531554Y250052D01*
X531565Y250236D01*
X531580Y250420D01*
X531600Y250604D01*
X531624Y250788D01*
X531653Y250970D01*
X531686Y251152D01*
X531723Y251333D01*
X531765Y251513D01*
X531811Y251693D01*
X531861Y251871D01*
X531915Y252047D01*
X531974Y252223D01*
X532036Y252397D01*
X532103Y252569D01*
X532174Y252740D01*
X532249Y252909D01*
X532328Y253076D01*
X532358Y253156D01*
X532391Y253235D01*
X532428Y253312D01*
X532468Y253388D01*
X532511Y253462D01*
X532557Y253534D01*
X532607Y253603D01*
X532659Y253671D01*
X532715Y253736D01*
X532773Y253799D01*
X532835Y253858D01*
X532898Y253916D01*
X532965Y253970D01*
X533033Y254021D01*
X533104Y254069D01*
X533177Y254114D01*
X533251Y254156D01*
X533328Y254194D01*
X533406Y254229D01*
X533485Y254261D01*
X533566Y254289D01*
X533648Y254313D01*
X533732Y254334D01*
X533815Y254351D01*
X533900Y254364D01*
X533985Y254373D01*
X534070Y254379D01*
X534156Y254381D01*
X534242Y254379D01*
X534327Y254373D01*
X534412Y254364D01*
X534497Y254351D01*
X534580Y254334D01*
X534664Y254313D01*
X534746Y254289D01*
X534827Y254261D01*
X534906Y254229D01*
X534984Y254194D01*
X535061Y254156D01*
X535135Y254114D01*
X535208Y254069D01*
X535279Y254021D01*
X535347Y253970D01*
X535414Y253916D01*
X535477Y253858D01*
X535539Y253799D01*
X535597Y253736D01*
X535653Y253671D01*
X535705Y253603D01*
X535755Y253534D01*
X535801Y253462D01*
X535844Y253388D01*
X535884Y253312D01*
X535921Y253235D01*
X535954Y253156D01*
X535984Y253076D01*
X536063Y252909D01*
X536138Y252740D01*
X536209Y252569D01*
X536276Y252397D01*
X536338Y252223D01*
X536397Y252047D01*
X536451Y251871D01*
X536501Y251693D01*
X536547Y251513D01*
X536589Y251333D01*
X536626Y251152D01*
X536659Y250970D01*
X536688Y250788D01*
X536712Y250604D01*
X536732Y250420D01*
X536747Y250236D01*
X536758Y250052D01*
X536765Y249867D01*
X536767Y249682D01*
X531546Y249682D02*
X531548Y249497D01*
X531555Y249312D01*
X531566Y249128D01*
X531581Y248944D01*
X531601Y248760D01*
X531625Y248576D01*
X531654Y248394D01*
X531687Y248212D01*
X531724Y248031D01*
X531766Y247851D01*
X531812Y247671D01*
X531862Y247493D01*
X531916Y247317D01*
X531975Y247141D01*
X532037Y246967D01*
X532104Y246795D01*
X532175Y246624D01*
X532250Y246455D01*
X532329Y246288D01*
X532328Y246288D02*
X532358Y246208D01*
X532391Y246129D01*
X532428Y246052D01*
X532468Y245976D01*
X532511Y245902D01*
X532557Y245830D01*
X532607Y245761D01*
X532660Y245693D01*
X532715Y245628D01*
X532774Y245565D01*
X532835Y245506D01*
X532898Y245448D01*
X532965Y245394D01*
X533033Y245343D01*
X533104Y245295D01*
X533177Y245250D01*
X533251Y245208D01*
X533328Y245170D01*
X533406Y245135D01*
X533485Y245103D01*
X533566Y245075D01*
X533648Y245051D01*
X533732Y245030D01*
X533815Y245013D01*
X533900Y245000D01*
X533985Y244991D01*
X534070Y244985D01*
X534156Y244983D01*
X535984Y246288D02*
X536063Y246455D01*
X536138Y246624D01*
X536209Y246795D01*
X536276Y246967D01*
X536338Y247141D01*
X536397Y247317D01*
X536451Y247493D01*
X536501Y247671D01*
X536547Y247851D01*
X536589Y248031D01*
X536626Y248212D01*
X536659Y248394D01*
X536688Y248576D01*
X536712Y248760D01*
X536732Y248944D01*
X536747Y249128D01*
X536758Y249312D01*
X536765Y249497D01*
X536767Y249682D01*
X535984Y246288D02*
X535954Y246208D01*
X535921Y246129D01*
X535884Y246052D01*
X535844Y245976D01*
X535801Y245902D01*
X535755Y245830D01*
X535705Y245761D01*
X535653Y245693D01*
X535597Y245628D01*
X535539Y245565D01*
X535477Y245506D01*
X535414Y245448D01*
X535347Y245394D01*
X535279Y245343D01*
X535208Y245295D01*
X535135Y245250D01*
X535061Y245208D01*
X534984Y245170D01*
X534906Y245135D01*
X534827Y245103D01*
X534746Y245075D01*
X534664Y245051D01*
X534580Y245030D01*
X534497Y245013D01*
X534412Y245000D01*
X534327Y244991D01*
X534242Y244985D01*
X534156Y244983D01*
X532068Y247071D02*
X536245Y252293D01*
X540777Y248638D02*
X547043Y248638D01*
X408898Y178689D02*
X405765Y169291D01*
X412030Y169291D02*
X408898Y178689D01*
X411247Y171641D02*
X406548Y171641D01*
X415431Y173990D02*
X415433Y174175D01*
X415440Y174360D01*
X415451Y174544D01*
X415466Y174728D01*
X415486Y174912D01*
X415510Y175096D01*
X415539Y175278D01*
X415572Y175460D01*
X415609Y175641D01*
X415651Y175821D01*
X415697Y176001D01*
X415747Y176179D01*
X415801Y176355D01*
X415860Y176531D01*
X415922Y176705D01*
X415989Y176877D01*
X416060Y177048D01*
X416135Y177217D01*
X416214Y177384D01*
X416244Y177464D01*
X416277Y177543D01*
X416314Y177620D01*
X416354Y177696D01*
X416397Y177770D01*
X416443Y177842D01*
X416493Y177911D01*
X416545Y177979D01*
X416601Y178044D01*
X416659Y178107D01*
X416721Y178166D01*
X416784Y178224D01*
X416851Y178278D01*
X416919Y178329D01*
X416990Y178377D01*
X417063Y178422D01*
X417137Y178464D01*
X417214Y178502D01*
X417292Y178537D01*
X417371Y178569D01*
X417452Y178597D01*
X417534Y178621D01*
X417618Y178642D01*
X417701Y178659D01*
X417786Y178672D01*
X417871Y178681D01*
X417956Y178687D01*
X418042Y178689D01*
X418128Y178687D01*
X418213Y178681D01*
X418298Y178672D01*
X418383Y178659D01*
X418466Y178642D01*
X418550Y178621D01*
X418632Y178597D01*
X418713Y178569D01*
X418792Y178537D01*
X418870Y178502D01*
X418947Y178464D01*
X419021Y178422D01*
X419094Y178377D01*
X419165Y178329D01*
X419233Y178278D01*
X419300Y178224D01*
X419363Y178166D01*
X419425Y178107D01*
X419483Y178044D01*
X419539Y177979D01*
X419591Y177911D01*
X419641Y177842D01*
X419687Y177770D01*
X419730Y177696D01*
X419770Y177620D01*
X419807Y177543D01*
X419840Y177464D01*
X419870Y177384D01*
X419869Y177384D02*
X419948Y177217D01*
X420023Y177048D01*
X420094Y176877D01*
X420161Y176705D01*
X420223Y176531D01*
X420282Y176355D01*
X420336Y176179D01*
X420386Y176001D01*
X420432Y175821D01*
X420474Y175641D01*
X420511Y175460D01*
X420544Y175278D01*
X420573Y175096D01*
X420597Y174912D01*
X420617Y174728D01*
X420632Y174544D01*
X420643Y174360D01*
X420650Y174175D01*
X420652Y173990D01*
X415431Y173990D02*
X415433Y173805D01*
X415440Y173620D01*
X415451Y173436D01*
X415466Y173252D01*
X415486Y173068D01*
X415510Y172884D01*
X415539Y172702D01*
X415572Y172520D01*
X415609Y172339D01*
X415651Y172159D01*
X415697Y171979D01*
X415747Y171801D01*
X415801Y171625D01*
X415860Y171449D01*
X415922Y171275D01*
X415989Y171103D01*
X416060Y170932D01*
X416135Y170763D01*
X416214Y170596D01*
X416244Y170516D01*
X416277Y170437D01*
X416314Y170360D01*
X416354Y170284D01*
X416397Y170210D01*
X416443Y170138D01*
X416493Y170069D01*
X416546Y170001D01*
X416601Y169936D01*
X416660Y169873D01*
X416721Y169814D01*
X416784Y169756D01*
X416851Y169702D01*
X416919Y169651D01*
X416990Y169603D01*
X417063Y169558D01*
X417137Y169516D01*
X417214Y169478D01*
X417292Y169443D01*
X417371Y169411D01*
X417452Y169383D01*
X417534Y169359D01*
X417618Y169338D01*
X417701Y169321D01*
X417786Y169308D01*
X417871Y169299D01*
X417956Y169293D01*
X418042Y169291D01*
X419869Y170596D02*
X419948Y170763D01*
X420023Y170932D01*
X420094Y171103D01*
X420161Y171275D01*
X420223Y171449D01*
X420282Y171625D01*
X420336Y171801D01*
X420386Y171979D01*
X420432Y172159D01*
X420474Y172339D01*
X420511Y172520D01*
X420544Y172702D01*
X420573Y172884D01*
X420597Y173068D01*
X420617Y173252D01*
X420632Y173436D01*
X420643Y173620D01*
X420650Y173805D01*
X420652Y173990D01*
X419870Y170596D02*
X419840Y170516D01*
X419807Y170437D01*
X419770Y170360D01*
X419730Y170284D01*
X419687Y170210D01*
X419641Y170138D01*
X419591Y170069D01*
X419539Y170001D01*
X419483Y169936D01*
X419425Y169873D01*
X419363Y169814D01*
X419300Y169756D01*
X419233Y169702D01*
X419165Y169651D01*
X419094Y169603D01*
X419021Y169558D01*
X418947Y169516D01*
X418870Y169478D01*
X418792Y169443D01*
X418713Y169411D01*
X418632Y169383D01*
X418550Y169359D01*
X418466Y169338D01*
X418383Y169321D01*
X418298Y169308D01*
X418213Y169299D01*
X418128Y169293D01*
X418042Y169291D01*
X415953Y171379D02*
X420130Y176601D01*
X424663Y172946D02*
X430928Y172946D01*
X427795Y169813D02*
X427795Y176078D01*
X442087Y169545D02*
X445220Y178943D01*
X448352Y169545D01*
X447569Y171895D02*
X442870Y171895D01*
X451753Y174244D02*
X451755Y174429D01*
X451762Y174614D01*
X451773Y174798D01*
X451788Y174982D01*
X451808Y175166D01*
X451832Y175350D01*
X451861Y175532D01*
X451894Y175714D01*
X451931Y175895D01*
X451973Y176075D01*
X452019Y176255D01*
X452069Y176433D01*
X452123Y176609D01*
X452182Y176785D01*
X452244Y176959D01*
X452311Y177131D01*
X452382Y177302D01*
X452457Y177471D01*
X452536Y177638D01*
X452566Y177718D01*
X452599Y177797D01*
X452636Y177874D01*
X452676Y177950D01*
X452719Y178024D01*
X452765Y178096D01*
X452815Y178165D01*
X452867Y178233D01*
X452923Y178298D01*
X452981Y178361D01*
X453043Y178420D01*
X453106Y178478D01*
X453173Y178532D01*
X453241Y178583D01*
X453312Y178631D01*
X453385Y178676D01*
X453459Y178718D01*
X453536Y178756D01*
X453614Y178791D01*
X453693Y178823D01*
X453774Y178851D01*
X453856Y178875D01*
X453940Y178896D01*
X454023Y178913D01*
X454108Y178926D01*
X454193Y178935D01*
X454278Y178941D01*
X454364Y178943D01*
X454450Y178941D01*
X454535Y178935D01*
X454620Y178926D01*
X454705Y178913D01*
X454788Y178896D01*
X454872Y178875D01*
X454954Y178851D01*
X455035Y178823D01*
X455114Y178791D01*
X455192Y178756D01*
X455269Y178718D01*
X455343Y178676D01*
X455416Y178631D01*
X455487Y178583D01*
X455555Y178532D01*
X455622Y178478D01*
X455685Y178420D01*
X455747Y178361D01*
X455805Y178298D01*
X455861Y178233D01*
X455913Y178165D01*
X455963Y178096D01*
X456009Y178024D01*
X456052Y177950D01*
X456092Y177874D01*
X456129Y177797D01*
X456162Y177718D01*
X456192Y177638D01*
X456191Y177638D02*
X456270Y177471D01*
X456345Y177302D01*
X456416Y177131D01*
X456483Y176959D01*
X456545Y176785D01*
X456604Y176609D01*
X456658Y176433D01*
X456708Y176255D01*
X456754Y176075D01*
X456796Y175895D01*
X456833Y175714D01*
X456866Y175532D01*
X456895Y175350D01*
X456919Y175166D01*
X456939Y174982D01*
X456954Y174798D01*
X456965Y174614D01*
X456972Y174429D01*
X456974Y174244D01*
X451753Y174244D02*
X451755Y174059D01*
X451762Y173874D01*
X451773Y173690D01*
X451788Y173506D01*
X451808Y173322D01*
X451832Y173138D01*
X451861Y172956D01*
X451894Y172774D01*
X451931Y172593D01*
X451973Y172413D01*
X452019Y172233D01*
X452069Y172055D01*
X452123Y171879D01*
X452182Y171703D01*
X452244Y171529D01*
X452311Y171357D01*
X452382Y171186D01*
X452457Y171017D01*
X452536Y170850D01*
X452566Y170770D01*
X452599Y170691D01*
X452636Y170614D01*
X452676Y170538D01*
X452719Y170464D01*
X452765Y170392D01*
X452815Y170323D01*
X452868Y170255D01*
X452923Y170190D01*
X452982Y170127D01*
X453043Y170068D01*
X453106Y170010D01*
X453173Y169956D01*
X453241Y169905D01*
X453312Y169857D01*
X453385Y169812D01*
X453459Y169770D01*
X453536Y169732D01*
X453614Y169697D01*
X453693Y169665D01*
X453774Y169637D01*
X453856Y169613D01*
X453940Y169592D01*
X454023Y169575D01*
X454108Y169562D01*
X454193Y169553D01*
X454278Y169547D01*
X454364Y169545D01*
X456191Y170850D02*
X456270Y171017D01*
X456345Y171186D01*
X456416Y171357D01*
X456483Y171529D01*
X456545Y171703D01*
X456604Y171879D01*
X456658Y172055D01*
X456708Y172233D01*
X456754Y172413D01*
X456796Y172593D01*
X456833Y172774D01*
X456866Y172956D01*
X456895Y173138D01*
X456919Y173322D01*
X456939Y173506D01*
X456954Y173690D01*
X456965Y173874D01*
X456972Y174059D01*
X456974Y174244D01*
X456192Y170850D02*
X456162Y170770D01*
X456129Y170691D01*
X456092Y170614D01*
X456052Y170538D01*
X456009Y170464D01*
X455963Y170392D01*
X455913Y170323D01*
X455861Y170255D01*
X455805Y170190D01*
X455747Y170127D01*
X455685Y170068D01*
X455622Y170010D01*
X455555Y169956D01*
X455487Y169905D01*
X455416Y169857D01*
X455343Y169812D01*
X455269Y169770D01*
X455192Y169732D01*
X455114Y169697D01*
X455035Y169665D01*
X454954Y169637D01*
X454872Y169613D01*
X454788Y169592D01*
X454705Y169575D01*
X454620Y169562D01*
X454535Y169553D01*
X454450Y169547D01*
X454364Y169545D01*
X452275Y171633D02*
X456452Y176855D01*
X460985Y173200D02*
X467250Y173200D01*
X407868Y141238D02*
X405257Y141238D01*
X407868Y141239D02*
X407969Y141237D01*
X408070Y141231D01*
X408171Y141221D01*
X408271Y141208D01*
X408371Y141190D01*
X408470Y141169D01*
X408568Y141143D01*
X408665Y141114D01*
X408761Y141082D01*
X408855Y141045D01*
X408948Y141005D01*
X409040Y140961D01*
X409129Y140914D01*
X409217Y140863D01*
X409303Y140809D01*
X409386Y140752D01*
X409468Y140692D01*
X409546Y140628D01*
X409623Y140562D01*
X409696Y140492D01*
X409767Y140420D01*
X409835Y140345D01*
X409900Y140267D01*
X409962Y140187D01*
X410021Y140105D01*
X410077Y140020D01*
X410129Y139933D01*
X410178Y139845D01*
X410224Y139754D01*
X410265Y139662D01*
X410304Y139568D01*
X410338Y139473D01*
X410369Y139377D01*
X410396Y139279D01*
X410420Y139181D01*
X410439Y139081D01*
X410455Y138981D01*
X410467Y138881D01*
X410475Y138780D01*
X410479Y138679D01*
X410479Y138577D01*
X410475Y138476D01*
X410467Y138375D01*
X410455Y138275D01*
X410439Y138175D01*
X410420Y138075D01*
X410396Y137977D01*
X410369Y137879D01*
X410338Y137783D01*
X410304Y137688D01*
X410265Y137594D01*
X410224Y137502D01*
X410178Y137411D01*
X410129Y137322D01*
X410077Y137236D01*
X410021Y137151D01*
X409962Y137069D01*
X409900Y136989D01*
X409835Y136911D01*
X409767Y136836D01*
X409696Y136764D01*
X409623Y136694D01*
X409546Y136628D01*
X409468Y136564D01*
X409386Y136504D01*
X409303Y136447D01*
X409217Y136393D01*
X409129Y136342D01*
X409040Y136295D01*
X408948Y136251D01*
X408855Y136211D01*
X408761Y136174D01*
X408665Y136142D01*
X408568Y136113D01*
X408470Y136087D01*
X408371Y136066D01*
X408271Y136048D01*
X408171Y136035D01*
X408070Y136025D01*
X407969Y136019D01*
X407868Y136017D01*
X405257Y136017D01*
X405257Y145415D01*
X407868Y145415D01*
X407958Y145413D01*
X408047Y145407D01*
X408137Y145398D01*
X408226Y145384D01*
X408314Y145367D01*
X408401Y145346D01*
X408488Y145321D01*
X408573Y145292D01*
X408657Y145260D01*
X408739Y145225D01*
X408820Y145185D01*
X408899Y145143D01*
X408976Y145097D01*
X409051Y145047D01*
X409124Y144995D01*
X409195Y144939D01*
X409263Y144881D01*
X409328Y144819D01*
X409391Y144755D01*
X409451Y144688D01*
X409508Y144619D01*
X409562Y144547D01*
X409613Y144473D01*
X409661Y144397D01*
X409705Y144319D01*
X409746Y144239D01*
X409784Y144157D01*
X409818Y144074D01*
X409848Y143989D01*
X409875Y143903D01*
X409898Y143817D01*
X409917Y143729D01*
X409932Y143640D01*
X409944Y143551D01*
X409952Y143462D01*
X409956Y143372D01*
X409956Y143282D01*
X409952Y143192D01*
X409944Y143103D01*
X409932Y143014D01*
X409917Y142925D01*
X409898Y142837D01*
X409875Y142751D01*
X409848Y142665D01*
X409818Y142580D01*
X409784Y142497D01*
X409746Y142415D01*
X409705Y142335D01*
X409661Y142257D01*
X409613Y142181D01*
X409562Y142107D01*
X409508Y142035D01*
X409451Y141966D01*
X409391Y141899D01*
X409328Y141835D01*
X409263Y141773D01*
X409195Y141715D01*
X409124Y141659D01*
X409051Y141607D01*
X408976Y141557D01*
X408899Y141511D01*
X408820Y141469D01*
X408739Y141429D01*
X408657Y141394D01*
X408573Y141362D01*
X408488Y141333D01*
X408401Y141308D01*
X408314Y141287D01*
X408226Y141270D01*
X408137Y141256D01*
X408047Y141247D01*
X407958Y141241D01*
X407868Y141239D01*
X413965Y140716D02*
X413967Y140901D01*
X413974Y141086D01*
X413985Y141270D01*
X414000Y141454D01*
X414020Y141638D01*
X414044Y141822D01*
X414073Y142004D01*
X414106Y142186D01*
X414143Y142367D01*
X414185Y142547D01*
X414231Y142727D01*
X414281Y142905D01*
X414335Y143081D01*
X414394Y143257D01*
X414456Y143431D01*
X414523Y143603D01*
X414594Y143774D01*
X414669Y143943D01*
X414748Y144110D01*
X414747Y144110D02*
X414777Y144190D01*
X414810Y144269D01*
X414847Y144346D01*
X414887Y144422D01*
X414930Y144496D01*
X414976Y144568D01*
X415026Y144637D01*
X415078Y144705D01*
X415134Y144770D01*
X415192Y144833D01*
X415254Y144892D01*
X415317Y144950D01*
X415384Y145004D01*
X415452Y145055D01*
X415523Y145103D01*
X415596Y145148D01*
X415670Y145190D01*
X415747Y145228D01*
X415825Y145263D01*
X415904Y145295D01*
X415985Y145323D01*
X416067Y145347D01*
X416151Y145368D01*
X416234Y145385D01*
X416319Y145398D01*
X416404Y145407D01*
X416489Y145413D01*
X416575Y145415D01*
X416661Y145413D01*
X416746Y145407D01*
X416831Y145398D01*
X416916Y145385D01*
X416999Y145368D01*
X417083Y145347D01*
X417165Y145323D01*
X417246Y145295D01*
X417325Y145263D01*
X417403Y145228D01*
X417480Y145190D01*
X417554Y145148D01*
X417627Y145103D01*
X417698Y145055D01*
X417766Y145004D01*
X417833Y144950D01*
X417896Y144892D01*
X417958Y144833D01*
X418016Y144770D01*
X418072Y144705D01*
X418124Y144637D01*
X418174Y144568D01*
X418220Y144496D01*
X418263Y144422D01*
X418303Y144346D01*
X418340Y144269D01*
X418373Y144190D01*
X418403Y144110D01*
X418482Y143943D01*
X418557Y143774D01*
X418628Y143603D01*
X418695Y143431D01*
X418757Y143257D01*
X418816Y143081D01*
X418870Y142905D01*
X418920Y142727D01*
X418966Y142547D01*
X419008Y142367D01*
X419045Y142186D01*
X419078Y142004D01*
X419107Y141822D01*
X419131Y141638D01*
X419151Y141454D01*
X419166Y141270D01*
X419177Y141086D01*
X419184Y140901D01*
X419186Y140716D01*
X413965Y140716D02*
X413967Y140531D01*
X413974Y140346D01*
X413985Y140162D01*
X414000Y139978D01*
X414020Y139794D01*
X414044Y139610D01*
X414073Y139428D01*
X414106Y139246D01*
X414143Y139065D01*
X414185Y138885D01*
X414231Y138705D01*
X414281Y138527D01*
X414335Y138351D01*
X414394Y138175D01*
X414456Y138001D01*
X414523Y137829D01*
X414594Y137658D01*
X414669Y137489D01*
X414748Y137322D01*
X414747Y137322D02*
X414777Y137242D01*
X414810Y137163D01*
X414847Y137086D01*
X414887Y137010D01*
X414930Y136936D01*
X414976Y136864D01*
X415026Y136795D01*
X415079Y136727D01*
X415134Y136662D01*
X415193Y136599D01*
X415254Y136540D01*
X415317Y136482D01*
X415384Y136428D01*
X415452Y136377D01*
X415523Y136329D01*
X415596Y136284D01*
X415670Y136242D01*
X415747Y136204D01*
X415825Y136169D01*
X415904Y136137D01*
X415985Y136109D01*
X416067Y136085D01*
X416151Y136064D01*
X416234Y136047D01*
X416319Y136034D01*
X416404Y136025D01*
X416489Y136019D01*
X416575Y136017D01*
X418403Y137322D02*
X418482Y137489D01*
X418557Y137658D01*
X418628Y137829D01*
X418695Y138001D01*
X418757Y138175D01*
X418816Y138351D01*
X418870Y138527D01*
X418920Y138705D01*
X418966Y138885D01*
X419008Y139065D01*
X419045Y139246D01*
X419078Y139428D01*
X419107Y139610D01*
X419131Y139794D01*
X419151Y139978D01*
X419166Y140162D01*
X419177Y140346D01*
X419184Y140531D01*
X419186Y140716D01*
X418403Y137322D02*
X418373Y137242D01*
X418340Y137163D01*
X418303Y137086D01*
X418263Y137010D01*
X418220Y136936D01*
X418174Y136864D01*
X418124Y136795D01*
X418072Y136727D01*
X418016Y136662D01*
X417958Y136599D01*
X417896Y136540D01*
X417833Y136482D01*
X417766Y136428D01*
X417698Y136377D01*
X417627Y136329D01*
X417554Y136284D01*
X417480Y136242D01*
X417403Y136204D01*
X417325Y136169D01*
X417246Y136137D01*
X417165Y136109D01*
X417083Y136085D01*
X416999Y136064D01*
X416916Y136047D01*
X416831Y136034D01*
X416746Y136025D01*
X416661Y136019D01*
X416575Y136017D01*
X414487Y138105D02*
X418664Y143327D01*
X423196Y139672D02*
X429462Y139672D01*
X426329Y136539D02*
X426329Y142804D01*
X443611Y142762D02*
X446222Y142762D01*
X446222Y142763D02*
X446323Y142761D01*
X446424Y142755D01*
X446525Y142745D01*
X446625Y142732D01*
X446725Y142714D01*
X446824Y142693D01*
X446922Y142667D01*
X447019Y142638D01*
X447115Y142606D01*
X447209Y142569D01*
X447302Y142529D01*
X447394Y142485D01*
X447483Y142438D01*
X447571Y142387D01*
X447657Y142333D01*
X447740Y142276D01*
X447822Y142216D01*
X447900Y142152D01*
X447977Y142086D01*
X448050Y142016D01*
X448121Y141944D01*
X448189Y141869D01*
X448254Y141791D01*
X448316Y141711D01*
X448375Y141629D01*
X448431Y141544D01*
X448483Y141457D01*
X448532Y141369D01*
X448578Y141278D01*
X448619Y141186D01*
X448658Y141092D01*
X448692Y140997D01*
X448723Y140901D01*
X448750Y140803D01*
X448774Y140705D01*
X448793Y140605D01*
X448809Y140505D01*
X448821Y140405D01*
X448829Y140304D01*
X448833Y140203D01*
X448833Y140101D01*
X448829Y140000D01*
X448821Y139899D01*
X448809Y139799D01*
X448793Y139699D01*
X448774Y139599D01*
X448750Y139501D01*
X448723Y139403D01*
X448692Y139307D01*
X448658Y139212D01*
X448619Y139118D01*
X448578Y139026D01*
X448532Y138935D01*
X448483Y138846D01*
X448431Y138760D01*
X448375Y138675D01*
X448316Y138593D01*
X448254Y138513D01*
X448189Y138435D01*
X448121Y138360D01*
X448050Y138288D01*
X447977Y138218D01*
X447900Y138152D01*
X447822Y138088D01*
X447740Y138028D01*
X447657Y137971D01*
X447571Y137917D01*
X447483Y137866D01*
X447394Y137819D01*
X447302Y137775D01*
X447209Y137735D01*
X447115Y137698D01*
X447019Y137666D01*
X446922Y137637D01*
X446824Y137611D01*
X446725Y137590D01*
X446625Y137572D01*
X446525Y137559D01*
X446424Y137549D01*
X446323Y137543D01*
X446222Y137541D01*
X443611Y137541D01*
X443611Y146939D01*
X446222Y146939D01*
X446312Y146937D01*
X446401Y146931D01*
X446491Y146922D01*
X446580Y146908D01*
X446668Y146891D01*
X446755Y146870D01*
X446842Y146845D01*
X446927Y146816D01*
X447011Y146784D01*
X447093Y146749D01*
X447174Y146709D01*
X447253Y146667D01*
X447330Y146621D01*
X447405Y146571D01*
X447478Y146519D01*
X447549Y146463D01*
X447617Y146405D01*
X447682Y146343D01*
X447745Y146279D01*
X447805Y146212D01*
X447862Y146143D01*
X447916Y146071D01*
X447967Y145997D01*
X448015Y145921D01*
X448059Y145843D01*
X448100Y145763D01*
X448138Y145681D01*
X448172Y145598D01*
X448202Y145513D01*
X448229Y145427D01*
X448252Y145341D01*
X448271Y145253D01*
X448286Y145164D01*
X448298Y145075D01*
X448306Y144986D01*
X448310Y144896D01*
X448310Y144806D01*
X448306Y144716D01*
X448298Y144627D01*
X448286Y144538D01*
X448271Y144449D01*
X448252Y144361D01*
X448229Y144275D01*
X448202Y144189D01*
X448172Y144104D01*
X448138Y144021D01*
X448100Y143939D01*
X448059Y143859D01*
X448015Y143781D01*
X447967Y143705D01*
X447916Y143631D01*
X447862Y143559D01*
X447805Y143490D01*
X447745Y143423D01*
X447682Y143359D01*
X447617Y143297D01*
X447549Y143239D01*
X447478Y143183D01*
X447405Y143131D01*
X447330Y143081D01*
X447253Y143035D01*
X447174Y142993D01*
X447093Y142953D01*
X447011Y142918D01*
X446927Y142886D01*
X446842Y142857D01*
X446755Y142832D01*
X446668Y142811D01*
X446580Y142794D01*
X446491Y142780D01*
X446401Y142771D01*
X446312Y142765D01*
X446222Y142763D01*
X452319Y142240D02*
X452321Y142425D01*
X452328Y142610D01*
X452339Y142794D01*
X452354Y142978D01*
X452374Y143162D01*
X452398Y143346D01*
X452427Y143528D01*
X452460Y143710D01*
X452497Y143891D01*
X452539Y144071D01*
X452585Y144251D01*
X452635Y144429D01*
X452689Y144605D01*
X452748Y144781D01*
X452810Y144955D01*
X452877Y145127D01*
X452948Y145298D01*
X453023Y145467D01*
X453102Y145634D01*
X453101Y145634D02*
X453131Y145714D01*
X453164Y145793D01*
X453201Y145870D01*
X453241Y145946D01*
X453284Y146020D01*
X453330Y146092D01*
X453380Y146161D01*
X453432Y146229D01*
X453488Y146294D01*
X453546Y146357D01*
X453608Y146416D01*
X453671Y146474D01*
X453738Y146528D01*
X453806Y146579D01*
X453877Y146627D01*
X453950Y146672D01*
X454024Y146714D01*
X454101Y146752D01*
X454179Y146787D01*
X454258Y146819D01*
X454339Y146847D01*
X454421Y146871D01*
X454505Y146892D01*
X454588Y146909D01*
X454673Y146922D01*
X454758Y146931D01*
X454843Y146937D01*
X454929Y146939D01*
X455015Y146937D01*
X455100Y146931D01*
X455185Y146922D01*
X455270Y146909D01*
X455353Y146892D01*
X455437Y146871D01*
X455519Y146847D01*
X455600Y146819D01*
X455679Y146787D01*
X455757Y146752D01*
X455834Y146714D01*
X455908Y146672D01*
X455981Y146627D01*
X456052Y146579D01*
X456120Y146528D01*
X456187Y146474D01*
X456250Y146416D01*
X456312Y146357D01*
X456370Y146294D01*
X456426Y146229D01*
X456478Y146161D01*
X456528Y146092D01*
X456574Y146020D01*
X456617Y145946D01*
X456657Y145870D01*
X456694Y145793D01*
X456727Y145714D01*
X456757Y145634D01*
X456836Y145467D01*
X456911Y145298D01*
X456982Y145127D01*
X457049Y144955D01*
X457111Y144781D01*
X457170Y144605D01*
X457224Y144429D01*
X457274Y144251D01*
X457320Y144071D01*
X457362Y143891D01*
X457399Y143710D01*
X457432Y143528D01*
X457461Y143346D01*
X457485Y143162D01*
X457505Y142978D01*
X457520Y142794D01*
X457531Y142610D01*
X457538Y142425D01*
X457540Y142240D01*
X452319Y142240D02*
X452321Y142055D01*
X452328Y141870D01*
X452339Y141686D01*
X452354Y141502D01*
X452374Y141318D01*
X452398Y141134D01*
X452427Y140952D01*
X452460Y140770D01*
X452497Y140589D01*
X452539Y140409D01*
X452585Y140229D01*
X452635Y140051D01*
X452689Y139875D01*
X452748Y139699D01*
X452810Y139525D01*
X452877Y139353D01*
X452948Y139182D01*
X453023Y139013D01*
X453102Y138846D01*
X453101Y138846D02*
X453131Y138766D01*
X453164Y138687D01*
X453201Y138610D01*
X453241Y138534D01*
X453284Y138460D01*
X453330Y138388D01*
X453380Y138319D01*
X453433Y138251D01*
X453488Y138186D01*
X453547Y138123D01*
X453608Y138064D01*
X453671Y138006D01*
X453738Y137952D01*
X453806Y137901D01*
X453877Y137853D01*
X453950Y137808D01*
X454024Y137766D01*
X454101Y137728D01*
X454179Y137693D01*
X454258Y137661D01*
X454339Y137633D01*
X454421Y137609D01*
X454505Y137588D01*
X454588Y137571D01*
X454673Y137558D01*
X454758Y137549D01*
X454843Y137543D01*
X454929Y137541D01*
X456757Y138846D02*
X456836Y139013D01*
X456911Y139182D01*
X456982Y139353D01*
X457049Y139525D01*
X457111Y139699D01*
X457170Y139875D01*
X457224Y140051D01*
X457274Y140229D01*
X457320Y140409D01*
X457362Y140589D01*
X457399Y140770D01*
X457432Y140952D01*
X457461Y141134D01*
X457485Y141318D01*
X457505Y141502D01*
X457520Y141686D01*
X457531Y141870D01*
X457538Y142055D01*
X457540Y142240D01*
X456757Y138846D02*
X456727Y138766D01*
X456694Y138687D01*
X456657Y138610D01*
X456617Y138534D01*
X456574Y138460D01*
X456528Y138388D01*
X456478Y138319D01*
X456426Y138251D01*
X456370Y138186D01*
X456312Y138123D01*
X456250Y138064D01*
X456187Y138006D01*
X456120Y137952D01*
X456052Y137901D01*
X455981Y137853D01*
X455908Y137808D01*
X455834Y137766D01*
X455757Y137728D01*
X455679Y137693D01*
X455600Y137661D01*
X455519Y137633D01*
X455437Y137609D01*
X455353Y137588D01*
X455270Y137571D01*
X455185Y137558D01*
X455100Y137549D01*
X455015Y137543D01*
X454929Y137541D01*
X452841Y139629D02*
X457018Y144851D01*
X461550Y141196D02*
X467816Y141196D01*
X60184Y197739D02*
X58095Y197739D01*
X58006Y197741D01*
X57918Y197747D01*
X57830Y197756D01*
X57742Y197769D01*
X57655Y197786D01*
X57569Y197806D01*
X57484Y197831D01*
X57399Y197858D01*
X57316Y197890D01*
X57235Y197924D01*
X57155Y197963D01*
X57077Y198004D01*
X57000Y198049D01*
X56926Y198097D01*
X56853Y198148D01*
X56783Y198202D01*
X56716Y198260D01*
X56650Y198320D01*
X56588Y198382D01*
X56528Y198448D01*
X56470Y198515D01*
X56416Y198585D01*
X56365Y198658D01*
X56317Y198732D01*
X56272Y198809D01*
X56231Y198887D01*
X56192Y198967D01*
X56158Y199048D01*
X56126Y199131D01*
X56099Y199216D01*
X56074Y199301D01*
X56054Y199387D01*
X56037Y199474D01*
X56024Y199562D01*
X56015Y199650D01*
X56009Y199738D01*
X56007Y199827D01*
X56007Y205049D01*
X56009Y205140D01*
X56015Y205231D01*
X56025Y205322D01*
X56039Y205412D01*
X56056Y205501D01*
X56078Y205589D01*
X56104Y205677D01*
X56133Y205763D01*
X56166Y205848D01*
X56203Y205931D01*
X56243Y206013D01*
X56287Y206093D01*
X56334Y206171D01*
X56385Y206247D01*
X56438Y206320D01*
X56495Y206391D01*
X56556Y206460D01*
X56619Y206525D01*
X56684Y206588D01*
X56753Y206648D01*
X56824Y206706D01*
X56897Y206759D01*
X56973Y206810D01*
X57051Y206857D01*
X57131Y206901D01*
X57213Y206941D01*
X57296Y206978D01*
X57381Y207011D01*
X57467Y207040D01*
X57555Y207066D01*
X57643Y207088D01*
X57732Y207105D01*
X57822Y207119D01*
X57913Y207129D01*
X58004Y207135D01*
X58095Y207137D01*
X60184Y207137D01*
X63975Y207137D02*
X63975Y197739D01*
X63975Y207137D02*
X68152Y207137D01*
X68152Y202960D02*
X63975Y202960D01*
X71665Y201394D02*
X77930Y201394D01*
X74798Y204526D02*
X74798Y198261D01*
X100005Y196215D02*
X102094Y196215D01*
X100005Y196215D02*
X99916Y196217D01*
X99828Y196223D01*
X99740Y196232D01*
X99652Y196245D01*
X99565Y196262D01*
X99479Y196282D01*
X99394Y196307D01*
X99309Y196334D01*
X99226Y196366D01*
X99145Y196400D01*
X99065Y196439D01*
X98987Y196480D01*
X98910Y196525D01*
X98836Y196573D01*
X98763Y196624D01*
X98693Y196678D01*
X98626Y196736D01*
X98560Y196796D01*
X98498Y196858D01*
X98438Y196924D01*
X98380Y196991D01*
X98326Y197061D01*
X98275Y197134D01*
X98227Y197208D01*
X98182Y197285D01*
X98141Y197363D01*
X98102Y197443D01*
X98068Y197524D01*
X98036Y197607D01*
X98009Y197692D01*
X97984Y197777D01*
X97964Y197863D01*
X97947Y197950D01*
X97934Y198038D01*
X97925Y198126D01*
X97919Y198214D01*
X97917Y198303D01*
X97917Y203525D01*
X97919Y203616D01*
X97925Y203707D01*
X97935Y203798D01*
X97949Y203888D01*
X97966Y203977D01*
X97988Y204065D01*
X98014Y204153D01*
X98043Y204239D01*
X98076Y204324D01*
X98113Y204407D01*
X98153Y204489D01*
X98197Y204569D01*
X98244Y204647D01*
X98295Y204723D01*
X98348Y204796D01*
X98405Y204867D01*
X98466Y204936D01*
X98529Y205001D01*
X98594Y205064D01*
X98663Y205124D01*
X98734Y205182D01*
X98807Y205235D01*
X98883Y205286D01*
X98961Y205333D01*
X99041Y205377D01*
X99123Y205417D01*
X99206Y205454D01*
X99291Y205487D01*
X99377Y205516D01*
X99465Y205542D01*
X99553Y205564D01*
X99642Y205581D01*
X99732Y205595D01*
X99823Y205605D01*
X99914Y205611D01*
X100005Y205613D01*
X102094Y205613D01*
X105885Y205613D02*
X105885Y196215D01*
X105885Y205613D02*
X110062Y205613D01*
X110062Y201436D02*
X105885Y201436D01*
X113575Y199870D02*
X119840Y199870D01*
X44069Y341249D02*
X50334Y350647D01*
X44069Y350647D02*
X50334Y341249D01*
X53343Y340205D02*
X57520Y340205D01*
X61372Y341249D02*
X61372Y350647D01*
X61372Y341249D02*
X65549Y341249D01*
X69367Y341249D02*
X69367Y350647D01*
X72500Y345426D01*
X75633Y350647D01*
X75633Y341249D01*
X81949Y341249D02*
X81949Y350647D01*
X84559Y350647D02*
X79338Y350647D01*
X550545Y120622D02*
X556810Y120622D01*
X553678Y123754D02*
X553678Y117489D01*
X579755Y121638D02*
X586020Y121638D01*
X652985Y-86233D02*
X653080Y-86235D01*
X653174Y-86241D01*
X653268Y-86250D01*
X653362Y-86263D01*
X653455Y-86280D01*
X653547Y-86301D01*
X653639Y-86326D01*
X653729Y-86354D01*
X653818Y-86386D01*
X653906Y-86421D01*
X653992Y-86460D01*
X654077Y-86502D01*
X654160Y-86548D01*
X654241Y-86597D01*
X654320Y-86649D01*
X654397Y-86704D01*
X654471Y-86763D01*
X654543Y-86824D01*
X654613Y-86888D01*
X654680Y-86955D01*
X654744Y-87025D01*
X654805Y-87097D01*
X654864Y-87171D01*
X654919Y-87248D01*
X654971Y-87327D01*
X655020Y-87408D01*
X655066Y-87491D01*
X655108Y-87576D01*
X655147Y-87662D01*
X655182Y-87750D01*
X655214Y-87839D01*
X655242Y-87929D01*
X655267Y-88021D01*
X655288Y-88113D01*
X655305Y-88206D01*
X655318Y-88300D01*
X655327Y-88394D01*
X655333Y-88488D01*
X655335Y-88583D01*
X652985Y-86233D02*
X652877Y-86235D01*
X652768Y-86241D01*
X652660Y-86251D01*
X652553Y-86264D01*
X652446Y-86282D01*
X652339Y-86303D01*
X652234Y-86328D01*
X652129Y-86357D01*
X652026Y-86389D01*
X651924Y-86426D01*
X651823Y-86466D01*
X651724Y-86509D01*
X651626Y-86556D01*
X651530Y-86607D01*
X651436Y-86661D01*
X651344Y-86718D01*
X651254Y-86779D01*
X651166Y-86843D01*
X651081Y-86909D01*
X650998Y-86979D01*
X650918Y-87052D01*
X650840Y-87128D01*
X650765Y-87206D01*
X650693Y-87287D01*
X650624Y-87371D01*
X650558Y-87457D01*
X650495Y-87545D01*
X650436Y-87636D01*
X650379Y-87728D01*
X650326Y-87823D01*
X650277Y-87920D01*
X650231Y-88018D01*
X650188Y-88117D01*
X650149Y-88219D01*
X650114Y-88321D01*
X654552Y-90411D02*
X654621Y-90342D01*
X654687Y-90271D01*
X654751Y-90198D01*
X654812Y-90122D01*
X654870Y-90043D01*
X654924Y-89963D01*
X654976Y-89880D01*
X655024Y-89796D01*
X655070Y-89710D01*
X655111Y-89622D01*
X655150Y-89532D01*
X655185Y-89441D01*
X655216Y-89349D01*
X655244Y-89256D01*
X655268Y-89162D01*
X655288Y-89067D01*
X655305Y-88971D01*
X655318Y-88874D01*
X655327Y-88777D01*
X655333Y-88680D01*
X655335Y-88583D01*
X654551Y-90410D02*
X650113Y-95631D01*
X655334Y-95631D01*
X659257Y-93543D02*
X661345Y-86233D01*
X659257Y-93543D02*
X664478Y-93543D01*
X662912Y-91454D02*
X662912Y-95631D01*
X671011Y-95631D02*
X667879Y-86233D01*
X674144Y-86233D02*
X671011Y-95631D01*
X700250Y-76440D02*
X701816Y-76440D01*
X701816Y-81661D01*
X698683Y-81661D01*
X698594Y-81659D01*
X698506Y-81653D01*
X698418Y-81644D01*
X698330Y-81631D01*
X698243Y-81614D01*
X698157Y-81594D01*
X698072Y-81569D01*
X697987Y-81542D01*
X697904Y-81510D01*
X697823Y-81476D01*
X697743Y-81437D01*
X697665Y-81396D01*
X697588Y-81351D01*
X697514Y-81303D01*
X697441Y-81252D01*
X697371Y-81198D01*
X697304Y-81140D01*
X697238Y-81080D01*
X697176Y-81018D01*
X697116Y-80952D01*
X697058Y-80885D01*
X697004Y-80815D01*
X696953Y-80742D01*
X696905Y-80668D01*
X696860Y-80591D01*
X696819Y-80513D01*
X696780Y-80433D01*
X696746Y-80352D01*
X696714Y-80269D01*
X696687Y-80184D01*
X696662Y-80099D01*
X696642Y-80013D01*
X696625Y-79926D01*
X696612Y-79838D01*
X696603Y-79750D01*
X696597Y-79662D01*
X696595Y-79573D01*
X696595Y-74351D01*
X696597Y-74260D01*
X696603Y-74169D01*
X696613Y-74078D01*
X696627Y-73988D01*
X696645Y-73899D01*
X696666Y-73810D01*
X696692Y-73723D01*
X696721Y-73637D01*
X696754Y-73552D01*
X696791Y-73468D01*
X696831Y-73386D01*
X696875Y-73307D01*
X696922Y-73229D01*
X696973Y-73153D01*
X697027Y-73079D01*
X697084Y-73008D01*
X697144Y-72940D01*
X697207Y-72874D01*
X697273Y-72811D01*
X697341Y-72751D01*
X697412Y-72694D01*
X697486Y-72640D01*
X697562Y-72589D01*
X697639Y-72542D01*
X697719Y-72498D01*
X697801Y-72458D01*
X697885Y-72421D01*
X697969Y-72388D01*
X698056Y-72359D01*
X698143Y-72333D01*
X698232Y-72312D01*
X698321Y-72294D01*
X698411Y-72280D01*
X698502Y-72270D01*
X698593Y-72264D01*
X698684Y-72262D01*
X698683Y-72263D02*
X701816Y-72263D01*
X706349Y-72263D02*
X706349Y-81661D01*
X711570Y-81661D02*
X706349Y-72263D01*
X711570Y-72263D02*
X711570Y-81661D01*
X716102Y-81661D02*
X716102Y-72263D01*
X718713Y-72263D01*
X718813Y-72265D01*
X718913Y-72271D01*
X719012Y-72280D01*
X719112Y-72294D01*
X719210Y-72311D01*
X719308Y-72332D01*
X719405Y-72356D01*
X719501Y-72385D01*
X719596Y-72417D01*
X719689Y-72452D01*
X719781Y-72491D01*
X719872Y-72534D01*
X719960Y-72580D01*
X720047Y-72630D01*
X720132Y-72682D01*
X720215Y-72738D01*
X720296Y-72797D01*
X720374Y-72860D01*
X720450Y-72925D01*
X720524Y-72993D01*
X720594Y-73063D01*
X720662Y-73137D01*
X720727Y-73213D01*
X720790Y-73291D01*
X720849Y-73372D01*
X720905Y-73455D01*
X720957Y-73540D01*
X721007Y-73627D01*
X721053Y-73715D01*
X721096Y-73806D01*
X721135Y-73898D01*
X721170Y-73991D01*
X721202Y-74086D01*
X721231Y-74182D01*
X721255Y-74279D01*
X721276Y-74377D01*
X721293Y-74475D01*
X721307Y-74575D01*
X721316Y-74674D01*
X721322Y-74774D01*
X721324Y-74874D01*
X721323Y-74874D02*
X721323Y-79050D01*
X721324Y-79050D02*
X721322Y-79150D01*
X721316Y-79250D01*
X721307Y-79349D01*
X721293Y-79449D01*
X721276Y-79547D01*
X721255Y-79645D01*
X721231Y-79742D01*
X721202Y-79838D01*
X721170Y-79933D01*
X721135Y-80026D01*
X721096Y-80118D01*
X721053Y-80209D01*
X721007Y-80297D01*
X720957Y-80384D01*
X720905Y-80469D01*
X720849Y-80552D01*
X720790Y-80633D01*
X720727Y-80711D01*
X720662Y-80787D01*
X720594Y-80861D01*
X720524Y-80931D01*
X720450Y-80999D01*
X720374Y-81064D01*
X720296Y-81127D01*
X720215Y-81186D01*
X720132Y-81242D01*
X720047Y-81294D01*
X719960Y-81344D01*
X719872Y-81390D01*
X719781Y-81433D01*
X719689Y-81472D01*
X719596Y-81507D01*
X719501Y-81539D01*
X719405Y-81568D01*
X719308Y-81592D01*
X719210Y-81613D01*
X719112Y-81630D01*
X719012Y-81644D01*
X718913Y-81653D01*
X718813Y-81659D01*
X718713Y-81661D01*
X716102Y-81661D01*
X194578Y304560D02*
X193012Y304560D01*
X194578Y304560D02*
X194578Y299339D01*
X191445Y299339D01*
X191356Y299341D01*
X191268Y299347D01*
X191180Y299356D01*
X191092Y299369D01*
X191005Y299386D01*
X190919Y299406D01*
X190834Y299431D01*
X190749Y299458D01*
X190666Y299490D01*
X190585Y299524D01*
X190505Y299563D01*
X190427Y299604D01*
X190350Y299649D01*
X190276Y299697D01*
X190203Y299748D01*
X190133Y299802D01*
X190066Y299860D01*
X190000Y299920D01*
X189938Y299982D01*
X189878Y300048D01*
X189820Y300115D01*
X189766Y300185D01*
X189715Y300258D01*
X189667Y300332D01*
X189622Y300409D01*
X189581Y300487D01*
X189542Y300567D01*
X189508Y300648D01*
X189476Y300731D01*
X189449Y300816D01*
X189424Y300901D01*
X189404Y300987D01*
X189387Y301074D01*
X189374Y301162D01*
X189365Y301250D01*
X189359Y301338D01*
X189357Y301427D01*
X189357Y306649D01*
X189359Y306740D01*
X189365Y306831D01*
X189375Y306922D01*
X189389Y307012D01*
X189406Y307101D01*
X189428Y307189D01*
X189454Y307277D01*
X189483Y307363D01*
X189516Y307448D01*
X189553Y307531D01*
X189593Y307613D01*
X189637Y307693D01*
X189684Y307771D01*
X189735Y307847D01*
X189788Y307920D01*
X189845Y307991D01*
X189906Y308060D01*
X189969Y308125D01*
X190034Y308188D01*
X190103Y308248D01*
X190174Y308306D01*
X190247Y308359D01*
X190323Y308410D01*
X190401Y308457D01*
X190481Y308501D01*
X190563Y308541D01*
X190646Y308578D01*
X190731Y308611D01*
X190817Y308640D01*
X190905Y308666D01*
X190993Y308688D01*
X191082Y308705D01*
X191172Y308719D01*
X191263Y308729D01*
X191354Y308735D01*
X191445Y308737D01*
X194578Y308737D01*
X199111Y308737D02*
X199111Y299339D01*
X204332Y299339D02*
X199111Y308737D01*
X204332Y308737D02*
X204332Y299339D01*
X208864Y299339D02*
X208864Y308737D01*
X211475Y308737D01*
X211575Y308735D01*
X211675Y308729D01*
X211774Y308720D01*
X211874Y308706D01*
X211972Y308689D01*
X212070Y308668D01*
X212167Y308644D01*
X212263Y308615D01*
X212358Y308583D01*
X212451Y308548D01*
X212543Y308509D01*
X212634Y308466D01*
X212722Y308420D01*
X212809Y308370D01*
X212894Y308318D01*
X212977Y308262D01*
X213058Y308203D01*
X213136Y308140D01*
X213212Y308075D01*
X213286Y308007D01*
X213356Y307937D01*
X213424Y307863D01*
X213489Y307787D01*
X213552Y307709D01*
X213611Y307628D01*
X213667Y307545D01*
X213719Y307460D01*
X213769Y307373D01*
X213815Y307285D01*
X213858Y307194D01*
X213897Y307102D01*
X213932Y307009D01*
X213964Y306914D01*
X213993Y306818D01*
X214017Y306721D01*
X214038Y306623D01*
X214055Y306525D01*
X214069Y306425D01*
X214078Y306326D01*
X214084Y306226D01*
X214086Y306126D01*
X214085Y306126D02*
X214085Y301950D01*
X214086Y301950D02*
X214084Y301850D01*
X214078Y301750D01*
X214069Y301651D01*
X214055Y301551D01*
X214038Y301453D01*
X214017Y301355D01*
X213993Y301258D01*
X213964Y301162D01*
X213932Y301067D01*
X213897Y300974D01*
X213858Y300882D01*
X213815Y300791D01*
X213769Y300703D01*
X213719Y300616D01*
X213667Y300531D01*
X213611Y300448D01*
X213552Y300367D01*
X213489Y300289D01*
X213424Y300213D01*
X213356Y300139D01*
X213286Y300069D01*
X213212Y300001D01*
X213136Y299936D01*
X213058Y299873D01*
X212977Y299814D01*
X212894Y299758D01*
X212809Y299706D01*
X212722Y299656D01*
X212634Y299610D01*
X212543Y299567D01*
X212451Y299528D01*
X212358Y299493D01*
X212263Y299461D01*
X212167Y299432D01*
X212070Y299408D01*
X211972Y299387D01*
X211874Y299370D01*
X211774Y299356D01*
X211675Y299347D01*
X211575Y299341D01*
X211475Y299339D01*
X208864Y299339D01*
X242189Y299085D02*
X246366Y299085D01*
X242189Y299085D02*
X242189Y308483D01*
X246366Y308483D01*
X245322Y304306D02*
X242189Y304306D01*
X251792Y308483D02*
X251792Y299085D01*
X249182Y308483D02*
X254403Y308483D01*
X258499Y307178D02*
X258420Y307011D01*
X258345Y306842D01*
X258274Y306671D01*
X258207Y306499D01*
X258145Y306325D01*
X258086Y306149D01*
X258032Y305973D01*
X257982Y305795D01*
X257936Y305615D01*
X257894Y305435D01*
X257857Y305254D01*
X257824Y305072D01*
X257795Y304890D01*
X257771Y304706D01*
X257751Y304522D01*
X257736Y304338D01*
X257725Y304154D01*
X257718Y303969D01*
X257716Y303784D01*
X258499Y307178D02*
X258529Y307258D01*
X258562Y307337D01*
X258599Y307414D01*
X258639Y307490D01*
X258682Y307564D01*
X258728Y307636D01*
X258778Y307705D01*
X258830Y307773D01*
X258886Y307838D01*
X258944Y307901D01*
X259006Y307960D01*
X259069Y308018D01*
X259136Y308072D01*
X259204Y308123D01*
X259275Y308171D01*
X259348Y308216D01*
X259422Y308258D01*
X259499Y308296D01*
X259577Y308331D01*
X259656Y308363D01*
X259737Y308391D01*
X259819Y308415D01*
X259903Y308436D01*
X259986Y308453D01*
X260071Y308466D01*
X260156Y308475D01*
X260241Y308481D01*
X260327Y308483D01*
X260413Y308481D01*
X260498Y308475D01*
X260583Y308466D01*
X260668Y308453D01*
X260751Y308436D01*
X260835Y308415D01*
X260917Y308391D01*
X260998Y308363D01*
X261077Y308331D01*
X261155Y308296D01*
X261232Y308258D01*
X261306Y308216D01*
X261379Y308171D01*
X261450Y308123D01*
X261518Y308072D01*
X261585Y308018D01*
X261648Y307960D01*
X261710Y307901D01*
X261768Y307838D01*
X261824Y307773D01*
X261876Y307705D01*
X261926Y307636D01*
X261972Y307564D01*
X262015Y307490D01*
X262055Y307414D01*
X262092Y307337D01*
X262125Y307258D01*
X262155Y307178D01*
X262234Y307011D01*
X262309Y306842D01*
X262380Y306671D01*
X262447Y306499D01*
X262509Y306325D01*
X262568Y306149D01*
X262622Y305973D01*
X262672Y305795D01*
X262718Y305615D01*
X262760Y305435D01*
X262797Y305254D01*
X262830Y305072D01*
X262859Y304890D01*
X262883Y304706D01*
X262903Y304522D01*
X262918Y304338D01*
X262929Y304154D01*
X262936Y303969D01*
X262938Y303784D01*
X257716Y303784D02*
X257718Y303599D01*
X257725Y303414D01*
X257736Y303230D01*
X257751Y303046D01*
X257771Y302862D01*
X257795Y302678D01*
X257824Y302496D01*
X257857Y302314D01*
X257894Y302133D01*
X257936Y301953D01*
X257982Y301773D01*
X258032Y301595D01*
X258086Y301419D01*
X258145Y301243D01*
X258207Y301069D01*
X258274Y300897D01*
X258345Y300726D01*
X258420Y300557D01*
X258499Y300390D01*
X258529Y300310D01*
X258562Y300231D01*
X258599Y300154D01*
X258639Y300078D01*
X258682Y300004D01*
X258728Y299932D01*
X258778Y299863D01*
X258831Y299795D01*
X258886Y299730D01*
X258945Y299667D01*
X259006Y299608D01*
X259069Y299550D01*
X259136Y299496D01*
X259204Y299445D01*
X259275Y299397D01*
X259348Y299352D01*
X259422Y299310D01*
X259499Y299272D01*
X259577Y299237D01*
X259656Y299205D01*
X259737Y299177D01*
X259819Y299153D01*
X259903Y299132D01*
X259986Y299115D01*
X260071Y299102D01*
X260156Y299093D01*
X260241Y299087D01*
X260327Y299085D01*
X262154Y300390D02*
X262233Y300557D01*
X262308Y300726D01*
X262379Y300897D01*
X262446Y301069D01*
X262508Y301243D01*
X262567Y301419D01*
X262621Y301595D01*
X262671Y301773D01*
X262717Y301953D01*
X262759Y302133D01*
X262796Y302314D01*
X262829Y302496D01*
X262858Y302678D01*
X262882Y302862D01*
X262902Y303046D01*
X262917Y303230D01*
X262928Y303414D01*
X262935Y303599D01*
X262937Y303784D01*
X262155Y300390D02*
X262125Y300310D01*
X262092Y300231D01*
X262055Y300154D01*
X262015Y300078D01*
X261972Y300004D01*
X261926Y299932D01*
X261876Y299863D01*
X261824Y299795D01*
X261768Y299730D01*
X261710Y299667D01*
X261648Y299608D01*
X261585Y299550D01*
X261518Y299496D01*
X261450Y299445D01*
X261379Y299397D01*
X261306Y299352D01*
X261232Y299310D01*
X261155Y299272D01*
X261077Y299237D01*
X260998Y299205D01*
X260917Y299177D01*
X260835Y299153D01*
X260751Y299132D01*
X260668Y299115D01*
X260583Y299102D01*
X260498Y299093D01*
X260413Y299087D01*
X260327Y299085D01*
X258238Y301173D02*
X262415Y306395D01*
X295529Y308483D02*
X295529Y299085D01*
X295529Y304306D02*
X300750Y304306D01*
X300750Y308483D02*
X300750Y299085D01*
X304977Y303784D02*
X304979Y303969D01*
X304986Y304154D01*
X304997Y304338D01*
X305012Y304522D01*
X305032Y304706D01*
X305056Y304890D01*
X305085Y305072D01*
X305118Y305254D01*
X305155Y305435D01*
X305197Y305615D01*
X305243Y305795D01*
X305293Y305973D01*
X305347Y306149D01*
X305406Y306325D01*
X305468Y306499D01*
X305535Y306671D01*
X305606Y306842D01*
X305681Y307011D01*
X305760Y307178D01*
X305790Y307258D01*
X305823Y307337D01*
X305860Y307414D01*
X305900Y307490D01*
X305943Y307564D01*
X305989Y307636D01*
X306039Y307705D01*
X306091Y307773D01*
X306147Y307838D01*
X306205Y307901D01*
X306267Y307960D01*
X306330Y308018D01*
X306397Y308072D01*
X306465Y308123D01*
X306536Y308171D01*
X306609Y308216D01*
X306683Y308258D01*
X306760Y308296D01*
X306838Y308331D01*
X306917Y308363D01*
X306998Y308391D01*
X307080Y308415D01*
X307164Y308436D01*
X307247Y308453D01*
X307332Y308466D01*
X307417Y308475D01*
X307502Y308481D01*
X307588Y308483D01*
X307674Y308481D01*
X307759Y308475D01*
X307844Y308466D01*
X307929Y308453D01*
X308012Y308436D01*
X308096Y308415D01*
X308178Y308391D01*
X308259Y308363D01*
X308338Y308331D01*
X308416Y308296D01*
X308493Y308258D01*
X308567Y308216D01*
X308640Y308171D01*
X308711Y308123D01*
X308779Y308072D01*
X308846Y308018D01*
X308909Y307960D01*
X308971Y307901D01*
X309029Y307838D01*
X309085Y307773D01*
X309137Y307705D01*
X309187Y307636D01*
X309233Y307564D01*
X309276Y307490D01*
X309316Y307414D01*
X309353Y307337D01*
X309386Y307258D01*
X309416Y307178D01*
X309495Y307011D01*
X309570Y306842D01*
X309641Y306671D01*
X309708Y306499D01*
X309770Y306325D01*
X309829Y306149D01*
X309883Y305973D01*
X309933Y305795D01*
X309979Y305615D01*
X310021Y305435D01*
X310058Y305254D01*
X310091Y305072D01*
X310120Y304890D01*
X310144Y304706D01*
X310164Y304522D01*
X310179Y304338D01*
X310190Y304154D01*
X310197Y303969D01*
X310199Y303784D01*
X304978Y303784D02*
X304980Y303599D01*
X304987Y303414D01*
X304998Y303230D01*
X305013Y303046D01*
X305033Y302862D01*
X305057Y302678D01*
X305086Y302496D01*
X305119Y302314D01*
X305156Y302133D01*
X305198Y301953D01*
X305244Y301773D01*
X305294Y301595D01*
X305348Y301419D01*
X305407Y301243D01*
X305469Y301069D01*
X305536Y300897D01*
X305607Y300726D01*
X305682Y300557D01*
X305761Y300390D01*
X305760Y300390D02*
X305790Y300310D01*
X305823Y300231D01*
X305860Y300154D01*
X305900Y300078D01*
X305943Y300004D01*
X305989Y299932D01*
X306039Y299863D01*
X306092Y299795D01*
X306147Y299730D01*
X306206Y299667D01*
X306267Y299608D01*
X306330Y299550D01*
X306397Y299496D01*
X306465Y299445D01*
X306536Y299397D01*
X306609Y299352D01*
X306683Y299310D01*
X306760Y299272D01*
X306838Y299237D01*
X306917Y299205D01*
X306998Y299177D01*
X307080Y299153D01*
X307164Y299132D01*
X307247Y299115D01*
X307332Y299102D01*
X307417Y299093D01*
X307502Y299087D01*
X307588Y299085D01*
X309416Y300390D02*
X309495Y300557D01*
X309570Y300726D01*
X309641Y300897D01*
X309708Y301069D01*
X309770Y301243D01*
X309829Y301419D01*
X309883Y301595D01*
X309933Y301773D01*
X309979Y301953D01*
X310021Y302133D01*
X310058Y302314D01*
X310091Y302496D01*
X310120Y302678D01*
X310144Y302862D01*
X310164Y303046D01*
X310179Y303230D01*
X310190Y303414D01*
X310197Y303599D01*
X310199Y303784D01*
X309416Y300390D02*
X309386Y300310D01*
X309353Y300231D01*
X309316Y300154D01*
X309276Y300078D01*
X309233Y300004D01*
X309187Y299932D01*
X309137Y299863D01*
X309085Y299795D01*
X309029Y299730D01*
X308971Y299667D01*
X308909Y299608D01*
X308846Y299550D01*
X308779Y299496D01*
X308711Y299445D01*
X308640Y299397D01*
X308567Y299352D01*
X308493Y299310D01*
X308416Y299272D01*
X308338Y299237D01*
X308259Y299205D01*
X308178Y299177D01*
X308096Y299153D01*
X308012Y299132D01*
X307929Y299115D01*
X307844Y299102D01*
X307759Y299093D01*
X307674Y299087D01*
X307588Y299085D01*
X305500Y301173D02*
X309677Y306395D01*
X314209Y302740D02*
X320475Y302740D01*
X344297Y299339D02*
X344297Y308737D01*
X344297Y304560D02*
X349518Y304560D01*
X349518Y308737D02*
X349518Y299339D01*
X353745Y304038D02*
X353747Y304223D01*
X353754Y304408D01*
X353765Y304592D01*
X353780Y304776D01*
X353800Y304960D01*
X353824Y305144D01*
X353853Y305326D01*
X353886Y305508D01*
X353923Y305689D01*
X353965Y305869D01*
X354011Y306049D01*
X354061Y306227D01*
X354115Y306403D01*
X354174Y306579D01*
X354236Y306753D01*
X354303Y306925D01*
X354374Y307096D01*
X354449Y307265D01*
X354528Y307432D01*
X354558Y307512D01*
X354591Y307591D01*
X354628Y307668D01*
X354668Y307744D01*
X354711Y307818D01*
X354757Y307890D01*
X354807Y307959D01*
X354859Y308027D01*
X354915Y308092D01*
X354973Y308155D01*
X355035Y308214D01*
X355098Y308272D01*
X355165Y308326D01*
X355233Y308377D01*
X355304Y308425D01*
X355377Y308470D01*
X355451Y308512D01*
X355528Y308550D01*
X355606Y308585D01*
X355685Y308617D01*
X355766Y308645D01*
X355848Y308669D01*
X355932Y308690D01*
X356015Y308707D01*
X356100Y308720D01*
X356185Y308729D01*
X356270Y308735D01*
X356356Y308737D01*
X356442Y308735D01*
X356527Y308729D01*
X356612Y308720D01*
X356697Y308707D01*
X356780Y308690D01*
X356864Y308669D01*
X356946Y308645D01*
X357027Y308617D01*
X357106Y308585D01*
X357184Y308550D01*
X357261Y308512D01*
X357335Y308470D01*
X357408Y308425D01*
X357479Y308377D01*
X357547Y308326D01*
X357614Y308272D01*
X357677Y308214D01*
X357739Y308155D01*
X357797Y308092D01*
X357853Y308027D01*
X357905Y307959D01*
X357955Y307890D01*
X358001Y307818D01*
X358044Y307744D01*
X358084Y307668D01*
X358121Y307591D01*
X358154Y307512D01*
X358184Y307432D01*
X358263Y307265D01*
X358338Y307096D01*
X358409Y306925D01*
X358476Y306753D01*
X358538Y306579D01*
X358597Y306403D01*
X358651Y306227D01*
X358701Y306049D01*
X358747Y305869D01*
X358789Y305689D01*
X358826Y305508D01*
X358859Y305326D01*
X358888Y305144D01*
X358912Y304960D01*
X358932Y304776D01*
X358947Y304592D01*
X358958Y304408D01*
X358965Y304223D01*
X358967Y304038D01*
X353746Y304038D02*
X353748Y303853D01*
X353755Y303668D01*
X353766Y303484D01*
X353781Y303300D01*
X353801Y303116D01*
X353825Y302932D01*
X353854Y302750D01*
X353887Y302568D01*
X353924Y302387D01*
X353966Y302207D01*
X354012Y302027D01*
X354062Y301849D01*
X354116Y301673D01*
X354175Y301497D01*
X354237Y301323D01*
X354304Y301151D01*
X354375Y300980D01*
X354450Y300811D01*
X354529Y300644D01*
X354528Y300644D02*
X354558Y300564D01*
X354591Y300485D01*
X354628Y300408D01*
X354668Y300332D01*
X354711Y300258D01*
X354757Y300186D01*
X354807Y300117D01*
X354860Y300049D01*
X354915Y299984D01*
X354974Y299921D01*
X355035Y299862D01*
X355098Y299804D01*
X355165Y299750D01*
X355233Y299699D01*
X355304Y299651D01*
X355377Y299606D01*
X355451Y299564D01*
X355528Y299526D01*
X355606Y299491D01*
X355685Y299459D01*
X355766Y299431D01*
X355848Y299407D01*
X355932Y299386D01*
X356015Y299369D01*
X356100Y299356D01*
X356185Y299347D01*
X356270Y299341D01*
X356356Y299339D01*
X358184Y300644D02*
X358263Y300811D01*
X358338Y300980D01*
X358409Y301151D01*
X358476Y301323D01*
X358538Y301497D01*
X358597Y301673D01*
X358651Y301849D01*
X358701Y302027D01*
X358747Y302207D01*
X358789Y302387D01*
X358826Y302568D01*
X358859Y302750D01*
X358888Y302932D01*
X358912Y303116D01*
X358932Y303300D01*
X358947Y303484D01*
X358958Y303668D01*
X358965Y303853D01*
X358967Y304038D01*
X358184Y300644D02*
X358154Y300564D01*
X358121Y300485D01*
X358084Y300408D01*
X358044Y300332D01*
X358001Y300258D01*
X357955Y300186D01*
X357905Y300117D01*
X357853Y300049D01*
X357797Y299984D01*
X357739Y299921D01*
X357677Y299862D01*
X357614Y299804D01*
X357547Y299750D01*
X357479Y299699D01*
X357408Y299651D01*
X357335Y299606D01*
X357261Y299564D01*
X357184Y299526D01*
X357106Y299491D01*
X357027Y299459D01*
X356946Y299431D01*
X356864Y299407D01*
X356780Y299386D01*
X356697Y299369D01*
X356612Y299356D01*
X356527Y299347D01*
X356442Y299341D01*
X356356Y299339D01*
X354268Y301427D02*
X358445Y306649D01*
X362977Y302994D02*
X369243Y302994D01*
X366110Y299861D02*
X366110Y306126D01*
D11*
X748792Y-57D02*
X761436Y-57D01*
X761554Y-59D01*
X761672Y-65D01*
X761790Y-74D01*
X761907Y-88D01*
X762024Y-105D01*
X762141Y-126D01*
X762256Y-151D01*
X762371Y-180D01*
X762485Y-213D01*
X762597Y-249D01*
X762708Y-289D01*
X762818Y-332D01*
X762927Y-379D01*
X763034Y-429D01*
X763139Y-484D01*
X763242Y-541D01*
X763343Y-602D01*
X763443Y-666D01*
X763540Y-733D01*
X763635Y-803D01*
X763727Y-877D01*
X763818Y-953D01*
X763905Y-1033D01*
X763990Y-1115D01*
X764072Y-1200D01*
X764152Y-1287D01*
X764228Y-1378D01*
X764302Y-1470D01*
X764372Y-1565D01*
X764439Y-1662D01*
X764503Y-1762D01*
X764564Y-1863D01*
X764621Y-1966D01*
X764676Y-2071D01*
X764726Y-2178D01*
X764773Y-2287D01*
X764816Y-2397D01*
X764856Y-2508D01*
X764892Y-2620D01*
X764925Y-2734D01*
X764954Y-2849D01*
X764979Y-2964D01*
X765000Y-3081D01*
X765017Y-3198D01*
X765031Y-3315D01*
X765040Y-3433D01*
X765046Y-3551D01*
X765048Y-3669D01*
X765048Y-5476D01*
X762339Y7392D02*
X754211Y7392D01*
X762339Y7392D02*
X762440Y7394D01*
X762541Y7400D01*
X762642Y7409D01*
X762743Y7422D01*
X762843Y7439D01*
X762942Y7460D01*
X763040Y7484D01*
X763137Y7512D01*
X763234Y7544D01*
X763329Y7579D01*
X763422Y7618D01*
X763514Y7660D01*
X763605Y7706D01*
X763694Y7755D01*
X763780Y7807D01*
X763865Y7863D01*
X763948Y7921D01*
X764028Y7983D01*
X764106Y8048D01*
X764182Y8115D01*
X764255Y8185D01*
X764325Y8258D01*
X764392Y8334D01*
X764457Y8412D01*
X764519Y8492D01*
X764577Y8575D01*
X764633Y8660D01*
X764685Y8746D01*
X764734Y8835D01*
X764780Y8926D01*
X764822Y9018D01*
X764861Y9111D01*
X764896Y9206D01*
X764928Y9303D01*
X764956Y9400D01*
X764980Y9498D01*
X765001Y9597D01*
X765018Y9697D01*
X765031Y9798D01*
X765040Y9899D01*
X765046Y10000D01*
X765048Y10101D01*
X765048Y14617D01*
X754211Y14617D01*
X748792Y21697D02*
X762339Y21697D01*
X762440Y21699D01*
X762541Y21705D01*
X762642Y21714D01*
X762743Y21727D01*
X762843Y21744D01*
X762942Y21765D01*
X763040Y21789D01*
X763137Y21817D01*
X763234Y21849D01*
X763329Y21884D01*
X763422Y21923D01*
X763514Y21965D01*
X763605Y22011D01*
X763694Y22060D01*
X763780Y22112D01*
X763865Y22168D01*
X763948Y22226D01*
X764028Y22288D01*
X764106Y22353D01*
X764182Y22420D01*
X764255Y22490D01*
X764325Y22563D01*
X764392Y22639D01*
X764457Y22717D01*
X764519Y22797D01*
X764577Y22880D01*
X764633Y22965D01*
X764685Y23051D01*
X764734Y23140D01*
X764780Y23231D01*
X764822Y23323D01*
X764861Y23416D01*
X764896Y23511D01*
X764928Y23608D01*
X764956Y23705D01*
X764980Y23803D01*
X765001Y23902D01*
X765018Y24002D01*
X765031Y24103D01*
X765040Y24204D01*
X765046Y24305D01*
X765048Y24406D01*
X765048Y29762D02*
X754211Y29762D01*
X749695Y29310D02*
X748792Y29310D01*
X748792Y30214D01*
X749695Y30214D01*
X749695Y29310D01*
X758726Y39137D02*
X758726Y43201D01*
X758726Y39137D02*
X758728Y39025D01*
X758734Y38914D01*
X758744Y38803D01*
X758757Y38692D01*
X758775Y38582D01*
X758797Y38473D01*
X758822Y38364D01*
X758851Y38256D01*
X758884Y38150D01*
X758921Y38044D01*
X758961Y37940D01*
X759005Y37838D01*
X759053Y37737D01*
X759104Y37638D01*
X759159Y37540D01*
X759217Y37445D01*
X759278Y37352D01*
X759343Y37261D01*
X759411Y37172D01*
X759482Y37086D01*
X759555Y37003D01*
X759632Y36922D01*
X759712Y36843D01*
X759794Y36768D01*
X759879Y36696D01*
X759966Y36626D01*
X760056Y36560D01*
X760148Y36497D01*
X760243Y36437D01*
X760339Y36381D01*
X760437Y36328D01*
X760537Y36279D01*
X760639Y36233D01*
X760742Y36191D01*
X760847Y36152D01*
X760953Y36117D01*
X761060Y36086D01*
X761168Y36059D01*
X761277Y36035D01*
X761387Y36016D01*
X761497Y36000D01*
X761608Y35988D01*
X761720Y35980D01*
X761831Y35976D01*
X761943Y35976D01*
X762054Y35980D01*
X762166Y35988D01*
X762277Y36000D01*
X762387Y36016D01*
X762497Y36035D01*
X762606Y36059D01*
X762714Y36086D01*
X762821Y36117D01*
X762927Y36152D01*
X763032Y36191D01*
X763135Y36233D01*
X763237Y36279D01*
X763337Y36328D01*
X763435Y36381D01*
X763531Y36437D01*
X763626Y36497D01*
X763718Y36560D01*
X763808Y36626D01*
X763895Y36696D01*
X763980Y36768D01*
X764062Y36843D01*
X764142Y36922D01*
X764219Y37003D01*
X764292Y37086D01*
X764363Y37172D01*
X764431Y37261D01*
X764496Y37352D01*
X764557Y37445D01*
X764615Y37540D01*
X764670Y37638D01*
X764721Y37737D01*
X764769Y37838D01*
X764813Y37940D01*
X764853Y38044D01*
X764890Y38150D01*
X764923Y38256D01*
X764952Y38364D01*
X764977Y38473D01*
X764999Y38582D01*
X765017Y38692D01*
X765030Y38803D01*
X765040Y38914D01*
X765046Y39025D01*
X765048Y39137D01*
X765048Y43201D01*
X756920Y43201D01*
X756819Y43199D01*
X756718Y43193D01*
X756617Y43184D01*
X756516Y43171D01*
X756416Y43154D01*
X756317Y43133D01*
X756219Y43109D01*
X756122Y43081D01*
X756025Y43049D01*
X755930Y43014D01*
X755837Y42975D01*
X755745Y42933D01*
X755654Y42887D01*
X755566Y42838D01*
X755479Y42786D01*
X755394Y42730D01*
X755311Y42672D01*
X755231Y42610D01*
X755153Y42545D01*
X755077Y42478D01*
X755004Y42408D01*
X754934Y42335D01*
X754867Y42259D01*
X754802Y42181D01*
X754740Y42101D01*
X754682Y42018D01*
X754626Y41933D01*
X754574Y41847D01*
X754525Y41758D01*
X754479Y41667D01*
X754437Y41575D01*
X754398Y41482D01*
X754363Y41387D01*
X754331Y41290D01*
X754303Y41193D01*
X754279Y41095D01*
X754258Y40996D01*
X754241Y40896D01*
X754228Y40795D01*
X754219Y40694D01*
X754213Y40593D01*
X754211Y40492D01*
X754211Y36879D01*
X765048Y62166D02*
X765048Y65778D01*
X765048Y62166D02*
X765046Y62048D01*
X765040Y61930D01*
X765031Y61812D01*
X765017Y61695D01*
X765000Y61578D01*
X764979Y61461D01*
X764954Y61346D01*
X764925Y61231D01*
X764892Y61117D01*
X764856Y61005D01*
X764816Y60894D01*
X764773Y60784D01*
X764726Y60675D01*
X764676Y60568D01*
X764621Y60463D01*
X764564Y60360D01*
X764503Y60259D01*
X764439Y60159D01*
X764372Y60062D01*
X764302Y59967D01*
X764228Y59875D01*
X764152Y59784D01*
X764072Y59697D01*
X763990Y59612D01*
X763905Y59530D01*
X763818Y59450D01*
X763727Y59374D01*
X763635Y59300D01*
X763540Y59230D01*
X763443Y59163D01*
X763343Y59099D01*
X763242Y59038D01*
X763139Y58981D01*
X763034Y58926D01*
X762927Y58876D01*
X762818Y58829D01*
X762708Y58786D01*
X762597Y58746D01*
X762485Y58710D01*
X762371Y58677D01*
X762256Y58648D01*
X762141Y58623D01*
X762024Y58602D01*
X761907Y58585D01*
X761790Y58571D01*
X761672Y58562D01*
X761554Y58556D01*
X761436Y58554D01*
X752404Y58554D01*
X752404Y58553D02*
X752286Y58555D01*
X752168Y58561D01*
X752050Y58570D01*
X751932Y58584D01*
X751815Y58601D01*
X751699Y58622D01*
X751584Y58647D01*
X751469Y58676D01*
X751355Y58709D01*
X751243Y58745D01*
X751131Y58785D01*
X751021Y58828D01*
X750913Y58875D01*
X750806Y58926D01*
X750701Y58980D01*
X750598Y59037D01*
X750496Y59098D01*
X750397Y59162D01*
X750300Y59229D01*
X750205Y59300D01*
X750112Y59373D01*
X750022Y59450D01*
X749934Y59529D01*
X749849Y59611D01*
X749767Y59696D01*
X749688Y59784D01*
X749611Y59874D01*
X749538Y59967D01*
X749467Y60061D01*
X749400Y60159D01*
X749336Y60258D01*
X749275Y60359D01*
X749218Y60463D01*
X749164Y60568D01*
X749113Y60675D01*
X749066Y60783D01*
X749023Y60893D01*
X748983Y61005D01*
X748947Y61117D01*
X748914Y61231D01*
X748885Y61346D01*
X748860Y61461D01*
X748839Y61577D01*
X748822Y61694D01*
X748808Y61812D01*
X748799Y61930D01*
X748793Y62048D01*
X748791Y62166D01*
X748792Y62166D02*
X748792Y65778D01*
X758726Y74568D02*
X758726Y78632D01*
X758726Y74568D02*
X758728Y74456D01*
X758734Y74345D01*
X758744Y74234D01*
X758757Y74123D01*
X758775Y74013D01*
X758797Y73904D01*
X758822Y73795D01*
X758851Y73687D01*
X758884Y73581D01*
X758921Y73475D01*
X758961Y73371D01*
X759005Y73269D01*
X759053Y73168D01*
X759104Y73069D01*
X759159Y72971D01*
X759217Y72876D01*
X759278Y72783D01*
X759343Y72692D01*
X759411Y72603D01*
X759482Y72517D01*
X759555Y72434D01*
X759632Y72353D01*
X759712Y72274D01*
X759794Y72199D01*
X759879Y72127D01*
X759966Y72057D01*
X760056Y71991D01*
X760148Y71928D01*
X760243Y71868D01*
X760339Y71812D01*
X760437Y71759D01*
X760537Y71710D01*
X760639Y71664D01*
X760742Y71622D01*
X760847Y71583D01*
X760953Y71548D01*
X761060Y71517D01*
X761168Y71490D01*
X761277Y71466D01*
X761387Y71447D01*
X761497Y71431D01*
X761608Y71419D01*
X761720Y71411D01*
X761831Y71407D01*
X761943Y71407D01*
X762054Y71411D01*
X762166Y71419D01*
X762277Y71431D01*
X762387Y71447D01*
X762497Y71466D01*
X762606Y71490D01*
X762714Y71517D01*
X762821Y71548D01*
X762927Y71583D01*
X763032Y71622D01*
X763135Y71664D01*
X763237Y71710D01*
X763337Y71759D01*
X763435Y71812D01*
X763531Y71868D01*
X763626Y71928D01*
X763718Y71991D01*
X763808Y72057D01*
X763895Y72127D01*
X763980Y72199D01*
X764062Y72274D01*
X764142Y72353D01*
X764219Y72434D01*
X764292Y72517D01*
X764363Y72603D01*
X764431Y72692D01*
X764496Y72783D01*
X764557Y72876D01*
X764615Y72971D01*
X764670Y73069D01*
X764721Y73168D01*
X764769Y73269D01*
X764813Y73371D01*
X764853Y73475D01*
X764890Y73581D01*
X764923Y73687D01*
X764952Y73795D01*
X764977Y73904D01*
X764999Y74013D01*
X765017Y74123D01*
X765030Y74234D01*
X765040Y74345D01*
X765046Y74456D01*
X765048Y74568D01*
X765048Y78632D01*
X756920Y78632D01*
X756920Y78631D02*
X756819Y78629D01*
X756718Y78623D01*
X756617Y78614D01*
X756516Y78601D01*
X756416Y78584D01*
X756317Y78563D01*
X756219Y78539D01*
X756122Y78511D01*
X756025Y78479D01*
X755930Y78444D01*
X755837Y78405D01*
X755745Y78363D01*
X755654Y78317D01*
X755566Y78268D01*
X755479Y78216D01*
X755394Y78160D01*
X755311Y78102D01*
X755231Y78040D01*
X755153Y77975D01*
X755077Y77908D01*
X755004Y77838D01*
X754934Y77765D01*
X754867Y77689D01*
X754802Y77611D01*
X754740Y77531D01*
X754682Y77448D01*
X754626Y77363D01*
X754574Y77277D01*
X754525Y77188D01*
X754479Y77097D01*
X754437Y77005D01*
X754398Y76912D01*
X754363Y76817D01*
X754331Y76720D01*
X754303Y76623D01*
X754279Y76525D01*
X754258Y76426D01*
X754241Y76326D01*
X754228Y76225D01*
X754219Y76124D01*
X754213Y76023D01*
X754211Y75922D01*
X754211Y72310D01*
X754211Y86154D02*
X765048Y86154D01*
X754211Y86154D02*
X754211Y91573D01*
X756017Y91573D01*
X754211Y97096D02*
X765048Y97096D01*
X754211Y97096D02*
X754211Y102515D01*
X756017Y102515D01*
X754211Y107397D02*
X765048Y107397D01*
X749695Y106945D02*
X748792Y106945D01*
X748792Y107849D01*
X749695Y107849D01*
X749695Y106945D01*
X758726Y116772D02*
X758726Y120836D01*
X758726Y116772D02*
X758728Y116660D01*
X758734Y116549D01*
X758744Y116438D01*
X758757Y116327D01*
X758775Y116217D01*
X758797Y116108D01*
X758822Y115999D01*
X758851Y115891D01*
X758884Y115785D01*
X758921Y115679D01*
X758961Y115575D01*
X759005Y115473D01*
X759053Y115372D01*
X759104Y115273D01*
X759159Y115175D01*
X759217Y115080D01*
X759278Y114987D01*
X759343Y114896D01*
X759411Y114807D01*
X759482Y114721D01*
X759555Y114638D01*
X759632Y114557D01*
X759712Y114478D01*
X759794Y114403D01*
X759879Y114331D01*
X759966Y114261D01*
X760056Y114195D01*
X760148Y114132D01*
X760243Y114072D01*
X760339Y114016D01*
X760437Y113963D01*
X760537Y113914D01*
X760639Y113868D01*
X760742Y113826D01*
X760847Y113787D01*
X760953Y113752D01*
X761060Y113721D01*
X761168Y113694D01*
X761277Y113670D01*
X761387Y113651D01*
X761497Y113635D01*
X761608Y113623D01*
X761720Y113615D01*
X761831Y113611D01*
X761943Y113611D01*
X762054Y113615D01*
X762166Y113623D01*
X762277Y113635D01*
X762387Y113651D01*
X762497Y113670D01*
X762606Y113694D01*
X762714Y113721D01*
X762821Y113752D01*
X762927Y113787D01*
X763032Y113826D01*
X763135Y113868D01*
X763237Y113914D01*
X763337Y113963D01*
X763435Y114016D01*
X763531Y114072D01*
X763626Y114132D01*
X763718Y114195D01*
X763808Y114261D01*
X763895Y114331D01*
X763980Y114403D01*
X764062Y114478D01*
X764142Y114557D01*
X764219Y114638D01*
X764292Y114721D01*
X764363Y114807D01*
X764431Y114896D01*
X764496Y114987D01*
X764557Y115080D01*
X764615Y115175D01*
X764670Y115273D01*
X764721Y115372D01*
X764769Y115473D01*
X764813Y115575D01*
X764853Y115679D01*
X764890Y115785D01*
X764923Y115891D01*
X764952Y115999D01*
X764977Y116108D01*
X764999Y116217D01*
X765017Y116327D01*
X765030Y116438D01*
X765040Y116549D01*
X765046Y116660D01*
X765048Y116772D01*
X765048Y120836D01*
X756920Y120836D01*
X756819Y120834D01*
X756718Y120828D01*
X756617Y120819D01*
X756516Y120806D01*
X756416Y120789D01*
X756317Y120768D01*
X756219Y120744D01*
X756122Y120716D01*
X756025Y120684D01*
X755930Y120649D01*
X755837Y120610D01*
X755745Y120568D01*
X755654Y120522D01*
X755566Y120473D01*
X755479Y120421D01*
X755394Y120365D01*
X755311Y120307D01*
X755231Y120245D01*
X755153Y120180D01*
X755077Y120113D01*
X755004Y120043D01*
X754934Y119970D01*
X754867Y119894D01*
X754802Y119816D01*
X754740Y119736D01*
X754682Y119653D01*
X754626Y119568D01*
X754574Y119482D01*
X754525Y119393D01*
X754479Y119302D01*
X754437Y119210D01*
X754398Y119117D01*
X754363Y119022D01*
X754331Y118925D01*
X754303Y118828D01*
X754279Y118730D01*
X754258Y118631D01*
X754241Y118531D01*
X754228Y118430D01*
X754219Y118329D01*
X754213Y118228D01*
X754211Y118127D01*
X754211Y114514D01*
X765048Y130388D02*
X765048Y134904D01*
X765048Y130388D02*
X765046Y130287D01*
X765040Y130186D01*
X765031Y130085D01*
X765018Y129984D01*
X765001Y129884D01*
X764980Y129785D01*
X764956Y129687D01*
X764928Y129590D01*
X764896Y129493D01*
X764861Y129398D01*
X764822Y129305D01*
X764780Y129213D01*
X764734Y129122D01*
X764685Y129033D01*
X764633Y128947D01*
X764577Y128862D01*
X764519Y128779D01*
X764457Y128699D01*
X764392Y128621D01*
X764325Y128545D01*
X764255Y128472D01*
X764182Y128402D01*
X764106Y128335D01*
X764028Y128270D01*
X763948Y128208D01*
X763865Y128150D01*
X763780Y128094D01*
X763694Y128042D01*
X763605Y127993D01*
X763514Y127947D01*
X763422Y127905D01*
X763329Y127866D01*
X763234Y127831D01*
X763137Y127799D01*
X763040Y127771D01*
X762942Y127747D01*
X762843Y127726D01*
X762743Y127709D01*
X762642Y127696D01*
X762541Y127687D01*
X762440Y127681D01*
X762339Y127679D01*
X756920Y127679D01*
X756819Y127681D01*
X756718Y127687D01*
X756617Y127696D01*
X756516Y127709D01*
X756416Y127726D01*
X756317Y127747D01*
X756219Y127771D01*
X756122Y127799D01*
X756025Y127831D01*
X755930Y127866D01*
X755837Y127905D01*
X755745Y127947D01*
X755654Y127993D01*
X755566Y128042D01*
X755479Y128094D01*
X755394Y128150D01*
X755311Y128208D01*
X755231Y128270D01*
X755153Y128335D01*
X755077Y128402D01*
X755004Y128472D01*
X754934Y128545D01*
X754867Y128621D01*
X754802Y128699D01*
X754740Y128779D01*
X754682Y128862D01*
X754626Y128947D01*
X754574Y129034D01*
X754525Y129122D01*
X754479Y129213D01*
X754437Y129305D01*
X754398Y129398D01*
X754363Y129493D01*
X754331Y129590D01*
X754303Y129687D01*
X754279Y129785D01*
X754258Y129884D01*
X754241Y129984D01*
X754228Y130085D01*
X754219Y130186D01*
X754213Y130287D01*
X754211Y130388D01*
X754211Y134904D01*
X767757Y134904D01*
X767858Y134902D01*
X767959Y134896D01*
X768060Y134887D01*
X768161Y134874D01*
X768261Y134857D01*
X768360Y134836D01*
X768458Y134812D01*
X768555Y134784D01*
X768652Y134752D01*
X768747Y134717D01*
X768840Y134678D01*
X768932Y134636D01*
X769023Y134590D01*
X769112Y134541D01*
X769198Y134489D01*
X769283Y134433D01*
X769366Y134375D01*
X769446Y134313D01*
X769524Y134248D01*
X769600Y134181D01*
X769673Y134111D01*
X769743Y134038D01*
X769810Y133962D01*
X769875Y133884D01*
X769937Y133804D01*
X769995Y133721D01*
X770051Y133636D01*
X770103Y133550D01*
X770152Y133461D01*
X770198Y133370D01*
X770240Y133278D01*
X770279Y133185D01*
X770314Y133090D01*
X770346Y132993D01*
X770374Y132896D01*
X770398Y132798D01*
X770419Y132699D01*
X770436Y132599D01*
X770449Y132498D01*
X770458Y132397D01*
X770464Y132296D01*
X770466Y132195D01*
X770467Y132195D02*
X770467Y128582D01*
X765048Y144530D02*
X765048Y149045D01*
X765048Y144530D02*
X765046Y144429D01*
X765040Y144328D01*
X765031Y144227D01*
X765018Y144126D01*
X765001Y144026D01*
X764980Y143927D01*
X764956Y143829D01*
X764928Y143732D01*
X764896Y143635D01*
X764861Y143540D01*
X764822Y143447D01*
X764780Y143355D01*
X764734Y143264D01*
X764685Y143175D01*
X764633Y143089D01*
X764577Y143004D01*
X764519Y142921D01*
X764457Y142841D01*
X764392Y142763D01*
X764325Y142687D01*
X764255Y142614D01*
X764182Y142544D01*
X764106Y142477D01*
X764028Y142412D01*
X763948Y142350D01*
X763865Y142292D01*
X763780Y142236D01*
X763694Y142184D01*
X763605Y142135D01*
X763514Y142089D01*
X763422Y142047D01*
X763329Y142008D01*
X763234Y141973D01*
X763137Y141941D01*
X763040Y141913D01*
X762942Y141889D01*
X762843Y141868D01*
X762743Y141851D01*
X762642Y141838D01*
X762541Y141829D01*
X762440Y141823D01*
X762339Y141821D01*
X762339Y141820D02*
X757823Y141820D01*
X757823Y141821D02*
X757704Y141823D01*
X757584Y141829D01*
X757465Y141839D01*
X757347Y141853D01*
X757228Y141870D01*
X757111Y141892D01*
X756994Y141917D01*
X756879Y141947D01*
X756764Y141980D01*
X756650Y142017D01*
X756538Y142057D01*
X756427Y142102D01*
X756318Y142150D01*
X756210Y142201D01*
X756104Y142256D01*
X756000Y142315D01*
X755898Y142377D01*
X755798Y142442D01*
X755700Y142511D01*
X755604Y142583D01*
X755511Y142658D01*
X755421Y142735D01*
X755333Y142816D01*
X755248Y142900D01*
X755166Y142987D01*
X755086Y143076D01*
X755010Y143168D01*
X754936Y143262D01*
X754866Y143359D01*
X754799Y143457D01*
X754735Y143558D01*
X754675Y143662D01*
X754618Y143767D01*
X754565Y143874D01*
X754515Y143982D01*
X754469Y144092D01*
X754427Y144204D01*
X754388Y144317D01*
X754353Y144431D01*
X754322Y144546D01*
X754294Y144663D01*
X754271Y144780D01*
X754251Y144897D01*
X754235Y145016D01*
X754223Y145135D01*
X754215Y145254D01*
X754211Y145373D01*
X754211Y145493D01*
X754215Y145612D01*
X754223Y145731D01*
X754235Y145850D01*
X754251Y145969D01*
X754271Y146086D01*
X754294Y146203D01*
X754322Y146320D01*
X754353Y146435D01*
X754388Y146549D01*
X754427Y146662D01*
X754469Y146774D01*
X754515Y146884D01*
X754565Y146992D01*
X754618Y147099D01*
X754675Y147204D01*
X754735Y147308D01*
X754799Y147409D01*
X754866Y147507D01*
X754936Y147604D01*
X755010Y147698D01*
X755086Y147790D01*
X755166Y147879D01*
X755248Y147966D01*
X755333Y148050D01*
X755421Y148131D01*
X755511Y148208D01*
X755604Y148283D01*
X755700Y148355D01*
X755798Y148424D01*
X755898Y148489D01*
X756000Y148551D01*
X756104Y148610D01*
X756210Y148665D01*
X756318Y148716D01*
X756427Y148764D01*
X756538Y148809D01*
X756650Y148849D01*
X756764Y148886D01*
X756879Y148919D01*
X756994Y148949D01*
X757111Y148974D01*
X757228Y148996D01*
X757347Y149013D01*
X757465Y149027D01*
X757584Y149037D01*
X757704Y149043D01*
X757823Y149045D01*
X759629Y149045D01*
X759629Y141820D01*
X756017Y164575D02*
X756017Y169091D01*
X756016Y169091D02*
X756018Y169224D01*
X756024Y169356D01*
X756034Y169488D01*
X756047Y169620D01*
X756065Y169752D01*
X756086Y169882D01*
X756111Y170013D01*
X756140Y170142D01*
X756173Y170270D01*
X756209Y170398D01*
X756249Y170524D01*
X756293Y170649D01*
X756341Y170773D01*
X756392Y170895D01*
X756447Y171016D01*
X756505Y171135D01*
X756567Y171253D01*
X756632Y171368D01*
X756701Y171482D01*
X756772Y171593D01*
X756848Y171702D01*
X756926Y171809D01*
X757007Y171914D01*
X757092Y172016D01*
X757179Y172116D01*
X757269Y172213D01*
X757362Y172308D01*
X757458Y172399D01*
X757556Y172488D01*
X757657Y172574D01*
X757761Y172657D01*
X757867Y172737D01*
X757975Y172813D01*
X758085Y172887D01*
X758198Y172957D01*
X758312Y173024D01*
X758429Y173087D01*
X758547Y173147D01*
X758667Y173204D01*
X758789Y173257D01*
X758912Y173306D01*
X759036Y173352D01*
X759162Y173394D01*
X759289Y173432D01*
X759417Y173467D01*
X759546Y173498D01*
X759675Y173525D01*
X759806Y173548D01*
X759937Y173568D01*
X760069Y173583D01*
X760201Y173595D01*
X760333Y173603D01*
X760466Y173607D01*
X760598Y173607D01*
X760731Y173603D01*
X760863Y173595D01*
X760995Y173583D01*
X761127Y173568D01*
X761258Y173548D01*
X761389Y173525D01*
X761518Y173498D01*
X761647Y173467D01*
X761775Y173432D01*
X761902Y173394D01*
X762028Y173352D01*
X762152Y173306D01*
X762275Y173257D01*
X762397Y173204D01*
X762517Y173147D01*
X762635Y173087D01*
X762752Y173024D01*
X762866Y172957D01*
X762979Y172887D01*
X763089Y172813D01*
X763197Y172737D01*
X763303Y172657D01*
X763407Y172574D01*
X763508Y172488D01*
X763606Y172399D01*
X763702Y172308D01*
X763795Y172213D01*
X763885Y172116D01*
X763972Y172016D01*
X764057Y171914D01*
X764138Y171809D01*
X764216Y171702D01*
X764292Y171593D01*
X764363Y171482D01*
X764432Y171368D01*
X764497Y171253D01*
X764559Y171135D01*
X764617Y171016D01*
X764672Y170895D01*
X764723Y170773D01*
X764771Y170649D01*
X764815Y170524D01*
X764855Y170398D01*
X764891Y170270D01*
X764924Y170142D01*
X764953Y170013D01*
X764978Y169882D01*
X764999Y169752D01*
X765017Y169620D01*
X765030Y169488D01*
X765040Y169356D01*
X765046Y169224D01*
X765048Y169091D01*
X765048Y164575D01*
X748792Y164575D01*
X748792Y169091D01*
X748794Y169210D01*
X748800Y169330D01*
X748810Y169449D01*
X748824Y169567D01*
X748841Y169686D01*
X748863Y169803D01*
X748888Y169920D01*
X748918Y170035D01*
X748951Y170150D01*
X748988Y170264D01*
X749028Y170376D01*
X749073Y170487D01*
X749121Y170596D01*
X749172Y170704D01*
X749227Y170810D01*
X749286Y170914D01*
X749348Y171016D01*
X749413Y171116D01*
X749482Y171214D01*
X749554Y171310D01*
X749629Y171403D01*
X749706Y171493D01*
X749787Y171581D01*
X749871Y171666D01*
X749958Y171748D01*
X750047Y171828D01*
X750139Y171904D01*
X750233Y171978D01*
X750330Y172048D01*
X750428Y172115D01*
X750529Y172179D01*
X750633Y172239D01*
X750738Y172296D01*
X750845Y172349D01*
X750953Y172399D01*
X751063Y172445D01*
X751175Y172487D01*
X751288Y172526D01*
X751402Y172561D01*
X751517Y172592D01*
X751634Y172620D01*
X751751Y172643D01*
X751868Y172663D01*
X751987Y172679D01*
X752106Y172691D01*
X752225Y172699D01*
X752344Y172703D01*
X752464Y172703D01*
X752583Y172699D01*
X752702Y172691D01*
X752821Y172679D01*
X752940Y172663D01*
X753057Y172643D01*
X753174Y172620D01*
X753291Y172592D01*
X753406Y172561D01*
X753520Y172526D01*
X753633Y172487D01*
X753745Y172445D01*
X753855Y172399D01*
X753963Y172349D01*
X754070Y172296D01*
X754175Y172239D01*
X754279Y172179D01*
X754380Y172115D01*
X754478Y172048D01*
X754575Y171978D01*
X754669Y171904D01*
X754761Y171828D01*
X754850Y171748D01*
X754937Y171666D01*
X755021Y171581D01*
X755102Y171493D01*
X755179Y171403D01*
X755254Y171310D01*
X755326Y171214D01*
X755395Y171116D01*
X755460Y171016D01*
X755522Y170914D01*
X755581Y170810D01*
X755636Y170704D01*
X755687Y170596D01*
X755735Y170487D01*
X755780Y170376D01*
X755820Y170264D01*
X755857Y170150D01*
X755890Y170035D01*
X755920Y169920D01*
X755945Y169803D01*
X755967Y169686D01*
X755984Y169567D01*
X755998Y169449D01*
X756008Y169330D01*
X756014Y169210D01*
X756016Y169091D01*
X757823Y179335D02*
X761436Y179335D01*
X757823Y179336D02*
X757704Y179338D01*
X757584Y179344D01*
X757465Y179354D01*
X757347Y179368D01*
X757228Y179385D01*
X757111Y179407D01*
X756994Y179432D01*
X756879Y179462D01*
X756764Y179495D01*
X756650Y179532D01*
X756538Y179572D01*
X756427Y179617D01*
X756318Y179665D01*
X756210Y179716D01*
X756104Y179771D01*
X756000Y179830D01*
X755898Y179892D01*
X755798Y179957D01*
X755700Y180026D01*
X755604Y180098D01*
X755511Y180173D01*
X755421Y180250D01*
X755333Y180331D01*
X755248Y180415D01*
X755166Y180502D01*
X755086Y180591D01*
X755010Y180683D01*
X754936Y180777D01*
X754866Y180874D01*
X754799Y180972D01*
X754735Y181073D01*
X754675Y181177D01*
X754618Y181282D01*
X754565Y181389D01*
X754515Y181497D01*
X754469Y181607D01*
X754427Y181719D01*
X754388Y181832D01*
X754353Y181946D01*
X754322Y182061D01*
X754294Y182178D01*
X754271Y182295D01*
X754251Y182412D01*
X754235Y182531D01*
X754223Y182650D01*
X754215Y182769D01*
X754211Y182888D01*
X754211Y183008D01*
X754215Y183127D01*
X754223Y183246D01*
X754235Y183365D01*
X754251Y183484D01*
X754271Y183601D01*
X754294Y183718D01*
X754322Y183835D01*
X754353Y183950D01*
X754388Y184064D01*
X754427Y184177D01*
X754469Y184289D01*
X754515Y184399D01*
X754565Y184507D01*
X754618Y184614D01*
X754675Y184719D01*
X754735Y184823D01*
X754799Y184924D01*
X754866Y185022D01*
X754936Y185119D01*
X755010Y185213D01*
X755086Y185305D01*
X755166Y185394D01*
X755248Y185481D01*
X755333Y185565D01*
X755421Y185646D01*
X755511Y185723D01*
X755604Y185798D01*
X755700Y185870D01*
X755798Y185939D01*
X755898Y186004D01*
X756000Y186066D01*
X756104Y186125D01*
X756210Y186180D01*
X756318Y186231D01*
X756427Y186279D01*
X756538Y186324D01*
X756650Y186364D01*
X756764Y186401D01*
X756879Y186434D01*
X756994Y186464D01*
X757111Y186489D01*
X757228Y186511D01*
X757347Y186528D01*
X757465Y186542D01*
X757584Y186552D01*
X757704Y186558D01*
X757823Y186560D01*
X761436Y186560D01*
X761555Y186558D01*
X761675Y186552D01*
X761794Y186542D01*
X761912Y186528D01*
X762031Y186511D01*
X762148Y186489D01*
X762265Y186464D01*
X762380Y186434D01*
X762495Y186401D01*
X762609Y186364D01*
X762721Y186324D01*
X762832Y186279D01*
X762941Y186231D01*
X763049Y186180D01*
X763155Y186125D01*
X763259Y186066D01*
X763361Y186004D01*
X763461Y185939D01*
X763559Y185870D01*
X763655Y185798D01*
X763748Y185723D01*
X763838Y185646D01*
X763926Y185565D01*
X764011Y185481D01*
X764093Y185394D01*
X764173Y185305D01*
X764249Y185213D01*
X764323Y185119D01*
X764393Y185022D01*
X764460Y184924D01*
X764524Y184823D01*
X764584Y184719D01*
X764641Y184614D01*
X764694Y184507D01*
X764744Y184399D01*
X764790Y184289D01*
X764832Y184177D01*
X764871Y184064D01*
X764906Y183950D01*
X764937Y183835D01*
X764965Y183718D01*
X764988Y183601D01*
X765008Y183484D01*
X765024Y183365D01*
X765036Y183246D01*
X765044Y183127D01*
X765048Y183008D01*
X765048Y182888D01*
X765044Y182769D01*
X765036Y182650D01*
X765024Y182531D01*
X765008Y182412D01*
X764988Y182295D01*
X764965Y182178D01*
X764937Y182061D01*
X764906Y181946D01*
X764871Y181832D01*
X764832Y181719D01*
X764790Y181607D01*
X764744Y181497D01*
X764694Y181389D01*
X764641Y181282D01*
X764584Y181177D01*
X764524Y181073D01*
X764460Y180972D01*
X764393Y180874D01*
X764323Y180777D01*
X764249Y180683D01*
X764173Y180591D01*
X764093Y180502D01*
X764011Y180415D01*
X763926Y180331D01*
X763838Y180250D01*
X763748Y180173D01*
X763655Y180098D01*
X763559Y180026D01*
X763461Y179957D01*
X763361Y179892D01*
X763259Y179830D01*
X763155Y179771D01*
X763049Y179716D01*
X762941Y179665D01*
X762832Y179617D01*
X762721Y179572D01*
X762609Y179532D01*
X762495Y179495D01*
X762380Y179462D01*
X762265Y179432D01*
X762148Y179407D01*
X762031Y179385D01*
X761912Y179368D01*
X761794Y179354D01*
X761675Y179344D01*
X761555Y179338D01*
X761436Y179336D01*
X758726Y195970D02*
X758726Y200034D01*
X758726Y195970D02*
X758728Y195858D01*
X758734Y195747D01*
X758744Y195636D01*
X758757Y195525D01*
X758775Y195415D01*
X758797Y195306D01*
X758822Y195197D01*
X758851Y195089D01*
X758884Y194983D01*
X758921Y194877D01*
X758961Y194773D01*
X759005Y194671D01*
X759053Y194570D01*
X759104Y194471D01*
X759159Y194373D01*
X759217Y194278D01*
X759278Y194185D01*
X759343Y194094D01*
X759411Y194005D01*
X759482Y193919D01*
X759555Y193836D01*
X759632Y193755D01*
X759712Y193676D01*
X759794Y193601D01*
X759879Y193529D01*
X759966Y193459D01*
X760056Y193393D01*
X760148Y193330D01*
X760243Y193270D01*
X760339Y193214D01*
X760437Y193161D01*
X760537Y193112D01*
X760639Y193066D01*
X760742Y193024D01*
X760847Y192985D01*
X760953Y192950D01*
X761060Y192919D01*
X761168Y192892D01*
X761277Y192868D01*
X761387Y192849D01*
X761497Y192833D01*
X761608Y192821D01*
X761720Y192813D01*
X761831Y192809D01*
X761943Y192809D01*
X762054Y192813D01*
X762166Y192821D01*
X762277Y192833D01*
X762387Y192849D01*
X762497Y192868D01*
X762606Y192892D01*
X762714Y192919D01*
X762821Y192950D01*
X762927Y192985D01*
X763032Y193024D01*
X763135Y193066D01*
X763237Y193112D01*
X763337Y193161D01*
X763435Y193214D01*
X763531Y193270D01*
X763626Y193330D01*
X763718Y193393D01*
X763808Y193459D01*
X763895Y193529D01*
X763980Y193601D01*
X764062Y193676D01*
X764142Y193755D01*
X764219Y193836D01*
X764292Y193919D01*
X764363Y194005D01*
X764431Y194094D01*
X764496Y194185D01*
X764557Y194278D01*
X764615Y194373D01*
X764670Y194471D01*
X764721Y194570D01*
X764769Y194671D01*
X764813Y194773D01*
X764853Y194877D01*
X764890Y194983D01*
X764923Y195089D01*
X764952Y195197D01*
X764977Y195306D01*
X764999Y195415D01*
X765017Y195525D01*
X765030Y195636D01*
X765040Y195747D01*
X765046Y195858D01*
X765048Y195970D01*
X765048Y200034D01*
X756920Y200034D01*
X756819Y200032D01*
X756718Y200026D01*
X756617Y200017D01*
X756516Y200004D01*
X756416Y199987D01*
X756317Y199966D01*
X756219Y199942D01*
X756122Y199914D01*
X756025Y199882D01*
X755930Y199847D01*
X755837Y199808D01*
X755745Y199766D01*
X755654Y199720D01*
X755566Y199671D01*
X755479Y199619D01*
X755394Y199563D01*
X755311Y199505D01*
X755231Y199443D01*
X755153Y199378D01*
X755077Y199311D01*
X755004Y199241D01*
X754934Y199168D01*
X754867Y199092D01*
X754802Y199014D01*
X754740Y198934D01*
X754682Y198851D01*
X754626Y198766D01*
X754574Y198680D01*
X754525Y198591D01*
X754479Y198500D01*
X754437Y198408D01*
X754398Y198315D01*
X754363Y198220D01*
X754331Y198123D01*
X754303Y198026D01*
X754279Y197928D01*
X754258Y197829D01*
X754241Y197729D01*
X754228Y197628D01*
X754219Y197527D01*
X754213Y197426D01*
X754211Y197325D01*
X754211Y193712D01*
X754211Y207556D02*
X765048Y207556D01*
X754211Y207556D02*
X754211Y212975D01*
X756017Y212975D01*
X748792Y225044D02*
X765048Y225044D01*
X765048Y220528D01*
X765046Y220427D01*
X765040Y220326D01*
X765031Y220225D01*
X765018Y220124D01*
X765001Y220024D01*
X764980Y219925D01*
X764956Y219827D01*
X764928Y219730D01*
X764896Y219633D01*
X764861Y219538D01*
X764822Y219445D01*
X764780Y219353D01*
X764734Y219262D01*
X764685Y219173D01*
X764633Y219087D01*
X764577Y219002D01*
X764519Y218919D01*
X764457Y218839D01*
X764392Y218761D01*
X764325Y218685D01*
X764255Y218612D01*
X764182Y218542D01*
X764106Y218475D01*
X764028Y218410D01*
X763948Y218348D01*
X763865Y218290D01*
X763780Y218234D01*
X763694Y218182D01*
X763605Y218133D01*
X763514Y218087D01*
X763422Y218045D01*
X763329Y218006D01*
X763234Y217971D01*
X763137Y217939D01*
X763040Y217911D01*
X762942Y217887D01*
X762843Y217866D01*
X762743Y217849D01*
X762642Y217836D01*
X762541Y217827D01*
X762440Y217821D01*
X762339Y217819D01*
X756920Y217819D01*
X756819Y217821D01*
X756718Y217827D01*
X756617Y217836D01*
X756516Y217849D01*
X756416Y217866D01*
X756317Y217887D01*
X756219Y217911D01*
X756122Y217939D01*
X756025Y217971D01*
X755930Y218006D01*
X755837Y218045D01*
X755745Y218087D01*
X755654Y218133D01*
X755566Y218182D01*
X755479Y218234D01*
X755394Y218290D01*
X755311Y218348D01*
X755231Y218410D01*
X755153Y218475D01*
X755077Y218542D01*
X755004Y218612D01*
X754934Y218685D01*
X754867Y218761D01*
X754802Y218839D01*
X754740Y218919D01*
X754682Y219002D01*
X754626Y219087D01*
X754574Y219174D01*
X754525Y219262D01*
X754479Y219353D01*
X754437Y219445D01*
X754398Y219538D01*
X754363Y219633D01*
X754331Y219730D01*
X754303Y219827D01*
X754279Y219925D01*
X754258Y220024D01*
X754241Y220124D01*
X754228Y220225D01*
X754219Y220326D01*
X754213Y220427D01*
X754211Y220528D01*
X754211Y225044D01*
X791718Y-57D02*
X775462Y-5476D01*
X775462Y5362D02*
X791718Y-57D01*
X791718Y11059D02*
X791718Y15574D01*
X791716Y15707D01*
X791710Y15839D01*
X791700Y15971D01*
X791687Y16103D01*
X791669Y16235D01*
X791648Y16365D01*
X791623Y16496D01*
X791594Y16625D01*
X791561Y16753D01*
X791525Y16881D01*
X791485Y17007D01*
X791441Y17132D01*
X791393Y17256D01*
X791342Y17378D01*
X791287Y17499D01*
X791229Y17618D01*
X791167Y17736D01*
X791102Y17851D01*
X791033Y17965D01*
X790962Y18076D01*
X790886Y18185D01*
X790808Y18292D01*
X790727Y18397D01*
X790642Y18499D01*
X790555Y18599D01*
X790465Y18696D01*
X790372Y18791D01*
X790276Y18882D01*
X790178Y18971D01*
X790077Y19057D01*
X789973Y19140D01*
X789867Y19220D01*
X789759Y19296D01*
X789649Y19370D01*
X789536Y19440D01*
X789422Y19507D01*
X789305Y19570D01*
X789187Y19630D01*
X789067Y19687D01*
X788945Y19740D01*
X788822Y19789D01*
X788698Y19835D01*
X788572Y19877D01*
X788445Y19915D01*
X788317Y19950D01*
X788188Y19981D01*
X788059Y20008D01*
X787928Y20031D01*
X787797Y20051D01*
X787665Y20066D01*
X787533Y20078D01*
X787401Y20086D01*
X787268Y20090D01*
X787136Y20090D01*
X787003Y20086D01*
X786871Y20078D01*
X786739Y20066D01*
X786607Y20051D01*
X786476Y20031D01*
X786345Y20008D01*
X786216Y19981D01*
X786087Y19950D01*
X785959Y19915D01*
X785832Y19877D01*
X785706Y19835D01*
X785582Y19789D01*
X785459Y19740D01*
X785337Y19687D01*
X785217Y19630D01*
X785099Y19570D01*
X784982Y19507D01*
X784868Y19440D01*
X784755Y19370D01*
X784645Y19296D01*
X784537Y19220D01*
X784431Y19140D01*
X784327Y19057D01*
X784226Y18971D01*
X784128Y18882D01*
X784032Y18791D01*
X783939Y18696D01*
X783849Y18599D01*
X783762Y18499D01*
X783677Y18397D01*
X783596Y18292D01*
X783518Y18185D01*
X783442Y18076D01*
X783371Y17965D01*
X783302Y17851D01*
X783237Y17736D01*
X783175Y17618D01*
X783117Y17499D01*
X783062Y17378D01*
X783011Y17256D01*
X782963Y17132D01*
X782919Y17007D01*
X782879Y16881D01*
X782843Y16753D01*
X782810Y16625D01*
X782781Y16496D01*
X782756Y16365D01*
X782735Y16235D01*
X782717Y16103D01*
X782704Y15971D01*
X782694Y15839D01*
X782688Y15707D01*
X782686Y15574D01*
X775462Y16477D02*
X775462Y11059D01*
X775462Y16477D02*
X775464Y16596D01*
X775470Y16716D01*
X775480Y16835D01*
X775494Y16953D01*
X775511Y17072D01*
X775533Y17189D01*
X775558Y17306D01*
X775588Y17421D01*
X775621Y17536D01*
X775658Y17650D01*
X775698Y17762D01*
X775743Y17873D01*
X775791Y17982D01*
X775842Y18090D01*
X775897Y18196D01*
X775956Y18300D01*
X776018Y18402D01*
X776083Y18502D01*
X776152Y18600D01*
X776224Y18696D01*
X776299Y18789D01*
X776376Y18879D01*
X776457Y18967D01*
X776541Y19052D01*
X776628Y19134D01*
X776717Y19214D01*
X776809Y19290D01*
X776903Y19364D01*
X777000Y19434D01*
X777098Y19501D01*
X777199Y19565D01*
X777303Y19625D01*
X777408Y19682D01*
X777515Y19735D01*
X777623Y19785D01*
X777733Y19831D01*
X777845Y19873D01*
X777958Y19912D01*
X778072Y19947D01*
X778187Y19978D01*
X778304Y20006D01*
X778421Y20029D01*
X778538Y20049D01*
X778657Y20065D01*
X778776Y20077D01*
X778895Y20085D01*
X779014Y20089D01*
X779134Y20089D01*
X779253Y20085D01*
X779372Y20077D01*
X779491Y20065D01*
X779610Y20049D01*
X779727Y20029D01*
X779844Y20006D01*
X779961Y19978D01*
X780076Y19947D01*
X780190Y19912D01*
X780303Y19873D01*
X780415Y19831D01*
X780525Y19785D01*
X780633Y19735D01*
X780740Y19682D01*
X780845Y19625D01*
X780949Y19565D01*
X781050Y19501D01*
X781148Y19434D01*
X781245Y19364D01*
X781339Y19290D01*
X781431Y19214D01*
X781520Y19134D01*
X781607Y19052D01*
X781691Y18967D01*
X781772Y18879D01*
X781849Y18789D01*
X781924Y18696D01*
X781996Y18600D01*
X782065Y18502D01*
X782130Y18402D01*
X782192Y18300D01*
X782251Y18196D01*
X782306Y18090D01*
X782357Y17982D01*
X782405Y17873D01*
X782450Y17762D01*
X782490Y17650D01*
X782527Y17536D01*
X782560Y17421D01*
X782590Y17306D01*
X782615Y17189D01*
X782637Y17072D01*
X782654Y16953D01*
X782668Y16835D01*
X782678Y16716D01*
X782684Y16596D01*
X782686Y16477D01*
X782687Y16477D02*
X782687Y12865D01*
D10*
X70908Y175740D02*
X64643Y175740D01*
X67776Y172607D02*
X67776Y178872D01*
X91313Y177010D02*
X97578Y177010D01*
D12*
X128016Y325120D02*
X128016Y337820D01*
X134366Y344170D01*
X147066Y344170D02*
X153416Y337820D01*
X134366Y344170D02*
X128016Y350520D01*
X128016Y363220D01*
X134366Y369570D01*
X147066Y369570D02*
X153416Y363220D01*
X153416Y350520D01*
X147066Y344170D01*
X147066Y318770D02*
X134366Y318770D01*
X128016Y325120D01*
X147066Y318770D02*
X153416Y325120D01*
X153416Y337820D01*
X147066Y369570D02*
X134366Y369570D01*
D13*
X125039Y321014D02*
X121285Y321014D01*
X125039Y321013D02*
X125104Y321011D01*
X125168Y321005D01*
X125232Y320995D01*
X125296Y320982D01*
X125358Y320964D01*
X125419Y320943D01*
X125479Y320919D01*
X125537Y320890D01*
X125594Y320858D01*
X125648Y320823D01*
X125700Y320785D01*
X125750Y320743D01*
X125797Y320699D01*
X125841Y320652D01*
X125883Y320602D01*
X125921Y320550D01*
X125956Y320496D01*
X125988Y320439D01*
X126017Y320381D01*
X126041Y320321D01*
X126062Y320260D01*
X126080Y320198D01*
X126093Y320134D01*
X126103Y320070D01*
X126109Y320006D01*
X126111Y319941D01*
X126111Y319405D01*
X122357Y323962D02*
X121285Y325302D01*
X126111Y325302D01*
X126111Y323962D02*
X126111Y326643D01*
X160401Y321550D02*
X160401Y320477D01*
X160399Y320412D01*
X160393Y320348D01*
X160383Y320284D01*
X160370Y320220D01*
X160352Y320158D01*
X160331Y320097D01*
X160307Y320037D01*
X160278Y319979D01*
X160246Y319922D01*
X160211Y319868D01*
X160173Y319816D01*
X160131Y319766D01*
X160087Y319719D01*
X160040Y319675D01*
X159990Y319633D01*
X159938Y319595D01*
X159884Y319560D01*
X159827Y319528D01*
X159769Y319499D01*
X159709Y319475D01*
X159648Y319454D01*
X159586Y319436D01*
X159522Y319423D01*
X159458Y319413D01*
X159394Y319407D01*
X159329Y319405D01*
X156647Y319405D01*
X156582Y319407D01*
X156518Y319413D01*
X156454Y319423D01*
X156390Y319436D01*
X156328Y319454D01*
X156267Y319475D01*
X156207Y319500D01*
X156148Y319528D01*
X156092Y319560D01*
X156037Y319595D01*
X155985Y319633D01*
X155935Y319675D01*
X155888Y319719D01*
X155844Y319766D01*
X155802Y319816D01*
X155764Y319868D01*
X155729Y319923D01*
X155697Y319979D01*
X155669Y320038D01*
X155644Y320097D01*
X155623Y320159D01*
X155605Y320221D01*
X155592Y320285D01*
X155582Y320349D01*
X155576Y320413D01*
X155574Y320478D01*
X155575Y320477D02*
X155575Y321550D01*
D12*
X127254Y175260D02*
X127254Y162560D01*
X127254Y175260D02*
X133604Y181610D01*
X146304Y181610D02*
X152654Y175260D01*
X133604Y181610D02*
X127254Y187960D01*
X127254Y200660D01*
X133604Y207010D01*
X146304Y207010D02*
X152654Y200660D01*
X152654Y187960D01*
X146304Y181610D01*
X146304Y156210D02*
X133604Y156210D01*
X127254Y162560D01*
X146304Y156210D02*
X152654Y162560D01*
X152654Y175260D01*
X146304Y207010D02*
X133604Y207010D01*
D13*
X124277Y158454D02*
X120523Y158454D01*
X124277Y158453D02*
X124342Y158451D01*
X124406Y158445D01*
X124470Y158435D01*
X124534Y158422D01*
X124596Y158404D01*
X124657Y158383D01*
X124717Y158359D01*
X124775Y158330D01*
X124832Y158298D01*
X124886Y158263D01*
X124938Y158225D01*
X124988Y158183D01*
X125035Y158139D01*
X125079Y158092D01*
X125121Y158042D01*
X125159Y157990D01*
X125194Y157936D01*
X125226Y157879D01*
X125255Y157821D01*
X125279Y157761D01*
X125300Y157700D01*
X125318Y157638D01*
X125331Y157574D01*
X125341Y157510D01*
X125347Y157446D01*
X125349Y157381D01*
X125349Y156845D01*
X120523Y162876D02*
X120525Y162944D01*
X120531Y163011D01*
X120540Y163078D01*
X120553Y163145D01*
X120570Y163210D01*
X120591Y163275D01*
X120615Y163338D01*
X120643Y163400D01*
X120674Y163460D01*
X120708Y163518D01*
X120746Y163574D01*
X120786Y163629D01*
X120830Y163680D01*
X120877Y163729D01*
X120926Y163776D01*
X120977Y163820D01*
X121032Y163860D01*
X121088Y163898D01*
X121146Y163932D01*
X121206Y163963D01*
X121268Y163991D01*
X121331Y164015D01*
X121396Y164036D01*
X121461Y164053D01*
X121528Y164066D01*
X121595Y164075D01*
X121662Y164081D01*
X121730Y164083D01*
X120523Y162876D02*
X120525Y162798D01*
X120531Y162720D01*
X120541Y162643D01*
X120554Y162566D01*
X120572Y162490D01*
X120593Y162415D01*
X120618Y162341D01*
X120647Y162269D01*
X120679Y162198D01*
X120715Y162129D01*
X120754Y162061D01*
X120797Y161996D01*
X120843Y161933D01*
X120892Y161872D01*
X120944Y161814D01*
X120999Y161759D01*
X121056Y161706D01*
X121116Y161657D01*
X121179Y161610D01*
X121244Y161567D01*
X121310Y161527D01*
X121379Y161490D01*
X121450Y161457D01*
X121522Y161427D01*
X121596Y161401D01*
X122668Y163681D02*
X122619Y163730D01*
X122567Y163777D01*
X122512Y163820D01*
X122455Y163861D01*
X122396Y163899D01*
X122335Y163933D01*
X122272Y163964D01*
X122208Y163992D01*
X122142Y164016D01*
X122076Y164036D01*
X122008Y164053D01*
X121939Y164066D01*
X121870Y164075D01*
X121800Y164081D01*
X121730Y164083D01*
X122668Y163681D02*
X125349Y161402D01*
X125349Y164083D01*
X154813Y156845D02*
X159639Y156845D01*
X159639Y159526D02*
X154813Y156845D01*
X154813Y159526D02*
X159639Y159526D01*
X159639Y163558D02*
X159639Y164630D01*
X159639Y163558D02*
X159637Y163493D01*
X159631Y163429D01*
X159621Y163365D01*
X159608Y163301D01*
X159590Y163239D01*
X159569Y163178D01*
X159545Y163118D01*
X159516Y163060D01*
X159484Y163003D01*
X159449Y162949D01*
X159411Y162897D01*
X159369Y162847D01*
X159325Y162800D01*
X159278Y162756D01*
X159228Y162714D01*
X159176Y162676D01*
X159122Y162641D01*
X159065Y162609D01*
X159007Y162580D01*
X158947Y162556D01*
X158886Y162535D01*
X158824Y162517D01*
X158760Y162504D01*
X158696Y162494D01*
X158632Y162488D01*
X158567Y162486D01*
X155885Y162486D01*
X155885Y162485D02*
X155820Y162487D01*
X155756Y162493D01*
X155692Y162503D01*
X155628Y162516D01*
X155566Y162534D01*
X155505Y162555D01*
X155445Y162580D01*
X155386Y162608D01*
X155330Y162640D01*
X155275Y162675D01*
X155223Y162713D01*
X155173Y162755D01*
X155126Y162799D01*
X155082Y162846D01*
X155040Y162896D01*
X155002Y162948D01*
X154967Y163003D01*
X154935Y163059D01*
X154907Y163118D01*
X154882Y163177D01*
X154861Y163239D01*
X154843Y163301D01*
X154830Y163365D01*
X154820Y163429D01*
X154814Y163493D01*
X154812Y163558D01*
X154813Y163558D02*
X154813Y164630D01*
D12*
X127508Y248920D02*
X127508Y261620D01*
X133858Y267970D01*
X146558Y267970D02*
X152908Y261620D01*
X133858Y267970D02*
X127508Y274320D01*
X127508Y287020D01*
X133858Y293370D01*
X146558Y293370D02*
X152908Y287020D01*
X152908Y274320D01*
X146558Y267970D01*
X146558Y242570D02*
X133858Y242570D01*
X127508Y248920D01*
X146558Y242570D02*
X152908Y248920D01*
X152908Y261620D01*
X146558Y293370D02*
X133858Y293370D01*
D13*
X124531Y244814D02*
X120777Y244814D01*
X124531Y244813D02*
X124596Y244811D01*
X124660Y244805D01*
X124724Y244795D01*
X124788Y244782D01*
X124850Y244764D01*
X124911Y244743D01*
X124971Y244719D01*
X125029Y244690D01*
X125086Y244658D01*
X125140Y244623D01*
X125192Y244585D01*
X125242Y244543D01*
X125289Y244499D01*
X125333Y244452D01*
X125375Y244402D01*
X125413Y244350D01*
X125448Y244296D01*
X125480Y244239D01*
X125509Y244181D01*
X125533Y244121D01*
X125554Y244060D01*
X125572Y243998D01*
X125585Y243934D01*
X125595Y243870D01*
X125601Y243806D01*
X125603Y243741D01*
X125603Y243205D01*
X125603Y247762D02*
X125603Y249102D01*
X125601Y249173D01*
X125595Y249245D01*
X125586Y249315D01*
X125573Y249385D01*
X125556Y249455D01*
X125535Y249523D01*
X125511Y249590D01*
X125483Y249656D01*
X125452Y249720D01*
X125417Y249783D01*
X125379Y249843D01*
X125338Y249902D01*
X125294Y249958D01*
X125247Y250012D01*
X125198Y250063D01*
X125145Y250111D01*
X125090Y250157D01*
X125033Y250199D01*
X124973Y250239D01*
X124912Y250275D01*
X124848Y250308D01*
X124783Y250337D01*
X124717Y250363D01*
X124649Y250386D01*
X124580Y250405D01*
X124510Y250420D01*
X124440Y250431D01*
X124369Y250439D01*
X124298Y250443D01*
X124226Y250443D01*
X124155Y250439D01*
X124084Y250431D01*
X124014Y250420D01*
X123944Y250405D01*
X123875Y250386D01*
X123807Y250363D01*
X123741Y250337D01*
X123676Y250308D01*
X123612Y250275D01*
X123551Y250239D01*
X123491Y250199D01*
X123434Y250157D01*
X123379Y250111D01*
X123326Y250063D01*
X123277Y250012D01*
X123230Y249958D01*
X123186Y249902D01*
X123145Y249843D01*
X123107Y249783D01*
X123072Y249720D01*
X123041Y249656D01*
X123013Y249590D01*
X122989Y249523D01*
X122968Y249455D01*
X122951Y249385D01*
X122938Y249315D01*
X122929Y249245D01*
X122923Y249173D01*
X122921Y249102D01*
X120777Y249370D02*
X120777Y247762D01*
X120777Y249370D02*
X120779Y249435D01*
X120785Y249499D01*
X120795Y249563D01*
X120808Y249627D01*
X120826Y249689D01*
X120847Y249750D01*
X120871Y249810D01*
X120900Y249868D01*
X120932Y249925D01*
X120967Y249979D01*
X121005Y250031D01*
X121047Y250081D01*
X121091Y250128D01*
X121138Y250172D01*
X121188Y250214D01*
X121240Y250252D01*
X121294Y250287D01*
X121351Y250319D01*
X121409Y250348D01*
X121469Y250372D01*
X121530Y250393D01*
X121592Y250411D01*
X121656Y250424D01*
X121720Y250434D01*
X121784Y250440D01*
X121849Y250442D01*
X121914Y250440D01*
X121978Y250434D01*
X122042Y250424D01*
X122106Y250411D01*
X122168Y250393D01*
X122229Y250372D01*
X122289Y250348D01*
X122347Y250319D01*
X122404Y250287D01*
X122458Y250252D01*
X122510Y250214D01*
X122560Y250172D01*
X122607Y250128D01*
X122651Y250081D01*
X122693Y250031D01*
X122731Y249979D01*
X122766Y249925D01*
X122798Y249868D01*
X122827Y249810D01*
X122851Y249750D01*
X122872Y249689D01*
X122890Y249627D01*
X122903Y249563D01*
X122913Y249499D01*
X122919Y249435D01*
X122921Y249370D01*
X122922Y249370D02*
X122922Y248298D01*
X155067Y243205D02*
X159893Y243205D01*
X159893Y245886D02*
X155067Y243205D01*
X155067Y245886D02*
X159893Y245886D01*
X158552Y248874D02*
X156408Y248874D01*
X156337Y248876D01*
X156265Y248882D01*
X156195Y248891D01*
X156125Y248904D01*
X156055Y248921D01*
X155987Y248942D01*
X155920Y248966D01*
X155854Y248994D01*
X155790Y249025D01*
X155727Y249060D01*
X155667Y249098D01*
X155608Y249139D01*
X155552Y249183D01*
X155498Y249230D01*
X155447Y249279D01*
X155399Y249332D01*
X155353Y249387D01*
X155311Y249444D01*
X155271Y249504D01*
X155235Y249565D01*
X155202Y249629D01*
X155173Y249694D01*
X155147Y249760D01*
X155124Y249828D01*
X155105Y249897D01*
X155090Y249967D01*
X155079Y250037D01*
X155071Y250108D01*
X155067Y250179D01*
X155067Y250251D01*
X155071Y250322D01*
X155079Y250393D01*
X155090Y250463D01*
X155105Y250533D01*
X155124Y250602D01*
X155147Y250670D01*
X155173Y250736D01*
X155202Y250801D01*
X155235Y250865D01*
X155271Y250926D01*
X155311Y250986D01*
X155353Y251043D01*
X155399Y251098D01*
X155447Y251151D01*
X155498Y251200D01*
X155552Y251247D01*
X155608Y251291D01*
X155667Y251332D01*
X155727Y251370D01*
X155790Y251405D01*
X155854Y251436D01*
X155920Y251464D01*
X155987Y251488D01*
X156055Y251509D01*
X156125Y251526D01*
X156195Y251539D01*
X156265Y251548D01*
X156337Y251554D01*
X156408Y251556D01*
X156408Y251555D02*
X158552Y251555D01*
X158552Y251556D02*
X158623Y251554D01*
X158695Y251548D01*
X158765Y251539D01*
X158835Y251526D01*
X158905Y251509D01*
X158973Y251488D01*
X159040Y251464D01*
X159106Y251436D01*
X159170Y251405D01*
X159233Y251370D01*
X159293Y251332D01*
X159352Y251291D01*
X159408Y251247D01*
X159462Y251200D01*
X159513Y251151D01*
X159561Y251098D01*
X159607Y251043D01*
X159649Y250986D01*
X159689Y250926D01*
X159725Y250865D01*
X159758Y250801D01*
X159787Y250736D01*
X159813Y250670D01*
X159836Y250602D01*
X159855Y250533D01*
X159870Y250463D01*
X159881Y250393D01*
X159889Y250322D01*
X159893Y250251D01*
X159893Y250179D01*
X159889Y250108D01*
X159881Y250037D01*
X159870Y249967D01*
X159855Y249897D01*
X159836Y249828D01*
X159813Y249760D01*
X159787Y249694D01*
X159758Y249629D01*
X159725Y249565D01*
X159689Y249504D01*
X159649Y249444D01*
X159607Y249387D01*
X159561Y249332D01*
X159513Y249279D01*
X159462Y249230D01*
X159408Y249183D01*
X159352Y249139D01*
X159293Y249098D01*
X159233Y249060D01*
X159170Y249025D01*
X159106Y248994D01*
X159040Y248966D01*
X158973Y248942D01*
X158905Y248921D01*
X158835Y248904D01*
X158765Y248891D01*
X158695Y248882D01*
X158623Y248876D01*
X158552Y248874D01*
D14*
X218620Y181788D02*
X240620Y181788D01*
X268620Y181788D01*
X190620Y181788D02*
X179620Y181788D01*
X190620Y181788D02*
X218620Y181788D01*
X340620Y181788D02*
X368620Y181788D01*
X290620Y181788D02*
X268620Y181788D01*
X290620Y181788D02*
X318620Y181788D01*
X189620Y297788D02*
X189620Y301788D01*
X369620Y301788D02*
X369620Y297788D01*
X200620Y297788D02*
X189620Y297788D01*
X200620Y297788D02*
X208620Y297788D01*
X219620Y297788D01*
X239620Y297788D01*
X250620Y297788D01*
X258620Y297788D01*
X269620Y297788D01*
X289620Y297788D01*
X300620Y297788D01*
X308620Y297788D01*
X319620Y297788D01*
X339620Y297788D01*
X350620Y297788D01*
X358620Y297788D01*
X369620Y297788D01*
X289620Y297788D02*
X289620Y301788D01*
X269620Y301788D02*
X269620Y297788D01*
X269620Y268788D01*
X269620Y265788D01*
X239620Y268788D02*
X239620Y297788D01*
X239620Y268788D02*
X239620Y265788D01*
X239620Y297788D02*
X239620Y301788D01*
X219620Y301788D02*
X219620Y297788D01*
X219620Y268788D01*
X219620Y265788D01*
X189620Y268788D02*
X189620Y297788D01*
X189620Y268788D02*
X189620Y265788D01*
X289620Y265788D02*
X289620Y268788D01*
X289620Y297788D01*
X319620Y268788D02*
X319620Y265788D01*
X319620Y268788D02*
X319620Y297788D01*
X319620Y301788D01*
X339620Y301788D02*
X339620Y297788D01*
X339620Y268788D01*
X339620Y265788D01*
X369620Y265788D02*
X369620Y268788D01*
X369620Y297788D01*
X358620Y297788D02*
X358620Y299788D01*
X350620Y299788D02*
X350620Y297788D01*
X356620Y301788D02*
X356707Y301786D01*
X356794Y301780D01*
X356881Y301771D01*
X356967Y301758D01*
X357053Y301741D01*
X357138Y301720D01*
X357221Y301695D01*
X357304Y301667D01*
X357385Y301636D01*
X357465Y301601D01*
X357543Y301562D01*
X357620Y301520D01*
X357695Y301475D01*
X357767Y301426D01*
X357838Y301375D01*
X357906Y301320D01*
X357971Y301263D01*
X358034Y301202D01*
X358095Y301139D01*
X358152Y301074D01*
X358207Y301006D01*
X358258Y300935D01*
X358307Y300863D01*
X358352Y300788D01*
X358394Y300711D01*
X358433Y300633D01*
X358468Y300553D01*
X358499Y300472D01*
X358527Y300389D01*
X358552Y300306D01*
X358573Y300221D01*
X358590Y300135D01*
X358603Y300049D01*
X358612Y299962D01*
X358618Y299875D01*
X358620Y299788D01*
X352620Y301788D02*
X352533Y301786D01*
X352446Y301780D01*
X352359Y301771D01*
X352273Y301758D01*
X352187Y301741D01*
X352102Y301720D01*
X352019Y301695D01*
X351936Y301667D01*
X351855Y301636D01*
X351775Y301601D01*
X351697Y301562D01*
X351620Y301520D01*
X351545Y301475D01*
X351473Y301426D01*
X351402Y301375D01*
X351334Y301320D01*
X351269Y301263D01*
X351206Y301202D01*
X351145Y301139D01*
X351088Y301074D01*
X351033Y301006D01*
X350982Y300935D01*
X350933Y300863D01*
X350888Y300788D01*
X350846Y300711D01*
X350807Y300633D01*
X350772Y300553D01*
X350741Y300472D01*
X350713Y300389D01*
X350688Y300306D01*
X350667Y300221D01*
X350650Y300135D01*
X350637Y300049D01*
X350628Y299962D01*
X350622Y299875D01*
X350620Y299788D01*
X308620Y299788D02*
X308620Y297788D01*
X300620Y297788D02*
X300620Y299788D01*
X306620Y301788D02*
X306707Y301786D01*
X306794Y301780D01*
X306881Y301771D01*
X306967Y301758D01*
X307053Y301741D01*
X307138Y301720D01*
X307221Y301695D01*
X307304Y301667D01*
X307385Y301636D01*
X307465Y301601D01*
X307543Y301562D01*
X307620Y301520D01*
X307695Y301475D01*
X307767Y301426D01*
X307838Y301375D01*
X307906Y301320D01*
X307971Y301263D01*
X308034Y301202D01*
X308095Y301139D01*
X308152Y301074D01*
X308207Y301006D01*
X308258Y300935D01*
X308307Y300863D01*
X308352Y300788D01*
X308394Y300711D01*
X308433Y300633D01*
X308468Y300553D01*
X308499Y300472D01*
X308527Y300389D01*
X308552Y300306D01*
X308573Y300221D01*
X308590Y300135D01*
X308603Y300049D01*
X308612Y299962D01*
X308618Y299875D01*
X308620Y299788D01*
X302620Y301788D02*
X302533Y301786D01*
X302446Y301780D01*
X302359Y301771D01*
X302273Y301758D01*
X302187Y301741D01*
X302102Y301720D01*
X302019Y301695D01*
X301936Y301667D01*
X301855Y301636D01*
X301775Y301601D01*
X301697Y301562D01*
X301620Y301520D01*
X301545Y301475D01*
X301473Y301426D01*
X301402Y301375D01*
X301334Y301320D01*
X301269Y301263D01*
X301206Y301202D01*
X301145Y301139D01*
X301088Y301074D01*
X301033Y301006D01*
X300982Y300935D01*
X300933Y300863D01*
X300888Y300788D01*
X300846Y300711D01*
X300807Y300633D01*
X300772Y300553D01*
X300741Y300472D01*
X300713Y300389D01*
X300688Y300306D01*
X300667Y300221D01*
X300650Y300135D01*
X300637Y300049D01*
X300628Y299962D01*
X300622Y299875D01*
X300620Y299788D01*
X258620Y299788D02*
X258620Y297788D01*
X250620Y297788D02*
X250620Y299788D01*
X256620Y301788D02*
X256707Y301786D01*
X256794Y301780D01*
X256881Y301771D01*
X256967Y301758D01*
X257053Y301741D01*
X257138Y301720D01*
X257221Y301695D01*
X257304Y301667D01*
X257385Y301636D01*
X257465Y301601D01*
X257543Y301562D01*
X257620Y301520D01*
X257695Y301475D01*
X257767Y301426D01*
X257838Y301375D01*
X257906Y301320D01*
X257971Y301263D01*
X258034Y301202D01*
X258095Y301139D01*
X258152Y301074D01*
X258207Y301006D01*
X258258Y300935D01*
X258307Y300863D01*
X258352Y300788D01*
X258394Y300711D01*
X258433Y300633D01*
X258468Y300553D01*
X258499Y300472D01*
X258527Y300389D01*
X258552Y300306D01*
X258573Y300221D01*
X258590Y300135D01*
X258603Y300049D01*
X258612Y299962D01*
X258618Y299875D01*
X258620Y299788D01*
X252620Y301788D02*
X252533Y301786D01*
X252446Y301780D01*
X252359Y301771D01*
X252273Y301758D01*
X252187Y301741D01*
X252102Y301720D01*
X252019Y301695D01*
X251936Y301667D01*
X251855Y301636D01*
X251775Y301601D01*
X251697Y301562D01*
X251620Y301520D01*
X251545Y301475D01*
X251473Y301426D01*
X251402Y301375D01*
X251334Y301320D01*
X251269Y301263D01*
X251206Y301202D01*
X251145Y301139D01*
X251088Y301074D01*
X251033Y301006D01*
X250982Y300935D01*
X250933Y300863D01*
X250888Y300788D01*
X250846Y300711D01*
X250807Y300633D01*
X250772Y300553D01*
X250741Y300472D01*
X250713Y300389D01*
X250688Y300306D01*
X250667Y300221D01*
X250650Y300135D01*
X250637Y300049D01*
X250628Y299962D01*
X250622Y299875D01*
X250620Y299788D01*
X208620Y299788D02*
X208620Y297788D01*
X200620Y297788D02*
X200620Y299788D01*
X206620Y301788D02*
X206707Y301786D01*
X206794Y301780D01*
X206881Y301771D01*
X206967Y301758D01*
X207053Y301741D01*
X207138Y301720D01*
X207221Y301695D01*
X207304Y301667D01*
X207385Y301636D01*
X207465Y301601D01*
X207543Y301562D01*
X207620Y301520D01*
X207695Y301475D01*
X207767Y301426D01*
X207838Y301375D01*
X207906Y301320D01*
X207971Y301263D01*
X208034Y301202D01*
X208095Y301139D01*
X208152Y301074D01*
X208207Y301006D01*
X208258Y300935D01*
X208307Y300863D01*
X208352Y300788D01*
X208394Y300711D01*
X208433Y300633D01*
X208468Y300553D01*
X208499Y300472D01*
X208527Y300389D01*
X208552Y300306D01*
X208573Y300221D01*
X208590Y300135D01*
X208603Y300049D01*
X208612Y299962D01*
X208618Y299875D01*
X208620Y299788D01*
X202620Y301788D02*
X202533Y301786D01*
X202446Y301780D01*
X202359Y301771D01*
X202273Y301758D01*
X202187Y301741D01*
X202102Y301720D01*
X202019Y301695D01*
X201936Y301667D01*
X201855Y301636D01*
X201775Y301601D01*
X201697Y301562D01*
X201620Y301520D01*
X201545Y301475D01*
X201473Y301426D01*
X201402Y301375D01*
X201334Y301320D01*
X201269Y301263D01*
X201206Y301202D01*
X201145Y301139D01*
X201088Y301074D01*
X201033Y301006D01*
X200982Y300935D01*
X200933Y300863D01*
X200888Y300788D01*
X200846Y300711D01*
X200807Y300633D01*
X200772Y300553D01*
X200741Y300472D01*
X200713Y300389D01*
X200688Y300306D01*
X200667Y300221D01*
X200650Y300135D01*
X200637Y300049D01*
X200628Y299962D01*
X200622Y299875D01*
X200620Y299788D01*
X179620Y196788D02*
X179620Y181788D01*
X318620Y181788D02*
X340620Y181788D01*
X368620Y181788D02*
X379620Y181788D01*
X379620Y196788D01*
X179620Y196788D01*
X179620Y211788D01*
X379620Y211788D02*
X379620Y196788D01*
X379620Y211788D02*
X179620Y211788D01*
X179620Y265788D02*
X179620Y301788D01*
X179620Y265788D02*
X179620Y211788D01*
X379620Y265788D02*
X379620Y301788D01*
X379620Y265788D02*
X379620Y211788D01*
X379620Y301788D02*
X179620Y301788D01*
X375644Y265788D02*
X379620Y265788D01*
X375644Y265788D02*
X371145Y265788D01*
X369620Y265788D01*
X367870Y265788D01*
X341370Y265788D01*
X339620Y265788D01*
X339451Y265788D01*
X339268Y265788D01*
X338094Y265788D01*
X334620Y265788D01*
X333595Y265788D01*
X325644Y265788D01*
X324620Y265788D01*
X321145Y265788D01*
X319971Y265788D01*
X319788Y265788D01*
X319620Y265788D01*
X317870Y265788D01*
X291370Y265788D01*
X289620Y265788D01*
X289451Y265788D01*
X289268Y265788D01*
X288094Y265788D01*
X284620Y265788D01*
X274620Y265788D01*
X271145Y265788D01*
X269971Y265788D01*
X269788Y265788D01*
X269620Y265788D01*
X267870Y265788D01*
X241370Y265788D01*
X239620Y265788D01*
X239451Y265788D01*
X239268Y265788D01*
X238094Y265788D01*
X234620Y265788D01*
X225644Y265788D01*
X224620Y265788D01*
X221145Y265788D01*
X219971Y265788D01*
X219788Y265788D01*
X219620Y265788D01*
X217870Y265788D01*
X191370Y265788D01*
X189620Y265788D01*
X188094Y265788D01*
X183595Y265788D01*
X179620Y265788D01*
D13*
X685620Y246544D02*
X685620Y-23456D01*
X685620Y246544D02*
X696620Y246544D01*
X696620Y-23456D01*
X685620Y-23456D01*
D15*
X668919Y2408D02*
X657235Y2408D01*
X657235Y8899D02*
X664375Y2408D01*
X661779Y5004D02*
X668919Y8899D01*
X659831Y13288D02*
X657235Y16533D01*
X668919Y16533D01*
X668919Y13288D02*
X668919Y19779D01*
X709455Y-23669D02*
X709455Y-27564D01*
X709455Y-23669D02*
X709457Y-23570D01*
X709463Y-23470D01*
X709472Y-23371D01*
X709485Y-23273D01*
X709502Y-23175D01*
X709523Y-23077D01*
X709548Y-22981D01*
X709576Y-22886D01*
X709608Y-22792D01*
X709643Y-22699D01*
X709682Y-22607D01*
X709725Y-22517D01*
X709770Y-22429D01*
X709820Y-22342D01*
X709872Y-22258D01*
X709928Y-22175D01*
X709986Y-22095D01*
X710048Y-22017D01*
X710113Y-21942D01*
X710181Y-21869D01*
X710251Y-21799D01*
X710324Y-21731D01*
X710399Y-21666D01*
X710477Y-21604D01*
X710557Y-21546D01*
X710640Y-21490D01*
X710724Y-21438D01*
X710811Y-21388D01*
X710899Y-21343D01*
X710989Y-21300D01*
X711081Y-21261D01*
X711174Y-21226D01*
X711268Y-21194D01*
X711363Y-21166D01*
X711459Y-21141D01*
X711557Y-21120D01*
X711655Y-21103D01*
X711753Y-21090D01*
X711852Y-21081D01*
X711952Y-21075D01*
X712051Y-21073D01*
X712700Y-21073D01*
X712700Y-21072D02*
X712813Y-21074D01*
X712926Y-21080D01*
X713039Y-21090D01*
X713152Y-21104D01*
X713264Y-21121D01*
X713375Y-21143D01*
X713485Y-21168D01*
X713595Y-21198D01*
X713703Y-21231D01*
X713810Y-21268D01*
X713916Y-21308D01*
X714020Y-21353D01*
X714123Y-21401D01*
X714224Y-21452D01*
X714323Y-21507D01*
X714420Y-21565D01*
X714515Y-21627D01*
X714608Y-21692D01*
X714698Y-21760D01*
X714786Y-21831D01*
X714872Y-21906D01*
X714955Y-21983D01*
X715035Y-22063D01*
X715112Y-22146D01*
X715187Y-22232D01*
X715258Y-22320D01*
X715326Y-22410D01*
X715391Y-22503D01*
X715453Y-22598D01*
X715511Y-22695D01*
X715566Y-22794D01*
X715617Y-22895D01*
X715665Y-22998D01*
X715710Y-23102D01*
X715750Y-23208D01*
X715787Y-23315D01*
X715820Y-23423D01*
X715850Y-23533D01*
X715875Y-23643D01*
X715897Y-23754D01*
X715914Y-23866D01*
X715928Y-23979D01*
X715938Y-24092D01*
X715944Y-24205D01*
X715946Y-24318D01*
X715944Y-24431D01*
X715938Y-24544D01*
X715928Y-24657D01*
X715914Y-24770D01*
X715897Y-24882D01*
X715875Y-24993D01*
X715850Y-25103D01*
X715820Y-25213D01*
X715787Y-25321D01*
X715750Y-25428D01*
X715710Y-25534D01*
X715665Y-25638D01*
X715617Y-25741D01*
X715566Y-25842D01*
X715511Y-25941D01*
X715453Y-26038D01*
X715391Y-26133D01*
X715326Y-26226D01*
X715258Y-26316D01*
X715187Y-26404D01*
X715112Y-26490D01*
X715035Y-26573D01*
X714955Y-26653D01*
X714872Y-26730D01*
X714786Y-26805D01*
X714698Y-26876D01*
X714608Y-26944D01*
X714515Y-27009D01*
X714420Y-27071D01*
X714323Y-27129D01*
X714224Y-27184D01*
X714123Y-27235D01*
X714020Y-27283D01*
X713916Y-27328D01*
X713810Y-27368D01*
X713703Y-27405D01*
X713595Y-27438D01*
X713485Y-27468D01*
X713375Y-27493D01*
X713264Y-27515D01*
X713152Y-27532D01*
X713039Y-27546D01*
X712926Y-27556D01*
X712813Y-27562D01*
X712700Y-27564D01*
X709455Y-27564D01*
X709312Y-27562D01*
X709169Y-27556D01*
X709026Y-27546D01*
X708884Y-27532D01*
X708742Y-27515D01*
X708600Y-27493D01*
X708459Y-27468D01*
X708319Y-27438D01*
X708180Y-27405D01*
X708042Y-27368D01*
X707905Y-27327D01*
X707769Y-27283D01*
X707634Y-27234D01*
X707501Y-27182D01*
X707369Y-27127D01*
X707239Y-27067D01*
X707110Y-27004D01*
X706983Y-26938D01*
X706859Y-26868D01*
X706736Y-26795D01*
X706615Y-26718D01*
X706496Y-26639D01*
X706380Y-26555D01*
X706265Y-26469D01*
X706154Y-26380D01*
X706045Y-26287D01*
X705938Y-26192D01*
X705834Y-26093D01*
X705733Y-25992D01*
X705634Y-25888D01*
X705539Y-25782D01*
X705446Y-25672D01*
X705357Y-25561D01*
X705271Y-25447D01*
X705188Y-25330D01*
X705108Y-25211D01*
X705031Y-25090D01*
X704958Y-24968D01*
X704888Y-24843D01*
X704822Y-24716D01*
X704759Y-24587D01*
X704699Y-24457D01*
X704644Y-24325D01*
X704592Y-24192D01*
X704543Y-24057D01*
X704499Y-23921D01*
X704458Y-23784D01*
X704421Y-23646D01*
X704388Y-23507D01*
X704358Y-23367D01*
X704333Y-23226D01*
X704311Y-23084D01*
X704294Y-22942D01*
X704280Y-22800D01*
X704270Y-22657D01*
X704264Y-22514D01*
X704262Y-22371D01*
X712700Y-16134D02*
X712587Y-16132D01*
X712474Y-16126D01*
X712361Y-16116D01*
X712248Y-16102D01*
X712136Y-16085D01*
X712025Y-16063D01*
X711915Y-16038D01*
X711805Y-16008D01*
X711697Y-15975D01*
X711590Y-15938D01*
X711484Y-15898D01*
X711380Y-15853D01*
X711277Y-15805D01*
X711176Y-15754D01*
X711077Y-15699D01*
X710980Y-15641D01*
X710885Y-15579D01*
X710792Y-15514D01*
X710702Y-15446D01*
X710614Y-15375D01*
X710528Y-15300D01*
X710445Y-15223D01*
X710365Y-15143D01*
X710288Y-15060D01*
X710213Y-14974D01*
X710142Y-14886D01*
X710074Y-14796D01*
X710009Y-14703D01*
X709947Y-14608D01*
X709889Y-14511D01*
X709834Y-14412D01*
X709783Y-14311D01*
X709735Y-14208D01*
X709690Y-14104D01*
X709650Y-13998D01*
X709613Y-13891D01*
X709580Y-13783D01*
X709550Y-13673D01*
X709525Y-13563D01*
X709503Y-13452D01*
X709486Y-13340D01*
X709472Y-13227D01*
X709462Y-13114D01*
X709456Y-13001D01*
X709454Y-12888D01*
X709456Y-12775D01*
X709462Y-12662D01*
X709472Y-12549D01*
X709486Y-12436D01*
X709503Y-12324D01*
X709525Y-12213D01*
X709550Y-12103D01*
X709580Y-11993D01*
X709613Y-11885D01*
X709650Y-11778D01*
X709690Y-11672D01*
X709735Y-11568D01*
X709783Y-11465D01*
X709834Y-11364D01*
X709889Y-11265D01*
X709947Y-11168D01*
X710009Y-11073D01*
X710074Y-10980D01*
X710142Y-10890D01*
X710213Y-10802D01*
X710288Y-10716D01*
X710365Y-10633D01*
X710445Y-10553D01*
X710528Y-10476D01*
X710614Y-10401D01*
X710702Y-10330D01*
X710792Y-10262D01*
X710885Y-10197D01*
X710980Y-10135D01*
X711077Y-10077D01*
X711176Y-10022D01*
X711277Y-9971D01*
X711380Y-9923D01*
X711484Y-9878D01*
X711590Y-9838D01*
X711697Y-9801D01*
X711805Y-9768D01*
X711915Y-9738D01*
X712025Y-9713D01*
X712136Y-9691D01*
X712248Y-9674D01*
X712361Y-9660D01*
X712474Y-9650D01*
X712587Y-9644D01*
X712700Y-9642D01*
X712813Y-9644D01*
X712926Y-9650D01*
X713039Y-9660D01*
X713152Y-9674D01*
X713264Y-9691D01*
X713375Y-9713D01*
X713485Y-9738D01*
X713595Y-9768D01*
X713703Y-9801D01*
X713810Y-9838D01*
X713916Y-9878D01*
X714020Y-9923D01*
X714123Y-9971D01*
X714224Y-10022D01*
X714323Y-10077D01*
X714420Y-10135D01*
X714515Y-10197D01*
X714608Y-10262D01*
X714698Y-10330D01*
X714786Y-10401D01*
X714872Y-10476D01*
X714955Y-10553D01*
X715035Y-10633D01*
X715112Y-10716D01*
X715187Y-10802D01*
X715258Y-10890D01*
X715326Y-10980D01*
X715391Y-11073D01*
X715453Y-11168D01*
X715511Y-11265D01*
X715566Y-11364D01*
X715617Y-11465D01*
X715665Y-11568D01*
X715710Y-11672D01*
X715750Y-11778D01*
X715787Y-11885D01*
X715820Y-11993D01*
X715850Y-12103D01*
X715875Y-12213D01*
X715897Y-12324D01*
X715914Y-12436D01*
X715928Y-12549D01*
X715938Y-12662D01*
X715944Y-12775D01*
X715946Y-12888D01*
X715944Y-13001D01*
X715938Y-13114D01*
X715928Y-13227D01*
X715914Y-13340D01*
X715897Y-13452D01*
X715875Y-13563D01*
X715850Y-13673D01*
X715820Y-13783D01*
X715787Y-13891D01*
X715750Y-13998D01*
X715710Y-14104D01*
X715665Y-14208D01*
X715617Y-14311D01*
X715566Y-14412D01*
X715511Y-14511D01*
X715453Y-14608D01*
X715391Y-14703D01*
X715326Y-14796D01*
X715258Y-14886D01*
X715187Y-14974D01*
X715112Y-15060D01*
X715035Y-15143D01*
X714955Y-15223D01*
X714872Y-15300D01*
X714786Y-15375D01*
X714698Y-15446D01*
X714608Y-15514D01*
X714515Y-15579D01*
X714420Y-15641D01*
X714323Y-15699D01*
X714224Y-15754D01*
X714123Y-15805D01*
X714020Y-15853D01*
X713916Y-15898D01*
X713810Y-15938D01*
X713703Y-15975D01*
X713595Y-16008D01*
X713485Y-16038D01*
X713375Y-16063D01*
X713264Y-16085D01*
X713152Y-16102D01*
X713039Y-16116D01*
X712926Y-16126D01*
X712813Y-16132D01*
X712700Y-16134D01*
X706858Y-15484D02*
X706757Y-15482D01*
X706657Y-15476D01*
X706557Y-15466D01*
X706457Y-15453D01*
X706358Y-15435D01*
X706259Y-15414D01*
X706162Y-15389D01*
X706065Y-15360D01*
X705970Y-15327D01*
X705876Y-15291D01*
X705784Y-15251D01*
X705693Y-15208D01*
X705604Y-15161D01*
X705517Y-15111D01*
X705431Y-15057D01*
X705348Y-15000D01*
X705268Y-14940D01*
X705189Y-14877D01*
X705113Y-14810D01*
X705040Y-14741D01*
X704970Y-14669D01*
X704902Y-14595D01*
X704837Y-14518D01*
X704776Y-14438D01*
X704717Y-14356D01*
X704662Y-14272D01*
X704610Y-14186D01*
X704561Y-14098D01*
X704516Y-14008D01*
X704474Y-13916D01*
X704436Y-13823D01*
X704402Y-13728D01*
X704371Y-13633D01*
X704344Y-13536D01*
X704321Y-13438D01*
X704301Y-13339D01*
X704286Y-13239D01*
X704274Y-13139D01*
X704266Y-13039D01*
X704262Y-12938D01*
X704262Y-12838D01*
X704266Y-12737D01*
X704274Y-12637D01*
X704286Y-12537D01*
X704301Y-12437D01*
X704321Y-12338D01*
X704344Y-12240D01*
X704371Y-12143D01*
X704402Y-12048D01*
X704436Y-11953D01*
X704474Y-11860D01*
X704516Y-11768D01*
X704561Y-11678D01*
X704610Y-11590D01*
X704662Y-11504D01*
X704717Y-11420D01*
X704776Y-11338D01*
X704837Y-11258D01*
X704902Y-11181D01*
X704970Y-11107D01*
X705040Y-11035D01*
X705113Y-10966D01*
X705189Y-10899D01*
X705268Y-10836D01*
X705348Y-10776D01*
X705431Y-10719D01*
X705517Y-10665D01*
X705604Y-10615D01*
X705693Y-10568D01*
X705784Y-10525D01*
X705876Y-10485D01*
X705970Y-10449D01*
X706065Y-10416D01*
X706162Y-10387D01*
X706259Y-10362D01*
X706358Y-10341D01*
X706457Y-10323D01*
X706557Y-10310D01*
X706657Y-10300D01*
X706757Y-10294D01*
X706858Y-10292D01*
X706959Y-10294D01*
X707059Y-10300D01*
X707159Y-10310D01*
X707259Y-10323D01*
X707358Y-10341D01*
X707457Y-10362D01*
X707554Y-10387D01*
X707651Y-10416D01*
X707746Y-10449D01*
X707840Y-10485D01*
X707932Y-10525D01*
X708023Y-10568D01*
X708112Y-10615D01*
X708199Y-10665D01*
X708285Y-10719D01*
X708368Y-10776D01*
X708448Y-10836D01*
X708527Y-10899D01*
X708603Y-10966D01*
X708676Y-11035D01*
X708746Y-11107D01*
X708814Y-11181D01*
X708879Y-11258D01*
X708940Y-11338D01*
X708999Y-11420D01*
X709054Y-11504D01*
X709106Y-11590D01*
X709155Y-11678D01*
X709200Y-11768D01*
X709242Y-11860D01*
X709280Y-11953D01*
X709314Y-12048D01*
X709345Y-12143D01*
X709372Y-12240D01*
X709395Y-12338D01*
X709415Y-12437D01*
X709430Y-12537D01*
X709442Y-12637D01*
X709450Y-12737D01*
X709454Y-12838D01*
X709454Y-12938D01*
X709450Y-13039D01*
X709442Y-13139D01*
X709430Y-13239D01*
X709415Y-13339D01*
X709395Y-13438D01*
X709372Y-13536D01*
X709345Y-13633D01*
X709314Y-13728D01*
X709280Y-13823D01*
X709242Y-13916D01*
X709200Y-14008D01*
X709155Y-14098D01*
X709106Y-14186D01*
X709054Y-14272D01*
X708999Y-14356D01*
X708940Y-14438D01*
X708879Y-14518D01*
X708814Y-14595D01*
X708746Y-14669D01*
X708676Y-14741D01*
X708603Y-14810D01*
X708527Y-14877D01*
X708448Y-14940D01*
X708368Y-15000D01*
X708285Y-15057D01*
X708199Y-15111D01*
X708112Y-15161D01*
X708023Y-15208D01*
X707932Y-15251D01*
X707840Y-15291D01*
X707746Y-15327D01*
X707651Y-15360D01*
X707554Y-15389D01*
X707457Y-15414D01*
X707358Y-15435D01*
X707259Y-15453D01*
X707159Y-15466D01*
X707059Y-15476D01*
X706959Y-15482D01*
X706858Y-15484D01*
X709455Y-4704D02*
X709455Y-809D01*
X709457Y-710D01*
X709463Y-610D01*
X709472Y-511D01*
X709485Y-413D01*
X709502Y-315D01*
X709523Y-217D01*
X709548Y-121D01*
X709576Y-26D01*
X709608Y68D01*
X709643Y161D01*
X709682Y253D01*
X709725Y343D01*
X709770Y431D01*
X709820Y518D01*
X709872Y602D01*
X709928Y685D01*
X709986Y765D01*
X710048Y843D01*
X710113Y918D01*
X710181Y991D01*
X710251Y1061D01*
X710324Y1129D01*
X710399Y1194D01*
X710477Y1256D01*
X710557Y1314D01*
X710640Y1370D01*
X710724Y1422D01*
X710811Y1472D01*
X710899Y1517D01*
X710989Y1560D01*
X711081Y1599D01*
X711174Y1634D01*
X711268Y1666D01*
X711363Y1694D01*
X711459Y1719D01*
X711557Y1740D01*
X711655Y1757D01*
X711753Y1770D01*
X711852Y1779D01*
X711952Y1785D01*
X712051Y1787D01*
X712700Y1787D01*
X712813Y1785D01*
X712926Y1779D01*
X713039Y1769D01*
X713152Y1755D01*
X713264Y1738D01*
X713375Y1716D01*
X713485Y1691D01*
X713595Y1661D01*
X713703Y1628D01*
X713810Y1591D01*
X713916Y1551D01*
X714020Y1506D01*
X714123Y1458D01*
X714224Y1407D01*
X714323Y1352D01*
X714420Y1294D01*
X714515Y1232D01*
X714608Y1167D01*
X714698Y1099D01*
X714786Y1028D01*
X714872Y953D01*
X714955Y876D01*
X715035Y796D01*
X715112Y713D01*
X715187Y627D01*
X715258Y539D01*
X715326Y449D01*
X715391Y356D01*
X715453Y261D01*
X715511Y164D01*
X715566Y65D01*
X715617Y-36D01*
X715665Y-139D01*
X715710Y-243D01*
X715750Y-349D01*
X715787Y-456D01*
X715820Y-564D01*
X715850Y-674D01*
X715875Y-784D01*
X715897Y-895D01*
X715914Y-1007D01*
X715928Y-1120D01*
X715938Y-1233D01*
X715944Y-1346D01*
X715946Y-1459D01*
X715944Y-1572D01*
X715938Y-1685D01*
X715928Y-1798D01*
X715914Y-1911D01*
X715897Y-2023D01*
X715875Y-2134D01*
X715850Y-2244D01*
X715820Y-2354D01*
X715787Y-2462D01*
X715750Y-2569D01*
X715710Y-2675D01*
X715665Y-2779D01*
X715617Y-2882D01*
X715566Y-2983D01*
X715511Y-3082D01*
X715453Y-3179D01*
X715391Y-3274D01*
X715326Y-3367D01*
X715258Y-3457D01*
X715187Y-3545D01*
X715112Y-3631D01*
X715035Y-3714D01*
X714955Y-3794D01*
X714872Y-3871D01*
X714786Y-3946D01*
X714698Y-4017D01*
X714608Y-4085D01*
X714515Y-4150D01*
X714420Y-4212D01*
X714323Y-4270D01*
X714224Y-4325D01*
X714123Y-4376D01*
X714020Y-4424D01*
X713916Y-4469D01*
X713810Y-4509D01*
X713703Y-4546D01*
X713595Y-4579D01*
X713485Y-4609D01*
X713375Y-4634D01*
X713264Y-4656D01*
X713152Y-4673D01*
X713039Y-4687D01*
X712926Y-4697D01*
X712813Y-4703D01*
X712700Y-4705D01*
X712700Y-4704D02*
X709455Y-4704D01*
X709312Y-4702D01*
X709169Y-4696D01*
X709026Y-4686D01*
X708884Y-4672D01*
X708742Y-4655D01*
X708600Y-4633D01*
X708459Y-4608D01*
X708319Y-4578D01*
X708180Y-4545D01*
X708042Y-4508D01*
X707905Y-4467D01*
X707769Y-4423D01*
X707634Y-4374D01*
X707501Y-4322D01*
X707369Y-4267D01*
X707239Y-4207D01*
X707110Y-4144D01*
X706983Y-4078D01*
X706859Y-4008D01*
X706736Y-3935D01*
X706615Y-3858D01*
X706496Y-3779D01*
X706380Y-3695D01*
X706265Y-3609D01*
X706154Y-3520D01*
X706045Y-3427D01*
X705938Y-3332D01*
X705834Y-3233D01*
X705733Y-3132D01*
X705634Y-3028D01*
X705539Y-2922D01*
X705446Y-2812D01*
X705357Y-2701D01*
X705271Y-2587D01*
X705188Y-2470D01*
X705108Y-2351D01*
X705031Y-2230D01*
X704958Y-2108D01*
X704888Y-1983D01*
X704822Y-1856D01*
X704759Y-1727D01*
X704699Y-1597D01*
X704644Y-1465D01*
X704592Y-1332D01*
X704543Y-1197D01*
X704499Y-1061D01*
X704458Y-924D01*
X704421Y-786D01*
X704388Y-647D01*
X704358Y-507D01*
X704333Y-366D01*
X704311Y-224D01*
X704294Y-82D01*
X704280Y60D01*
X704270Y203D01*
X704264Y346D01*
X704262Y489D01*
X706858Y6726D02*
X704262Y9971D01*
X715946Y9971D01*
X715946Y6726D02*
X715946Y13217D01*
X707183Y24647D02*
X707076Y24645D01*
X706970Y24639D01*
X706864Y24629D01*
X706758Y24616D01*
X706652Y24598D01*
X706548Y24577D01*
X706444Y24552D01*
X706341Y24523D01*
X706240Y24491D01*
X706140Y24454D01*
X706041Y24414D01*
X705943Y24371D01*
X705847Y24324D01*
X705753Y24273D01*
X705661Y24219D01*
X705571Y24162D01*
X705483Y24102D01*
X705398Y24038D01*
X705315Y23971D01*
X705234Y23901D01*
X705156Y23829D01*
X705080Y23753D01*
X705008Y23675D01*
X704938Y23594D01*
X704871Y23511D01*
X704807Y23426D01*
X704747Y23338D01*
X704690Y23248D01*
X704636Y23156D01*
X704585Y23062D01*
X704538Y22966D01*
X704495Y22868D01*
X704455Y22769D01*
X704418Y22669D01*
X704386Y22568D01*
X704357Y22465D01*
X704332Y22361D01*
X704311Y22257D01*
X704293Y22151D01*
X704280Y22045D01*
X704270Y21939D01*
X704264Y21833D01*
X704262Y21726D01*
X704264Y21605D01*
X704270Y21484D01*
X704280Y21364D01*
X704293Y21243D01*
X704311Y21124D01*
X704332Y21004D01*
X704357Y20886D01*
X704386Y20769D01*
X704419Y20652D01*
X704455Y20537D01*
X704496Y20423D01*
X704539Y20310D01*
X704587Y20198D01*
X704638Y20089D01*
X704693Y19981D01*
X704751Y19874D01*
X704812Y19770D01*
X704877Y19668D01*
X704945Y19568D01*
X705016Y19470D01*
X705090Y19374D01*
X705167Y19281D01*
X705248Y19191D01*
X705331Y19103D01*
X705417Y19018D01*
X705506Y18935D01*
X705597Y18856D01*
X705691Y18779D01*
X705787Y18706D01*
X705885Y18636D01*
X705986Y18569D01*
X706089Y18505D01*
X706194Y18445D01*
X706301Y18387D01*
X706409Y18334D01*
X706519Y18284D01*
X706631Y18238D01*
X706744Y18195D01*
X706859Y18156D01*
X709455Y23673D02*
X709377Y23752D01*
X709297Y23828D01*
X709214Y23901D01*
X709128Y23971D01*
X709041Y24038D01*
X708950Y24102D01*
X708858Y24162D01*
X708764Y24220D01*
X708667Y24274D01*
X708569Y24324D01*
X708469Y24371D01*
X708368Y24415D01*
X708265Y24455D01*
X708160Y24491D01*
X708055Y24523D01*
X707948Y24552D01*
X707841Y24577D01*
X707732Y24599D01*
X707623Y24616D01*
X707514Y24630D01*
X707404Y24639D01*
X707293Y24645D01*
X707183Y24647D01*
X709455Y23673D02*
X715946Y18156D01*
X715946Y24647D01*
X710104Y29585D02*
X709874Y29588D01*
X709644Y29596D01*
X709415Y29610D01*
X709186Y29629D01*
X708957Y29654D01*
X708729Y29684D01*
X708502Y29719D01*
X708276Y29760D01*
X708051Y29806D01*
X707827Y29858D01*
X707604Y29915D01*
X707383Y29977D01*
X707163Y30045D01*
X706945Y30118D01*
X706729Y30196D01*
X706515Y30279D01*
X706303Y30367D01*
X706092Y30460D01*
X705885Y30559D01*
X705795Y30592D01*
X705706Y30628D01*
X705618Y30668D01*
X705533Y30712D01*
X705449Y30759D01*
X705367Y30809D01*
X705287Y30863D01*
X705210Y30919D01*
X705134Y30979D01*
X705061Y31042D01*
X704991Y31107D01*
X704923Y31176D01*
X704859Y31247D01*
X704797Y31320D01*
X704738Y31396D01*
X704682Y31474D01*
X704629Y31555D01*
X704580Y31637D01*
X704534Y31721D01*
X704491Y31808D01*
X704452Y31895D01*
X704416Y31985D01*
X704384Y32075D01*
X704356Y32167D01*
X704331Y32260D01*
X704310Y32354D01*
X704293Y32448D01*
X704279Y32543D01*
X704270Y32639D01*
X704264Y32735D01*
X704262Y32831D01*
X704264Y32927D01*
X704270Y33023D01*
X704279Y33119D01*
X704293Y33214D01*
X704310Y33308D01*
X704331Y33402D01*
X704356Y33495D01*
X704384Y33587D01*
X704416Y33677D01*
X704452Y33767D01*
X704491Y33855D01*
X704534Y33941D01*
X704580Y34025D01*
X704629Y34107D01*
X704682Y34188D01*
X704738Y34266D01*
X704797Y34342D01*
X704859Y34415D01*
X704923Y34486D01*
X704991Y34555D01*
X705061Y34620D01*
X705134Y34683D01*
X705210Y34743D01*
X705287Y34799D01*
X705367Y34853D01*
X705449Y34903D01*
X705533Y34950D01*
X705618Y34994D01*
X705706Y35034D01*
X705795Y35070D01*
X705885Y35103D01*
X706092Y35202D01*
X706303Y35295D01*
X706515Y35383D01*
X706729Y35466D01*
X706945Y35544D01*
X707163Y35617D01*
X707383Y35685D01*
X707604Y35747D01*
X707827Y35804D01*
X708051Y35856D01*
X708276Y35902D01*
X708502Y35943D01*
X708729Y35978D01*
X708957Y36008D01*
X709186Y36033D01*
X709415Y36052D01*
X709644Y36066D01*
X709874Y36074D01*
X710104Y36077D01*
X710104Y29586D02*
X710334Y29589D01*
X710564Y29597D01*
X710793Y29611D01*
X711022Y29630D01*
X711251Y29655D01*
X711479Y29685D01*
X711706Y29720D01*
X711932Y29761D01*
X712157Y29807D01*
X712381Y29859D01*
X712604Y29916D01*
X712825Y29978D01*
X713045Y30046D01*
X713263Y30119D01*
X713479Y30197D01*
X713693Y30280D01*
X713905Y30368D01*
X714116Y30461D01*
X714323Y30560D01*
X714323Y30559D02*
X714413Y30592D01*
X714502Y30628D01*
X714590Y30669D01*
X714675Y30712D01*
X714759Y30759D01*
X714841Y30809D01*
X714921Y30863D01*
X714998Y30919D01*
X715074Y30979D01*
X715147Y31042D01*
X715217Y31107D01*
X715285Y31176D01*
X715349Y31247D01*
X715411Y31320D01*
X715470Y31396D01*
X715526Y31474D01*
X715579Y31555D01*
X715628Y31637D01*
X715674Y31721D01*
X715717Y31808D01*
X715756Y31895D01*
X715792Y31985D01*
X715824Y32075D01*
X715852Y32167D01*
X715877Y32260D01*
X715898Y32354D01*
X715915Y32448D01*
X715929Y32543D01*
X715938Y32639D01*
X715944Y32735D01*
X715946Y32831D01*
X714323Y35103D02*
X714116Y35202D01*
X713905Y35295D01*
X713693Y35383D01*
X713479Y35466D01*
X713263Y35544D01*
X713045Y35617D01*
X712825Y35685D01*
X712604Y35747D01*
X712381Y35804D01*
X712157Y35856D01*
X711932Y35902D01*
X711706Y35943D01*
X711479Y35978D01*
X711251Y36008D01*
X711022Y36033D01*
X710793Y36052D01*
X710564Y36066D01*
X710334Y36074D01*
X710104Y36077D01*
X714323Y35103D02*
X714413Y35070D01*
X714502Y35034D01*
X714590Y34994D01*
X714675Y34950D01*
X714759Y34903D01*
X714841Y34853D01*
X714921Y34799D01*
X714998Y34743D01*
X715074Y34683D01*
X715147Y34620D01*
X715217Y34555D01*
X715285Y34486D01*
X715349Y34415D01*
X715411Y34342D01*
X715470Y34266D01*
X715526Y34188D01*
X715579Y34107D01*
X715628Y34025D01*
X715674Y33941D01*
X715717Y33854D01*
X715756Y33767D01*
X715792Y33677D01*
X715824Y33587D01*
X715852Y33495D01*
X715877Y33402D01*
X715898Y33308D01*
X715915Y33214D01*
X715929Y33119D01*
X715938Y33023D01*
X715944Y32927D01*
X715946Y32831D01*
X713350Y30235D02*
X706858Y35428D01*
X706858Y41016D02*
X704262Y44261D01*
X715946Y44261D01*
X715946Y41016D02*
X715946Y47507D01*
X713350Y52446D02*
X704262Y55042D01*
X713350Y52446D02*
X713350Y58937D01*
X710753Y56990D02*
X715946Y56990D01*
X706858Y63876D02*
X704262Y67121D01*
X715946Y67121D01*
X715946Y63876D02*
X715946Y70367D01*
X707183Y81797D02*
X707076Y81795D01*
X706970Y81789D01*
X706864Y81779D01*
X706758Y81766D01*
X706652Y81748D01*
X706548Y81727D01*
X706444Y81702D01*
X706341Y81673D01*
X706240Y81641D01*
X706140Y81604D01*
X706041Y81564D01*
X705943Y81521D01*
X705847Y81474D01*
X705753Y81423D01*
X705661Y81369D01*
X705571Y81312D01*
X705483Y81252D01*
X705398Y81188D01*
X705315Y81121D01*
X705234Y81051D01*
X705156Y80979D01*
X705080Y80903D01*
X705008Y80825D01*
X704938Y80744D01*
X704871Y80661D01*
X704807Y80576D01*
X704747Y80488D01*
X704690Y80398D01*
X704636Y80306D01*
X704585Y80212D01*
X704538Y80116D01*
X704495Y80018D01*
X704455Y79919D01*
X704418Y79819D01*
X704386Y79718D01*
X704357Y79615D01*
X704332Y79511D01*
X704311Y79407D01*
X704293Y79301D01*
X704280Y79195D01*
X704270Y79089D01*
X704264Y78983D01*
X704262Y78876D01*
X704264Y78755D01*
X704270Y78634D01*
X704280Y78514D01*
X704293Y78393D01*
X704311Y78274D01*
X704332Y78154D01*
X704357Y78036D01*
X704386Y77919D01*
X704419Y77802D01*
X704455Y77687D01*
X704496Y77573D01*
X704539Y77460D01*
X704587Y77348D01*
X704638Y77239D01*
X704693Y77131D01*
X704751Y77024D01*
X704812Y76920D01*
X704877Y76818D01*
X704945Y76718D01*
X705016Y76620D01*
X705090Y76524D01*
X705167Y76431D01*
X705248Y76341D01*
X705331Y76253D01*
X705417Y76168D01*
X705506Y76085D01*
X705597Y76006D01*
X705691Y75929D01*
X705787Y75856D01*
X705885Y75786D01*
X705986Y75719D01*
X706089Y75655D01*
X706194Y75595D01*
X706301Y75537D01*
X706409Y75484D01*
X706519Y75434D01*
X706631Y75388D01*
X706744Y75345D01*
X706859Y75306D01*
X709455Y80822D02*
X709377Y80901D01*
X709297Y80977D01*
X709214Y81050D01*
X709128Y81120D01*
X709041Y81187D01*
X708950Y81251D01*
X708858Y81311D01*
X708764Y81369D01*
X708667Y81423D01*
X708569Y81473D01*
X708469Y81520D01*
X708368Y81564D01*
X708265Y81604D01*
X708160Y81640D01*
X708055Y81672D01*
X707948Y81701D01*
X707841Y81726D01*
X707732Y81748D01*
X707623Y81765D01*
X707514Y81779D01*
X707404Y81788D01*
X707293Y81794D01*
X707183Y81796D01*
X709455Y80823D02*
X715946Y75306D01*
X715946Y81797D01*
X707183Y93227D02*
X707076Y93225D01*
X706970Y93219D01*
X706864Y93209D01*
X706758Y93196D01*
X706652Y93178D01*
X706548Y93157D01*
X706444Y93132D01*
X706341Y93103D01*
X706240Y93071D01*
X706140Y93034D01*
X706041Y92994D01*
X705943Y92951D01*
X705847Y92904D01*
X705753Y92853D01*
X705661Y92799D01*
X705571Y92742D01*
X705483Y92682D01*
X705398Y92618D01*
X705315Y92551D01*
X705234Y92481D01*
X705156Y92409D01*
X705080Y92333D01*
X705008Y92255D01*
X704938Y92174D01*
X704871Y92091D01*
X704807Y92006D01*
X704747Y91918D01*
X704690Y91828D01*
X704636Y91736D01*
X704585Y91642D01*
X704538Y91546D01*
X704495Y91448D01*
X704455Y91349D01*
X704418Y91249D01*
X704386Y91148D01*
X704357Y91045D01*
X704332Y90941D01*
X704311Y90837D01*
X704293Y90731D01*
X704280Y90625D01*
X704270Y90519D01*
X704264Y90413D01*
X704262Y90306D01*
X704264Y90185D01*
X704270Y90064D01*
X704280Y89944D01*
X704293Y89823D01*
X704311Y89704D01*
X704332Y89584D01*
X704357Y89466D01*
X704386Y89349D01*
X704419Y89232D01*
X704455Y89117D01*
X704496Y89003D01*
X704539Y88890D01*
X704587Y88778D01*
X704638Y88669D01*
X704693Y88561D01*
X704751Y88454D01*
X704812Y88350D01*
X704877Y88248D01*
X704945Y88148D01*
X705016Y88050D01*
X705090Y87954D01*
X705167Y87861D01*
X705248Y87771D01*
X705331Y87683D01*
X705417Y87598D01*
X705506Y87515D01*
X705597Y87436D01*
X705691Y87359D01*
X705787Y87286D01*
X705885Y87216D01*
X705986Y87149D01*
X706089Y87085D01*
X706194Y87025D01*
X706301Y86967D01*
X706409Y86914D01*
X706519Y86864D01*
X706631Y86818D01*
X706744Y86775D01*
X706859Y86736D01*
X709455Y92252D02*
X709377Y92331D01*
X709297Y92407D01*
X709214Y92480D01*
X709128Y92550D01*
X709041Y92617D01*
X708950Y92681D01*
X708858Y92741D01*
X708764Y92799D01*
X708667Y92853D01*
X708569Y92903D01*
X708469Y92950D01*
X708368Y92994D01*
X708265Y93034D01*
X708160Y93070D01*
X708055Y93102D01*
X707948Y93131D01*
X707841Y93156D01*
X707732Y93178D01*
X707623Y93195D01*
X707514Y93209D01*
X707404Y93218D01*
X707293Y93224D01*
X707183Y93226D01*
X709455Y92253D02*
X715946Y86736D01*
X715946Y93227D01*
D16*
X515644Y100473D02*
X515644Y42973D01*
X515644Y100473D02*
X391644Y100473D01*
X391644Y42973D01*
X515644Y42973D01*
X415644Y43548D02*
X415644Y48548D01*
X492644Y48548D02*
X492644Y43548D01*
D15*
X386586Y46656D02*
X377442Y52752D01*
X377442Y46656D02*
X386586Y52752D01*
X379474Y56308D02*
X377442Y58848D01*
X386586Y58848D01*
X386586Y56308D02*
X386586Y61388D01*
X394127Y105981D02*
X398191Y105981D01*
X394127Y105981D02*
X394127Y115125D01*
X398191Y115125D01*
X397175Y111061D02*
X394127Y111061D01*
X401219Y105981D02*
X407315Y115125D01*
X401219Y115125D02*
X407315Y105981D01*
X412801Y105981D02*
X412801Y115125D01*
X410261Y115125D02*
X415341Y115125D01*
X419166Y115125D02*
X419166Y105981D01*
X419166Y115125D02*
X421706Y115125D01*
X421806Y115123D01*
X421905Y115117D01*
X422005Y115107D01*
X422103Y115094D01*
X422202Y115076D01*
X422299Y115055D01*
X422395Y115030D01*
X422491Y115001D01*
X422585Y114968D01*
X422678Y114932D01*
X422769Y114892D01*
X422859Y114848D01*
X422947Y114801D01*
X423033Y114751D01*
X423117Y114697D01*
X423199Y114640D01*
X423278Y114580D01*
X423356Y114516D01*
X423430Y114450D01*
X423502Y114381D01*
X423571Y114309D01*
X423637Y114235D01*
X423701Y114157D01*
X423761Y114078D01*
X423818Y113996D01*
X423872Y113912D01*
X423922Y113826D01*
X423969Y113738D01*
X424013Y113648D01*
X424053Y113557D01*
X424089Y113464D01*
X424122Y113370D01*
X424151Y113274D01*
X424176Y113178D01*
X424197Y113081D01*
X424215Y112982D01*
X424228Y112884D01*
X424238Y112784D01*
X424244Y112685D01*
X424246Y112585D01*
X424244Y112485D01*
X424238Y112386D01*
X424228Y112286D01*
X424215Y112188D01*
X424197Y112089D01*
X424176Y111992D01*
X424151Y111896D01*
X424122Y111800D01*
X424089Y111706D01*
X424053Y111613D01*
X424013Y111522D01*
X423969Y111432D01*
X423922Y111344D01*
X423872Y111258D01*
X423818Y111174D01*
X423761Y111092D01*
X423701Y111013D01*
X423637Y110935D01*
X423571Y110861D01*
X423502Y110789D01*
X423430Y110720D01*
X423356Y110654D01*
X423278Y110590D01*
X423199Y110530D01*
X423117Y110473D01*
X423033Y110419D01*
X422947Y110369D01*
X422859Y110322D01*
X422769Y110278D01*
X422678Y110238D01*
X422585Y110202D01*
X422491Y110169D01*
X422395Y110140D01*
X422299Y110115D01*
X422202Y110094D01*
X422103Y110076D01*
X422005Y110063D01*
X421905Y110053D01*
X421806Y110047D01*
X421706Y110045D01*
X419166Y110045D01*
X422214Y110045D02*
X424246Y105981D01*
X428549Y108521D02*
X428549Y115125D01*
X428549Y108521D02*
X428551Y108421D01*
X428557Y108322D01*
X428567Y108222D01*
X428580Y108124D01*
X428598Y108025D01*
X428619Y107928D01*
X428644Y107832D01*
X428673Y107736D01*
X428706Y107642D01*
X428742Y107549D01*
X428782Y107458D01*
X428826Y107368D01*
X428873Y107280D01*
X428923Y107194D01*
X428977Y107110D01*
X429034Y107028D01*
X429094Y106949D01*
X429158Y106871D01*
X429224Y106797D01*
X429293Y106725D01*
X429365Y106656D01*
X429439Y106590D01*
X429517Y106526D01*
X429596Y106466D01*
X429678Y106409D01*
X429762Y106355D01*
X429848Y106305D01*
X429936Y106258D01*
X430026Y106214D01*
X430117Y106174D01*
X430210Y106138D01*
X430304Y106105D01*
X430400Y106076D01*
X430496Y106051D01*
X430593Y106030D01*
X430692Y106012D01*
X430790Y105999D01*
X430890Y105989D01*
X430989Y105983D01*
X431089Y105981D01*
X431189Y105983D01*
X431288Y105989D01*
X431388Y105999D01*
X431486Y106012D01*
X431585Y106030D01*
X431682Y106051D01*
X431778Y106076D01*
X431874Y106105D01*
X431968Y106138D01*
X432061Y106174D01*
X432152Y106214D01*
X432242Y106258D01*
X432330Y106305D01*
X432416Y106355D01*
X432500Y106409D01*
X432582Y106466D01*
X432661Y106526D01*
X432739Y106590D01*
X432813Y106656D01*
X432885Y106725D01*
X432954Y106797D01*
X433020Y106871D01*
X433084Y106949D01*
X433144Y107028D01*
X433201Y107110D01*
X433255Y107194D01*
X433305Y107280D01*
X433352Y107368D01*
X433396Y107458D01*
X433436Y107549D01*
X433472Y107642D01*
X433505Y107736D01*
X433534Y107832D01*
X433559Y107928D01*
X433580Y108025D01*
X433598Y108124D01*
X433611Y108222D01*
X433621Y108322D01*
X433627Y108421D01*
X433629Y108521D01*
X433629Y115125D01*
X438302Y115125D02*
X438302Y105981D01*
X438302Y115125D02*
X440842Y115125D01*
X440942Y115123D01*
X441041Y115117D01*
X441141Y115107D01*
X441239Y115094D01*
X441338Y115076D01*
X441435Y115055D01*
X441531Y115030D01*
X441627Y115001D01*
X441721Y114968D01*
X441814Y114932D01*
X441905Y114892D01*
X441995Y114848D01*
X442083Y114801D01*
X442169Y114751D01*
X442253Y114697D01*
X442335Y114640D01*
X442414Y114580D01*
X442492Y114516D01*
X442566Y114450D01*
X442638Y114381D01*
X442707Y114309D01*
X442773Y114235D01*
X442837Y114157D01*
X442897Y114078D01*
X442954Y113996D01*
X443008Y113912D01*
X443058Y113826D01*
X443105Y113738D01*
X443149Y113648D01*
X443189Y113557D01*
X443225Y113464D01*
X443258Y113370D01*
X443287Y113274D01*
X443312Y113178D01*
X443333Y113081D01*
X443351Y112982D01*
X443364Y112884D01*
X443374Y112784D01*
X443380Y112685D01*
X443382Y112585D01*
X443382Y108521D01*
X443380Y108421D01*
X443374Y108322D01*
X443364Y108222D01*
X443351Y108124D01*
X443333Y108025D01*
X443312Y107928D01*
X443287Y107832D01*
X443258Y107736D01*
X443225Y107642D01*
X443189Y107549D01*
X443149Y107458D01*
X443105Y107368D01*
X443058Y107280D01*
X443008Y107194D01*
X442954Y107110D01*
X442897Y107028D01*
X442837Y106949D01*
X442773Y106871D01*
X442707Y106797D01*
X442638Y106725D01*
X442566Y106656D01*
X442492Y106590D01*
X442414Y106526D01*
X442335Y106466D01*
X442253Y106409D01*
X442169Y106355D01*
X442083Y106305D01*
X441995Y106258D01*
X441905Y106214D01*
X441814Y106174D01*
X441721Y106138D01*
X441627Y106105D01*
X441531Y106076D01*
X441435Y106051D01*
X441338Y106030D01*
X441239Y106012D01*
X441141Y105999D01*
X441041Y105989D01*
X440942Y105983D01*
X440842Y105981D01*
X438302Y105981D01*
X448076Y105981D02*
X452140Y105981D01*
X448076Y105981D02*
X448076Y115125D01*
X452140Y115125D01*
X451124Y111061D02*
X448076Y111061D01*
X456047Y115125D02*
X456047Y105981D01*
X456047Y115125D02*
X458587Y115125D01*
X458687Y115123D01*
X458786Y115117D01*
X458886Y115107D01*
X458984Y115094D01*
X459083Y115076D01*
X459180Y115055D01*
X459276Y115030D01*
X459372Y115001D01*
X459466Y114968D01*
X459559Y114932D01*
X459650Y114892D01*
X459740Y114848D01*
X459828Y114801D01*
X459914Y114751D01*
X459998Y114697D01*
X460080Y114640D01*
X460159Y114580D01*
X460237Y114516D01*
X460311Y114450D01*
X460383Y114381D01*
X460452Y114309D01*
X460518Y114235D01*
X460582Y114157D01*
X460642Y114078D01*
X460699Y113996D01*
X460753Y113912D01*
X460803Y113826D01*
X460850Y113738D01*
X460894Y113648D01*
X460934Y113557D01*
X460970Y113464D01*
X461003Y113370D01*
X461032Y113274D01*
X461057Y113178D01*
X461078Y113081D01*
X461096Y112982D01*
X461109Y112884D01*
X461119Y112784D01*
X461125Y112685D01*
X461127Y112585D01*
X461125Y112485D01*
X461119Y112386D01*
X461109Y112286D01*
X461096Y112188D01*
X461078Y112089D01*
X461057Y111992D01*
X461032Y111896D01*
X461003Y111800D01*
X460970Y111706D01*
X460934Y111613D01*
X460894Y111522D01*
X460850Y111432D01*
X460803Y111344D01*
X460753Y111258D01*
X460699Y111174D01*
X460642Y111092D01*
X460582Y111013D01*
X460518Y110935D01*
X460452Y110861D01*
X460383Y110789D01*
X460311Y110720D01*
X460237Y110654D01*
X460159Y110590D01*
X460080Y110530D01*
X459998Y110473D01*
X459914Y110419D01*
X459828Y110369D01*
X459740Y110322D01*
X459650Y110278D01*
X459559Y110238D01*
X459466Y110202D01*
X459372Y110169D01*
X459276Y110140D01*
X459180Y110115D01*
X459083Y110094D01*
X458984Y110076D01*
X458886Y110063D01*
X458786Y110053D01*
X458687Y110047D01*
X458587Y110045D01*
X456047Y110045D01*
X459095Y110045D02*
X461127Y105981D01*
X470408Y105981D02*
X470408Y115125D01*
X473456Y110045D01*
X476504Y115125D01*
X476504Y105981D01*
X480974Y108521D02*
X480974Y112585D01*
X480976Y112685D01*
X480982Y112784D01*
X480992Y112884D01*
X481005Y112982D01*
X481023Y113081D01*
X481044Y113178D01*
X481069Y113274D01*
X481098Y113370D01*
X481131Y113464D01*
X481167Y113557D01*
X481207Y113648D01*
X481251Y113738D01*
X481298Y113826D01*
X481348Y113912D01*
X481402Y113996D01*
X481459Y114078D01*
X481519Y114157D01*
X481583Y114235D01*
X481649Y114309D01*
X481718Y114381D01*
X481790Y114450D01*
X481864Y114516D01*
X481942Y114580D01*
X482021Y114640D01*
X482103Y114697D01*
X482187Y114751D01*
X482273Y114801D01*
X482361Y114848D01*
X482451Y114892D01*
X482542Y114932D01*
X482635Y114968D01*
X482729Y115001D01*
X482825Y115030D01*
X482921Y115055D01*
X483018Y115076D01*
X483117Y115094D01*
X483215Y115107D01*
X483315Y115117D01*
X483414Y115123D01*
X483514Y115125D01*
X483614Y115123D01*
X483713Y115117D01*
X483813Y115107D01*
X483911Y115094D01*
X484010Y115076D01*
X484107Y115055D01*
X484203Y115030D01*
X484299Y115001D01*
X484393Y114968D01*
X484486Y114932D01*
X484577Y114892D01*
X484667Y114848D01*
X484755Y114801D01*
X484841Y114751D01*
X484925Y114697D01*
X485007Y114640D01*
X485086Y114580D01*
X485164Y114516D01*
X485238Y114450D01*
X485310Y114381D01*
X485379Y114309D01*
X485445Y114235D01*
X485509Y114157D01*
X485569Y114078D01*
X485626Y113996D01*
X485680Y113912D01*
X485730Y113826D01*
X485777Y113738D01*
X485821Y113648D01*
X485861Y113557D01*
X485897Y113464D01*
X485930Y113370D01*
X485959Y113274D01*
X485984Y113178D01*
X486005Y113081D01*
X486023Y112982D01*
X486036Y112884D01*
X486046Y112784D01*
X486052Y112685D01*
X486054Y112585D01*
X486054Y108521D01*
X486052Y108421D01*
X486046Y108322D01*
X486036Y108222D01*
X486023Y108124D01*
X486005Y108025D01*
X485984Y107928D01*
X485959Y107832D01*
X485930Y107736D01*
X485897Y107642D01*
X485861Y107549D01*
X485821Y107458D01*
X485777Y107368D01*
X485730Y107280D01*
X485680Y107194D01*
X485626Y107110D01*
X485569Y107028D01*
X485509Y106949D01*
X485445Y106871D01*
X485379Y106797D01*
X485310Y106725D01*
X485238Y106656D01*
X485164Y106590D01*
X485086Y106526D01*
X485007Y106466D01*
X484925Y106409D01*
X484841Y106355D01*
X484755Y106305D01*
X484667Y106258D01*
X484577Y106214D01*
X484486Y106174D01*
X484393Y106138D01*
X484299Y106105D01*
X484203Y106076D01*
X484107Y106051D01*
X484010Y106030D01*
X483911Y106012D01*
X483813Y105999D01*
X483713Y105989D01*
X483614Y105983D01*
X483514Y105981D01*
X483414Y105983D01*
X483315Y105989D01*
X483215Y105999D01*
X483117Y106012D01*
X483018Y106030D01*
X482921Y106051D01*
X482825Y106076D01*
X482729Y106105D01*
X482635Y106138D01*
X482542Y106174D01*
X482451Y106214D01*
X482361Y106258D01*
X482273Y106305D01*
X482187Y106355D01*
X482103Y106409D01*
X482021Y106466D01*
X481942Y106526D01*
X481864Y106590D01*
X481790Y106656D01*
X481718Y106725D01*
X481649Y106797D01*
X481583Y106871D01*
X481519Y106949D01*
X481459Y107028D01*
X481402Y107110D01*
X481348Y107194D01*
X481298Y107280D01*
X481251Y107368D01*
X481207Y107458D01*
X481167Y107549D01*
X481131Y107642D01*
X481098Y107736D01*
X481069Y107832D01*
X481044Y107928D01*
X481023Y108025D01*
X481005Y108124D01*
X480992Y108222D01*
X480982Y108322D01*
X480976Y108421D01*
X480974Y108521D01*
X492049Y105981D02*
X492049Y115125D01*
X489509Y115125D02*
X494589Y115125D01*
X498043Y112585D02*
X498043Y108521D01*
X498043Y112585D02*
X498045Y112685D01*
X498051Y112784D01*
X498061Y112884D01*
X498074Y112982D01*
X498092Y113081D01*
X498113Y113178D01*
X498138Y113274D01*
X498167Y113370D01*
X498200Y113464D01*
X498236Y113557D01*
X498276Y113648D01*
X498320Y113738D01*
X498367Y113826D01*
X498417Y113912D01*
X498471Y113996D01*
X498528Y114078D01*
X498588Y114157D01*
X498652Y114235D01*
X498718Y114309D01*
X498787Y114381D01*
X498859Y114450D01*
X498933Y114516D01*
X499011Y114580D01*
X499090Y114640D01*
X499172Y114697D01*
X499256Y114751D01*
X499342Y114801D01*
X499430Y114848D01*
X499520Y114892D01*
X499611Y114932D01*
X499704Y114968D01*
X499798Y115001D01*
X499894Y115030D01*
X499990Y115055D01*
X500087Y115076D01*
X500186Y115094D01*
X500284Y115107D01*
X500384Y115117D01*
X500483Y115123D01*
X500583Y115125D01*
X500683Y115123D01*
X500782Y115117D01*
X500882Y115107D01*
X500980Y115094D01*
X501079Y115076D01*
X501176Y115055D01*
X501272Y115030D01*
X501368Y115001D01*
X501462Y114968D01*
X501555Y114932D01*
X501646Y114892D01*
X501736Y114848D01*
X501824Y114801D01*
X501910Y114751D01*
X501994Y114697D01*
X502076Y114640D01*
X502155Y114580D01*
X502233Y114516D01*
X502307Y114450D01*
X502379Y114381D01*
X502448Y114309D01*
X502514Y114235D01*
X502578Y114157D01*
X502638Y114078D01*
X502695Y113996D01*
X502749Y113912D01*
X502799Y113826D01*
X502846Y113738D01*
X502890Y113648D01*
X502930Y113557D01*
X502966Y113464D01*
X502999Y113370D01*
X503028Y113274D01*
X503053Y113178D01*
X503074Y113081D01*
X503092Y112982D01*
X503105Y112884D01*
X503115Y112784D01*
X503121Y112685D01*
X503123Y112585D01*
X503123Y108521D01*
X503121Y108421D01*
X503115Y108322D01*
X503105Y108222D01*
X503092Y108124D01*
X503074Y108025D01*
X503053Y107928D01*
X503028Y107832D01*
X502999Y107736D01*
X502966Y107642D01*
X502930Y107549D01*
X502890Y107458D01*
X502846Y107368D01*
X502799Y107280D01*
X502749Y107194D01*
X502695Y107110D01*
X502638Y107028D01*
X502578Y106949D01*
X502514Y106871D01*
X502448Y106797D01*
X502379Y106725D01*
X502307Y106656D01*
X502233Y106590D01*
X502155Y106526D01*
X502076Y106466D01*
X501994Y106409D01*
X501910Y106355D01*
X501824Y106305D01*
X501736Y106258D01*
X501646Y106214D01*
X501555Y106174D01*
X501462Y106138D01*
X501368Y106105D01*
X501272Y106076D01*
X501176Y106051D01*
X501079Y106030D01*
X500980Y106012D01*
X500882Y105999D01*
X500782Y105989D01*
X500683Y105983D01*
X500583Y105981D01*
X500483Y105983D01*
X500384Y105989D01*
X500284Y105999D01*
X500186Y106012D01*
X500087Y106030D01*
X499990Y106051D01*
X499894Y106076D01*
X499798Y106105D01*
X499704Y106138D01*
X499611Y106174D01*
X499520Y106214D01*
X499430Y106258D01*
X499342Y106305D01*
X499256Y106355D01*
X499172Y106409D01*
X499090Y106466D01*
X499011Y106526D01*
X498933Y106590D01*
X498859Y106656D01*
X498787Y106725D01*
X498718Y106797D01*
X498652Y106871D01*
X498588Y106949D01*
X498528Y107028D01*
X498471Y107110D01*
X498417Y107194D01*
X498367Y107280D01*
X498320Y107368D01*
X498276Y107458D01*
X498236Y107549D01*
X498200Y107642D01*
X498167Y107736D01*
X498138Y107832D01*
X498113Y107928D01*
X498092Y108025D01*
X498074Y108124D01*
X498061Y108222D01*
X498051Y108322D01*
X498045Y108421D01*
X498043Y108521D01*
X507558Y105981D02*
X507558Y115125D01*
X510098Y115125D01*
X510198Y115123D01*
X510297Y115117D01*
X510397Y115107D01*
X510495Y115094D01*
X510594Y115076D01*
X510691Y115055D01*
X510787Y115030D01*
X510883Y115001D01*
X510977Y114968D01*
X511070Y114932D01*
X511161Y114892D01*
X511251Y114848D01*
X511339Y114801D01*
X511425Y114751D01*
X511509Y114697D01*
X511591Y114640D01*
X511670Y114580D01*
X511748Y114516D01*
X511822Y114450D01*
X511894Y114381D01*
X511963Y114309D01*
X512029Y114235D01*
X512093Y114157D01*
X512153Y114078D01*
X512210Y113996D01*
X512264Y113912D01*
X512314Y113826D01*
X512361Y113738D01*
X512405Y113648D01*
X512445Y113557D01*
X512481Y113464D01*
X512514Y113370D01*
X512543Y113274D01*
X512568Y113178D01*
X512589Y113081D01*
X512607Y112982D01*
X512620Y112884D01*
X512630Y112784D01*
X512636Y112685D01*
X512638Y112585D01*
X512636Y112485D01*
X512630Y112386D01*
X512620Y112286D01*
X512607Y112188D01*
X512589Y112089D01*
X512568Y111992D01*
X512543Y111896D01*
X512514Y111800D01*
X512481Y111706D01*
X512445Y111613D01*
X512405Y111522D01*
X512361Y111432D01*
X512314Y111344D01*
X512264Y111258D01*
X512210Y111174D01*
X512153Y111092D01*
X512093Y111013D01*
X512029Y110935D01*
X511963Y110861D01*
X511894Y110789D01*
X511822Y110720D01*
X511748Y110654D01*
X511670Y110590D01*
X511591Y110530D01*
X511509Y110473D01*
X511425Y110419D01*
X511339Y110369D01*
X511251Y110322D01*
X511161Y110278D01*
X511070Y110238D01*
X510977Y110202D01*
X510883Y110169D01*
X510787Y110140D01*
X510691Y110115D01*
X510594Y110094D01*
X510495Y110076D01*
X510397Y110063D01*
X510297Y110053D01*
X510198Y110047D01*
X510098Y110045D01*
X507558Y110045D01*
X510606Y110045D02*
X512638Y105981D01*
D16*
X605960Y100473D02*
X605960Y42973D01*
X605960Y100473D02*
X531960Y100473D01*
X531960Y42973D01*
X605960Y42973D01*
D17*
X555960Y43548D02*
X555960Y48548D01*
X581960Y48548D02*
X581960Y43548D01*
X581960Y48548D02*
X555960Y48548D01*
D15*
X525902Y46656D02*
X516758Y52752D01*
X516758Y46656D02*
X525902Y52752D01*
X519044Y61388D02*
X518950Y61386D01*
X518855Y61380D01*
X518761Y61370D01*
X518668Y61357D01*
X518575Y61339D01*
X518483Y61318D01*
X518392Y61293D01*
X518302Y61264D01*
X518213Y61232D01*
X518126Y61195D01*
X518040Y61156D01*
X517956Y61112D01*
X517874Y61066D01*
X517794Y61016D01*
X517716Y60962D01*
X517640Y60906D01*
X517567Y60846D01*
X517496Y60784D01*
X517428Y60718D01*
X517362Y60650D01*
X517300Y60579D01*
X517240Y60506D01*
X517184Y60430D01*
X517130Y60352D01*
X517080Y60272D01*
X517034Y60190D01*
X516990Y60106D01*
X516951Y60020D01*
X516914Y59933D01*
X516882Y59844D01*
X516853Y59754D01*
X516828Y59663D01*
X516807Y59571D01*
X516789Y59478D01*
X516776Y59385D01*
X516766Y59291D01*
X516760Y59196D01*
X516758Y59102D01*
X516760Y58996D01*
X516766Y58891D01*
X516775Y58786D01*
X516788Y58681D01*
X516805Y58577D01*
X516826Y58474D01*
X516850Y58371D01*
X516879Y58269D01*
X516910Y58169D01*
X516946Y58069D01*
X516984Y57971D01*
X517027Y57875D01*
X517073Y57779D01*
X517122Y57686D01*
X517174Y57595D01*
X517230Y57505D01*
X517289Y57417D01*
X517351Y57332D01*
X517416Y57249D01*
X517484Y57168D01*
X517555Y57090D01*
X517629Y57015D01*
X517705Y56942D01*
X517784Y56872D01*
X517865Y56805D01*
X517949Y56740D01*
X518035Y56679D01*
X518123Y56621D01*
X518213Y56566D01*
X518305Y56515D01*
X518399Y56466D01*
X518495Y56421D01*
X518592Y56380D01*
X518690Y56342D01*
X518790Y56308D01*
X520822Y60626D02*
X520755Y60693D01*
X520686Y60758D01*
X520614Y60820D01*
X520541Y60879D01*
X520464Y60935D01*
X520386Y60989D01*
X520306Y61039D01*
X520224Y61086D01*
X520140Y61130D01*
X520054Y61170D01*
X519967Y61208D01*
X519879Y61242D01*
X519789Y61272D01*
X519699Y61299D01*
X519607Y61323D01*
X519514Y61343D01*
X519421Y61359D01*
X519327Y61372D01*
X519233Y61381D01*
X519139Y61386D01*
X519044Y61388D01*
X520822Y60626D02*
X525902Y56308D01*
X525902Y61388D01*
X536443Y105981D02*
X539491Y115125D01*
X542539Y105981D01*
X541777Y108267D02*
X537205Y108267D01*
X546095Y108521D02*
X546095Y112585D01*
X546097Y112685D01*
X546103Y112784D01*
X546113Y112884D01*
X546126Y112982D01*
X546144Y113081D01*
X546165Y113178D01*
X546190Y113274D01*
X546219Y113370D01*
X546252Y113464D01*
X546288Y113557D01*
X546328Y113648D01*
X546372Y113738D01*
X546419Y113826D01*
X546469Y113912D01*
X546523Y113996D01*
X546580Y114078D01*
X546640Y114157D01*
X546704Y114235D01*
X546770Y114309D01*
X546839Y114381D01*
X546911Y114450D01*
X546985Y114516D01*
X547063Y114580D01*
X547142Y114640D01*
X547224Y114697D01*
X547308Y114751D01*
X547394Y114801D01*
X547482Y114848D01*
X547572Y114892D01*
X547663Y114932D01*
X547756Y114968D01*
X547850Y115001D01*
X547946Y115030D01*
X548042Y115055D01*
X548139Y115076D01*
X548238Y115094D01*
X548336Y115107D01*
X548436Y115117D01*
X548535Y115123D01*
X548635Y115125D01*
X548735Y115123D01*
X548834Y115117D01*
X548934Y115107D01*
X549032Y115094D01*
X549131Y115076D01*
X549228Y115055D01*
X549324Y115030D01*
X549420Y115001D01*
X549514Y114968D01*
X549607Y114932D01*
X549698Y114892D01*
X549788Y114848D01*
X549876Y114801D01*
X549962Y114751D01*
X550046Y114697D01*
X550128Y114640D01*
X550207Y114580D01*
X550285Y114516D01*
X550359Y114450D01*
X550431Y114381D01*
X550500Y114309D01*
X550566Y114235D01*
X550630Y114157D01*
X550690Y114078D01*
X550747Y113996D01*
X550801Y113912D01*
X550851Y113826D01*
X550898Y113738D01*
X550942Y113648D01*
X550982Y113557D01*
X551018Y113464D01*
X551051Y113370D01*
X551080Y113274D01*
X551105Y113178D01*
X551126Y113081D01*
X551144Y112982D01*
X551157Y112884D01*
X551167Y112784D01*
X551173Y112685D01*
X551175Y112585D01*
X551175Y108521D01*
X551173Y108421D01*
X551167Y108322D01*
X551157Y108222D01*
X551144Y108124D01*
X551126Y108025D01*
X551105Y107928D01*
X551080Y107832D01*
X551051Y107736D01*
X551018Y107642D01*
X550982Y107549D01*
X550942Y107458D01*
X550898Y107368D01*
X550851Y107280D01*
X550801Y107194D01*
X550747Y107110D01*
X550690Y107028D01*
X550630Y106949D01*
X550566Y106871D01*
X550500Y106797D01*
X550431Y106725D01*
X550359Y106656D01*
X550285Y106590D01*
X550207Y106526D01*
X550128Y106466D01*
X550046Y106409D01*
X549962Y106355D01*
X549876Y106305D01*
X549788Y106258D01*
X549698Y106214D01*
X549607Y106174D01*
X549514Y106138D01*
X549420Y106105D01*
X549324Y106076D01*
X549228Y106051D01*
X549131Y106030D01*
X549032Y106012D01*
X548934Y105999D01*
X548834Y105989D01*
X548735Y105983D01*
X548635Y105981D01*
X548535Y105983D01*
X548436Y105989D01*
X548336Y105999D01*
X548238Y106012D01*
X548139Y106030D01*
X548042Y106051D01*
X547946Y106076D01*
X547850Y106105D01*
X547756Y106138D01*
X547663Y106174D01*
X547572Y106214D01*
X547482Y106258D01*
X547394Y106305D01*
X547308Y106355D01*
X547224Y106409D01*
X547142Y106466D01*
X547063Y106526D01*
X546985Y106590D01*
X546911Y106656D01*
X546839Y106725D01*
X546770Y106797D01*
X546704Y106871D01*
X546640Y106949D01*
X546580Y107028D01*
X546523Y107110D01*
X546469Y107194D01*
X546419Y107280D01*
X546372Y107368D01*
X546328Y107458D01*
X546288Y107549D01*
X546252Y107642D01*
X546219Y107736D01*
X546190Y107832D01*
X546165Y107928D01*
X546144Y108025D01*
X546126Y108124D01*
X546113Y108222D01*
X546103Y108322D01*
X546097Y108421D01*
X546095Y108521D01*
X555564Y105981D02*
X555564Y115125D01*
X559628Y115125D01*
X559628Y111061D02*
X555564Y111061D01*
D16*
X117772Y112823D02*
X117772Y170323D01*
X43772Y170323D01*
X43772Y112823D01*
X117772Y112823D01*
D17*
X67772Y113398D02*
X67772Y118398D01*
X93772Y118398D02*
X93772Y113398D01*
X93772Y118398D02*
X67772Y118398D01*
D15*
X37714Y116506D02*
X28570Y122602D01*
X28570Y116506D02*
X37714Y122602D01*
X37714Y126158D02*
X37714Y128698D01*
X37712Y128798D01*
X37706Y128897D01*
X37696Y128997D01*
X37683Y129095D01*
X37665Y129194D01*
X37644Y129291D01*
X37619Y129387D01*
X37590Y129483D01*
X37557Y129577D01*
X37521Y129670D01*
X37481Y129761D01*
X37437Y129851D01*
X37390Y129939D01*
X37340Y130025D01*
X37286Y130109D01*
X37229Y130191D01*
X37169Y130270D01*
X37105Y130348D01*
X37039Y130422D01*
X36970Y130494D01*
X36898Y130563D01*
X36824Y130629D01*
X36746Y130693D01*
X36667Y130753D01*
X36585Y130810D01*
X36501Y130864D01*
X36415Y130914D01*
X36327Y130961D01*
X36237Y131005D01*
X36146Y131045D01*
X36053Y131081D01*
X35959Y131114D01*
X35863Y131143D01*
X35767Y131168D01*
X35670Y131189D01*
X35571Y131207D01*
X35473Y131220D01*
X35373Y131230D01*
X35274Y131236D01*
X35174Y131238D01*
X35074Y131236D01*
X34975Y131230D01*
X34875Y131220D01*
X34777Y131207D01*
X34678Y131189D01*
X34581Y131168D01*
X34485Y131143D01*
X34389Y131114D01*
X34295Y131081D01*
X34202Y131045D01*
X34111Y131005D01*
X34021Y130961D01*
X33933Y130914D01*
X33847Y130864D01*
X33763Y130810D01*
X33681Y130753D01*
X33602Y130693D01*
X33524Y130629D01*
X33450Y130563D01*
X33378Y130494D01*
X33309Y130422D01*
X33243Y130348D01*
X33179Y130270D01*
X33119Y130191D01*
X33062Y130109D01*
X33008Y130025D01*
X32958Y129939D01*
X32911Y129851D01*
X32867Y129761D01*
X32827Y129670D01*
X32791Y129577D01*
X32758Y129483D01*
X32729Y129387D01*
X32704Y129291D01*
X32683Y129194D01*
X32665Y129095D01*
X32652Y128997D01*
X32642Y128897D01*
X32636Y128798D01*
X32634Y128698D01*
X28570Y129206D02*
X28570Y126158D01*
X28570Y129206D02*
X28572Y129295D01*
X28578Y129383D01*
X28587Y129471D01*
X28601Y129559D01*
X28618Y129646D01*
X28639Y129732D01*
X28664Y129817D01*
X28693Y129901D01*
X28725Y129984D01*
X28760Y130065D01*
X28800Y130144D01*
X28842Y130222D01*
X28888Y130298D01*
X28937Y130372D01*
X28990Y130443D01*
X29045Y130512D01*
X29104Y130579D01*
X29165Y130643D01*
X29229Y130704D01*
X29296Y130763D01*
X29365Y130818D01*
X29436Y130871D01*
X29510Y130920D01*
X29586Y130966D01*
X29664Y131008D01*
X29743Y131048D01*
X29824Y131083D01*
X29907Y131115D01*
X29991Y131144D01*
X30076Y131169D01*
X30162Y131190D01*
X30249Y131207D01*
X30337Y131221D01*
X30425Y131230D01*
X30513Y131236D01*
X30602Y131238D01*
X30691Y131236D01*
X30779Y131230D01*
X30867Y131221D01*
X30955Y131207D01*
X31042Y131190D01*
X31128Y131169D01*
X31213Y131144D01*
X31297Y131115D01*
X31380Y131083D01*
X31461Y131048D01*
X31540Y131008D01*
X31618Y130966D01*
X31694Y130920D01*
X31768Y130871D01*
X31839Y130818D01*
X31908Y130763D01*
X31975Y130704D01*
X32039Y130643D01*
X32100Y130579D01*
X32159Y130512D01*
X32214Y130443D01*
X32267Y130372D01*
X32316Y130298D01*
X32362Y130222D01*
X32404Y130144D01*
X32444Y130065D01*
X32479Y129984D01*
X32511Y129901D01*
X32540Y129817D01*
X32565Y129732D01*
X32586Y129646D01*
X32603Y129559D01*
X32617Y129471D01*
X32626Y129383D01*
X32632Y129295D01*
X32634Y129206D01*
X32634Y127174D01*
X50287Y175831D02*
X52319Y175831D01*
X50287Y175831D02*
X50198Y175833D01*
X50110Y175839D01*
X50022Y175848D01*
X49934Y175862D01*
X49847Y175879D01*
X49761Y175900D01*
X49676Y175925D01*
X49592Y175954D01*
X49509Y175986D01*
X49428Y176021D01*
X49349Y176061D01*
X49271Y176103D01*
X49195Y176149D01*
X49121Y176198D01*
X49050Y176251D01*
X48981Y176306D01*
X48914Y176365D01*
X48850Y176426D01*
X48789Y176490D01*
X48730Y176557D01*
X48675Y176626D01*
X48622Y176697D01*
X48573Y176771D01*
X48527Y176847D01*
X48485Y176925D01*
X48445Y177004D01*
X48410Y177085D01*
X48378Y177168D01*
X48349Y177252D01*
X48324Y177337D01*
X48303Y177423D01*
X48286Y177510D01*
X48272Y177598D01*
X48263Y177686D01*
X48257Y177774D01*
X48255Y177863D01*
X48255Y182943D01*
X48257Y183032D01*
X48263Y183120D01*
X48272Y183208D01*
X48286Y183296D01*
X48303Y183383D01*
X48324Y183469D01*
X48349Y183554D01*
X48378Y183638D01*
X48410Y183721D01*
X48445Y183802D01*
X48485Y183881D01*
X48527Y183959D01*
X48573Y184035D01*
X48622Y184109D01*
X48675Y184180D01*
X48730Y184249D01*
X48789Y184316D01*
X48850Y184380D01*
X48914Y184441D01*
X48981Y184500D01*
X49050Y184555D01*
X49121Y184608D01*
X49195Y184657D01*
X49271Y184703D01*
X49349Y184745D01*
X49428Y184785D01*
X49509Y184820D01*
X49592Y184852D01*
X49676Y184881D01*
X49761Y184906D01*
X49847Y184927D01*
X49934Y184944D01*
X50022Y184958D01*
X50110Y184967D01*
X50198Y184973D01*
X50287Y184975D01*
X52319Y184975D01*
X56230Y184975D02*
X56230Y175831D01*
X56230Y184975D02*
X60294Y184975D01*
X60294Y180911D02*
X56230Y180911D01*
D16*
X642282Y-28051D02*
X642282Y-85551D01*
X642282Y-28051D02*
X568282Y-28051D01*
X568282Y-85551D01*
X642282Y-85551D01*
D17*
X592282Y-84976D02*
X592282Y-79976D01*
X618282Y-79976D02*
X618282Y-84976D01*
X618282Y-79976D02*
X592282Y-79976D01*
D15*
X562224Y-81868D02*
X553080Y-75772D01*
X553080Y-81868D02*
X562224Y-75772D01*
X560192Y-72216D02*
X553080Y-70184D01*
X560192Y-72216D02*
X560192Y-67136D01*
X558160Y-68660D02*
X562224Y-68660D01*
X574797Y-22543D02*
X576829Y-22543D01*
X574797Y-22543D02*
X574708Y-22541D01*
X574620Y-22535D01*
X574532Y-22526D01*
X574444Y-22512D01*
X574357Y-22495D01*
X574271Y-22474D01*
X574186Y-22449D01*
X574102Y-22420D01*
X574019Y-22388D01*
X573938Y-22353D01*
X573859Y-22313D01*
X573781Y-22271D01*
X573705Y-22225D01*
X573631Y-22176D01*
X573560Y-22123D01*
X573491Y-22068D01*
X573424Y-22009D01*
X573360Y-21948D01*
X573299Y-21884D01*
X573240Y-21817D01*
X573185Y-21748D01*
X573132Y-21677D01*
X573083Y-21603D01*
X573037Y-21527D01*
X572995Y-21449D01*
X572955Y-21370D01*
X572920Y-21289D01*
X572888Y-21206D01*
X572859Y-21122D01*
X572834Y-21037D01*
X572813Y-20951D01*
X572796Y-20864D01*
X572782Y-20776D01*
X572773Y-20688D01*
X572767Y-20600D01*
X572765Y-20511D01*
X572765Y-15431D01*
X572767Y-15342D01*
X572773Y-15254D01*
X572782Y-15166D01*
X572796Y-15078D01*
X572813Y-14991D01*
X572834Y-14905D01*
X572859Y-14820D01*
X572888Y-14736D01*
X572920Y-14653D01*
X572955Y-14572D01*
X572995Y-14493D01*
X573037Y-14415D01*
X573083Y-14339D01*
X573132Y-14265D01*
X573185Y-14194D01*
X573240Y-14125D01*
X573299Y-14058D01*
X573360Y-13994D01*
X573424Y-13933D01*
X573491Y-13874D01*
X573560Y-13819D01*
X573631Y-13766D01*
X573705Y-13717D01*
X573781Y-13671D01*
X573859Y-13629D01*
X573938Y-13589D01*
X574019Y-13554D01*
X574102Y-13522D01*
X574186Y-13493D01*
X574271Y-13468D01*
X574357Y-13447D01*
X574444Y-13430D01*
X574532Y-13416D01*
X574620Y-13407D01*
X574708Y-13401D01*
X574797Y-13399D01*
X576829Y-13399D01*
X580740Y-13399D02*
X580740Y-22543D01*
X580740Y-13399D02*
X584804Y-13399D01*
X584804Y-17463D02*
X580740Y-17463D01*
M02*
