G04 EAGLE Gerber RS-274X export*
G75*
%MOMM*%
%FSLAX34Y34*%
%LPD*%
%INSoldermask Top*%
%IPPOS*%
%AMOC8*
5,1,8,0,0,1.08239X$1,22.5*%
G01*
%ADD10C,3.203200*%
%ADD11C,2.203200*%
%ADD12C,4.703200*%
%ADD13C,2.082800*%
%ADD14R,2.743200X2.743200*%
%ADD15P,2.969212X8X22.500000*%
%ADD16R,2.403200X0.803200*%
%ADD17R,2.803200X2.003200*%
%ADD18C,1.727200*%
%ADD19C,1.219200*%
%ADD20C,0.406400*%
%ADD21C,0.959600*%


D10*
X424942Y254508D03*
X570484Y254508D03*
X502158Y143256D03*
D11*
X91440Y316738D03*
X91186Y221996D03*
D12*
X789432Y262636D03*
X789686Y-37592D03*
D13*
X140716Y331470D03*
X140716Y356870D03*
X139954Y168910D03*
X139954Y194310D03*
X140208Y255270D03*
X140208Y280670D03*
D14*
X204724Y281940D03*
D15*
X254724Y281940D03*
X304724Y281940D03*
X354724Y281940D03*
D16*
X631620Y56544D03*
X631620Y46544D03*
X631620Y66544D03*
X631620Y36544D03*
D17*
X655620Y232544D03*
X655620Y-9456D03*
D16*
X631620Y26544D03*
X631620Y16544D03*
X631620Y76544D03*
X631620Y86544D03*
X631620Y96544D03*
X631620Y106544D03*
X631620Y116544D03*
X631620Y126544D03*
X631620Y136544D03*
X631620Y146544D03*
X631620Y156544D03*
X631620Y166544D03*
X631620Y176544D03*
X631620Y186544D03*
X631620Y196544D03*
X631620Y206544D03*
D18*
X466344Y74168D02*
X466344Y58928D01*
X440944Y58928D02*
X440944Y74168D01*
X415544Y74168D02*
X415544Y58928D01*
X491744Y58928D02*
X491744Y74168D01*
X581660Y74168D02*
X581660Y58928D01*
X556260Y58928D02*
X556260Y74168D01*
X93472Y128778D02*
X93472Y144018D01*
X68072Y144018D02*
X68072Y128778D01*
X617982Y-54356D02*
X617982Y-69596D01*
X592582Y-69596D02*
X592582Y-54356D01*
D19*
X659384Y-78740D03*
X687324Y-77978D03*
X55880Y331470D03*
X470154Y235458D03*
X500888Y234696D03*
X532892Y234442D03*
X413766Y158750D03*
X449072Y159512D03*
X413512Y130302D03*
X450088Y129540D03*
X68834Y191262D03*
X95758Y191262D03*
D20*
X811784Y5588D02*
X811530Y-13970D01*
X811530Y-14732D01*
X811532Y-14916D01*
X811539Y-15100D01*
X811550Y-15284D01*
X811566Y-15467D01*
X811586Y-15650D01*
X811610Y-15833D01*
X811639Y-16015D01*
X811672Y-16196D01*
X811710Y-16376D01*
X811751Y-16556D01*
X811798Y-16734D01*
X811848Y-16911D01*
X811903Y-17087D01*
X811962Y-17261D01*
X812025Y-17434D01*
X812093Y-17605D01*
X812164Y-17775D01*
X812240Y-17943D01*
X812319Y-18109D01*
X812403Y-18273D01*
X812490Y-18435D01*
X812582Y-18595D01*
X812677Y-18753D01*
X812776Y-18908D01*
X812879Y-19061D01*
X812985Y-19211D01*
X813095Y-19359D01*
X813209Y-19504D01*
X813326Y-19646D01*
X813446Y-19785D01*
X813570Y-19921D01*
X813697Y-20055D01*
X813827Y-20185D01*
X813961Y-20312D01*
X814097Y-20436D01*
X814236Y-20556D01*
X814378Y-20673D01*
X814523Y-20787D01*
X814671Y-20897D01*
X814821Y-21003D01*
X814974Y-21106D01*
X815129Y-21205D01*
X815287Y-21300D01*
X815447Y-21392D01*
X815609Y-21479D01*
X815773Y-21563D01*
X815939Y-21642D01*
X816107Y-21718D01*
X816277Y-21789D01*
X816448Y-21857D01*
X816621Y-21920D01*
X816795Y-21979D01*
X816971Y-22034D01*
X817148Y-22084D01*
X817326Y-22131D01*
X817506Y-22172D01*
X817686Y-22210D01*
X817867Y-22243D01*
X818049Y-22272D01*
X818232Y-22296D01*
X818415Y-22316D01*
X818598Y-22332D01*
X818782Y-22343D01*
X818966Y-22350D01*
X819150Y-22352D01*
X840486Y-22352D01*
X830072Y-20066D02*
X830072Y5588D01*
X811530Y18796D02*
X811530Y38354D01*
X811530Y18796D02*
X811532Y18599D01*
X811540Y18401D01*
X811552Y18205D01*
X811568Y18008D01*
X811590Y17812D01*
X811616Y17616D01*
X811647Y17421D01*
X811683Y17227D01*
X811723Y17034D01*
X811768Y16842D01*
X811818Y16651D01*
X811872Y16461D01*
X811931Y16273D01*
X811995Y16086D01*
X812063Y15901D01*
X812135Y15717D01*
X812212Y15536D01*
X812293Y15356D01*
X812379Y15178D01*
X812469Y15002D01*
X812563Y14829D01*
X812662Y14658D01*
X812764Y14489D01*
X812871Y14323D01*
X812981Y14160D01*
X813096Y13999D01*
X813214Y13841D01*
X813336Y13686D01*
X813462Y13534D01*
X813591Y13385D01*
X813724Y13240D01*
X813861Y13097D01*
X814001Y12958D01*
X814144Y12822D01*
X814291Y12690D01*
X814441Y12562D01*
X814593Y12437D01*
X814749Y12316D01*
X814908Y12198D01*
X815069Y12085D01*
X815233Y11976D01*
X815400Y11870D01*
X815570Y11769D01*
X815741Y11672D01*
X815915Y11579D01*
X816092Y11490D01*
X816270Y11405D01*
X816450Y11325D01*
X816632Y11249D01*
X816816Y11178D01*
X817002Y11111D01*
X817189Y11049D01*
X817378Y10991D01*
X817568Y10938D01*
X817759Y10890D01*
X817952Y10846D01*
X818145Y10807D01*
X818339Y10772D01*
X818535Y10743D01*
X818730Y10718D01*
X818927Y10697D01*
X819123Y10682D01*
X819320Y10671D01*
X819518Y10665D01*
X819715Y10664D01*
X819912Y10668D01*
X840486Y10414D01*
X811784Y44704D02*
X811784Y65024D01*
X811786Y65223D01*
X811794Y65421D01*
X811806Y65619D01*
X811823Y65817D01*
X811845Y66015D01*
X811871Y66212D01*
X811903Y66408D01*
X811939Y66603D01*
X811980Y66798D01*
X812025Y66991D01*
X812076Y67183D01*
X812131Y67374D01*
X812191Y67563D01*
X812255Y67751D01*
X812324Y67938D01*
X812397Y68122D01*
X812475Y68305D01*
X812558Y68486D01*
X812644Y68664D01*
X812735Y68841D01*
X812831Y69015D01*
X812930Y69187D01*
X813034Y69357D01*
X813142Y69523D01*
X813254Y69687D01*
X813370Y69849D01*
X813490Y70007D01*
X813613Y70163D01*
X813741Y70315D01*
X813872Y70464D01*
X814007Y70610D01*
X814145Y70753D01*
X814286Y70892D01*
X814432Y71028D01*
X814580Y71160D01*
X814731Y71289D01*
X814886Y71414D01*
X815043Y71535D01*
X815204Y71652D01*
X815367Y71765D01*
X815533Y71874D01*
X815702Y71979D01*
X815873Y72080D01*
X816047Y72176D01*
X816222Y72269D01*
X816401Y72357D01*
X816581Y72441D01*
X816763Y72520D01*
X816947Y72595D01*
X817133Y72665D01*
X817320Y72731D01*
X817509Y72792D01*
X817700Y72848D01*
X817891Y72900D01*
X818084Y72947D01*
X818279Y72989D01*
X818474Y73027D01*
X818669Y73060D01*
X818866Y73088D01*
X819063Y73111D01*
X819261Y73130D01*
X819459Y73143D01*
X819658Y73152D01*
X840740Y72898D01*
X839724Y64008D02*
X839724Y49784D01*
X839721Y49569D01*
X839714Y49353D01*
X839701Y49138D01*
X839682Y48923D01*
X839659Y48709D01*
X839630Y48496D01*
X839596Y48283D01*
X839557Y48071D01*
X839513Y47860D01*
X839464Y47650D01*
X839410Y47442D01*
X839351Y47235D01*
X839287Y47029D01*
X839217Y46825D01*
X839143Y46623D01*
X839064Y46422D01*
X838980Y46224D01*
X838892Y46027D01*
X838798Y45833D01*
X838700Y45641D01*
X838598Y45452D01*
X838490Y45265D01*
X838379Y45081D01*
X838262Y44899D01*
X838142Y44721D01*
X838017Y44545D01*
X837888Y44372D01*
X837755Y44203D01*
X837618Y44037D01*
X837477Y43874D01*
X837331Y43715D01*
X837182Y43559D01*
X837030Y43407D01*
X836874Y43259D01*
X836714Y43114D01*
X836550Y42974D01*
X836384Y42837D01*
X836214Y42705D01*
X836041Y42576D01*
X835865Y42452D01*
X835686Y42332D01*
X835504Y42217D01*
X835319Y42106D01*
X835132Y41999D01*
X834942Y41898D01*
X834749Y41800D01*
X834555Y41708D01*
X834358Y41620D01*
X834159Y41537D01*
X833959Y41458D01*
X833756Y41385D01*
X833552Y41317D01*
X833346Y41253D01*
X833138Y41195D01*
X832930Y41141D01*
X832720Y41093D01*
X832509Y41050D01*
X832297Y41012D01*
X832084Y40979D01*
X831870Y40951D01*
X831656Y40928D01*
X831441Y40911D01*
X831226Y40899D01*
X831010Y40892D01*
X830795Y40890D01*
X830580Y40894D01*
X830335Y40904D01*
X830091Y40920D01*
X829848Y40941D01*
X829605Y40969D01*
X829363Y41003D01*
X829122Y41042D01*
X828881Y41088D01*
X828642Y41139D01*
X828405Y41196D01*
X828168Y41259D01*
X827934Y41327D01*
X827701Y41401D01*
X827470Y41481D01*
X827241Y41567D01*
X827014Y41658D01*
X826789Y41754D01*
X826567Y41856D01*
X826348Y41964D01*
X826131Y42076D01*
X825917Y42194D01*
X825705Y42318D01*
X825497Y42446D01*
X825292Y42579D01*
X825091Y42717D01*
X824893Y42860D01*
X824698Y43008D01*
X824507Y43161D01*
X824320Y43318D01*
X824137Y43480D01*
X823957Y43646D01*
X823782Y43817D01*
X823611Y43991D01*
X823444Y44170D01*
X823282Y44353D01*
X823124Y44540D01*
X822971Y44730D01*
X822823Y44924D01*
X822679Y45122D01*
X822540Y45323D01*
X822406Y45528D01*
X822277Y45736D01*
X822154Y45946D01*
X822035Y46160D01*
X821922Y46377D01*
X821814Y46596D01*
X821711Y46818D01*
X821614Y47042D01*
X821522Y47269D01*
X821436Y47498D01*
X821436Y71120D01*
X811530Y89662D02*
X811530Y112014D01*
X811530Y89662D02*
X811532Y89469D01*
X811539Y89275D01*
X811551Y89082D01*
X811568Y88890D01*
X811589Y88697D01*
X811615Y88506D01*
X811646Y88315D01*
X811681Y88125D01*
X811721Y87935D01*
X811765Y87747D01*
X811814Y87560D01*
X811868Y87374D01*
X811926Y87190D01*
X811989Y87007D01*
X812056Y86826D01*
X812128Y86646D01*
X812204Y86468D01*
X812284Y86292D01*
X812368Y86118D01*
X812457Y85946D01*
X812550Y85777D01*
X812647Y85610D01*
X812748Y85445D01*
X812854Y85282D01*
X812963Y85123D01*
X813076Y84966D01*
X813192Y84811D01*
X813313Y84660D01*
X813437Y84512D01*
X813565Y84367D01*
X813696Y84225D01*
X813831Y84086D01*
X813969Y83950D01*
X814110Y83818D01*
X814254Y83690D01*
X814402Y83565D01*
X814553Y83443D01*
X814706Y83326D01*
X814863Y83212D01*
X815022Y83102D01*
X815183Y82996D01*
X815348Y82894D01*
X815514Y82796D01*
X815683Y82702D01*
X815855Y82612D01*
X816028Y82527D01*
X816204Y82446D01*
X816381Y82369D01*
X816560Y82296D01*
X816741Y82228D01*
X816924Y82164D01*
X817108Y82105D01*
X817294Y82050D01*
X817480Y82000D01*
X817668Y81955D01*
X817857Y81914D01*
X818047Y81877D01*
X818238Y81846D01*
X818430Y81819D01*
X818622Y81796D01*
X818814Y81779D01*
X819007Y81766D01*
X819200Y81758D01*
X819394Y81754D01*
X819587Y81755D01*
X819781Y81761D01*
X819974Y81772D01*
X820166Y81788D01*
X831596Y82042D01*
X831801Y82049D01*
X832006Y82061D01*
X832211Y82078D01*
X832415Y82100D01*
X832619Y82127D01*
X832821Y82159D01*
X833023Y82195D01*
X833224Y82237D01*
X833424Y82284D01*
X833623Y82335D01*
X833821Y82391D01*
X834017Y82452D01*
X834211Y82517D01*
X834404Y82588D01*
X834595Y82663D01*
X834785Y82742D01*
X834972Y82826D01*
X835157Y82915D01*
X835340Y83008D01*
X835521Y83105D01*
X835699Y83207D01*
X835875Y83313D01*
X836048Y83424D01*
X836218Y83538D01*
X836386Y83657D01*
X836551Y83780D01*
X836712Y83906D01*
X836871Y84037D01*
X837026Y84171D01*
X837178Y84309D01*
X837327Y84451D01*
X837472Y84596D01*
X837613Y84745D01*
X837751Y84897D01*
X837885Y85052D01*
X838016Y85211D01*
X838142Y85372D01*
X838265Y85537D01*
X838383Y85705D01*
X838498Y85875D01*
X838608Y86048D01*
X838714Y86224D01*
X838816Y86402D01*
X838913Y86583D01*
X839006Y86766D01*
X839095Y86951D01*
X839179Y87139D01*
X839258Y87328D01*
X839333Y87519D01*
X839403Y87712D01*
X839469Y87907D01*
X839530Y88103D01*
X839585Y88300D01*
X839637Y88499D01*
X839683Y88699D01*
X839724Y88900D01*
X839978Y112014D01*
X826770Y121666D02*
X810514Y121666D01*
X826770Y121666D02*
X840740Y121666D01*
X826770Y121666D02*
X811530Y153670D01*
X840232Y153670D02*
X825754Y124460D01*
X812038Y161290D02*
X812038Y196850D01*
X811784Y179324D02*
X840486Y179324D01*
X811784Y203200D02*
X811784Y223520D01*
X811786Y223719D01*
X811794Y223917D01*
X811806Y224115D01*
X811823Y224313D01*
X811845Y224511D01*
X811871Y224708D01*
X811903Y224904D01*
X811939Y225099D01*
X811980Y225294D01*
X812025Y225487D01*
X812076Y225679D01*
X812131Y225870D01*
X812191Y226059D01*
X812255Y226247D01*
X812324Y226434D01*
X812397Y226618D01*
X812475Y226801D01*
X812558Y226982D01*
X812644Y227160D01*
X812735Y227337D01*
X812831Y227511D01*
X812930Y227683D01*
X813034Y227853D01*
X813142Y228019D01*
X813254Y228183D01*
X813370Y228345D01*
X813490Y228503D01*
X813613Y228659D01*
X813741Y228811D01*
X813872Y228960D01*
X814007Y229106D01*
X814145Y229249D01*
X814286Y229388D01*
X814432Y229524D01*
X814580Y229656D01*
X814731Y229785D01*
X814886Y229910D01*
X815043Y230031D01*
X815204Y230148D01*
X815367Y230261D01*
X815533Y230370D01*
X815702Y230475D01*
X815873Y230576D01*
X816047Y230672D01*
X816222Y230765D01*
X816401Y230853D01*
X816581Y230937D01*
X816763Y231016D01*
X816947Y231091D01*
X817133Y231161D01*
X817320Y231227D01*
X817509Y231288D01*
X817700Y231344D01*
X817891Y231396D01*
X818084Y231443D01*
X818279Y231485D01*
X818474Y231523D01*
X818669Y231556D01*
X818866Y231584D01*
X819063Y231607D01*
X819261Y231626D01*
X819459Y231639D01*
X819658Y231648D01*
X840740Y231394D01*
X839724Y222504D02*
X839724Y208280D01*
X839721Y208065D01*
X839714Y207849D01*
X839701Y207634D01*
X839682Y207419D01*
X839659Y207205D01*
X839630Y206992D01*
X839596Y206779D01*
X839557Y206567D01*
X839513Y206356D01*
X839464Y206146D01*
X839410Y205938D01*
X839351Y205731D01*
X839287Y205525D01*
X839217Y205321D01*
X839143Y205119D01*
X839064Y204918D01*
X838980Y204720D01*
X838892Y204523D01*
X838798Y204329D01*
X838700Y204137D01*
X838598Y203948D01*
X838490Y203761D01*
X838379Y203577D01*
X838262Y203395D01*
X838142Y203217D01*
X838017Y203041D01*
X837888Y202868D01*
X837755Y202699D01*
X837618Y202533D01*
X837477Y202370D01*
X837331Y202211D01*
X837182Y202055D01*
X837030Y201903D01*
X836874Y201755D01*
X836714Y201610D01*
X836550Y201470D01*
X836384Y201333D01*
X836214Y201201D01*
X836041Y201072D01*
X835865Y200948D01*
X835686Y200828D01*
X835504Y200713D01*
X835319Y200602D01*
X835132Y200495D01*
X834942Y200394D01*
X834749Y200296D01*
X834555Y200204D01*
X834358Y200116D01*
X834159Y200033D01*
X833959Y199954D01*
X833756Y199881D01*
X833552Y199813D01*
X833346Y199749D01*
X833138Y199691D01*
X832930Y199637D01*
X832720Y199589D01*
X832509Y199546D01*
X832297Y199508D01*
X832084Y199475D01*
X831870Y199447D01*
X831656Y199424D01*
X831441Y199407D01*
X831226Y199395D01*
X831010Y199388D01*
X830795Y199386D01*
X830580Y199390D01*
X830335Y199400D01*
X830091Y199416D01*
X829848Y199437D01*
X829605Y199465D01*
X829363Y199499D01*
X829122Y199538D01*
X828881Y199584D01*
X828642Y199635D01*
X828405Y199692D01*
X828168Y199755D01*
X827934Y199823D01*
X827701Y199897D01*
X827470Y199977D01*
X827241Y200063D01*
X827014Y200154D01*
X826789Y200250D01*
X826567Y200352D01*
X826348Y200460D01*
X826131Y200572D01*
X825917Y200690D01*
X825705Y200814D01*
X825497Y200942D01*
X825292Y201075D01*
X825091Y201213D01*
X824893Y201356D01*
X824698Y201504D01*
X824507Y201657D01*
X824320Y201814D01*
X824137Y201976D01*
X823957Y202142D01*
X823782Y202313D01*
X823611Y202487D01*
X823444Y202666D01*
X823282Y202849D01*
X823124Y203036D01*
X822971Y203226D01*
X822823Y203420D01*
X822679Y203618D01*
X822540Y203819D01*
X822406Y204024D01*
X822277Y204232D01*
X822154Y204442D01*
X822035Y204656D01*
X821922Y204873D01*
X821814Y205092D01*
X821711Y205314D01*
X821614Y205538D01*
X821522Y205765D01*
X821436Y205994D01*
X821436Y229616D01*
X831596Y243078D02*
X810260Y243078D01*
X831596Y243078D02*
X831796Y243080D01*
X831997Y243088D01*
X832197Y243100D01*
X832396Y243117D01*
X832596Y243139D01*
X832794Y243166D01*
X832992Y243198D01*
X833189Y243235D01*
X833385Y243276D01*
X833580Y243323D01*
X833774Y243374D01*
X833967Y243430D01*
X834158Y243490D01*
X834347Y243555D01*
X834535Y243625D01*
X834721Y243700D01*
X834905Y243779D01*
X835088Y243862D01*
X835268Y243950D01*
X835446Y244042D01*
X835621Y244139D01*
X835794Y244240D01*
X835965Y244345D01*
X836133Y244454D01*
X836298Y244568D01*
X836461Y244685D01*
X836620Y244806D01*
X836777Y244932D01*
X836930Y245061D01*
X837080Y245193D01*
X837227Y245330D01*
X837371Y245470D01*
X837511Y245613D01*
X837647Y245760D01*
X837780Y245910D01*
X837909Y246064D01*
X838034Y246220D01*
X838155Y246379D01*
X838273Y246542D01*
X838386Y246707D01*
X838496Y246875D01*
X838601Y247046D01*
X838702Y247219D01*
X838798Y247395D01*
X838891Y247572D01*
X838979Y247753D01*
X839062Y247935D01*
X839141Y248119D01*
X839215Y248305D01*
X839285Y248493D01*
X839351Y248682D01*
X839411Y248874D01*
X839467Y249066D01*
X839518Y249260D01*
X839564Y249455D01*
X839606Y249651D01*
X839643Y249848D01*
X839674Y250046D01*
X839701Y250244D01*
X839724Y250444D01*
X839978Y271272D01*
D21*
X614172Y15240D03*
X382016Y233172D03*
X380746Y141224D03*
X608838Y-15240D03*
X748030Y74422D03*
X660908Y-67818D03*
X679196Y-69342D03*
X383540Y284480D03*
X611378Y85598D03*
X674370Y177546D03*
X581874Y29170D03*
X583184Y-40132D03*
X610136Y-39878D03*
X632246Y-40092D03*
X610108Y24638D03*
X597154Y84582D03*
X551434Y182400D03*
X381254Y253492D03*
X576072Y142748D03*
X542036Y143256D03*
X419100Y88900D03*
X575310Y132080D03*
X541782Y129286D03*
X277876Y239268D03*
X577342Y219964D03*
X304546Y219456D03*
X718820Y200406D03*
X712978Y187452D03*
X725932Y186944D03*
X317246Y215900D03*
X306832Y207264D03*
X535940Y210820D03*
X373634Y108712D03*
X675640Y88138D03*
X662178Y92710D03*
X671576Y100838D03*
X362204Y109982D03*
X371348Y119888D03*
M02*
